<svg width="200" height="343" viewBox="0 0 200 343" fill="none" xmlns="http://www.w3.org/2000/svg">
<path d="M89.9511 28.3858C91.3969 27.0605 93.168 26.5665 95.0596 26.687C97.6258 26.8436 99.7343 27.9159 101.096 30.2051C101.023 30.3858 100.939 30.5545 100.879 30.7352C100.517 31.7473 100.252 32.8075 99.7945 33.7593C99.2764 34.8316 98.3969 35.6509 97.3367 36.2051C95.915 36.94 94.4692 36.7232 93.0837 36.1207C90.7704 35.1328 89.0475 32.0846 89.9632 29.7232C90.0836 29.4099 90.1439 29.0605 90.18 28.7232C90.1921 28.6268 90.0355 28.5063 89.9511 28.3858ZM95.4812 28.434C95.3849 28.434 95.1319 28.3979 94.8909 28.4461C94.2041 28.5786 93.7102 29.0364 93.5776 29.675C93.3126 30.928 93.6379 32.1208 95.0114 32.687C95.3728 32.8316 95.7343 32.9762 96.1198 33.0726C97.2162 33.3497 98.6379 32.1207 98.4933 30.9039C98.3849 30.0123 97.674 29.4942 97.1078 28.8918C96.6861 28.4581 96.18 28.3738 95.4812 28.434Z" fill="#E4B741"/>
<path d="M89.9513 28.3858C90.0356 28.5063 90.1923 28.6268 90.1802 28.7352C90.1441 29.0725 90.0838 29.4219 89.9633 29.7352C89.0477 32.0966 90.7826 35.1448 93.0838 36.1328C94.4694 36.7352 95.9152 36.9521 97.3368 36.2171C98.4091 35.6629 99.2766 34.8436 99.7947 33.7713C100.253 32.8075 100.53 31.7593 100.879 30.7472C100.939 30.5665 101.024 30.3978 101.096 30.2171C101.795 31.0605 102.144 32.0605 102.265 33.1328C102.12 33.2412 101.855 33.3376 101.831 33.4581C101.65 34.687 101.036 35.7472 100.506 36.8436C99.867 38.1569 98.7947 38.9039 97.4212 39.3135C96.132 39.6991 94.8067 39.675 93.5055 39.5665C92.4814 39.4822 91.5055 39.0605 90.7103 38.3858C89.4694 37.3376 88.4573 36.1207 87.9995 34.4942C87.7465 33.5906 87.5898 32.6991 87.5898 31.7713C87.879 30.2894 88.7224 29.2051 89.9513 28.3858Z" fill="#E1A737"/>
<path d="M87.5902 31.7715C87.5902 32.6993 87.7469 33.5908 87.9999 34.4944C88.4577 36.133 89.4698 37.3499 90.7107 38.386C91.5059 39.0487 92.4818 39.4824 93.5059 39.5667C94.8071 39.6752 96.1324 39.6993 97.4216 39.3137C98.7951 38.9041 99.8673 38.1571 100.506 36.8438C101.036 35.7474 101.65 34.6872 101.831 33.4583C101.855 33.3258 102.108 33.2414 102.265 33.133C102.807 36.2414 101.675 38.6872 99.2649 40.6149C98.9276 40.892 98.5541 41.1209 98.1926 41.374C97.6987 41.4101 97.277 41.5788 96.9155 41.9161C96.4336 41.9764 95.9517 42.0366 95.4577 42.0848C90.3854 42.5788 86.2288 38.1209 87.0722 33.1089C87.1565 32.639 87.1926 32.133 87.5902 31.7715Z" fill="#DB9333"/>
<path d="M96.915 41.9158C97.2765 41.5905 97.7102 41.4097 98.1921 41.3736C98.5054 42.1447 98.6741 42.976 99.2885 43.7109C99.5656 43.6507 99.903 43.6266 100.204 43.5182C100.795 43.2893 101.373 43.0001 101.963 42.7712C102.373 42.6146 102.783 42.4338 103.216 42.3615C103.987 42.2411 104.578 42.8435 104.433 43.6025C104.361 43.976 104.216 44.3736 103.999 44.6868C103.445 45.4941 102.843 46.2652 102.24 47.0362C101.975 47.3856 101.674 47.6989 101.361 48.0603C101.71 49.3375 102.385 50.4218 102.951 51.5543C102.674 51.976 102.289 52.2411 101.807 52.3856C101.301 51.3736 100.795 50.3736 100.289 49.3615C99.7584 48.3134 99.891 47.3856 100.746 46.5543C101.168 46.1447 101.529 45.6748 101.903 45.217C102.06 45.0242 102.12 44.7832 101.975 44.6266C101.734 44.3856 101.542 44.5182 101.373 44.5784C100.999 44.6989 100.626 44.8314 100.276 45.0001C99.3488 45.4218 98.2885 45.1447 97.7223 43.964C97.409 43.3013 97.1801 42.6025 96.915 41.9158Z" fill="#50495E"/>
<path d="M95.4818 28.4338C96.1806 28.3736 96.6866 28.4579 97.0962 28.8917C97.6625 29.4941 98.3733 30.0122 98.4818 30.9037C98.6263 32.1206 97.2167 33.3495 96.1083 33.0724C95.7348 32.976 95.3613 32.8435 94.9998 32.6869C93.6263 32.1085 93.301 30.9278 93.5661 29.6748C93.6986 29.0362 94.2046 28.5784 94.8793 28.4459C95.1324 28.3856 95.3854 28.4338 95.4818 28.4338Z" fill="#E9CF54"/>
<path d="M153.398 63.2771C153.566 63.3373 153.771 63.3493 153.904 63.4457C156.602 65.3373 159.229 67.3252 161.578 69.6626C164.096 72.1566 166.373 74.8313 168.349 77.771C170.289 80.6385 171.904 83.6867 173.301 86.8433C174.759 90.1445 175.964 93.5421 177.024 96.9758C177.952 99.9758 178.723 103.036 179.361 106.108C179.807 108.253 180.241 110.41 180.626 112.566C180.855 113.831 181 115.108 181.181 116.385C181.313 117.361 181.434 118.337 181.566 119.313C181.578 119.385 181.59 119.458 181.59 119.542C181.663 121.361 181.855 123.181 181.795 125C181.699 128.422 181.289 131.807 180.048 135.024C179.132 137.41 177.891 139.614 176.289 141.614C174.048 144.41 171.301 146.578 168.265 148.422C166.349 149.578 164.325 150.53 162.301 151.482C162 151.626 161.663 151.711 161.337 151.831C161.084 151.566 160.795 151.651 160.494 151.735C157.867 152.422 155.217 153.024 152.542 153.494C151.241 153.723 149.94 153.94 148.651 154.181C147.277 154.434 145.916 154.711 144.53 154.843C143.855 154.904 143.193 155.048 142.518 155.145C141.626 155.277 140.723 155.398 139.831 155.506C138.976 155.614 138.108 155.675 137.241 155.783C136.265 155.904 135.301 156.084 134.337 156.181C133.217 156.301 132.084 156.349 130.952 156.434C130.843 156.446 130.711 156.434 130.614 156.47C130.072 156.699 129.494 156.638 128.928 156.651C128.626 156.663 128.301 156.602 128.024 156.687C127.169 156.952 126.289 156.843 125.434 156.879C125.096 156.892 124.747 156.904 124.41 156.94C123.928 156.988 123.434 157.072 122.952 157.096C122.193 157.12 121.434 157.096 120.675 157.12C120.373 157.12 120.072 157.169 119.771 157.205C119.361 157.253 118.952 157.325 118.542 157.337C116.229 157.349 113.916 157.373 111.602 157.337C109.253 157.301 106.916 157.446 104.566 157.145C103.036 156.952 101.482 157.157 99.9276 156.916C98.8192 156.747 97.6746 156.879 96.5421 156.687C95.6987 156.542 94.8192 156.626 93.9517 156.47C92.9156 156.277 91.8553 156.277 90.7951 156.205C90.6385 156.193 90.4939 156.193 90.3373 156.169C89.4818 156.036 88.6264 155.855 87.771 155.771C86.1565 155.626 84.5541 155.373 82.9638 155.096C82.3373 154.988 81.6867 154.928 81.0602 154.831C79.9517 154.651 78.8312 154.458 77.7228 154.241C75.7951 153.855 73.8915 153.422 71.9638 153.036C68.8553 152.41 65.7951 151.554 62.771 150.614C60.7108 149.976 58.6746 149.253 56.6746 148.446C54.2047 147.458 51.8553 146.241 49.5662 144.879C47.5059 143.663 45.6987 142.108 43.8794 140.578C42.7108 139.602 41.759 138.41 40.8192 137.229C39.1806 135.181 37.8553 132.928 36.9397 130.458C36.1445 128.325 35.53 126.157 35.1806 123.904C35.0722 123.157 35.0963 122.385 34.9276 121.663C34.771 120.94 34.759 120.241 34.759 119.518C34.7469 118.337 34.7469 117.169 34.759 115.988C34.759 114.892 34.6867 113.783 34.7951 112.687C34.9035 111.566 35.024 110.434 35.1806 109.325C35.3734 107.904 35.6264 106.494 35.8794 105.084C36.3132 102.663 36.9879 100.301 37.759 97.9638C38.3855 96.0602 39.1204 94.1807 39.9517 92.3614C41.3011 89.3975 42.7951 86.4939 44.6385 83.7951C45.5059 82.518 46.4457 81.2771 47.3493 80.024C48.4577 78.4819 49.7108 77.0722 50.9758 75.6746C52.9517 73.4819 55.1686 71.506 57.4577 69.6505C59.0361 68.3734 60.7228 67.1927 62.3614 65.9879C62.6023 65.8072 62.8674 65.6746 63.1565 65.4939C63.4698 65.6746 63.771 65.8192 64.0481 66.012C65.6144 67.0963 67.0481 68.3252 68.1204 69.9156C68.8433 70.9758 69.6264 72.012 70.1325 73.2048C70.4939 74.0722 70.8553 74.9517 71.2168 75.8313C70.9517 75.9638 70.6867 76.1204 70.4216 76.2409C66.9638 77.6867 63.8071 79.6264 60.9758 82.0843C57.1806 85.3855 54.1445 89.2891 51.8794 93.7831C49.1324 99.2409 47.4216 105.048 46.1565 111.012C45.6505 113.422 45.1806 115.843 44.9638 118.301C44.8312 119.807 44.6746 121.325 44.5903 122.831C44.53 124.048 44.6023 125.253 44.759 126.47C44.9638 128.096 45.2891 129.687 45.8674 131.217C47.1084 134.542 49.2409 137.205 52.0481 139.349C54.3011 141.06 56.771 142.373 59.3855 143.422C62.8794 144.831 66.4818 145.867 70.1686 146.614C72.6987 147.12 75.2288 147.566 77.7951 147.807C78.6264 147.892 79.4577 147.988 80.277 148.072C81.4096 148.193 82.53 148.337 83.6626 148.434C85.6987 148.626 87.7349 148.795 89.783 148.964C91.4096 149.096 93.024 149.301 94.6505 149.313C98.7108 149.361 102.771 149.325 106.831 149.325C107.06 149.325 107.289 149.313 107.518 149.301C109.482 149.181 111.446 149.036 113.422 148.928C115.157 148.819 116.904 148.735 118.651 148.638C118.759 148.626 118.879 148.626 118.988 148.614C120.265 148.494 121.554 148.373 122.831 148.241C124.566 148.072 126.301 147.94 128.036 147.699C130.169 147.398 132.301 147.036 134.422 146.614C136.048 146.289 137.663 145.831 139.277 145.434C139.385 145.422 139.506 145.434 139.614 145.398C142.952 144.373 146.241 143.241 149.301 141.518C151.687 140.169 153.904 138.602 155.711 136.506C157.144 134.855 158.205 133 158.976 130.952C159.916 128.47 160.084 125.867 160.205 123.253C160.205 123.145 160.205 123.024 160.193 122.916C160.06 121.41 159.976 119.892 159.795 118.398C159.578 116.602 159.325 114.795 159 113.012C158.542 110.518 157.976 108.048 157.289 105.602C156.06 101.169 154.542 96.8554 152.361 92.7951C150.916 90.1204 149.205 87.6265 147.157 85.3614C144.626 82.5662 141.759 80.1566 138.482 78.265C137.144 77.4939 135.783 76.7349 134.301 76.2409C134.217 76.1686 134.132 76.0843 134.048 76.012C134.193 75.9036 134.397 75.8313 134.47 75.6987C134.602 75.4337 134.663 75.1325 134.771 74.8433C135.132 73.9397 135.434 72.9879 135.891 72.1325C136.916 70.2409 138.181 68.5421 139.819 67.0963C141.59 65.5421 143.518 64.253 145.723 63.4096C146.602 63.0722 147.506 62.7951 148.361 62.4216C148.891 62.1807 149.422 62.0602 150 62.0722C150.349 62.1807 150.699 62.2891 151.048 62.3975C151.217 62.4457 151.397 62.4939 151.578 62.5421C152.144 62.9036 152.723 63.2168 153.398 63.2771ZM170.47 94.8795C170.59 93.9759 170.422 92.9999 170.157 92.0602C169.373 89.3252 168.229 86.7349 166.687 84.3252C165.337 82.2168 163.867 80.2048 162.193 78.3493C160.47 76.4337 158.566 74.6987 156.506 73.1325C155.205 72.1445 153.855 71.2289 152.361 70.5903C151.217 70.0963 150.048 69.7108 148.759 70.0843C148.048 70.2891 147.59 70.6626 147.361 71.4096C147.169 72.0361 147.385 72.5421 147.651 73.024C147.879 73.4457 148.205 73.8313 148.542 74.1927C149.108 74.8072 149.711 75.3855 150.301 75.9638C151.349 76.9999 152.301 78.1445 153.132 79.3614C155.313 82.5421 157.265 85.8674 158.879 89.3975C159.699 91.1807 160.458 92.9999 161.47 94.6987C162.313 96.1084 163.253 97.4096 164.434 98.5421C165.096 99.1686 165.891 99.4939 166.759 99.6626C167.651 99.8313 168.47 99.6264 169.132 98.9156C169.614 98.4096 169.964 97.8433 170.229 97.2048C170.518 96.4939 170.506 95.7349 170.47 94.8795ZM167.289 103.458C167.193 104.783 167.687 105.831 168.675 106.675C169.795 107.626 171.446 107.41 172.241 106.169C172.638 105.542 172.783 104.867 172.759 104.12C172.723 102.807 172.205 101.831 171.096 101.084C169.904 100.289 168.663 100.771 167.891 101.482C167.313 102.036 167.229 102.735 167.289 103.458Z" fill="#58ACAF"/>
<path d="M71.2046 75.8193C70.8432 74.9398 70.4938 74.0723 70.1203 73.1928C69.6143 72 68.8311 70.9639 68.1082 69.9036C67.0239 68.3253 65.6022 67.0843 64.0359 66C63.7588 65.8072 63.4576 65.6627 63.1444 65.4819C62.8552 65.6627 62.5902 65.7952 62.3492 65.9759C60.7106 67.1928 59.0359 68.3614 57.4456 69.6386C55.1444 71.494 52.9396 73.4699 50.9636 75.6627C49.6986 77.0602 48.4456 78.4819 47.3371 80.0121C46.4335 81.2651 45.4938 82.506 44.6263 83.7831C42.7829 86.4819 41.2889 89.3855 39.9396 92.3494C39.1082 94.1687 38.3853 96.0482 37.7468 97.9518C36.9757 100.277 36.301 102.651 35.8673 105.072C35.6143 106.482 35.3612 107.892 35.1685 109.313C35.0118 110.434 34.8914 111.554 34.7829 112.675C34.6745 113.771 34.7468 114.88 34.7468 115.976C34.7468 117.157 34.7468 118.325 34.7468 119.506C34.7588 120.229 34.7588 120.928 34.9155 121.651C35.0721 122.373 35.048 123.145 35.1685 123.892C35.5058 126.145 36.1323 128.325 36.9275 130.446C37.8432 132.916 39.1564 135.181 40.807 137.217C41.7468 138.398 42.7106 139.59 43.8673 140.566C45.6865 142.096 47.5058 143.651 49.554 144.867C51.8311 146.217 54.1926 147.434 56.6624 148.434C58.6624 149.241 60.6986 149.964 62.7588 150.602C65.795 151.542 68.8432 152.386 71.9516 153.024C73.8673 153.41 75.7829 153.843 77.7106 154.229C78.8191 154.446 79.9275 154.639 81.048 154.819C81.6745 154.928 82.3251 154.976 82.9516 155.084C84.542 155.361 86.1444 155.614 87.7588 155.759C88.6143 155.831 89.4697 156.024 90.3251 156.157C90.4697 156.181 90.6263 156.181 90.7829 156.193C91.8311 156.277 92.9034 156.277 93.9396 156.458C94.807 156.614 95.6866 156.53 96.5299 156.675C97.6625 156.867 98.807 156.735 99.9155 156.904C101.47 157.145 103.024 156.94 104.554 157.133C106.903 157.434 109.241 157.289 111.59 157.325C113.903 157.361 116.217 157.337 118.53 157.325C118.94 157.325 119.349 157.241 119.759 157.193C120.06 157.157 120.361 157.12 120.662 157.108C121.421 157.096 122.181 157.12 122.94 157.084C123.421 157.06 123.915 156.976 124.397 156.928C124.735 156.892 125.072 156.88 125.421 156.867C126.289 156.831 127.156 156.94 128.012 156.675C128.289 156.59 128.614 156.651 128.915 156.639C129.482 156.627 130.06 156.687 130.602 156.458C130.699 156.422 130.831 156.422 130.94 156.422C132.072 156.337 133.205 156.289 134.325 156.169C135.301 156.072 136.265 155.892 137.229 155.771C138.084 155.663 138.952 155.602 139.819 155.494C140.711 155.386 141.614 155.265 142.506 155.133C143.181 155.036 143.843 154.892 144.518 154.831C145.903 154.699 147.277 154.422 148.638 154.169C149.94 153.928 151.229 153.699 152.53 153.482C155.205 153.012 157.855 152.41 160.482 151.723C160.783 151.639 161.072 151.554 161.325 151.819C159.867 152.361 158.421 152.94 156.952 153.434C152.783 154.855 148.506 155.88 144.181 156.651C141.566 157.12 138.952 157.53 136.313 157.807C134.132 158.036 131.94 158.277 129.759 158.482C127.867 158.663 125.988 158.807 124.096 158.94C121.747 159.108 119.409 159.217 117.06 159.41C114.144 159.651 111.229 159.735 108.313 159.88C103.687 160.12 99.06 160.072 94.4335 160C92.2046 159.964 89.9637 159.771 87.7347 159.639C86.6745 159.578 85.6143 159.494 84.5661 159.386C83.1685 159.253 81.7829 159.084 80.3853 158.94C79.4817 158.855 78.5781 158.783 77.6624 158.711C76.3733 158.614 75.0962 158.53 73.807 158.422C72.795 158.325 71.7709 158.193 70.7588 158.072C69.9636 157.976 69.1805 157.88 68.3853 157.795C62.9516 157.205 57.5902 156.229 52.313 154.795C47.9877 153.627 43.7588 152.169 39.7347 150.181C36.2167 148.434 32.9396 146.325 30.1564 143.506C26.9877 140.289 24.8673 136.506 23.807 132.12C23.3853 130.386 23.1082 128.627 23.06 126.843C23.048 126.084 22.9034 125.325 22.9275 124.578C22.9757 122.602 23.0841 120.639 23.2769 118.675C23.6143 115.084 24.2167 111.542 24.9396 108.012C26.3492 101.12 28.2408 94.3735 30.9637 87.8795C32.3612 84.5422 34.0118 81.3494 35.9877 78.3253C38.5902 74.3253 41.7227 70.7711 45.301 67.6145C47.554 65.6265 49.9998 63.9036 52.5902 62.3735C53.0118 62.1205 53.4456 61.8916 53.8673 61.6627C54.0118 61.6867 54.1564 61.759 54.289 61.7349C55.3371 61.5663 56.3612 61.2892 57.4094 61.2048C61.06 60.8795 64.5781 61.4096 67.9034 63C70.4094 64.2048 72.3492 65.988 73.4817 68.5663C74.3251 70.4819 74.8673 72.4819 75.2407 74.5301C74.6986 74.6747 74.1564 74.7952 73.6143 74.9639C72.8311 75.2651 72.0239 75.5422 71.2046 75.8193Z" fill="#3D9F9F"/>
<path d="M151.579 62.5782C151.398 62.53 151.23 62.4818 151.049 62.4336C150.699 62.3252 150.35 62.2168 150.001 62.1083C149.904 62.0481 149.82 61.9517 149.711 61.9397C148.001 61.5662 146.29 61.3854 144.531 61.3975C142.374 61.4095 140.326 61.8674 138.338 62.6385C136.832 63.2168 135.519 64.1204 134.434 65.3131C133.314 66.5541 132.422 67.9637 131.76 69.5059C131.025 71.2168 130.675 73.036 130.193 74.8312C129.736 76.6987 129.314 78.5662 128.796 80.4095C128.254 82.3372 127.471 84.1686 126.302 85.8071C126.061 85.5782 125.868 85.7951 125.699 85.9035C123.928 87.0722 122.037 88.024 120.061 88.8192C118.591 89.4216 117.097 89.9758 115.555 90.3372C113.94 90.7107 112.326 91.0722 110.687 91.3252C109.085 91.5782 107.483 91.7951 105.844 91.7469C105.242 91.7348 104.627 91.7469 104.025 91.7469C103.386 91.7469 102.748 91.7589 102.109 91.5662C101.615 91.4095 101.073 91.3734 100.555 91.3011C98.3259 91.0119 96.2296 90.2529 94.1934 89.3493C92.8802 88.7589 91.6874 87.9637 90.5187 87.1083C89.1091 86.0963 88.1814 84.7469 87.4585 83.2409C86.6994 81.6505 86.4344 79.9276 86.2537 78.2047C86.1452 77.1565 85.8681 76.1204 85.9886 75.0481C86.0006 74.9035 85.9524 74.7469 85.9404 74.6023C85.8801 74.1565 85.8199 73.7107 85.7717 73.2529C85.7476 72.9878 85.7717 72.7228 85.7356 72.4577C85.6151 71.6746 85.4344 70.9035 85.3259 70.1204C84.9886 67.5059 84.2175 65.024 82.9765 62.6987C82.2657 61.3613 81.4344 60.0963 80.3139 59.0481C79.6994 58.4818 79.1211 57.8794 78.5428 57.277C77.603 56.3252 76.4464 55.6625 75.3741 54.9035C75.2898 54.8433 75.1573 54.8433 75.0488 54.8192C76.085 54.6023 77.1091 54.3613 78.1573 54.1927C82.3139 53.518 86.4826 53.024 90.6753 52.7228C96.7717 52.277 102.868 52.2288 108.964 52.4336C113.362 52.5782 117.736 52.9156 122.097 53.518C128.037 54.3252 133.904 55.4457 139.651 57.1324C143.362 58.2288 146.977 59.5903 150.386 61.4336C150.844 61.6866 151.35 61.8674 151.699 62.3011C151.76 62.3734 151.916 62.3493 152.025 62.3734C151.868 62.4336 151.724 62.5059 151.579 62.5782ZM101.025 67.1083C100.663 67.1806 100.278 67.2168 99.9283 67.3493C98.5789 67.8553 97.5187 68.7469 96.6633 69.9035C95.1091 72.024 94.4464 74.4577 94.2295 77.0119C94.0609 78.9878 94.3018 80.9517 94.8801 82.8553C95.4946 84.8915 96.4946 86.6987 98.1452 88.0842C99.591 89.289 101.218 89.8674 103.097 89.4457C104.88 89.0481 106.266 88.0722 107.23 86.5059C107.35 86.3613 107.495 86.2409 107.591 86.0842C108.868 84.1445 109.446 81.9517 109.639 79.6746C109.748 78.3613 109.699 77.036 109.483 75.7228C109.085 73.3613 108.242 71.2168 106.699 69.3734C105.531 67.9758 104.025 67.1686 102.23 66.9517C101.832 66.9035 101.398 66.8312 101.025 67.1083ZM117.338 56.4095C116.808 56.4095 116.278 56.3854 115.748 56.4095C114.784 56.4698 113.868 56.7228 113.109 57.3252C112.145 58.0722 111.844 59.2047 112.82 60.1445C113.29 60.6023 113.808 60.9637 114.41 61.2047C116.856 62.1806 119.422 62.6023 122.025 62.7951C122.362 62.8192 122.736 62.7469 123.037 62.8433C124.037 63.1686 124.989 62.6987 125.964 62.7589C127.242 62.3734 127.82 61.8794 127.675 60.5059C127.603 59.9035 127.254 59.4457 126.784 59.1083C126.362 58.7951 125.916 58.4939 125.446 58.265C122.892 56.9758 120.181 56.4095 117.338 56.4095ZM126.471 68.0119C127.001 67.9276 127.495 67.9397 127.88 67.7469C128.928 67.2168 129.458 66.518 128.434 65.4818C128.35 65.3975 128.278 65.3131 128.181 65.265C127.145 64.7469 126.061 64.4818 124.916 64.9035C124.025 65.2409 123.639 66.2529 124.133 67.024C124.314 67.2891 124.603 67.5421 124.904 67.6505C125.434 67.8312 126.001 67.9035 126.471 68.0119Z" fill="#58ACAF"/>
<path d="M75.0489 54.8073C75.1573 54.8313 75.2898 54.8313 75.3742 54.8916C76.4465 55.6506 77.6031 56.3133 78.5428 57.2651C79.1332 57.8554 79.7115 58.4579 80.3139 59.0362C81.4344 60.0844 82.2657 61.3494 82.9766 62.6868C84.2176 65.0121 84.9886 67.494 85.326 70.1085C85.4344 70.8916 85.6031 71.6627 85.7356 72.4458C85.7718 72.7109 85.7477 72.9759 85.7718 73.241C85.82 73.6868 85.8802 74.1326 85.9404 74.5904C85.9645 74.735 86.0127 74.8916 85.9886 75.0362C85.8682 76.1085 86.1453 77.1446 86.2537 78.1928C86.4224 79.9157 86.6995 81.6506 87.4585 83.2289C88.1814 84.747 89.1091 86.0844 90.5188 87.0964C91.6874 87.9398 92.8802 88.747 94.1935 89.3374C96.2296 90.253 98.326 91 100.555 91.2892C101.073 91.3615 101.615 91.3976 102.109 91.5542C102.748 91.747 103.374 91.735 104.025 91.735C104.627 91.735 105.242 91.7229 105.844 91.735C107.471 91.7832 109.073 91.5663 110.687 91.3133C112.326 91.0603 113.952 90.6988 115.555 90.3253C117.109 89.9639 118.591 89.4097 120.061 88.8073C122.025 88 123.916 87.0603 125.699 85.8916C125.868 85.7831 126.061 85.5783 126.302 85.7952C126.049 86.2169 125.832 86.6627 125.531 87.0482C123.904 89.1085 121.916 90.7229 119.507 91.7591C115.784 93.3735 111.892 94.2651 107.868 94.6627C105.41 94.9036 102.952 94.9398 100.495 94.735C97.2416 94.4579 94.0248 93.9398 90.8922 93.0241C88.1934 92.241 85.6031 91.1687 83.2417 89.6024C80.9043 88.0482 79.1453 86.0241 77.9886 83.4699C77.2417 81.8073 76.6513 80.0844 76.2055 78.3253C75.8922 77.0723 75.591 75.8193 75.2778 74.5783C74.9043 72.5301 74.3501 70.5301 73.5188 68.6145C72.3862 66.0241 70.4465 64.253 67.9404 63.0482C64.6151 61.4579 61.0971 60.9277 57.4465 61.253C56.3983 61.3494 55.3621 61.6145 54.326 61.7832C54.1935 61.8072 54.0489 61.735 53.9043 61.7109C56.9043 60 60.1091 58.747 63.3742 57.6627C67.0007 56.4699 70.7236 55.6145 74.4706 54.8554C74.6633 54.8193 74.8561 54.8193 75.0489 54.8073Z" fill="#1B8686"/>
<path d="M151.578 62.5785C151.723 62.5062 151.879 62.4339 152.024 62.3737C152.554 62.5785 153.06 62.8074 153.397 63.2893C152.723 63.217 152.144 62.9038 151.578 62.5785Z" fill="#3D9F9F"/>
<path d="M134.289 76.2648C135.771 76.7587 137.121 77.5178 138.47 78.2889C141.747 80.1804 144.615 82.578 147.145 85.3853C149.181 87.6383 150.904 90.1322 152.35 92.819C154.542 96.8792 156.049 101.192 157.277 105.626C157.952 108.072 158.53 110.542 158.988 113.036C159.314 114.819 159.567 116.626 159.783 118.421C159.964 119.927 160.049 121.433 160.181 122.939C160.193 123.048 160.193 123.168 160.193 123.277C160.073 125.891 159.904 128.494 158.964 130.976C158.193 133.024 157.133 134.867 155.699 136.53C153.88 138.626 151.675 140.192 149.289 141.542C146.229 143.265 142.94 144.385 139.603 145.421C139.494 145.458 139.374 145.445 139.265 145.458C139.133 145.409 138.988 145.313 138.856 145.325C138.639 145.349 138.422 145.482 138.205 145.494C136.844 145.518 135.53 145.927 134.169 146.024C132.892 146.108 131.639 146.421 130.35 146.433C130.241 146.433 130.109 146.421 130.012 146.47C129.386 146.711 128.747 146.65 128.097 146.662C127.868 146.662 127.627 146.638 127.422 146.711C126.868 146.927 126.302 146.867 125.735 146.879C125.47 146.891 125.193 146.831 124.94 146.903C123.892 147.205 122.832 147.072 121.771 147.108C121.506 147.12 121.241 147.144 120.976 147.168C120.494 147.217 120 147.301 119.518 147.325C118.687 147.349 117.844 147.325 117.012 147.349C116.711 147.349 116.41 147.397 116.109 147.433C115.735 147.47 115.362 147.554 114.988 147.554C110.699 147.566 106.41 147.566 102.133 147.554C101.868 147.554 101.579 147.602 101.338 147.518C100.591 147.277 99.8316 147.349 99.0847 147.325C98.7835 147.313 98.4702 147.337 98.181 147.301C97.1328 147.168 96.0967 146.976 95.0485 146.903C93.5786 146.795 92.1449 146.482 90.6991 146.229C87.8678 145.723 85.0846 145.012 82.3618 144.12C78.8316 142.964 75.3738 141.674 72.1208 139.843C70.2413 138.783 68.41 137.638 66.6991 136.325C65.4099 135.337 64.1449 134.313 63.0365 133.108C62.6509 132.686 62.3256 132.229 61.9401 131.807C60.9642 130.735 60.2051 129.518 59.5063 128.253C58.9883 127.313 58.6871 126.301 58.3618 125.289C57.8437 123.662 57.5304 122 57.5304 120.277C57.5304 119.06 57.5304 117.843 57.5304 116.638C57.5304 116.373 57.5063 116.108 57.5545 115.843C57.7594 114.506 57.9883 113.168 58.2051 111.831C58.5545 109.699 59.181 107.626 59.8798 105.602C60.7714 102.988 61.8919 100.458 63.181 97.9997C63.4822 97.4334 63.8075 96.8792 64.1328 96.313C64.6389 95.4334 65.1328 94.5298 65.6871 93.6744C67.0847 91.5178 68.5063 89.3853 70.1449 87.3853C71.0485 86.2648 71.9521 85.1563 72.9883 84.1563C73.1087 84.0359 73.2774 83.9636 73.4581 83.831C73.5666 84.0359 73.6509 84.1563 73.6991 84.3009C74.2774 85.7949 74.9883 87.2286 75.9039 88.5178C76.9521 89.9877 78.0846 91.3973 79.5545 92.5298C81.1208 93.7467 82.7593 94.831 84.5425 95.6624C86.7714 96.6865 89.0485 97.6383 91.4461 98.2407C93.3497 98.7226 95.2413 99.2286 97.2172 99.2889C97.3738 99.2889 97.5304 99.2889 97.663 99.3371C98.169 99.5539 98.7112 99.4816 99.2413 99.5057C100.302 99.566 101.362 99.3732 102.41 99.6744C102.506 99.6985 102.639 99.6985 102.747 99.6503C103.302 99.4335 103.868 99.5298 104.434 99.5057C105.157 99.4816 105.88 99.5539 106.591 99.4575C107.976 99.2889 109.35 99.06 110.723 98.8069C112.916 98.3853 115.085 97.9154 117.157 97.0359C117.675 96.819 118.193 96.566 118.723 96.3732C121.398 95.3732 123.651 93.7467 125.687 91.7949C126.229 91.2768 126.699 90.6744 127.181 90.0961C127.687 89.4816 128.193 88.8792 128.651 88.2286C130.133 86.1081 131.386 83.8672 132.446 81.5178C133.049 80.1804 133.555 78.7828 134.085 77.4093C134.205 77.0238 134.217 76.6383 134.289 76.2648ZM156.362 122.241C156.386 121.12 156.145 120.06 155.759 119.024C155.603 118.602 155.398 118.192 155.145 117.819C154.205 116.433 152.012 116.445 151.181 117.518C150.976 117.783 150.747 118.048 150.579 118.337C150.097 119.12 149.82 120 149.579 120.867C149.205 122.217 148.711 123.53 148.253 124.855C147.627 126.686 146.47 128.12 145.024 129.313C143.675 130.433 142.47 131.686 141.253 132.939C140.362 133.867 139.832 134.988 139.94 136.337C140.012 137.313 140.434 138.096 141.241 138.626C142.302 139.325 143.494 139.53 144.735 139.313C146.085 139.072 147.326 138.506 148.494 137.771C149.41 137.205 150.085 136.373 150.856 135.638C152.338 134.229 153.326 132.47 154.169 130.65C154.844 129.217 155.41 127.723 155.747 126.156C156.061 124.867 156.35 123.578 156.362 122.241ZM131.314 138.735C131.205 139.964 131.88 140.674 132.795 141.241C133.615 141.747 134.422 141.771 135.253 141.253C135.603 141.036 135.976 140.831 136.302 140.59C137.097 139.988 137.555 139.241 137.494 138.168C137.434 137.241 137.061 136.59 136.277 136.144C135.085 135.445 133.868 135.494 132.759 136.265C131.916 136.855 131.157 137.566 131.314 138.735Z" fill="#D5E7EC"/>
<path d="M134.29 76.265C134.217 76.6385 134.193 77.024 134.061 77.3734C133.543 78.7469 133.037 80.1445 132.422 81.4819C131.362 83.8313 130.097 86.0843 128.627 88.1927C128.169 88.8433 127.663 89.4578 127.157 90.0602C126.675 90.6385 126.205 91.2409 125.663 91.759C123.627 93.7108 121.362 95.3373 118.699 96.3373C118.169 96.5301 117.651 96.7831 117.133 96.9999C115.073 97.8794 112.892 98.3493 110.699 98.771C109.326 99.0361 107.952 99.2529 106.567 99.4216C105.856 99.506 105.133 99.4457 104.41 99.4698C103.844 99.4819 103.266 99.3855 102.724 99.6144C102.627 99.6505 102.495 99.6626 102.386 99.6385C101.338 99.3373 100.278 99.5301 99.2175 99.4698C98.6874 99.4457 98.1572 99.518 97.6392 99.3011C97.5066 99.2409 97.3379 99.2529 97.1934 99.2529C95.2175 99.1927 93.3139 98.6867 91.4223 98.2048C89.0247 97.6023 86.7476 96.6626 84.5187 95.6264C82.7355 94.8072 81.097 93.7108 79.5307 92.4939C78.0609 91.3614 76.9283 89.9517 75.8801 88.4819C74.9645 87.1927 74.2416 85.759 73.6753 84.265C73.6271 84.1325 73.5428 84.012 73.4343 83.7951C73.2416 83.9156 73.0849 83.9999 72.9645 84.1204C71.9283 85.1204 71.0247 86.2409 70.1211 87.3493C68.4946 89.3493 67.0609 91.4819 65.6633 93.6385C65.109 94.4939 64.6271 95.3975 64.109 96.277C63.7837 96.8313 63.4584 97.3855 63.1572 97.9638C61.8681 100.41 60.7476 102.952 59.856 105.566C59.1572 107.602 58.5428 109.663 58.1813 111.795C57.9645 113.132 57.7356 114.47 57.5307 115.807C57.4946 116.072 57.5066 116.337 57.5066 116.602C57.5066 117.819 57.5066 119.036 57.5066 120.241C57.5066 121.952 57.8199 123.614 58.338 125.253C58.6633 126.265 58.9645 127.277 59.4825 128.217C60.1813 129.482 60.9404 130.687 61.9163 131.771C62.2898 132.193 62.6271 132.651 63.0127 133.072C64.1211 134.277 65.3861 135.301 66.6753 136.289C68.3861 137.602 70.2175 138.747 72.097 139.807C75.35 141.638 78.8199 142.928 82.338 144.084C85.0729 144.976 87.844 145.675 90.6753 146.193C92.1211 146.458 93.5548 146.771 95.0247 146.867C96.0729 146.94 97.109 147.145 98.1572 147.265C98.4584 147.301 98.7596 147.289 99.0608 147.289C99.8199 147.313 100.579 147.229 101.314 147.482C101.555 147.566 101.844 147.518 102.109 147.518C106.398 147.518 110.687 147.518 114.964 147.518C115.338 147.518 115.711 147.434 116.085 147.398C116.386 147.361 116.687 147.313 116.989 147.313C117.82 147.301 118.663 147.325 119.495 147.289C119.977 147.277 120.47 147.193 120.952 147.132C121.217 147.108 121.483 147.084 121.748 147.072C122.808 147.036 123.868 147.157 124.916 146.867C125.157 146.795 125.446 146.855 125.711 146.843C126.278 146.831 126.844 146.892 127.398 146.675C127.603 146.602 127.844 146.626 128.073 146.626C128.711 146.614 129.362 146.675 129.989 146.434C130.085 146.398 130.217 146.398 130.326 146.398C131.615 146.385 132.868 146.072 134.145 145.988C135.507 145.892 136.82 145.482 138.181 145.458C138.398 145.458 138.615 145.313 138.832 145.289C138.964 145.277 139.109 145.373 139.242 145.422C137.627 145.819 136.013 146.277 134.386 146.602C132.266 147.024 130.133 147.385 128.001 147.687C126.278 147.928 124.531 148.06 122.796 148.229C121.519 148.361 120.23 148.482 118.952 148.602C118.844 148.614 118.723 148.626 118.615 148.626C116.868 148.723 115.133 148.807 113.386 148.916C111.422 149.036 109.458 149.169 107.483 149.289C107.254 149.301 107.025 149.313 106.796 149.313C102.736 149.313 98.6753 149.349 94.6151 149.301C92.9885 149.277 91.3621 149.084 89.7476 148.952C87.7114 148.783 85.6753 148.614 83.6271 148.422C82.4946 148.313 81.3621 148.181 80.2416 148.06C79.4102 147.976 78.591 147.867 77.7596 147.795C75.1934 147.554 72.6512 147.108 70.1331 146.602C66.4464 145.867 62.844 144.819 59.35 143.41C56.7355 142.361 54.2657 141.048 52.0127 139.337C49.1934 137.205 47.0729 134.542 45.8319 131.205C45.2536 129.675 44.9283 128.084 44.7235 126.458C44.5789 125.253 44.4946 124.036 44.5548 122.819C44.6392 121.301 44.7837 119.795 44.9283 118.289C45.1452 115.831 45.6151 113.41 46.1211 111C47.3741 105.048 49.097 99.2288 51.844 93.771C54.097 89.277 57.1452 85.3734 60.9404 82.0722C63.7717 79.6144 66.9283 77.6746 70.3861 76.2288C70.6633 76.1084 70.9163 75.9517 71.1813 75.8192C72.0006 75.5421 72.8078 75.265 73.6271 75.012C74.1572 74.8433 74.7115 74.7228 75.2536 74.5782C75.5548 75.8313 75.856 77.0843 76.1813 78.3252C76.6271 80.0963 77.2175 81.8072 77.9645 83.4698C79.1211 86.0361 80.8801 88.0481 83.2175 89.6023C85.5789 91.1686 88.1572 92.2409 90.8681 93.024C94.0006 93.9397 97.2175 94.4578 100.47 94.7349C102.94 94.9397 105.398 94.9036 107.844 94.6626C111.868 94.265 115.76 93.3734 119.483 91.759C121.892 90.7108 123.88 89.0963 125.507 87.0481C125.808 86.6626 126.025 86.2168 126.278 85.7951C127.446 84.1566 128.23 82.3252 128.772 80.3975C129.29 78.5541 129.711 76.6746 130.169 74.8192C130.711 74.9638 131.254 75.0843 131.784 75.2529C132.531 75.4939 133.266 75.771 134.001 76.024C134.121 76.1084 134.205 76.1927 134.29 76.265Z" fill="#B8D7CF"/>
<path d="M170.47 94.8795C170.507 95.735 170.519 96.494 170.217 97.2169C169.952 97.8554 169.603 98.4096 169.121 98.9277C168.446 99.6506 167.639 99.8434 166.747 99.6747C165.892 99.5181 165.085 99.1807 164.422 98.5542C163.229 97.4217 162.302 96.1205 161.458 94.7108C160.446 93.0121 159.687 91.1928 158.868 89.4096C157.266 85.8795 155.302 82.5663 153.121 79.3735C152.29 78.1566 151.35 77.0241 150.29 75.9759C149.699 75.3855 149.097 74.8072 148.531 74.2048C148.193 73.8434 147.868 73.4699 147.639 73.0361C147.386 72.5422 147.169 72.0482 147.35 71.4217C147.579 70.6747 148.037 70.3012 148.747 70.0964C150.037 69.7229 151.205 70.1084 152.35 70.6024C153.856 71.253 155.205 72.1687 156.494 73.1446C158.555 74.6988 160.446 76.4458 162.181 78.3614C163.856 80.2169 165.326 82.2289 166.675 84.3374C168.217 86.747 169.362 89.3374 170.145 92.0723C170.422 93 170.591 93.9759 170.47 94.8795Z" fill="#9FD5D8"/>
<path d="M134.036 76.0362C133.301 75.7712 132.567 75.5061 131.82 75.2651C131.289 75.0965 130.747 74.976 130.205 74.8314C130.687 73.0483 131.036 71.229 131.771 69.5061C132.434 67.9519 133.326 66.5543 134.446 65.3133C135.53 64.1206 136.844 63.2169 138.35 62.6386C140.338 61.8675 142.386 61.4097 144.542 61.3977C146.301 61.3856 148.012 61.5663 149.723 61.9398C149.832 61.9639 149.916 62.0603 150.012 62.1085C149.434 62.0965 148.916 62.2169 148.374 62.4579C147.518 62.8434 146.615 63.1085 145.735 63.4459C143.53 64.2892 141.603 65.5784 139.832 67.1326C138.193 68.5784 136.928 70.2772 135.904 72.1687C135.434 73.0242 135.145 73.976 134.783 74.8796C134.675 75.1567 134.627 75.4699 134.482 75.735C134.386 75.8675 134.181 75.9398 134.036 76.0362Z" fill="#3D9F9F"/>
<path d="M167.29 103.458C167.218 102.735 167.314 102.036 167.893 101.494C168.652 100.783 169.905 100.301 171.098 101.096C172.206 101.831 172.724 102.819 172.76 104.133C172.784 104.88 172.64 105.554 172.242 106.181C171.447 107.41 169.784 107.639 168.676 106.687C167.688 105.831 167.194 104.795 167.29 103.458Z" fill="#9FD5D8"/>
<path d="M117.337 56.4096C120.181 56.3975 122.892 56.9638 125.434 58.253C125.904 58.4939 126.35 58.7831 126.771 59.0963C127.229 59.4457 127.591 59.8915 127.663 60.4939C127.819 61.8674 127.241 62.3734 125.952 62.7469C124.976 62.6867 124.024 63.1566 123.024 62.8313C122.711 62.7349 122.35 62.8072 122.012 62.7831C119.41 62.5903 116.844 62.1686 114.398 61.1927C113.795 60.9518 113.277 60.5903 112.807 60.1325C111.844 59.1807 112.145 58.0602 113.097 57.3132C113.856 56.7228 114.771 56.4578 115.735 56.3975C116.277 56.3855 116.807 56.4096 117.337 56.4096Z" fill="#9FD5D8"/>
<path d="M126.469 68.0123C126 67.9038 125.433 67.8315 124.903 67.6388C124.602 67.5303 124.301 67.2894 124.132 67.0123C123.626 66.2412 124.012 65.2291 124.915 64.8918C126.06 64.4701 127.132 64.7351 128.18 65.2532C128.277 65.3014 128.361 65.3978 128.433 65.4701C129.469 66.5062 128.939 67.205 127.879 67.7352C127.493 67.94 127 67.9159 126.469 68.0123Z" fill="#9FD5D8"/>
<path d="M156.362 122.241C156.35 123.578 156.049 124.867 155.771 126.157C155.422 127.711 154.856 129.205 154.193 130.651C153.35 132.47 152.362 134.229 150.88 135.639C150.109 136.361 149.434 137.193 148.518 137.771C147.35 138.506 146.109 139.072 144.759 139.313C143.53 139.53 142.326 139.325 141.265 138.626C140.458 138.096 140.049 137.313 139.964 136.337C139.856 134.988 140.386 133.867 141.277 132.94C142.494 131.687 143.699 130.446 145.049 129.313C146.482 128.12 147.639 126.687 148.277 124.855C148.735 123.53 149.229 122.229 149.603 120.867C149.844 119.988 150.121 119.12 150.603 118.337C150.783 118.048 151 117.783 151.205 117.518C152.036 116.446 154.229 116.434 155.169 117.819C155.422 118.193 155.627 118.602 155.783 119.024C156.157 120.06 156.398 121.12 156.362 122.241Z" fill="white"/>
<path d="M131.314 138.735C131.157 137.578 131.916 136.856 132.759 136.265C133.868 135.494 135.085 135.446 136.277 136.145C137.049 136.591 137.434 137.241 137.494 138.169C137.555 139.241 137.097 139.988 136.302 140.591C135.976 140.844 135.603 141.036 135.253 141.253C134.434 141.771 133.627 141.735 132.796 141.241C131.88 140.663 131.205 139.952 131.314 138.735Z" fill="white"/>
<path d="M102.686 90.3735C107.95 90.3735 112.216 84.127 112.216 76.4217C112.216 68.7163 107.95 62.4698 102.686 62.4698C97.423 62.4698 93.1562 68.7163 93.1562 76.4217C93.1562 84.127 97.423 90.3735 102.686 90.3735Z" fill="#58ACAF"/>
<path d="M118.578 86.024C119.157 85.5179 119.831 85.5782 120.494 85.7469C120.831 85.8312 121.157 85.9878 121.482 86.1445C124.193 87.4336 126.904 88.7348 129.602 90.024C130.217 90.3131 130.831 90.6023 131.422 90.9396C131.807 91.1565 132.193 91.4216 132.53 91.7228C133.626 92.7107 134.06 93.9276 133.711 95.3854C133.494 95.4577 133.289 95.542 133.072 95.6143C132.735 95.7228 132.41 95.9035 132.06 95.9276C130.831 96.0119 129.614 95.9878 128.422 95.6264C126.651 95.0963 124.952 94.4216 123.325 93.542C122.217 92.9517 121.169 92.277 120.277 91.3493C119.132 90.1686 118.518 88.8312 118.578 87.1806C118.59 86.7951 118.578 86.4095 118.578 86.024Z" fill="#5FA191"/>
<path d="M118.578 86.024C118.578 86.4096 118.59 86.7951 118.578 87.1927C118.518 88.8433 119.133 90.1807 120.277 91.3614C121.169 92.2891 122.217 92.9638 123.325 93.5542C124.952 94.4216 126.663 95.0963 128.422 95.6385C129.615 96 130.831 96.0241 132.06 95.9397C132.398 95.9156 132.735 95.7349 133.072 95.6265C133.289 95.5542 133.494 95.4698 133.711 95.3975C133.651 96.2048 133.289 96.8795 132.795 97.4939C132.193 98.2409 131.398 98.6265 130.446 98.6988C129.53 98.759 128.639 98.6385 127.759 98.3975C126.542 98.0602 125.362 97.6265 124.205 97.1084C122.518 96.3614 120.88 95.518 119.325 94.518C118.699 94.1084 118.121 93.6506 117.615 93.0963C116.663 92.0361 116.325 90.8072 116.554 89.4096C116.699 88.5301 117.012 87.7228 117.53 87C117.795 86.5783 118.072 86.1686 118.578 86.024Z" fill="#538A8A"/>
<path d="M68.6509 94.1689C69.0726 93.5785 69.7232 93.3375 70.3738 93.1568C71.2413 92.9159 72.1329 92.7351 73.0244 92.5665C75.1811 92.1689 77.3497 91.7954 79.5184 91.3978C80.2774 91.2532 81.0365 91.0845 81.7955 90.9159C83.928 90.446 84.9883 91.5183 85.4341 93.1689C85.5666 93.6749 85.6509 94.1809 85.5786 94.699C84.7473 95.3616 83.9039 96.0002 82.9521 96.5062C81.2533 97.4098 79.4461 97.9881 77.5786 98.3496C76.5666 98.5424 75.5425 98.6628 74.5184 98.7592C73.3859 98.8677 72.2654 98.6387 71.1811 98.3375C70.0726 98.0363 69.2533 97.3616 68.9039 96.1689C68.6991 95.5062 68.6268 94.8556 68.6509 94.1689Z" fill="#5EA091"/>
<path d="M68.6504 94.1686C68.6263 94.8553 68.6986 95.5059 68.8914 96.1686C69.2408 97.3493 70.0601 98.024 71.1685 98.3373C72.2528 98.6385 73.3733 98.8674 74.5058 98.7589C75.5299 98.6626 76.554 98.5421 77.5661 98.3493C79.4335 97.9758 81.2408 97.3975 82.9396 96.5059C83.8914 95.9999 84.7348 95.3614 85.5661 94.6987C85.6986 96.3132 85.0721 97.5903 83.7709 98.53C83.1323 98.9879 82.4215 99.2891 81.6866 99.53C79.6866 100.181 77.6263 100.602 75.554 100.904C74.301 101.084 73.048 101.144 71.7829 101.108C71.0962 101.084 70.4336 100.964 69.795 100.735C68.7107 100.349 67.9878 99.6023 67.6625 98.518C67.2287 97.0842 67.3492 95.7107 68.289 94.4698C68.3854 94.3614 68.5299 94.277 68.6504 94.1686Z" fill="#538A8A"/>
<path d="M118.049 102.844C119.037 102.314 120.109 102.061 121.193 101.892C127.615 100.844 133.844 104.338 136.326 110.277C137.278 112.567 137.639 114.94 137.266 117.41C137.121 117.482 136.94 117.506 136.844 117.615C136.579 117.94 136.386 118.326 136.097 118.627C135.362 119.398 134.663 120.229 133.82 120.868C132.181 122.097 130.338 122.928 128.278 123.302C127.145 123.506 126.001 123.53 124.904 123.374C123.085 123.121 121.314 122.567 119.736 121.555C118.832 120.976 117.989 120.314 117.338 119.458C116.446 118.29 115.784 117 115.519 115.543C115.326 114.494 115.085 113.458 115.133 112.386C115.145 111.94 115.302 111.494 115.302 111.049C115.302 110.326 115.483 109.639 115.639 108.952C115.989 107.434 116.543 105.988 117.242 104.591C117.531 104.024 117.772 103.434 118.049 102.844ZM126.061 103.976C125.844 103.976 125.639 103.952 125.458 103.976C124.94 104.073 124.434 104.241 124.121 104.687C123.639 105.362 123.471 106.109 123.952 106.868C124.133 107.169 124.35 107.458 124.591 107.711C125.181 108.314 125.796 108.892 126.386 109.494C127.121 110.229 127.868 110.94 128.41 111.844C128.772 112.446 129.374 112.771 130.025 113.012C130.663 113.253 131.193 113.012 131.639 112.651C132.145 112.229 132.41 111.639 132.446 110.952C132.483 110.326 132.386 109.711 132.157 109.145C131.278 106.916 129.772 105.241 127.543 104.277C127.073 104.049 126.567 103.904 126.061 103.976ZM134.374 115.639C134.386 115.639 134.386 115.639 134.398 115.639C134.386 115.482 134.398 115.314 134.362 115.157C134.23 114.434 133.627 113.928 132.868 113.892C131.989 113.844 131.483 114.157 131.23 114.916C130.94 115.735 131.278 116.759 132.025 117.181C133.073 117.771 134.085 117.362 134.374 116.121C134.41 115.964 134.374 115.796 134.374 115.639Z" fill="#443E55"/>
<path d="M118.048 102.844C117.783 103.434 117.53 104.025 117.241 104.603C116.542 106.001 116 107.446 115.639 108.964C115.482 109.651 115.301 110.338 115.301 111.061C115.301 111.507 115.145 111.952 115.133 112.398C115.097 113.47 115.338 114.507 115.518 115.555C115.783 117.013 116.446 118.314 117.338 119.47C117.988 120.326 118.832 120.988 119.735 121.567C121.314 122.579 123.073 123.121 124.904 123.386C126.012 123.543 127.145 123.519 128.277 123.314C130.326 122.94 132.169 122.109 133.82 120.88C134.663 120.241 135.362 119.41 136.097 118.639C136.386 118.338 136.579 117.952 136.844 117.627C136.94 117.519 137.121 117.482 137.265 117.422C137.145 118.964 136.687 120.398 136 121.772C133.856 126.013 130.422 128.627 125.759 129.422C118.41 130.687 111.229 125.904 109.759 118.229C108.555 111.952 111.844 105.543 117.88 102.892C117.916 102.844 117.988 102.856 118.048 102.844Z" fill="#393342"/>
<path d="M126.061 103.977C126.567 103.904 127.073 104.061 127.543 104.266C129.772 105.23 131.278 106.904 132.158 109.133C132.386 109.699 132.483 110.314 132.447 110.94C132.411 111.627 132.146 112.217 131.64 112.639C131.194 113.013 130.664 113.242 130.025 113.001C129.374 112.76 128.772 112.434 128.411 111.832C127.868 110.928 127.121 110.217 126.386 109.483C125.784 108.892 125.17 108.314 124.591 107.699C124.35 107.446 124.146 107.157 123.953 106.856C123.483 106.097 123.64 105.35 124.121 104.675C124.435 104.23 124.941 104.061 125.459 103.964C125.64 103.94 125.844 103.977 126.061 103.977Z" fill="#6C6678"/>
<path d="M134.374 115.639C134.374 115.796 134.41 115.964 134.374 116.121C134.085 117.35 133.061 117.772 132.025 117.181C131.278 116.76 130.953 115.735 131.23 114.916C131.495 114.157 132.001 113.844 132.868 113.892C133.627 113.928 134.23 114.434 134.362 115.157C134.386 115.314 134.386 115.482 134.398 115.639C134.386 115.639 134.386 115.639 134.374 115.639Z" fill="#6C6678"/>
<path d="M78.1565 111.036C81.6023 109.783 84.8553 110.193 87.8794 112.205C91.6384 114.699 93.2529 119.313 92.3132 123.229C92.1083 123.253 91.9517 123.338 91.8312 123.506C91.6866 123.723 91.53 123.928 91.3613 124.121C90.5903 125.036 89.5541 125.591 88.4698 126.024C87.3854 126.458 86.2529 126.711 85.0842 126.723C84.4095 126.735 83.7228 126.747 83.0481 126.723C82.1806 126.675 81.3252 126.518 80.518 126.157C78.1324 125.085 76.771 123.169 76.0722 120.723C75.9396 120.265 75.8674 119.771 75.8433 119.289C75.7589 117.723 75.9517 116.205 76.4818 114.723C76.8674 113.651 77.2529 112.603 77.9156 111.663C78.024 111.482 78.0722 111.241 78.1565 111.036ZM88.8553 117.639C88.8433 117.482 88.8433 117.35 88.8192 117.229C88.4939 115.566 87.5903 114.241 86.277 113.217C85.7469 112.807 85.1083 112.542 84.4095 112.434C83.0963 112.229 81.9878 113.482 82.4216 114.735C82.5782 115.181 82.8192 115.627 83.0963 116.012C83.8312 117.036 84.7348 117.928 85.3854 119.024C85.6144 119.41 85.9999 119.578 86.3854 119.771C86.9517 120.048 87.4577 119.94 87.9276 119.578C88.5782 119.085 88.7589 118.374 88.8553 117.639ZM90.2288 122.325C90.2409 121.386 89.6384 120.723 88.7228 120.687C87.8433 120.651 87.1204 121.289 87.1083 122.121C87.0842 122.952 87.9397 123.807 88.771 123.795C89.5662 123.807 90.2168 123.145 90.2288 122.325Z" fill="#443E55"/>
<path d="M78.1569 111.036C78.0726 111.241 78.0244 111.482 77.9039 111.663C77.2533 112.603 76.8557 113.663 76.4701 114.723C75.94 116.205 75.7473 117.735 75.8316 119.289C75.8557 119.771 75.928 120.253 76.0605 120.723C76.7473 123.169 78.1208 125.096 80.5063 126.157C81.3135 126.518 82.1689 126.687 83.0364 126.723C83.7111 126.759 84.3979 126.735 85.0726 126.723C86.2533 126.711 87.3858 126.446 88.4581 126.024C89.5424 125.59 90.5786 125.048 91.3497 124.121C91.5183 123.928 91.675 123.723 91.8195 123.506C91.94 123.325 92.0966 123.241 92.3015 123.229C91.4581 127.157 89.0967 129.831 85.3497 131.169C79.0003 133.422 72.4099 129.277 71.2894 122.94C70.4099 118 73.0966 112.964 77.9521 111.072C78.0244 111.048 78.0846 111.048 78.1569 111.036Z" fill="#393342"/>
<path d="M88.8563 117.639C88.7599 118.374 88.5792 119.084 87.9286 119.578C87.4587 119.94 86.9406 120.048 86.3864 119.771C86.0008 119.578 85.6153 119.41 85.3864 119.024C84.7358 117.928 83.8322 117.036 83.0972 116.012C82.8201 115.627 82.5792 115.181 82.4225 114.735C81.9767 113.482 83.0852 112.229 84.4105 112.434C85.0972 112.542 85.7478 112.807 86.2779 113.217C87.5912 114.241 88.4948 115.554 88.8201 117.229C88.8442 117.35 88.8442 117.482 88.8563 117.639Z" fill="#6C6678"/>
<path d="M90.2294 122.326C90.2173 123.133 89.5667 123.796 88.7716 123.808C87.9402 123.82 87.0848 122.964 87.1089 122.133C87.133 121.302 87.8438 120.663 88.7233 120.699C89.639 120.723 90.2535 121.386 90.2294 122.326Z" fill="#6C6678"/>
<path d="M110.145 131.687C110.121 131.181 110.061 130.675 110.073 130.169C110.085 129.844 110.289 129.603 110.639 129.555C110.976 129.519 111.229 129.687 111.35 130C111.422 130.181 111.458 130.398 111.482 130.591C111.88 133.796 111.241 136.747 109.314 139.362C108 141.145 106.277 142.326 104.048 142.687C101.711 143.073 99.6027 142.47 97.7714 141.037C94.928 138.808 93.5786 135.772 93.3256 132.217C93.3135 132.025 93.3135 131.772 93.422 131.627C93.5545 131.446 93.8075 131.253 94.0123 131.253C94.2171 131.253 94.5424 131.446 94.6027 131.615C94.7593 132.145 94.8316 132.699 94.9039 133.253C95.1087 134.675 95.6027 136 96.3256 137.229C97.0605 138.47 98.0003 139.507 99.2292 140.278C101.832 141.916 104.808 141.675 107.097 139.639C108.265 138.603 109.048 137.314 109.542 135.844C110 134.519 110.229 133.133 110.145 131.687Z" fill="#50495E"/>
<path d="M160.493 200.626C160.794 201.012 161.144 201.361 161.385 201.783C163.963 206.253 166.361 210.807 168.324 215.59C169.349 218.108 170.18 220.675 170.565 223.373C170.794 225.024 170.77 226.675 170.589 228.325C170.228 229.626 169.794 230.891 169.144 232.084C169.132 232.12 169.132 232.157 169.12 232.193C168.493 232.952 167.867 233.699 167.24 234.458C167.192 234.482 167.132 234.494 167.071 234.494C167.216 231.638 166.782 228.867 165.722 226.205C164.722 223.687 163.288 221.458 161.24 219.651C159.879 218.458 158.336 217.626 156.529 217.373C156.011 217.301 155.469 217.301 154.963 217.373C152.915 217.663 151.433 218.795 150.397 220.53C149.095 222.699 148.734 225.096 148.855 227.578C148.891 228.434 149.023 229.289 149.12 230.157C148.602 229.964 148.409 229.494 148.216 229.06C147.65 227.795 147.059 226.53 146.638 225.205C146.132 223.602 145.734 221.952 145.385 220.313C144.891 218.012 144.481 215.687 144.023 213.373C143.927 212.891 143.855 212.422 143.77 211.94C143.589 210.867 143.433 209.795 143.216 208.735C142.891 207.084 142.541 205.434 142.144 203.795C142.047 203.385 142.096 202.879 141.71 202.554C141.782 202.398 141.855 202.229 141.927 202.072C142.722 200.747 143.746 199.59 144.915 198.578C146.746 197 148.879 196.169 151.312 196.265C152.626 196.313 153.903 196.626 155.12 197.157C156.746 197.867 158.24 198.795 159.589 199.94C159.879 200.205 160.192 200.41 160.493 200.626ZM162.421 211.385C162.312 210.687 162.24 209.976 162.083 209.289C161.493 206.735 160.505 204.361 158.891 202.277C158.361 201.59 157.746 200.988 156.903 200.663C155.77 200.241 154.565 200.879 154.433 202.048C154.361 202.675 154.409 203.325 154.541 203.94C154.71 204.699 154.999 205.446 155.264 206.181C155.589 207.06 155.891 207.952 156.3 208.795C156.903 210.048 157.529 211.289 158.252 212.47C158.589 213.036 159.096 213.542 159.614 213.952C160.602 214.735 161.662 214.217 162.059 213.373C162.373 212.723 162.336 212.06 162.421 211.385Z" fill="#DEA736"/>
<path d="M160.494 200.626C160.193 200.409 159.88 200.205 159.603 199.964C158.253 198.819 156.759 197.879 155.133 197.18C153.916 196.65 152.639 196.337 151.326 196.289C148.892 196.192 146.759 197.036 144.928 198.602C143.759 199.614 142.747 200.759 141.94 202.096C141.808 201.879 141.627 201.674 141.555 201.433C141.157 199.952 140.796 198.458 140.386 196.988C139.832 195 139.29 193.012 138.663 191.06C136.796 185.205 134.784 179.397 132.699 173.614C133.675 173.602 134.543 173.976 135.398 174.361C137.808 175.445 140.037 176.867 142.121 178.482C144.772 180.542 147.181 182.879 149.434 185.361C151.868 188.036 154.169 190.807 156.229 193.795C157.555 195.711 158.832 197.674 160.109 199.614C160.302 199.915 160.567 200.205 160.494 200.626ZM152.591 193.096C152.434 192.313 152.181 191.446 151.531 190.783C151.278 190.518 150.964 190.301 150.651 190.096C150.169 189.783 149.687 189.952 149.29 190.265C148.928 190.554 148.663 190.976 148.796 191.458C149.121 192.686 149.627 193.795 150.94 194.301C151.747 194.602 152.591 194.072 152.591 193.096ZM148.193 189.241C148.687 189.253 149.157 188.795 149.145 188.325C149.133 187.855 148.519 187.289 148 187.241C147.651 187.205 147.157 187.735 147.169 188.156C147.169 188.795 147.543 189.229 148.193 189.241Z" fill="#80BAB0"/>
<path d="M149.12 230.169C149.023 229.313 148.903 228.458 148.855 227.59C148.734 225.108 149.096 222.711 150.397 220.542C151.433 218.807 152.927 217.663 154.963 217.385C155.481 217.313 156.023 217.313 156.529 217.385C158.337 217.65 159.879 218.47 161.24 219.663C163.289 221.47 164.722 223.687 165.722 226.217C166.782 228.879 167.216 231.638 167.072 234.506C166.819 234.807 166.578 235.108 166.325 235.409C166.048 235.578 165.746 235.723 165.481 235.916C164.554 236.578 163.602 237.229 162.554 237.687C162.493 237.638 162.421 237.638 162.361 237.663C161.614 237.638 160.867 237.663 160.144 237.434C159.505 237.241 158.819 237.169 158.192 236.928C157.035 236.506 155.867 236.084 154.782 235.518C153.192 234.687 151.734 233.626 150.517 232.277C150.301 232.036 150.096 231.747 149.71 231.711C149.505 231.205 149.313 230.687 149.12 230.169Z" fill="#E3B540"/>
<path d="M149.12 230.168C149.313 230.687 149.506 231.193 149.698 231.711C149.723 231.964 149.723 232.229 149.783 232.47C150.096 233.638 150.662 234.699 151.204 235.771C151.879 237.12 152.759 238.337 153.819 239.409C154.048 239.65 154.241 239.927 154.457 240.181C154.216 240.253 153.964 240.325 153.723 240.397C152.964 240.385 152.204 240.361 151.445 240.349C151.361 240.337 151.289 240.325 151.204 240.313C150.12 240.036 149.048 239.711 148.048 239.168C146.819 238.253 145.747 237.18 144.915 235.879C144.735 235.602 144.506 235.349 144.313 235.084C144.18 234.53 143.951 234.012 143.554 233.59C143.53 233.482 143.542 233.361 143.494 233.265C142.156 230.301 141.313 227.181 140.662 224.012C139.843 220.036 139.132 216.048 138.385 212.06C138.361 211.915 138.373 211.759 138.373 211.614C138.433 211.518 138.518 211.434 138.542 211.325C138.891 209.301 139.421 207.325 140.241 205.434C140.662 204.446 141.229 203.518 141.735 202.566C142.12 202.891 142.06 203.397 142.168 203.807C142.566 205.446 142.915 207.096 143.241 208.747C143.457 209.807 143.614 210.879 143.795 211.952C143.879 212.434 143.963 212.915 144.048 213.385C144.494 215.699 144.903 218.024 145.409 220.325C145.759 221.976 146.156 223.614 146.662 225.217C147.084 226.53 147.674 227.795 148.241 229.072C148.409 229.506 148.602 229.988 149.12 230.168Z" fill="#DA8F2E"/>
<path d="M141.722 202.578C141.216 203.53 140.65 204.458 140.228 205.446C139.421 207.337 138.878 209.313 138.529 211.337C138.517 211.434 138.421 211.53 138.36 211.626C138.216 211.048 138.059 210.47 137.951 209.879C136.445 201.602 134.324 193.494 131.625 185.518C130.89 183.337 130.276 181.132 129.625 178.928C129.348 177.988 129.276 177.012 129.264 176.024C129.24 174.494 130.601 172.916 132.686 173.614C134.77 179.397 136.782 185.205 138.65 191.06C139.276 193.024 139.818 195.012 140.372 196.988C140.782 198.47 141.144 199.964 141.541 201.434C141.601 201.675 141.794 201.879 141.927 202.096C141.854 202.253 141.794 202.409 141.722 202.578Z" fill="#518889"/>
<path d="M154.457 240.205C154.24 239.94 154.048 239.663 153.819 239.434C152.758 238.361 151.879 237.145 151.204 235.795C150.662 234.723 150.096 233.663 149.783 232.494C149.722 232.253 149.722 231.988 149.698 231.735C150.072 231.771 150.277 232.06 150.505 232.301C151.722 233.651 153.18 234.699 154.771 235.542C155.855 236.108 157.024 236.53 158.18 236.952C158.807 237.181 159.481 237.253 160.132 237.458C160.867 237.687 161.614 237.663 162.349 237.687C162.18 237.819 162.024 237.988 161.843 238.084C161.421 238.313 160.975 238.518 160.542 238.735C159.662 239.012 158.758 239.217 157.951 239.687C157.626 239.747 157.301 239.783 156.975 239.855C156.144 240.024 155.325 240.217 154.457 240.205Z" fill="#DEA736"/>
<path d="M143.542 233.614C143.94 234.036 144.169 234.554 144.301 235.108C144.048 235.217 143.855 235.385 143.783 235.663C143.699 235.952 143.614 236.241 143.506 236.518C143.265 237.132 143.289 237.735 143.434 238.385C143.638 239.313 143.976 240.169 144.422 241C144.12 240.988 143.819 240.988 143.518 240.976C143.325 240.916 143.132 240.855 142.94 240.795C141.723 240.422 141.012 239.518 140.663 238.385C140.277 237.169 140.53 236.024 141.434 235.072C142.036 234.41 142.759 233.964 143.542 233.614Z" fill="#3B3545"/>
<path d="M169.107 232.193C169.119 232.157 169.107 232.108 169.132 232.084C169.782 230.892 170.204 229.627 170.577 228.325C171.541 229 172.36 229.807 173.035 230.759C173.71 231.711 174.035 232.771 173.854 233.94C173.818 234.193 173.686 234.434 173.601 234.675C173.433 234.602 173.264 234.506 173.083 234.47C172.119 234.277 171.24 233.94 170.505 233.277C170.071 232.892 169.577 232.554 169.107 232.193Z" fill="#494057"/>
<path d="M169.108 232.193C169.578 232.554 170.06 232.891 170.505 233.277C171.252 233.94 172.132 234.289 173.084 234.47C173.264 234.506 173.433 234.602 173.602 234.674C173.517 235.18 173.192 235.554 172.855 235.891C171.999 236.735 170.987 236.964 169.855 236.518C168.782 236.096 167.927 235.385 167.24 234.458C167.867 233.711 168.481 232.952 169.108 232.193Z" fill="#3B3545"/>
<path d="M162.554 237.686C163.602 237.217 164.554 236.578 165.481 235.915C165.746 235.723 166.048 235.578 166.325 235.409C166.662 236.084 167 236.747 167.313 237.421C167.566 237.976 167.626 238.578 167.59 239.18C167.566 239.59 167.518 240 167.228 240.337C165.999 240.421 164.891 240.024 163.867 239.397C163.228 239.012 162.698 238.482 162.554 237.686Z" fill="#494057"/>
<path d="M144.433 240.988C143.975 240.169 143.65 239.301 143.445 238.373C143.3 237.723 143.276 237.12 143.517 236.506C143.626 236.229 143.71 235.94 143.794 235.651C143.879 235.373 144.059 235.205 144.312 235.096C144.517 235.361 144.746 235.614 144.915 235.891C145.758 237.193 146.818 238.253 148.047 239.181C147.24 239.928 146.373 240.554 145.3 240.867C145.035 240.952 144.722 240.952 144.433 240.988Z" fill="#463F55"/>
<path d="M162.555 237.687C162.699 238.482 163.229 239.012 163.868 239.397C164.892 240.024 166 240.421 167.229 240.337C165.928 242.59 163.253 242.807 161.651 240.783C161.157 240.156 160.844 239.434 160.555 238.711C160.988 238.494 161.434 238.301 161.856 238.06C162.037 237.964 162.193 237.795 162.362 237.662C162.422 237.638 162.494 237.638 162.555 237.687Z" fill="#3B3545"/>
<path d="M151.445 240.361C152.204 240.373 152.963 240.398 153.722 240.41C153.988 241.422 154.614 242.181 155.445 242.771C155.951 243.133 156.518 243.41 157.06 243.723C156.457 244.506 155.614 244.687 154.686 244.663C153.771 244.639 153.024 244.265 152.433 243.602C151.903 243.012 151.518 242.337 151.421 241.53C151.385 241.434 151.361 241.337 151.325 241.229C151.301 241.072 151.289 240.928 151.265 240.771C151.325 240.651 151.385 240.506 151.445 240.361Z" fill="#3B3545"/>
<path d="M157.072 243.723C156.53 243.41 155.963 243.133 155.457 242.771C154.626 242.181 153.987 241.422 153.734 240.41C153.975 240.337 154.228 240.265 154.469 240.193C155.325 240.217 156.156 240.024 156.987 239.831C157.313 239.759 157.638 239.723 157.963 239.663C157.987 240.289 158.06 240.928 158.011 241.542C157.927 242.362 157.746 243.157 157.072 243.723Z" fill="#494057"/>
<path d="M151.446 240.361C151.385 240.506 151.325 240.651 151.277 240.795C151.253 240.639 151.229 240.482 151.217 240.325C151.289 240.337 151.361 240.349 151.446 240.361Z" fill="#625C6A"/>
<path d="M142.951 240.771C143.144 240.831 143.337 240.892 143.529 240.952C143.337 240.904 143.144 240.843 142.951 240.771Z" fill="#463F55"/>
<path d="M151.324 241.241C151.36 241.337 151.384 241.434 151.421 241.542C151.397 241.446 151.36 241.337 151.324 241.241Z" fill="#625C6A"/>
<path d="M162.421 211.386C162.337 212.072 162.361 212.735 162.06 213.386C161.662 214.241 160.602 214.747 159.614 213.964C159.096 213.554 158.59 213.048 158.252 212.482C157.541 211.289 156.903 210.048 156.3 208.807C155.891 207.964 155.59 207.072 155.264 206.193C154.999 205.458 154.698 204.711 154.541 203.952C154.409 203.338 154.361 202.675 154.433 202.06C154.566 200.892 155.77 200.253 156.903 200.675C157.746 200.988 158.361 201.591 158.891 202.289C160.505 204.374 161.493 206.747 162.084 209.301C162.24 209.976 162.312 210.675 162.421 211.386Z" fill="#E3B540"/>
<path d="M152.591 193.097C152.591 194.072 151.747 194.603 150.94 194.289C149.627 193.783 149.121 192.663 148.795 191.446C148.663 190.964 148.928 190.542 149.289 190.253C149.687 189.94 150.169 189.771 150.651 190.084C150.964 190.289 151.277 190.506 151.53 190.771C152.181 191.458 152.434 192.313 152.591 193.097Z" fill="#9FD5D8"/>
<path d="M148.192 189.241C147.554 189.229 147.168 188.795 147.168 188.156C147.156 187.735 147.65 187.204 148 187.241C148.518 187.289 149.132 187.855 149.144 188.325C149.144 188.795 148.686 189.253 148.192 189.241Z" fill="#9FD5D8"/>
<path d="M129.301 178.928C125.879 178.928 122.903 176.759 121.891 173.651C120.614 169.723 123.084 165.783 127.108 165.072C130.626 164.458 134.698 166.675 135.722 170.602C136.855 174.952 133.758 178.518 130.036 178.855C129.746 178.879 129.469 178.904 129.301 178.928Z" fill="#393342"/>
<path d="M77.0008 178.928C73.5791 178.928 70.6032 176.759 69.5911 173.651C68.314 169.723 70.7839 165.783 74.808 165.072C78.3261 164.458 82.3984 166.675 83.4225 170.602C84.555 174.952 81.4586 178.518 77.7357 178.855C77.4586 178.879 77.1695 178.904 77.0008 178.928Z" fill="#393342"/>
<path d="M127.277 170.097C127.579 170.808 127.904 171.506 128.157 172.241C130.35 178.362 132.181 184.579 133.362 190.976C133.976 194.314 134.302 197.675 134.073 201.073C133.711 206.735 131.35 211.338 126.868 214.844C125.53 215.892 124.133 216.832 122.567 217.518C122.675 217.049 122.783 216.591 122.892 216.121C123.097 215.82 123.326 215.543 123.494 215.229C125.41 211.711 125.663 207.916 125.205 204.061C124.868 201.205 124.121 198.422 122.988 195.771C121.783 192.964 120.482 190.205 119.229 187.422C118.543 185.543 117.796 183.699 117.193 181.796C116.386 179.241 115.952 176.603 115.94 173.904C115.94 173.41 115.928 172.904 115.916 172.41L116.012 172.434C117.494 172.241 118.988 172.097 120.458 171.82C122.555 171.422 124.627 170.94 126.711 170.47C126.928 170.398 127.097 170.217 127.277 170.097Z" fill="#58ACAF"/>
<path d="M85.4344 159.012C86.4826 158.988 87.5308 158.94 88.5669 158.94C96.2175 158.94 103.868 158.952 111.519 158.964C111.748 158.964 111.977 158.988 112.193 159C112.543 159.049 112.904 159.133 113.254 159.133C115.121 159.157 116.989 159.169 118.856 159.193C119.109 159.193 119.398 159.097 119.627 159.458C119.519 159.699 119.398 159.988 119.266 160.265C117.916 163.012 116.856 165.868 116.362 168.904C116.169 170.061 115.82 171.217 116.013 172.422L115.916 172.398C115.29 172.494 114.663 172.651 114.037 172.663C112.579 172.687 111.157 173.121 109.687 172.964C109.555 172.952 109.398 172.964 109.29 173.024C108.724 173.277 108.133 173.229 107.543 173.229C106.446 173.229 105.35 173.229 104.254 173.241C103.94 173.241 103.603 173.217 103.302 173.302C102.037 173.615 100.784 173.603 99.5308 173.314C99.2296 173.241 98.8922 173.253 98.579 173.241C96.7236 173.169 94.844 173.434 93.0007 172.964C92.0368 173.048 91.0971 172.844 90.1693 172.687C90.085 171.964 89.9525 171.253 89.9163 170.53C89.8199 168.747 89.3139 167.061 88.7115 165.398C88.0489 163.555 87.0971 161.856 85.9886 160.241C85.7356 159.844 85.3742 159.53 85.4344 159.012Z" fill="#383241"/>
<path d="M85.4333 159.012C85.373 159.53 85.7345 159.856 85.9875 160.217C87.0959 161.832 88.0477 163.53 88.7104 165.374C89.3128 167.036 89.8067 168.723 89.9152 170.506C89.9513 171.229 90.0839 171.94 90.1682 172.663L90.0357 172.639C89.0477 172.53 88.0357 172.494 87.0598 172.301C84.8309 171.856 82.626 171.314 80.4092 170.832C80.0718 170.759 79.7104 170.771 79.2766 170.747C79.0598 171.314 78.7827 171.795 78.6742 172.314C78.2525 174.217 77.7104 176.097 77.4453 178.036C77.1802 179.928 76.9152 181.807 76.9513 183.735C76.9875 185.567 76.9272 187.386 76.9754 189.217C77.0116 190.53 77.1682 191.844 77.2766 193.157C77.2887 193.241 77.3248 193.338 77.3489 193.422C78.0477 196.109 78.8429 198.771 79.9995 201.314C80.0839 201.494 80.2887 201.639 80.4333 201.795C80.4092 202.241 80.3971 202.675 80.373 203.121C80.108 203.904 79.9875 204.699 79.9875 205.53C79.9754 206.795 79.9634 208.073 79.9513 209.338C79.9393 210.53 80.1441 211.687 80.4212 212.832C80.6863 213.892 80.9634 214.94 81.2164 215.988C81.3007 216.338 81.3007 216.699 81.3369 217.048C79.2525 215.952 77.4092 214.554 75.7827 212.868C72.9995 209.964 71.4333 206.494 70.9152 202.53C70.5176 199.518 70.6381 196.518 71.108 193.53C72.8429 182.591 76.0838 172.133 81.0959 162.241C81.4694 161.506 81.867 160.795 82.2525 160.073C82.5537 159.506 83.0116 159.169 83.6622 159.133C84.2525 159.061 84.8429 159.036 85.4333 159.012Z" fill="#3D9F9F"/>
<path d="M117.011 236.627C117.24 237.507 117.517 238.374 117.71 239.266C118.252 241.82 118.649 244.386 118.758 247.001C118.83 248.784 118.818 250.567 118.408 252.314C118.228 253.073 117.963 253.808 117.517 254.446C116.469 255.964 114.782 256.326 113.192 255.374C112.77 255.121 112.396 254.82 111.878 254.47C111.806 255.133 111.758 255.663 111.698 256.181C111.649 256.675 111.601 257.181 111.541 257.675C111.192 261.049 110.613 264.374 109.601 267.603C109.167 269.001 108.649 270.362 107.939 271.651C107.541 272.374 107.179 273.109 106.541 273.663C106.035 273.663 105.541 273.663 105.035 273.675C104.095 273.711 103.228 273.446 102.457 272.928C101.047 271.989 99.8903 270.784 98.8542 269.446C97.1554 267.254 96.3241 264.639 95.3964 262.085C94.8783 260.639 94.6373 259.109 94.2036 257.627C94.059 257.121 94.1072 256.531 93.6976 256.109C93.6012 255.398 93.4927 254.687 93.3964 253.976C93.312 253.362 93.3964 252.723 93.1313 252.061C92.6373 252.41 92.1915 252.736 91.7337 253.061C90.553 251.736 90.0711 250.169 90.1072 248.41C90.1313 247.133 90.071 245.844 90.1313 244.567C90.1795 243.531 90.3241 242.495 90.4807 241.458C90.5168 241.217 90.7337 240.989 90.9024 240.711C91.4566 240.711 92.0108 240.711 92.553 240.711C92.5409 241.121 92.5289 241.531 92.5048 241.94C92.4445 243.121 92.3602 244.302 92.3482 245.495C92.3482 246.41 92.5048 247.314 92.8542 248.169C93.3241 249.314 94.3723 249.928 95.565 248.892C95.7458 248.736 95.8903 248.422 96.2277 248.579C96.2518 248.627 96.3 248.651 96.3 248.699C96.3361 248.928 96.3602 249.145 96.3723 249.374C96.5409 252.254 97.0349 255.085 97.806 257.856C98.2879 259.579 98.9385 261.229 99.9144 262.736C100.312 263.35 100.77 263.916 101.396 264.326C102.565 265.073 103.577 265.061 104.698 264.254C105.457 263.711 105.963 262.952 106.42 262.145C107.131 260.856 107.589 259.47 107.963 258.061C108.577 255.711 108.951 253.326 109.095 250.904C109.107 250.663 108.999 250.338 109.384 250.181C109.661 250.362 109.951 250.591 110.264 250.76C111.481 251.41 112.432 250.94 113.047 250.133C113.42 249.651 113.625 249.109 113.758 248.519C114.143 246.844 114.107 245.145 113.902 243.47C113.686 241.615 113.288 239.784 112.963 237.94C113.42 237.976 113.854 237.904 114.264 237.687C114.818 237.386 115.372 237.097 115.951 236.856C116.312 236.76 116.661 236.711 117.011 236.627Z" fill="#EF8A3C"/>
<path d="M81.3255 217.037C81.2894 216.675 81.2894 216.314 81.2051 215.976C80.952 214.916 80.6749 213.868 80.4099 212.82C80.1207 211.675 79.9279 210.519 79.94 209.326C79.952 208.061 79.9641 206.784 79.9761 205.519C79.9761 204.699 80.0966 203.892 80.3617 203.109C81.0725 203.326 81.434 203.928 81.8677 204.434C82.0966 204.711 82.3014 205.025 82.5544 205.278C83.687 206.338 84.7713 207.458 86.0002 208.398C87.5424 209.591 89.1087 210.772 90.8315 211.748C93.8195 213.446 96.8797 214.928 100.193 215.88C103.265 216.76 106.362 217.434 109.579 217.434C109.844 217.434 110.133 217.47 110.386 217.543C111.241 217.772 112.097 217.748 112.952 217.567C113.265 217.495 113.579 217.446 113.892 217.446C115.073 217.41 116.253 217.434 117.434 217.181C118.723 216.904 120.036 216.796 121.313 216.422C121.832 216.278 122.374 216.229 122.916 216.133C122.807 216.603 122.699 217.061 122.591 217.531C121.398 218.061 120.193 218.579 119 219.109C116.097 219.928 113.157 220.543 110.145 220.82C106.265 221.181 102.398 221.422 98.5063 221.109C98.193 221.085 97.8677 221.133 97.5544 221.145C97.3617 221.121 97.1809 221.109 96.9882 221.085C96.9159 221.025 96.8316 221.013 96.7472 221.061C94.5906 220.772 92.4219 220.519 90.2773 220.169C89.0243 219.964 87.7954 219.627 86.5665 219.35C85.6388 218.989 84.687 218.651 83.7713 218.254C82.94 217.868 82.1448 217.434 81.3255 217.037Z" fill="#B8D7CF"/>
<path d="M115.144 225.35C116.047 226.591 116.529 228.012 116.794 229.518C116.59 229.615 116.385 229.711 116.18 229.82C112.397 231.928 108.337 233.024 104.011 233.157C100.373 233.265 96.8065 232.844 93.3848 231.53C93.3968 231.024 93.3727 230.518 93.445 230.024C93.5534 229.217 93.6739 228.41 93.8546 227.615C93.9631 227.121 94.3004 226.976 94.7944 227.073C95.4209 227.181 96.0354 227.326 96.6739 227.41C97.7462 227.567 98.8305 227.783 99.9149 227.82C101.553 227.892 103.204 227.844 104.855 227.832C105.084 227.832 105.312 227.82 105.541 227.783C106.481 227.627 107.421 227.446 108.361 227.302C110.264 227.012 112.108 226.53 113.867 225.747C114.252 225.555 114.71 225.482 115.144 225.35Z" fill="#B8D7CF"/>
<path d="M116.024 172.41C115.832 171.205 116.181 170.049 116.374 168.892C116.868 165.868 117.928 163.013 119.277 160.253C119.41 159.976 119.53 159.687 119.639 159.446C119.41 159.085 119.121 159.181 118.868 159.181C117 159.157 115.133 159.157 113.265 159.121C112.916 159.121 112.554 159.037 112.205 158.988C115.036 159 117.856 159.025 120.675 159.037C121.699 159.037 122.35 159.531 122.82 160.434C124.362 163.374 125.82 166.362 127.085 169.446C127.169 169.651 127.205 169.88 127.265 170.097C127.085 170.217 126.916 170.398 126.711 170.446C124.627 170.916 122.554 171.41 120.458 171.796C119 172.073 117.506 172.205 116.024 172.41Z" fill="#1B8686"/>
<path d="M93.3854 231.519C96.807 232.832 100.361 233.253 104.012 233.145C108.337 233.012 112.397 231.916 116.181 229.808C116.373 229.699 116.59 229.603 116.795 229.506C117.168 230.302 117.12 231.157 117.096 231.988C117.096 232.217 116.915 232.47 116.759 232.675C116.566 232.916 116.325 233.109 116.108 233.326C114.783 233.94 113.47 234.555 112.144 235.169C111.795 235.241 111.421 235.278 111.084 235.374C107.385 236.374 103.638 236.543 99.8552 236.157C98.7227 236.037 97.6022 235.904 96.4697 235.772C96.2046 235.699 95.9396 235.639 95.6866 235.567C95.0721 235.362 94.4697 235.109 93.795 235.205C92.4215 234.651 91.048 234.109 89.6866 233.555C89.4215 233.326 89.1564 233.085 88.8793 232.856C88.6143 232.651 88.4456 232.386 88.4576 232.049C88.4938 231.205 88.3974 230.338 88.7829 229.531C90.2649 230.29 91.7468 231.085 93.3854 231.519Z" fill="#494057"/>
<path d="M86.5664 219.338C87.8074 219.615 89.0363 219.952 90.2773 220.157C92.4218 220.494 94.5905 220.759 96.7471 221.048C96.8315 221.06 96.9037 221.072 96.9881 221.072C97.1809 221.097 97.3616 221.109 97.5544 221.133C97.6748 221.615 98.1327 221.687 98.4941 221.844C99.6266 222.325 100.795 222.663 102 222.904C102.892 223.085 103.807 223.121 104.687 223.265C105.362 223.386 106.036 223.446 106.711 223.458C107.976 223.47 109.241 223.362 110.506 223.229C112.506 223.024 114.434 222.639 116.313 221.928C116.94 221.687 117.59 221.494 118.241 221.289C117.807 222.289 116.928 222.831 116.072 223.398C115.591 223.711 115.072 223.964 114.578 224.253C113.482 224.542 112.386 224.868 111.277 225.121C109 225.627 106.675 225.723 104.35 225.735C101.145 225.747 97.976 225.518 94.8435 224.844C93.6387 224.591 92.458 224.241 91.2773 223.928C90.952 223.759 90.6387 223.591 90.3134 223.434C88.4821 222.578 87.1447 221.301 86.5664 219.338Z" fill="#3B3445"/>
<path d="M91.9393 223.904C93.1321 224.205 94.3128 224.567 95.5056 224.82C98.6381 225.482 101.819 225.723 105.012 225.711C107.337 225.699 109.662 225.603 111.939 225.097C113.048 224.856 114.132 224.518 115.241 224.229C115.433 224.603 115.626 224.976 115.819 225.362C115.385 225.494 114.927 225.567 114.53 225.747C112.771 226.542 110.927 227.024 109.024 227.302C108.084 227.446 107.144 227.627 106.204 227.783C105.975 227.82 105.747 227.832 105.518 227.832C103.867 227.832 102.228 227.892 100.578 227.82C99.4935 227.771 98.4212 227.567 97.3369 227.41C96.7104 227.314 96.0839 227.181 95.4574 227.073C94.9514 226.976 94.626 227.121 94.5176 227.615C94.3369 228.41 94.2044 229.217 94.108 230.024C94.0477 230.518 94.0718 231.024 94.0477 231.53C92.4092 231.097 90.9273 230.289 89.4092 229.542C89.4935 228.097 90.1682 226.844 90.7947 225.591C91.12 224.988 91.5658 224.458 91.9393 223.904Z" fill="#3D9F9F"/>
<path d="M89.6627 233.555C91.0362 234.109 92.4097 234.651 93.7711 235.205C93.3735 237.049 92.9759 238.892 92.5784 240.723C92.0362 240.723 91.482 240.723 90.9277 240.723C90.7591 241.013 90.5422 241.229 90.5061 241.47C90.3615 242.507 90.2049 243.543 90.1567 244.579C90.0964 245.856 90.1567 247.133 90.1326 248.422C90.0964 250.181 90.5783 251.748 91.7591 253.073C91.3253 253.47 90.8193 253.615 90.253 253.507C89.6988 253.398 89.241 253.097 88.8916 252.651C88.4338 252.061 88.1567 251.386 88 250.675C87.8555 250.013 87.735 249.326 87.6868 248.651C87.3976 243.639 88.1085 238.736 89.494 233.928C89.5422 233.808 89.6024 233.687 89.6627 233.555Z" fill="#EB600A"/>
<path d="M118.23 221.266C117.591 221.483 116.941 221.663 116.302 221.904C114.422 222.615 112.495 223.001 110.495 223.205C109.23 223.338 107.965 223.446 106.7 223.434C106.025 223.434 105.35 223.362 104.675 223.242C103.784 223.097 102.88 223.061 101.989 222.88C100.784 222.639 99.6032 222.314 98.4827 221.82C98.1333 221.663 97.6635 221.591 97.543 221.109C97.8562 221.097 98.1815 221.049 98.4948 221.073C102.386 221.386 106.254 221.145 110.133 220.784C113.145 220.507 116.085 219.892 118.989 219.073C119.037 219.916 118.784 220.639 118.23 221.266Z" fill="#494057"/>
<path d="M93.7227 256.121C94.1202 256.543 94.0721 257.133 94.2287 257.639C94.6624 259.109 94.9034 260.651 95.4214 262.097C96.3371 264.651 97.1684 267.266 98.8793 269.459C99.9154 270.796 101.072 272.001 102.482 272.941C103.253 273.459 104.12 273.724 105.06 273.687C105.566 273.675 106.06 273.675 106.566 273.675C106.494 273.796 106.446 273.916 106.349 274.013C104.205 276.29 101.759 276.302 99.5901 274.037C98.7227 273.145 98.0841 272.097 97.5299 270.989C96.5781 269.109 95.9034 267.133 95.3371 265.109C94.6142 262.507 94.1564 259.868 93.7829 257.206C93.7106 256.844 93.7347 256.483 93.7227 256.121Z" fill="#EB600A"/>
<path d="M112.133 235.181C113.458 234.567 114.771 233.952 116.097 233.338C116.47 234.41 116.904 235.471 117.012 236.627C116.675 236.712 116.314 236.76 115.988 236.892C115.41 237.145 114.856 237.434 114.301 237.724C113.892 237.952 113.458 238.025 113 237.977C112.711 237.049 112.422 236.109 112.133 235.181Z" fill="#EB600A"/>
<path d="M122.904 216.109C122.374 216.205 121.819 216.254 121.301 216.398C120.024 216.772 118.711 216.88 117.422 217.157C116.241 217.41 115.073 217.386 113.88 217.422C113.566 217.434 113.241 217.482 112.94 217.543C112.085 217.735 111.229 217.748 110.374 217.519C110.109 217.446 109.832 217.41 109.566 217.41C106.35 217.41 103.253 216.735 100.181 215.856C96.8677 214.904 93.8074 213.422 90.8195 211.723C89.1086 210.748 87.5424 209.579 85.9882 208.374C84.7713 207.434 83.6749 206.314 82.5424 205.254C82.2773 205.013 82.0845 204.687 81.8556 204.41C81.4219 203.892 81.0605 203.29 80.3496 203.085C80.3737 202.639 80.3858 202.205 80.4099 201.76C80.4942 201.495 80.5906 201.242 80.6629 200.976C81.3376 198.314 82.193 195.711 83.3376 193.217C84.2653 191.181 85.2773 189.193 86.2532 187.181C86.7111 187.567 87.1568 187.952 87.6147 188.326C89.8436 190.109 92.2653 191.543 94.952 192.531C98.711 193.904 102.566 194.35 106.53 193.663C110.807 192.916 114.579 191.085 117.952 188.374C118.374 188.037 118.819 187.711 119.253 187.374C120.506 190.157 121.807 192.916 123.012 195.723C124.145 198.374 124.892 201.157 125.229 204.013C125.687 207.868 125.434 211.675 123.518 215.181C123.338 215.531 123.109 215.808 122.904 216.109ZM121.711 202.35C121.795 200.904 121.458 199.458 120.976 198.025C120.747 197.362 120.362 196.808 119.94 196.278C119.229 195.362 118.277 195.037 117.145 195.181C116.362 195.278 115.747 195.615 115.398 196.338C115.072 197.001 114.832 197.675 114.856 198.434C114.88 199.205 114.844 199.989 114.856 200.772C114.88 202.35 114.579 203.844 113.94 205.29C113.518 206.254 113.145 207.229 112.759 208.205C112.458 208.94 112.289 209.699 112.398 210.482C112.542 211.47 112.928 212.302 113.94 212.735C115.181 213.266 116.338 213.133 117.47 212.482C118.964 211.615 119.94 210.302 120.542 208.735C121.301 206.699 121.783 204.615 121.711 202.35ZM110.542 209.109C110.434 208.723 110.398 208.29 110.181 207.976C109.603 207.121 108.687 206.989 107.795 207.651C106.807 208.374 106.145 209.35 105.844 210.543C105.747 210.928 105.783 211.362 105.819 211.772C105.856 212.217 106.157 212.579 106.566 212.663C107.048 212.76 107.603 212.808 108.048 212.651C109.374 212.157 110.687 210.278 110.542 209.109Z" fill="#D5E7EC"/>
<path d="M119.241 187.398C118.807 187.735 118.374 188.06 117.94 188.398C114.567 191.097 110.795 192.94 106.518 193.687C102.554 194.374 98.699 193.94 94.94 192.554C92.2533 191.566 89.8316 190.133 87.6027 188.35C87.1448 187.976 86.699 187.591 86.2412 187.205C86.6749 186.193 87.0966 185.193 87.5304 184.181C88.9159 180.916 89.8557 177.542 90.0966 174C90.1328 173.554 90.0605 173.097 90.0364 172.639L90.1689 172.663C91.1087 172.819 92.0484 173.024 93.0002 172.94C94.8436 173.41 96.7111 173.133 98.5786 173.217C98.8918 173.229 99.2292 173.217 99.5304 173.289C100.795 173.578 102.048 173.591 103.301 173.277C103.603 173.205 103.94 173.229 104.253 173.217C105.35 173.205 106.446 173.217 107.542 173.205C108.133 173.205 108.723 173.253 109.289 173C109.41 172.952 109.554 172.928 109.687 172.94C111.157 173.085 112.579 172.663 114.036 172.639C114.663 172.627 115.289 172.47 115.916 172.374C115.928 172.868 115.94 173.374 115.94 173.868C115.952 176.566 116.386 179.205 117.193 181.759C117.807 183.663 118.554 185.518 119.241 187.398Z" fill="#443E54"/>
<path d="M90.0368 172.639C90.0609 173.097 90.1331 173.555 90.097 174.001C89.856 177.543 88.9163 180.916 87.5307 184.181C87.1091 185.193 86.6753 186.193 86.2416 187.205C85.2657 189.217 84.2536 191.205 83.3259 193.241C82.1934 195.735 81.3259 198.338 80.6512 201.001C80.591 201.266 80.4825 201.519 80.3982 201.784C80.2536 201.627 80.0488 201.495 79.9645 201.302C78.8078 198.76 78.0127 196.109 77.3139 193.41C77.2898 193.326 77.2536 193.241 77.2416 193.145C77.1331 191.832 76.9765 190.519 76.9404 189.205C76.8922 187.374 76.9524 185.555 76.9163 183.723C76.8801 181.808 77.1572 179.928 77.4102 178.025C77.6753 176.073 78.2175 174.205 78.6392 172.302C78.7476 171.784 79.0247 171.302 79.2416 170.735C79.6633 170.772 80.0368 170.748 80.3741 170.82C82.591 171.302 84.7958 171.844 87.0247 172.29C88.0368 172.507 89.0488 172.531 90.0368 172.639Z" fill="#58ACAF"/>
<path d="M112.131 235.181C112.421 236.121 112.71 237.049 112.999 237.989C113.312 239.832 113.71 241.663 113.939 243.519C114.143 245.193 114.18 246.892 113.794 248.567C113.661 249.157 113.457 249.699 113.083 250.181C112.469 250.976 111.505 251.458 110.3 250.808C109.987 250.639 109.698 250.41 109.421 250.229C109.035 250.386 109.143 250.711 109.131 250.952C108.987 253.374 108.601 255.76 107.999 258.109C107.625 259.519 107.18 260.916 106.457 262.193C106.011 263.001 105.505 263.748 104.734 264.302C103.613 265.109 102.601 265.133 101.433 264.374C100.806 263.964 100.348 263.398 99.9507 262.784C98.9748 261.278 98.3241 259.627 97.8422 257.904C97.0711 255.121 96.5772 252.302 96.4085 249.422C96.3964 249.193 96.3603 248.964 96.3362 248.748C96.3362 248.711 96.288 248.675 96.2639 248.627C95.9266 248.47 95.794 248.772 95.6013 248.94C94.4085 249.976 93.3603 249.362 92.8904 248.217C92.541 247.362 92.3723 246.458 92.3844 245.543C92.3844 244.362 92.4808 243.181 92.541 241.989C92.5651 241.579 92.5772 241.169 92.5892 240.76C92.9868 238.916 93.3844 237.085 93.782 235.242C94.4567 235.145 95.0591 235.41 95.6735 235.603C95.4928 236.217 95.3362 236.832 95.1434 237.434C94.4326 239.615 94.1434 241.856 94.2759 244.157C94.3121 244.784 94.6013 245.29 94.9266 245.784C94.9868 245.868 95.2037 245.952 95.276 245.916C95.4205 245.844 95.5892 245.699 95.6133 245.555C95.6735 245.193 95.6615 244.832 95.6615 244.47C95.6615 243.145 95.6495 241.832 95.6615 240.507C95.6735 240.013 95.7458 239.519 95.8422 239.025C96.035 237.952 96.2639 236.892 96.4808 235.832C97.6133 235.964 98.7338 236.097 99.8663 236.217C103.661 236.603 107.408 236.434 111.095 235.434C111.408 235.29 111.77 235.242 112.131 235.181ZM99.6856 244.844C99.4567 245.229 99.3241 245.362 99.3 245.519C99.1555 246.507 99.0229 247.495 98.9266 248.482C98.8422 249.386 99.035 250.302 98.7097 251.193C98.6374 251.386 98.7217 251.639 98.7338 251.868C98.794 252.41 98.8663 252.94 98.9145 253.482C98.9386 253.76 98.8904 254.037 98.9507 254.302C99.3723 256.121 99.8061 257.928 100.782 259.567C101.168 260.205 101.698 260.699 102.252 261.157C102.372 261.254 102.601 261.278 102.758 261.242C103.035 261.181 103.059 260.904 103.023 260.687C102.963 260.338 102.89 259.964 102.734 259.651C102.457 259.085 102.059 258.567 101.782 257.989C100.517 255.386 99.7579 252.639 99.7338 249.723C99.7217 248.446 99.7338 247.169 99.7338 245.892C99.7458 245.639 99.7217 245.386 99.6856 244.844Z" fill="#EFBE47"/>
<path d="M96.988 221.073C96.9037 221.061 96.8314 221.049 96.7471 221.049C96.8314 221.001 96.9157 221.013 96.988 221.073Z" fill="#494057"/>
<path d="M96.445 235.784C96.2282 236.844 96.0113 237.916 95.8065 238.976C95.7222 239.458 95.6378 239.964 95.6258 240.458C95.6017 241.784 95.6258 243.097 95.6258 244.422C95.6258 244.784 95.6378 245.157 95.5776 245.507C95.5535 245.639 95.3848 245.796 95.2402 245.868C95.1559 245.904 94.939 245.832 94.8908 245.736C94.5655 245.242 94.2764 244.736 94.2402 244.109C94.1077 241.808 94.3969 239.579 95.1077 237.386C95.3005 236.784 95.4691 236.169 95.6378 235.555C95.927 235.651 96.192 235.711 96.445 235.784Z" fill="#FFD780"/>
<path d="M121.711 202.35C121.771 204.615 121.301 206.699 120.53 208.711C119.928 210.277 118.952 211.591 117.458 212.458C116.325 213.109 115.169 213.253 113.928 212.711C112.916 212.277 112.53 211.446 112.385 210.458C112.265 209.675 112.446 208.916 112.747 208.181C113.144 207.205 113.506 206.229 113.928 205.265C114.566 203.82 114.867 202.326 114.843 200.747C114.831 199.964 114.855 199.193 114.843 198.41C114.819 197.651 115.072 196.964 115.385 196.314C115.735 195.591 116.349 195.253 117.132 195.157C118.265 195.024 119.217 195.35 119.928 196.253C120.349 196.795 120.735 197.338 120.964 198C121.47 199.458 121.795 200.904 121.711 202.35Z" fill="white"/>
<path d="M110.542 209.109C110.686 210.278 109.373 212.157 108.048 212.639C107.602 212.796 107.048 212.748 106.566 212.651C106.156 212.567 105.855 212.218 105.819 211.76C105.783 211.35 105.747 210.928 105.843 210.531C106.132 209.338 106.807 208.362 107.795 207.639C108.686 206.989 109.602 207.109 110.18 207.964C110.397 208.29 110.421 208.724 110.542 209.109Z" fill="white"/>
<path d="M99.6866 244.844C99.7107 245.386 99.7468 245.639 99.7468 245.892C99.7468 247.169 99.7348 248.446 99.7468 249.723C99.7589 252.639 100.53 255.374 101.795 257.988C102.072 258.555 102.458 259.073 102.747 259.651C102.903 259.964 102.976 260.338 103.036 260.687C103.072 260.904 103.048 261.181 102.771 261.241C102.614 261.278 102.385 261.254 102.265 261.157C101.711 260.687 101.181 260.205 100.795 259.567C99.8191 257.94 99.3854 256.121 98.9637 254.302C98.9034 254.037 98.9516 253.76 98.9275 253.482C98.8793 252.94 98.807 252.41 98.7468 251.868C98.7227 251.639 98.6504 251.398 98.7227 251.193C99.048 250.302 98.8552 249.386 98.9396 248.482C99.036 247.494 99.1685 246.507 99.3131 245.519C99.3251 245.362 99.4697 245.229 99.6866 244.844Z" fill="#FFD780"/>
<path d="M102.976 322.301C97.6144 322.109 92.9035 321.338 88.4939 319.253C85.0602 317.627 81.9879 315.422 79.4216 312.603C78.6385 311.735 77.9638 310.747 77.3855 309.735C77.0963 309.229 77.0361 308.53 77.0843 307.94C77.1686 307.085 78.012 306.386 78.9276 306.446C79.6867 306.494 80.4819 306.675 81.1807 306.988C85.7469 309.012 90.506 310.193 95.4698 310.795C99.7108 311.313 103.952 311.289 108.193 311.085C110.446 310.976 112.711 310.47 114.904 309.916C118.349 309.048 121.614 307.687 124.819 306.157C125.385 305.88 125.952 305.615 126.518 305.338C127.446 304.892 128.229 305.265 128.879 305.892C129.446 306.446 129.482 307.229 129.157 307.88C128.626 308.916 128.012 309.94 127.289 310.868C122.434 317.048 115.891 320.35 108.301 321.747C106.398 322.06 104.422 322.145 102.976 322.301Z" fill="#D5E7EC"/>
<path d="M102.109 304.843C98.3621 304.976 94.6392 304.145 91.1211 302.386C88.3501 301 85.9163 299.133 83.9284 296.735C83.3983 296.084 82.9404 295.289 82.7115 294.494C82.3862 293.362 83.2898 292.47 84.4705 292.663C85.085 292.759 85.6995 292.964 86.2657 293.217C90.2778 294.976 94.4464 296 98.832 296.108C100.013 296.133 101.181 296.398 102.35 296.41C108.35 296.506 114.085 295.386 119.422 292.566C119.844 292.349 120.266 292.121 120.699 291.964C121.061 291.831 121.458 291.735 121.844 291.735C123.061 291.735 123.904 293 123.302 294.036C122.627 295.181 121.856 296.301 120.952 297.265C117.519 300.94 113.254 303.169 108.386 304.325C106.374 304.783 104.338 304.843 102.109 304.843Z" fill="#D5E7EC"/>
<path d="M116.506 280.819C113.506 285.482 109.301 287.856 103.963 288.277C101.843 288.446 99.7345 288.362 97.6502 287.795C94.602 286.964 92.0478 285.374 89.9875 282.976C89.6863 282.627 89.3731 282.229 89.2285 281.807C89.108 281.482 89.1321 281.036 89.2767 280.723C89.4815 280.265 89.9394 280.036 90.4574 280.169C90.8309 280.265 91.1924 280.458 91.5538 280.603C95.9273 282.386 100.494 282.988 105.18 282.651C108.024 282.446 110.71 281.53 113.313 280.398C113.674 280.241 114.012 280.048 114.373 279.88C115.433 279.386 115.506 279.41 116.506 280.819Z" fill="#D5E7EC"/>
<path d="M33.6149 126.543C34.6871 127.458 35.5426 128.543 36.2655 129.735C36.5546 130.217 36.904 130.651 37.2293 131.109C37.2655 131.253 37.2655 131.41 37.3377 131.531C38.8076 134.482 39.8076 137.603 40.5546 140.808C41.4703 144.735 42.3498 148.675 42.7112 152.711C42.6871 153.121 42.6871 153.543 42.651 153.952C42.5064 155.591 42.0486 157.133 41.3016 158.591C40.7715 159.627 40.2414 160.651 39.6149 161.651C38.7233 163.061 37.7353 164.386 36.5305 165.531C34.8317 167.133 32.8679 168.29 30.4944 168.603C30.0486 168.663 29.6028 168.603 29.145 168.603C29.0365 168.41 28.9643 168.193 28.8197 168.037C28.4462 167.663 28.0365 167.326 27.651 166.964C27.1811 166.531 26.6631 166.145 26.3739 165.543C26.3137 165.41 26.1811 165.314 26.0727 165.205C25.0606 164.193 24.2293 163.037 23.3618 161.904C22.0606 160.181 21.0606 158.29 19.9402 156.47C19.4221 155.639 19.0727 154.711 18.651 153.832C18.4703 153.458 18.2775 153.085 18.1329 152.699C17.7835 151.747 17.4341 150.784 17.1209 149.82C16.5908 148.169 16.1932 146.482 15.9522 144.772C15.7715 143.47 15.8197 142.133 15.7715 140.82C16.5185 141.856 17.2052 142.952 18.0365 143.916C19.5426 145.687 21.41 146.94 23.7715 147.29C25.6992 147.579 27.3377 146.976 28.7112 145.579C30.398 143.868 31.0606 141.735 31.2293 139.422C31.5667 134.82 30.2052 130.687 27.5185 126.988C26.7835 125.976 25.892 125.097 24.9522 124.29C26.0245 124.049 27.0968 124.085 28.1811 124.133C28.398 124.145 28.6269 124.121 28.8438 124.121C29.0486 124.193 29.2534 124.29 29.4582 124.326C30.5064 124.543 31.4944 124.928 32.41 125.506C32.8197 125.856 33.2173 126.205 33.6149 126.543ZM36.3257 144.121C35.1811 143.169 33.6872 143.711 33.4341 145.181C33.3739 145.555 33.3137 145.94 33.3618 146.302C33.639 148.241 33.9161 150.169 34.2775 152.097C34.4221 152.904 34.651 153.711 35.0606 154.446C35.3137 154.892 35.6269 155.241 36.0245 155.543C36.7594 156.121 37.6992 156.049 38.41 155.446C39.3859 154.615 39.6751 153.482 39.6992 152.302C39.7715 149.82 38.9884 147.555 37.6871 145.47C37.4703 145.121 37.1329 144.868 36.8438 144.567C36.8317 144.579 36.8317 144.579 36.8197 144.591C36.6631 144.422 36.5064 144.265 36.3257 144.121ZM33.6751 141.711C33.8438 141.916 34.0365 142.097 34.2534 142.253C34.9643 142.747 35.8076 142.458 36.0486 141.627C36.4221 140.35 35.8197 139.446 34.8438 138.868C34.5908 138.723 34.3257 138.772 34.1088 138.952C33.9643 139.073 33.8438 139.217 33.7835 139.265C33.1088 140.025 33.0847 140.988 33.6751 141.711Z" fill="#DEA736"/>
<path d="M70.916 172.458C69.0003 173.06 67.0365 173.434 65.0726 173.747C62.0967 174.229 59.0847 174.518 56.0606 174.506C53.1931 174.494 50.3377 174.193 47.5063 173.723C44.7112 173.253 41.9521 172.59 39.3015 171.578C37.8316 171.012 36.3738 170.398 35.0244 169.59C34.9762 169.301 35.1931 169.265 35.3497 169.193C36.6268 168.602 37.7955 167.868 38.7834 166.856C38.9883 166.639 39.2774 166.506 39.4943 166.313C39.7232 166.109 39.9401 165.904 40.1208 165.663C41.4461 163.88 42.7232 162.06 43.4822 159.94C44.169 158.012 44.6871 156.048 44.6148 153.964C44.6148 153.856 44.6389 153.735 44.6509 153.627C44.8557 153.711 45.0847 153.759 45.2774 153.88C46.5545 154.615 47.8196 155.362 49.0847 156.109C51.4822 157.53 53.8557 159 56.2895 160.362C59.7593 162.289 63.3859 163.868 67.0606 165.374C68.4943 165.964 69.8919 166.615 71.2774 167.301C71.9762 167.651 72.6871 168.048 73.2292 168.639C73.7112 169.157 74.0365 169.783 73.916 170.482C73.7955 171.205 73.4581 171.843 72.663 172.096C72.0847 172.205 71.4822 172.277 70.916 172.458ZM51.2774 164.988C52.3859 165.47 53.4822 165.964 54.663 166.253C55.4581 166.446 56.2533 166.41 57.0244 166.241C58.0365 166.024 58.4341 165.145 58.1208 164.157C57.916 163.506 57.4822 163.024 56.9521 162.675C55.3618 161.663 53.6991 160.771 51.8196 160.386C51.1931 160.253 50.5666 160.145 49.916 160.205C49.1931 160.277 48.5907 160.518 48.3377 161.265C48.0726 162.024 48.2654 162.675 48.8316 163.217C49.0244 163.398 49.2172 163.578 49.4822 163.819C49.928 164.325 50.5786 164.675 51.2774 164.988Z" fill="#80BAB0"/>
<path d="M29.1568 168.603C29.0483 168.41 28.9761 168.193 28.8315 168.036C28.458 167.663 28.0483 167.325 27.6628 166.964C27.1929 166.53 26.6749 166.145 26.3857 165.542C26.3255 165.41 26.1929 165.313 26.0845 165.205C25.0724 164.193 24.2411 163.036 23.3736 161.904C22.0724 160.181 21.0724 158.289 19.952 156.47C19.4339 155.639 19.0845 154.711 18.6628 153.831C18.4821 153.458 18.2893 153.084 18.1447 152.699C17.7953 151.747 17.4459 150.783 17.1327 149.819C16.6026 148.169 16.205 146.482 15.964 144.771C15.7833 143.47 15.8315 142.133 15.7833 140.819C15.7351 140.651 15.6869 140.494 15.6387 140.325C15.0604 139.482 14.7712 138.494 14.458 137.542C14.1206 136.518 13.8194 135.446 13.6989 134.374C13.5182 132.735 13.3616 131.084 13.711 129.446C13.7471 129.301 13.6869 129.157 13.6749 129C13.5544 129.036 13.4339 129.072 13.3134 129.109C13.0965 129.627 12.6267 129.916 12.217 130.277C11.4941 131.289 10.7351 132.265 10.2532 133.422C10.0724 133.831 9.90377 134.253 9.72305 134.663C9.55437 135.506 9.38569 136.35 9.21702 137.193C9.22907 137.337 9.25317 137.494 9.24112 137.639C9.04835 139.88 9.27726 142.097 9.83148 144.265C11.4941 150.819 14.2893 156.843 18.4821 162.181C20.0604 164.181 21.8917 165.916 24.1447 167.169C25.2773 167.795 26.458 168.277 27.7351 168.494C28.217 168.53 28.6869 168.566 29.1568 168.603Z" fill="#DA8F2E"/>
<path d="M29.1577 168.602C28.6878 168.566 28.2179 168.53 27.748 168.494C28.0613 168.723 28.0733 169.072 28.1336 169.41C28.3264 170.349 28.6396 171.229 29.1577 172.036C29.977 173.313 31.1215 174.205 32.483 174.855C34.0974 175.639 35.8324 176.036 37.5794 176.349C40.3023 176.831 43.0613 177.012 45.8203 177.084C48.8806 177.157 51.9529 177.072 55.0011 176.855C58.8926 176.578 62.7481 176.024 66.483 174.855C68.4348 174.241 70.3384 173.53 72.1215 172.494C72.3143 172.386 72.483 172.229 72.6637 172.096C72.0733 172.217 71.4709 172.301 70.9047 172.482C68.989 173.084 67.0252 173.458 65.0613 173.771C62.0854 174.253 59.0733 174.542 56.0492 174.53C53.1818 174.518 50.3264 174.217 47.495 173.747C44.6999 173.277 41.9408 172.614 39.2902 171.602C37.8203 171.036 36.3625 170.422 35.0131 169.614C34.9649 169.325 35.1818 169.289 35.3384 169.217C36.6155 168.627 37.7842 167.892 38.7721 166.88C38.977 166.663 39.2661 166.53 39.483 166.337C39.7119 166.133 39.9288 165.928 40.1095 165.687C41.4348 163.904 42.7119 162.084 43.4709 159.964C44.1577 158.036 44.6758 156.072 44.6035 153.988C44.6035 153.88 44.6276 153.759 44.6396 153.651C44.0613 153.205 43.3866 152.964 42.6999 152.771C42.6758 153.181 42.6758 153.602 42.6396 154.012C42.495 155.651 42.0372 157.193 41.2902 158.651C40.7601 159.687 40.23 160.711 39.6035 161.711C38.7119 163.121 37.7239 164.446 36.5191 165.59C34.8203 167.193 32.8565 168.349 30.483 168.663C30.0613 168.663 29.6035 168.602 29.1577 168.602Z" fill="#518889"/>
<path d="M13.6987 129C13.7107 129.145 13.7589 129.301 13.7348 129.446C13.3734 131.084 13.53 132.747 13.7228 134.373C13.8433 135.446 14.1445 136.506 14.4818 137.542C14.7951 138.494 15.0842 139.482 15.6626 140.325C15.7469 138.783 15.8433 137.253 16.1445 135.723C16.7469 132.711 18.0722 130.024 19.9276 127.602C20.7951 126.47 21.7589 125.398 22.9517 124.578C22.5662 124.651 22.1806 124.723 21.7951 124.795C21.0842 125.024 20.3734 125.277 19.6626 125.494C19.4939 125.542 19.3011 125.494 19.1204 125.494C18.9517 125.626 18.7951 125.795 18.6144 125.892C18.2168 126.096 17.7951 126.265 17.3975 126.47C16.6626 126.855 15.9517 127.253 15.2288 127.638C14.9879 127.843 14.7348 128.048 14.4939 128.265C14.2168 128.506 13.9638 128.759 13.6987 129Z" fill="#DEA736"/>
<path d="M32.4219 125.518C32.8195 125.868 33.2171 126.205 33.6146 126.554C34.6869 127.47 35.5424 128.554 36.2653 129.747C36.5544 130.229 36.9038 130.663 37.2291 131.121C37.8677 130.771 38.3737 130.277 38.8315 129.723C39.9038 128.446 39.964 126.687 38.94 125.374C38.5303 124.855 38.0966 124.313 37.3737 124.181C37.446 124.313 37.5062 124.434 37.6026 124.615C37.193 124.855 36.8074 125.084 36.4219 125.289C36.0363 125.506 35.6508 125.735 35.3616 126.096C35.0966 126.434 34.7833 126.735 34.4701 127.084C33.8195 126.494 33.2171 125.94 32.6147 125.398C32.5544 125.434 32.4821 125.47 32.4219 125.518Z" fill="#443D54"/>
<path d="M9.24077 137.193C9.40944 136.349 9.57812 135.506 9.74679 134.663C9.42149 134.397 9.20463 134.072 9.03595 133.687C8.50583 132.446 8.36125 131.193 8.77089 129.891C8.83113 129.687 8.83113 129.458 8.85523 129.241C8.13233 129.265 7.59016 129.638 7.12028 130.144C6.63836 130.65 6.38534 131.265 6.30101 131.952C6.15643 133.096 6.50583 134.096 7.13233 135.024C7.71065 135.867 8.40944 136.59 9.24077 137.193Z" fill="#383241"/>
<path d="M21.7833 124.795C22.1688 124.723 22.5544 124.651 22.9399 124.579C23.2773 124.482 23.6146 124.386 23.952 124.289C23.952 124.073 23.9038 123.832 23.976 123.639C24.3495 122.567 25.0483 121.759 25.9881 121.133C26.1929 120.988 26.4098 120.856 26.6628 120.687C26.4941 120.482 26.3736 120.338 26.2652 120.193C24.0845 119.301 21.952 120.506 21.6748 122.795C21.5785 123.458 21.6026 124.133 21.7833 124.795Z" fill="#383241"/>
<path d="M26.2522 120.169C26.3726 120.314 26.4811 120.458 26.6498 120.663C26.3967 120.832 26.1799 120.976 25.9751 121.109C25.0473 121.735 24.3365 122.555 23.963 123.615C23.8907 123.808 23.951 124.049 23.9389 124.265C24.2763 124.265 24.6136 124.277 24.951 124.277C26.0233 124.037 27.0955 124.073 28.1799 124.121C28.3967 124.133 28.6257 124.109 28.8425 124.109C28.7943 122.494 28.0594 121.253 26.7582 120.338C26.6257 120.253 26.4208 120.229 26.2522 120.169Z" fill="#453D54"/>
<path d="M8.8559 129.241C8.8318 129.458 8.8318 129.687 8.77156 129.892C8.36192 131.193 8.5065 132.446 9.03662 133.687C9.2053 134.072 9.42216 134.398 9.74746 134.663C9.92819 134.253 10.0969 133.832 10.2776 133.422C10.7595 132.265 11.5185 131.277 12.2414 130.277C11.6631 129.795 11.0246 129.422 10.2776 129.253C9.80771 129.133 9.33783 129.024 8.8559 129.241Z" fill="#453E54"/>
<path d="M13.699 129C13.9641 128.759 14.2171 128.506 14.4821 128.277C14.7231 128.06 14.9641 127.855 15.2171 127.65C14.7351 126.325 14.699 125.048 15.5906 123.855C15.7231 123.675 15.6508 123.506 15.5303 123.349C14.4701 123.349 13.6629 123.843 13.0604 124.675C12.4942 125.446 12.3978 126.337 12.5906 127.253C12.7351 127.916 12.94 128.554 13.3376 129.12C13.458 129.072 13.5785 129.036 13.699 129Z" fill="#383241"/>
<path d="M15.5295 123.35C15.6379 123.506 15.7222 123.675 15.5897 123.856C14.6981 125.049 14.7222 126.326 15.2162 127.651C15.9391 127.253 16.662 126.856 17.3849 126.482C17.7825 126.278 18.2042 126.121 18.6017 125.904C18.7945 125.808 18.9391 125.639 19.1078 125.506C18.6499 124.771 18.1319 124.109 17.3246 123.723C16.7584 123.446 16.1801 123.217 15.5295 123.35Z" fill="#463F55"/>
<path d="M32.6152 125.398C33.2176 125.952 33.82 126.494 34.4706 127.084C34.7959 126.735 35.0972 126.422 35.3622 126.096C35.6514 125.735 36.0249 125.506 36.4225 125.289C36.808 125.072 37.1815 124.855 37.6032 124.615C37.5068 124.434 37.4466 124.301 37.3743 124.181C35.9526 123.41 34.6393 123.771 33.3863 124.602C33.0851 124.795 32.8682 125.121 32.6152 125.398Z" fill="#393243"/>
<path d="M24.9636 124.289C24.6263 124.289 24.2889 124.277 23.9516 124.277C23.6142 124.373 23.2769 124.47 22.9395 124.566C21.7468 125.385 20.7829 126.458 19.9155 127.59C18.06 130.012 16.7468 132.699 16.1323 135.711C15.8311 137.229 15.7347 138.771 15.6504 140.313C15.6986 140.482 15.7468 140.638 15.795 140.807C16.542 141.843 17.2287 142.94 18.06 143.903C19.5661 145.675 21.4335 146.928 23.795 147.277C25.7227 147.566 27.3612 146.964 28.7347 145.566C30.4215 143.855 31.0841 141.723 31.2528 139.41C31.5901 134.807 30.2287 130.675 27.542 126.976C26.807 125.988 25.9154 125.108 24.9636 124.289Z" fill="#E3B540"/>
<path d="M36.8311 144.578C36.6625 144.422 36.5058 144.265 36.3251 144.121C35.1805 143.169 33.6866 143.711 33.4336 145.181C33.3733 145.554 33.3131 145.94 33.3613 146.301C33.6384 148.241 33.9155 150.169 34.2769 152.097C34.4215 152.904 34.6504 153.711 35.0601 154.446C35.3131 154.892 35.6263 155.241 36.0239 155.542C36.7589 156.121 37.6986 156.048 38.4095 155.446C39.3854 154.615 39.6745 153.482 39.6986 152.301C39.7709 149.819 38.9878 147.554 37.6866 145.47C37.4697 145.121 37.1323 144.868 36.8432 144.566L36.8311 144.578Z" fill="#E3B540"/>
<path d="M33.7946 139.265C33.1079 140.036 33.0838 141 33.6741 141.723C33.8428 141.928 34.0356 142.109 34.2524 142.265C34.9633 142.759 35.8066 142.47 36.0476 141.639C36.4211 140.362 35.8187 139.458 34.8428 138.88C34.5898 138.735 34.3247 138.783 34.1079 138.964C33.9633 139.073 33.8428 139.217 33.7946 139.265Z" fill="#E3B540"/>
<path d="M49.4822 163.82C49.928 164.326 50.5786 164.675 51.2894 164.988C52.3978 165.47 53.4942 165.964 54.6749 166.253C55.4701 166.446 56.2653 166.41 57.0364 166.241C58.0484 166.024 58.446 165.145 58.1328 164.157C57.928 163.506 57.4942 163.024 56.9641 162.675C55.3737 161.663 53.7111 160.771 51.8316 160.386C51.2051 160.253 50.5786 160.145 49.928 160.205C49.2051 160.277 48.6027 160.518 48.3496 161.265C48.0846 162.024 48.2774 162.675 48.8436 163.217C49.0123 163.398 49.2051 163.579 49.4822 163.82Z" fill="#9FD5D8"/>
</svg>
