<svg width="284" height="284" viewBox="0 0 284 284" fill="none" xmlns="http://www.w3.org/2000/svg">
<path d="M132.08 24.1201C133.55 23.1701 135.03 23.4601 136.47 24.1801C137.49 24.6901 138.24 25.5201 138.75 26.5301C140.04 29.0801 140.32 31.7601 139.58 34.5301C139.44 34.5301 139.28 34.5501 139.15 34.5101C137.48 34.0501 135.93 33.3101 134.57 32.2301C133.3 31.2201 132.54 29.8301 131.9 28.3701C131.84 28.2401 131.8 28.0901 131.8 27.9601C131.81 27.0601 131.67 26.1501 131.92 25.2501C132.03 24.8901 132.03 24.5001 132.08 24.1201ZM133.83 25.8901C133.78 26.4601 134.04 26.9201 134.34 27.3601C134.88 28.1601 135.45 28.9201 135.72 29.8801C135.82 30.2301 136.1 30.5501 136.35 30.8301C137 31.5401 137.56 31.4701 138.08 30.6301C138.33 30.2101 138.53 29.7901 138.3 29.2701C138.19 29.0201 138.21 28.7101 138.15 28.4201C137.9 27.0801 137.17 26.0301 136.13 25.1801C135.91 25.0001 135.63 24.8701 135.36 24.7801C134.7 24.5601 133.85 25.1801 133.83 25.8901Z" fill="#E4B742"/>
<path d="M136.16 37.4201C135.61 37.1401 135.04 36.8801 134.5 36.5801C132.88 35.7001 131.44 34.6001 130.41 33.0501C129.07 31.0501 128.66 28.9301 129.63 26.6501C129.72 26.4401 129.9 26.2701 130.04 26.0801C130.02 27.2301 130.08 28.3801 130.57 29.4401C132.1 32.7301 134.45 35.0701 138.12 35.8401C138.06 35.9101 137.99 35.9701 137.9 35.9901C137.79 36.0701 137.69 36.1401 137.58 36.2201C137.1 36.6201 136.63 37.0201 136.16 37.4201Z" fill="#DB9333"/>
<path d="M138.11 35.8301C134.43 35.0601 132.08 32.7201 130.56 29.4301C130.07 28.3701 130.01 27.2201 130.03 26.0701C130.42 25.1001 131.13 24.4901 132.09 24.1201C132.04 24.5001 132.04 24.8901 131.94 25.2501C131.69 26.1501 131.83 27.0601 131.82 27.9601C131.82 28.1001 131.87 28.2401 131.92 28.3701C132.56 29.8301 133.32 31.2201 134.59 32.2301C135.95 33.3101 137.49 34.0501 139.17 34.5101C139.3 34.5501 139.46 34.5201 139.6 34.5301C139.61 34.6601 139.62 34.7901 139.63 34.9201C139.66 35.3301 139.89 35.3901 140.24 35.2901C139.52 35.4701 138.82 35.6501 138.11 35.8301Z" fill="#E0A738"/>
<path d="M138.11 35.83C138.82 35.65 139.52 35.47 140.22 35.29C140.74 35.42 141.35 35.41 141.66 36C141.45 36.79 141.16 37.57 140.51 38.08C139.52 38.87 138.36 39.08 137.14 38.77C136.68 38.65 136.25 38.44 135.8 38.27C135.92 37.98 136.04 37.69 136.16 37.41C136.63 37.01 137.1 36.61 137.57 36.21C137.68 36.13 137.78 36.06 137.89 35.98C137.98 35.96 138.05 35.91 138.11 35.83Z" fill="#63A291"/>
<path d="M135.8 38.2803C136.24 38.4503 136.68 38.6603 137.14 38.7803C138.37 39.0903 139.52 38.8703 140.51 38.0903C141.17 37.5703 141.45 36.8003 141.66 36.0103C142.17 36.3603 142.23 36.8803 142.06 37.3903C141.9 37.8703 141.65 38.3403 141.36 38.7503C141.09 39.1303 140.71 39.4303 140.38 39.7603C139.89 39.8403 139.44 39.9903 139.17 40.4603C138.47 40.5603 137.76 40.7703 137.07 40.7203C135.71 40.6203 135.23 39.6403 135.8 38.2803Z" fill="#568C8D"/>
<path d="M133.83 25.8899C133.86 25.1899 134.7 24.5599 135.37 24.7799C135.64 24.8699 135.92 24.9999 136.14 25.1799C137.17 26.0299 137.91 27.0799 138.16 28.4199C138.21 28.6999 138.19 29.0099 138.31 29.2699C138.54 29.7899 138.34 30.2199 138.09 30.6299C137.58 31.4699 137.02 31.5399 136.36 30.8299C136.1 30.5499 135.83 30.2299 135.73 29.8799C135.46 28.9299 134.89 28.1599 134.35 27.3599C134.03 26.9199 133.78 26.4499 133.83 25.8899Z" fill="#E9CF54"/>
<path d="M137.89 35.9902C137.78 36.0702 137.68 36.1402 137.57 36.2202C137.67 36.1402 137.78 36.0602 137.89 35.9902Z" fill="#CBA956"/>
<path d="M139.1 40.0901C139.46 39.7601 139.88 39.5901 140.36 39.5601C140.67 40.3101 140.83 41.1301 141.44 41.8601C141.72 41.8001 142.05 41.7801 142.34 41.6601C142.93 41.4401 143.49 41.1501 144.07 40.9201C144.47 40.7601 144.88 40.5901 145.3 40.5201C146.06 40.4001 146.64 40.9901 146.5 41.7401C146.43 42.1101 146.29 42.4901 146.08 42.8001C145.53 43.5901 144.94 44.3501 144.35 45.1101C144.09 45.4501 143.79 45.7601 143.49 46.1101C143.84 47.3701 144.5 48.4401 145.06 49.5501C144.79 49.9701 144.4 50.2301 143.93 50.3701C143.43 49.3801 142.94 48.3901 142.44 47.4001C141.92 46.3701 142.05 45.4601 142.9 44.6401C143.31 44.2401 143.67 43.7801 144.03 43.3301C144.19 43.1401 144.25 42.9101 144.1 42.7501C143.86 42.5101 143.68 42.6501 143.51 42.7001C143.15 42.8201 142.78 42.9501 142.43 43.1101C141.51 43.5301 140.47 43.2501 139.91 42.0901C139.58 41.4601 139.36 40.7701 139.1 40.0901Z" fill="#50495E"/>
<path d="M116.63 200.84C116.65 200.73 116.66 200.62 116.7 200.52C117.55 198.47 118.57 196.51 119.84 194.69C120.12 194.29 120.48 194.16 120.93 194.28C123.46 194.99 126.02 195.62 128.39 196.82C129.44 197.36 130.45 197.97 131.33 198.76C132.4 199.71 133.21 200.84 133.55 202.25C133.74 203.05 133.75 203.86 133.66 204.67C133.4 205.88 133 207.03 132.46 208.14C132.3 208.47 132.16 208.8 132 209.13C130.88 211.43 130.07 213.83 129.56 216.33C129.3 217.59 129.04 218.84 128.72 220.09C128.3 221.76 127.65 223.32 126.36 224.54L126.37 224.55C126.32 224.57 126.27 224.6 126.22 224.62C126.17 224.64 126.11 224.65 126.07 224.68C124.4 225.74 122.76 225.58 121.13 224.6C121.16 224.43 121.27 224.32 121.4 224.2C121.93 223.7 122.5 223.23 122.94 222.65C123.51 221.89 123.9 221.01 124.15 220.09C124.51 218.74 124.67 217.36 124.87 215.98C124.95 215.43 125.02 214.88 125.12 214.33C125.35 213.04 125.65 211.77 126 210.5C126.06 210.28 126.09 210.06 125.92 209.8C125.66 209.69 125.33 209.6 125.05 209.42C124.3 208.93 123.51 208.53 122.78 208C121.92 207.37 121.18 206.6 120.34 205.96C120.08 205.76 119.94 205.42 119.7 205.19C118.97 204.52 118.41 203.72 117.82 202.94C117.34 202.3 116.95 201.59 116.63 200.84Z" fill="#518889"/>
<path d="M126.37 224.54C127.66 223.33 128.31 221.76 128.73 220.09C129.04 218.85 129.31 217.59 129.57 216.33C130.09 213.83 130.9 211.43 132.01 209.13C132.17 208.8 132.31 208.47 132.47 208.14C133 207.03 133.41 205.87 133.67 204.67C133.79 205.36 133.92 206.05 134.05 206.73C134.7 210.18 135.76 213.51 137.09 216.76C137.76 218.39 138.46 220.01 139.13 221.64C139.66 222.94 140.08 224.27 140.23 225.68C140.36 226.93 140.25 228.14 139.75 229.3C139.71 229.4 139.69 229.52 139.66 229.62C139.59 229.7 139.5 229.78 139.45 229.88C138.86 230.92 138.02 231.74 137.05 232.43C135.44 233.58 133.65 234.36 131.74 234.87C130.88 235.1 130.01 235.33 129.1 235.32C129.29 235.21 129.48 235.09 129.68 235.01C130.76 234.55 131.79 234 132.75 233.32C133.58 232.73 134.22 231.95 134.95 231.26C135.01 231.2 135.06 231.13 135.11 231.06C135.84 230.03 136.16 228.86 136.33 227.63C136.35 227.47 136.3 227.3 136.28 227.14C136.26 227 136.19 226.87 136.19 226.73C136.21 226.04 135.98 225.41 135.77 224.78C135.32 223.39 134.66 222.1 133.88 220.87C133.4 220.12 132.88 219.39 132.35 218.67C132.18 218.44 131.99 218.19 131.62 218.08C131.51 218.36 131.4 218.61 131.32 218.87C130.68 220.76 129.72 222.43 128.18 223.73C127.64 224.15 127.1 224.55 126.37 224.54Z" fill="#DA8F2E"/>
<path d="M119.3 232.07C118.75 231.33 118.15 230.62 117.65 229.85C116.38 227.88 115.6 225.7 115.14 223.41C114.84 221.93 114.66 220.43 114.68 218.92C114.69 218.34 114.78 217.75 114.83 217.17C114.93 217.46 115.06 217.74 115.12 218.03C115.34 219.02 115.66 219.97 116.07 220.88C116.36 221.51 116.7 222.13 117.09 222.71C117.68 223.6 118.47 224.32 119.25 225.05C119.53 225.32 119.85 225.56 120.2 225.73C121.34 226.32 122.46 226.96 123.77 227.13C124.89 227.28 125.98 227.35 127.07 226.94C127.97 226.59 128.81 226.17 129.46 225.44C129.98 224.86 130.47 224.25 130.97 223.65C131.23 223.33 131.42 223.3 131.74 223.59C132.38 224.16 132.82 224.85 133.14 225.65C133.44 226.4 133.48 227.16 133.47 227.95C133.47 228.7 133.26 229.41 132.88 230.02C132.27 231.03 131.43 231.87 130.39 232.46C128.43 233.57 126.33 234.14 124.07 234.13C123.48 234.13 122.89 234.14 122.3 234.15C121.59 233.93 121.02 233.47 120.45 233.03C120.05 232.74 119.68 232.4 119.3 232.07Z" fill="#E3B540"/>
<path d="M116.63 200.84C116.95 201.58 117.34 202.29 117.83 202.94C118.42 203.72 118.98 204.52 119.71 205.19C119.95 205.41 120.09 205.76 120.35 205.96C121.19 206.6 121.93 207.37 122.79 208C123.52 208.53 124.31 208.93 125.06 209.42C125.34 209.6 125.67 209.69 125.93 209.8C126.1 210.06 126.07 210.28 126.01 210.5C125.66 211.76 125.36 213.04 125.13 214.33C125.03 214.88 124.96 215.43 124.88 215.98C124.67 217.36 124.52 218.74 124.16 220.09C123.91 221.01 123.53 221.9 122.95 222.65C122.52 223.22 121.94 223.7 121.41 224.2C121.28 224.32 121.17 224.43 121.14 224.6C120.4 224.3 119.81 223.8 119.23 223.26C117.26 221.41 116.04 219.12 115.28 216.56C115.19 216.27 115.09 215.98 114.99 215.69C114.93 215.28 114.86 214.86 114.8 214.45C114.13 209.83 114.86 205.39 116.48 201.05C116.52 200.97 116.58 200.91 116.63 200.84ZM116.32 211.42C116.32 211.62 116.3 211.82 116.32 212.01C116.48 213.05 116.6 214.11 116.82 215.14C117.11 216.51 117.5 217.84 118.35 219C118.69 219.47 119.1 219.82 119.56 220.13C119.93 220.38 120.35 220.4 120.77 220.33C121.05 220.28 121.32 220.17 121.47 219.91C121.68 219.55 121.86 219.18 121.85 218.73C121.83 217.85 121.59 217.03 121.37 216.19C120.92 214.49 120.45 212.8 120.14 211.07C120.01 210.36 119.82 209.66 119.64 208.96C119.55 208.6 119.34 208.3 119.05 208.06C118.36 207.49 117.41 207.65 116.96 208.43C116.82 208.67 116.71 208.93 116.62 209.2C116.41 209.92 116.39 210.68 116.32 211.42Z" fill="#5FA091"/>
<path d="M119.3 232.07C119.68 232.39 120.06 232.74 120.45 233.04C121.03 233.48 121.59 233.94 122.3 234.16C122.49 234.27 122.67 234.39 122.87 234.48C124.86 235.32 126.94 235.53 129.08 235.3C129.99 235.32 130.85 235.08 131.72 234.85C133.63 234.34 135.42 233.56 137.03 232.41C138 231.72 138.84 230.91 139.43 229.86C139.48 229.77 139.57 229.69 139.64 229.6C140.19 230.61 140.61 231.67 140.74 232.83C140.89 234.15 140.56 235.32 139.76 236.37C139.14 237.18 138.34 237.8 137.48 238.33C136.08 239.18 134.57 239.75 132.99 240.16C131.07 240.67 129.11 240.99 127.14 241.21C125.27 241.42 123.4 241.55 121.53 241.51C120.07 241.47 118.63 241.34 117.2 241.02C116.38 240.84 115.58 240.6 114.84 240.18C114.67 240.09 114.53 239.96 114.37 239.84C114.57 239.85 114.77 239.84 114.95 239.88C115.69 240.03 116.42 240.2 117.18 240.19C117.32 240.19 117.45 240.23 117.59 240.25C117.87 240.29 118.14 240.34 118.42 240.35C119.09 240.36 119.76 240.36 120.44 240.35C120.66 240.35 120.88 240.32 121.11 240.29C121.41 240.26 121.72 240.21 122.02 240.18C122.71 240.11 123.42 240.1 124.09 239.96C125.23 239.71 126.38 239.52 127.51 239.2C129.21 238.71 130.84 238.08 132.34 237.13C132.64 236.94 132.9 236.67 133.17 236.43C133.2 236.4 133.2 236.33 133.21 236.27C132.98 236.13 132.78 236.3 132.59 236.36C131.28 236.77 129.94 237.02 128.57 236.99C128.07 236.98 127.56 236.99 127.06 236.99C126.45 236.99 125.84 236.96 125.23 236.84C122.36 236.27 120.04 234.88 118.34 232.48C118.65 232.35 118.97 232.21 119.3 232.07Z" fill="#3A3444"/>
<path d="M129.09 235.31C126.95 235.54 124.88 235.33 122.88 234.49C122.68 234.41 122.5 234.28 122.31 234.17C122.9 234.16 123.49 234.15 124.08 234.15C126.34 234.16 128.44 233.59 130.4 232.48C131.44 231.89 132.27 231.05 132.89 230.04C133.26 229.42 133.48 228.72 133.48 227.97C133.48 227.18 133.45 226.42 133.15 225.67C132.83 224.87 132.39 224.18 131.75 223.61C131.43 223.32 131.25 223.35 130.98 223.67C130.48 224.27 129.99 224.88 129.47 225.46C128.82 226.19 127.98 226.61 127.08 226.96C125.99 227.38 124.9 227.3 123.78 227.15C122.47 226.98 121.35 226.33 120.21 225.75C119.87 225.57 119.54 225.33 119.26 225.07C118.49 224.34 117.69 223.62 117.1 222.73C116.72 222.15 116.37 221.53 116.08 220.9C115.67 219.98 115.34 219.03 115.13 218.05C115.06 217.76 114.94 217.48 114.84 217.19C114.9 216.69 114.96 216.2 115.01 215.7C115.11 215.99 115.21 216.28 115.3 216.57C116.06 219.13 117.27 221.43 119.25 223.27C119.82 223.8 120.42 224.31 121.16 224.61C122.79 225.59 124.44 225.75 126.1 224.69C126.15 224.66 126.2 224.65 126.25 224.63C126.3 224.61 126.35 224.58 126.4 224.56L126.39 224.55C127.11 224.56 127.66 224.17 128.17 223.73C129.71 222.43 130.67 220.75 131.31 218.87C131.4 218.61 131.51 218.36 131.61 218.08C131.97 218.19 132.17 218.44 132.34 218.67C132.87 219.39 133.39 220.11 133.87 220.87C134.65 222.1 135.31 223.39 135.76 224.78C135.97 225.41 136.2 226.05 136.18 226.73C136.18 226.86 136.24 227 136.27 227.14C136.3 227.3 136.35 227.47 136.32 227.63C136.16 228.86 135.83 230.03 135.1 231.06C135.05 231.13 135 231.2 134.94 231.26C134.21 231.95 133.57 232.73 132.74 233.32C131.78 234.01 130.75 234.56 129.67 235.01C129.46 235.08 129.28 235.2 129.09 235.31Z" fill="#DEA736"/>
<path d="M118.33 232.49C120.02 234.89 122.35 236.29 125.22 236.85C125.83 236.97 126.44 237 127.05 237C127.55 237 128.06 236.99 128.56 237C129.94 237.03 131.27 236.78 132.58 236.37C132.77 236.31 132.97 236.14 133.2 236.28C133.19 236.34 133.19 236.41 133.16 236.44C132.89 236.68 132.63 236.95 132.33 237.14C130.83 238.09 129.21 238.73 127.5 239.21C126.37 239.53 125.22 239.73 124.08 239.97C123.4 240.12 122.7 240.12 122.01 240.19C121.71 240.22 121.4 240.27 121.1 240.3C120.88 240.32 120.66 240.35 120.43 240.36C119.76 240.37 119.09 240.37 118.41 240.36C118.13 240.35 117.86 240.3 117.58 240.26C117.44 240.24 117.3 240.2 117.17 240.2C116.41 240.21 115.68 240.04 114.94 239.89C114.75 239.85 114.55 239.86 114.36 239.85C113.22 239.25 112.55 237.76 113.32 236.22C113.63 235.61 114.05 235.09 114.57 234.65C115.69 233.71 116.94 232.98 118.33 232.49Z" fill="#453E54"/>
<path d="M126.39 224.54C126.34 224.56 126.29 224.59 126.24 224.61C126.29 224.59 126.34 224.57 126.39 224.54Z" fill="#DA8F2E"/>
<path d="M116.32 211.42C116.39 210.67 116.41 209.92 116.64 209.2C116.72 208.94 116.84 208.68 116.98 208.43C117.43 207.65 118.37 207.49 119.07 208.06C119.36 208.3 119.57 208.59 119.66 208.96C119.84 209.66 120.03 210.36 120.16 211.07C120.47 212.8 120.94 214.49 121.39 216.19C121.61 217.02 121.85 217.85 121.87 218.73C121.88 219.18 121.7 219.54 121.49 219.91C121.34 220.17 121.07 220.29 120.79 220.33C120.37 220.4 119.95 220.38 119.58 220.13C119.12 219.82 118.71 219.47 118.37 219C117.52 217.84 117.13 216.5 116.84 215.14C116.62 214.11 116.5 213.06 116.34 212.01C116.29 211.82 116.32 211.62 116.32 211.42Z" fill="#80BAB0"/>
<path d="M149.07 204.54C148.98 203.7 149 202.86 149.21 202.04C149.48 200.95 150.05 200.03 150.81 199.22C151.8 198.16 152.99 197.38 154.27 196.73C155.87 195.91 157.57 195.35 159.29 194.84C160.07 194.61 160.85 194.4 161.64 194.19C162.3 194.01 162.55 194.1 162.93 194.63C164.21 196.42 165.19 198.36 166.03 200.38C166.08 200.51 166.1 200.65 166.14 200.78C165.22 202.56 164 204.11 162.64 205.56C162.08 206.15 161.49 206.7 160.83 207.18C160.18 207.65 159.58 208.21 158.85 208.59C158.3 208.87 157.77 209.18 157.23 209.47C156.65 209.78 156.62 209.84 156.77 210.45C156.78 210.48 156.79 210.5 156.8 210.53C157.21 212.12 157.58 213.72 157.82 215.35C158 216.56 158.14 217.78 158.37 218.98C158.6 220.19 158.97 221.37 159.72 222.38C160.29 223.14 161 223.78 161.74 224.38C161.34 224.75 160.82 224.89 160.32 225.04C159.12 225.39 157.96 225.33 156.86 224.67C156.77 224.61 156.66 224.58 156.56 224.54C155.36 223.52 154.68 222.2 154.23 220.72C154.14 220.43 154.05 220.13 153.98 219.83C153.68 218.49 153.39 217.15 153.1 215.81C152.56 213.33 151.71 210.97 150.59 208.7C149.93 207.37 149.36 206 149.07 204.54Z" fill="#518889"/>
<path d="M149.07 204.54C149.36 206.01 149.93 207.38 150.59 208.71C151.7 210.98 152.56 213.35 153.1 215.82C153.39 217.16 153.68 218.5 153.98 219.84C154.05 220.14 154.14 220.43 154.23 220.73C154.68 222.2 155.36 223.53 156.56 224.55C156.07 224.61 155.71 224.33 155.32 224.11C154.63 223.72 154.14 223.09 153.57 222.56C153.11 222.13 152.77 221.63 152.49 221.08C152.02 220.16 151.55 219.24 151.28 218.23C151.25 218.11 151.14 218.02 151.08 217.92C150.64 218.11 150.5 218.5 150.26 218.8C149.24 220.06 148.39 221.43 147.68 222.89C147 224.28 146.62 225.75 146.43 227.28C146.41 227.44 146.43 227.62 146.45 227.78C146.49 228.03 146.53 228.27 146.6 228.51C146.73 228.96 146.82 229.42 147.04 229.86C147.74 231.23 148.74 232.33 150.02 233.18C150.95 233.8 151.89 234.39 152.93 234.81C153.13 234.89 153.31 235.04 153.49 235.16C153.27 235.15 153.04 235.17 152.82 235.14C150.67 234.8 148.64 234.08 146.76 232.99C145.34 232.16 144.08 231.15 143.25 229.69C143.21 229.62 143.14 229.56 143.09 229.5C142.88 228.83 142.62 228.19 142.53 227.48C142.35 226.06 142.59 224.69 142.98 223.34C143.37 221.99 143.93 220.71 144.49 219.42C145.59 216.87 146.64 214.31 147.44 211.65C148.12 209.4 148.68 207.11 148.99 204.78C149 204.69 149.04 204.61 149.07 204.54Z" fill="#DA8F2E"/>
<path d="M167.91 217C168.19 218.48 168.08 219.96 167.91 221.43C167.69 223.27 167.26 225.07 166.58 226.79C165.87 228.57 164.94 230.23 163.65 231.66C163.58 231.74 163.52 231.84 163.45 231.93C163.26 232.09 163.08 232.26 162.89 232.42C162.18 233.03 161.46 233.64 160.57 233.98C159.62 233.98 158.67 233.98 157.71 233.98C157.51 233.98 157.31 234 157.12 233.96C156.16 233.78 155.21 233.6 154.28 233.28C152.69 232.72 151.33 231.85 150.28 230.52C149.76 229.87 149.41 229.12 149.31 228.32C149.09 226.61 149.53 225.05 150.7 223.74C151.13 223.26 151.42 223.26 151.9 223.73C151.98 223.81 152.08 223.88 152.13 223.97C152.5 224.58 153.03 225.03 153.53 225.52C154.57 226.54 155.81 227.11 157.29 227.08C157.49 227.08 157.68 227.07 157.88 227.08C158.94 227.14 159.93 226.83 160.89 226.47C162.22 225.98 163.29 225.07 164.37 224.18C164.45 224.11 164.51 224.01 164.58 223.92C164.7 223.77 164.81 223.6 164.94 223.46C165.48 222.92 165.86 222.27 166.23 221.61C166.89 220.43 167.31 219.16 167.62 217.85C167.68 217.57 167.81 217.29 167.91 217Z" fill="#E3B540"/>
<path d="M161.73 224.39C160.99 223.79 160.29 223.15 159.71 222.39C158.96 221.38 158.59 220.21 158.36 218.99C158.13 217.79 157.98 216.57 157.81 215.36C157.57 213.74 157.2 212.13 156.79 210.54C156.78 210.51 156.77 210.49 156.76 210.46C156.61 209.85 156.64 209.79 157.22 209.48C157.76 209.19 158.29 208.88 158.84 208.6C159.57 208.23 160.16 207.67 160.82 207.19C161.47 206.71 162.07 206.16 162.63 205.57C163.99 204.12 165.21 202.56 166.13 200.79C166.28 201.12 166.44 201.44 166.56 201.78C167.57 204.71 168.16 207.73 168.18 210.83C168.19 212.14 168.12 213.46 167.84 214.76C167.78 215.03 167.77 215.31 167.74 215.59C167.64 215.88 167.52 216.16 167.44 216.45C166.76 218.72 165.72 220.8 164.08 222.54C163.4 223.28 162.66 223.97 161.73 224.39ZM166.46 211.31C166.37 210.63 166.33 209.99 166.2 209.36C166.1 208.83 165.86 208.36 165.43 208C164.67 207.34 163.84 207.48 163.34 208.36C163.02 208.93 162.84 209.53 162.72 210.17C162.48 211.4 162.23 212.63 161.94 213.85C161.64 215.13 161.27 216.38 160.98 217.66C160.89 218.06 160.87 218.49 160.9 218.9C160.93 219.19 161.05 219.5 161.21 219.75C161.55 220.26 162.52 220.38 163.11 220.05C163.92 219.59 164.45 218.87 164.87 218.07C165.73 216.41 166.06 214.6 166.26 212.77C166.28 212.58 166.3 212.38 166.32 212.19C166.37 211.87 166.42 211.57 166.46 211.31Z" fill="#5FA091"/>
<path d="M160.56 233.98C161.45 233.63 162.17 233.03 162.88 232.42C163.07 232.26 163.25 232.1 163.44 231.93C163.84 232.11 164.23 232.29 164.63 232.47C164.44 232.43 164.34 232.54 164.22 232.68C163.31 233.7 162.36 234.68 161.15 235.38C159.7 236.22 158.17 236.76 156.49 236.84C156.32 236.85 156.16 236.89 156 236.92C155.36 237.05 154.72 237.02 154.08 236.94C153.78 236.9 153.47 236.85 153.17 236.83C152.84 236.81 152.51 236.78 152.18 236.71C151.44 236.55 150.7 236.46 149.99 236.19C149.94 236.17 149.88 236.17 149.83 236.19C149.78 236.21 149.73 236.25 149.72 236.29C149.7 236.33 149.71 236.41 149.74 236.44C149.81 236.52 149.9 236.59 149.99 236.65C150.89 237.27 151.82 237.82 152.83 238.25C153.92 238.71 155.05 239.02 156.18 239.32C156.88 239.51 157.6 239.6 158.31 239.73C158.99 239.86 159.67 240.04 160.37 240.01C160.48 240.01 160.6 240 160.7 240.04C161.19 240.23 161.69 240.17 162.2 240.18C163.07 240.19 163.94 240.18 164.81 240.18C165.03 240.18 165.26 240.18 165.48 240.14C166.39 239.97 167.29 239.84 168.21 239.84C167.68 240.29 167.03 240.48 166.4 240.67C165 241.09 163.55 241.28 162.1 241.34C159.43 241.45 156.78 241.29 154.14 240.89C152.09 240.59 150.06 240.2 148.1 239.51C147.01 239.13 145.96 238.67 145.01 238.01C144.48 237.64 143.96 237.25 143.51 236.8C142.11 235.42 141.7 233.75 142.17 231.86C142.38 231.01 142.7 230.21 143.13 229.45C143.18 229.51 143.25 229.57 143.29 229.64C144.12 231.1 145.38 232.12 146.8 232.94C148.68 234.03 150.71 234.75 152.86 235.09C153.08 235.12 153.31 235.11 153.53 235.11C155.13 235.42 156.71 235.22 158.27 234.86C159.05 234.71 159.85 234.46 160.56 233.98Z" fill="#3A3444"/>
<path d="M160.56 233.98C159.85 234.45 159.05 234.71 158.24 234.9C156.68 235.26 155.1 235.46 153.5 235.15C153.31 235.03 153.14 234.88 152.94 234.8C151.9 234.38 150.96 233.79 150.03 233.17C148.75 232.32 147.75 231.22 147.05 229.85C146.83 229.42 146.74 228.96 146.61 228.5C146.54 228.26 146.5 228.01 146.46 227.77C146.44 227.61 146.42 227.43 146.44 227.27C146.62 225.74 147.01 224.27 147.69 222.88C148.4 221.42 149.25 220.05 150.27 218.79C150.51 218.49 150.65 218.1 151.09 217.91C151.16 218.01 151.26 218.11 151.29 218.22C151.56 219.23 152.03 220.15 152.5 221.07C152.78 221.62 153.12 222.12 153.58 222.55C154.15 223.08 154.64 223.71 155.33 224.1C155.71 224.32 156.08 224.6 156.57 224.54C156.67 224.58 156.78 224.62 156.87 224.67C157.97 225.33 159.13 225.4 160.33 225.04C160.83 224.89 161.35 224.75 161.75 224.38C162.68 223.96 163.41 223.27 164.1 222.54C165.74 220.8 166.77 218.72 167.46 216.45C167.55 216.16 167.66 215.88 167.76 215.59C167.81 216.06 167.87 216.52 167.92 216.99C167.82 217.28 167.7 217.56 167.63 217.85C167.32 219.16 166.9 220.43 166.24 221.61C165.87 222.27 165.49 222.92 164.95 223.46C164.81 223.6 164.71 223.76 164.59 223.92C164.52 224.01 164.47 224.11 164.38 224.18C163.31 225.07 162.23 225.98 160.9 226.47C159.94 226.83 158.94 227.14 157.89 227.08C157.69 227.07 157.5 227.08 157.3 227.08C155.82 227.11 154.58 226.54 153.54 225.52C153.04 225.03 152.51 224.57 152.14 223.97C152.08 223.88 151.99 223.81 151.91 223.73C151.43 223.27 151.14 223.26 150.71 223.74C149.54 225.05 149.1 226.61 149.32 228.32C149.42 229.12 149.77 229.87 150.29 230.52C151.34 231.85 152.7 232.72 154.29 233.28C155.22 233.6 156.17 233.78 157.13 233.96C157.32 234 157.52 233.98 157.72 233.98C158.65 233.98 159.6 233.98 160.56 233.98Z" fill="#DEA736"/>
<path d="M168.19 239.86C167.27 239.86 166.36 240 165.46 240.16C165.24 240.2 165.01 240.2 164.79 240.2C163.92 240.2 163.05 240.21 162.18 240.2C161.68 240.2 161.17 240.25 160.68 240.06C160.58 240.02 160.46 240.03 160.35 240.03C159.65 240.05 158.97 239.87 158.29 239.75C157.58 239.62 156.86 239.53 156.16 239.34C155.03 239.04 153.9 238.73 152.81 238.27C151.8 237.84 150.87 237.29 149.97 236.67C149.88 236.61 149.79 236.54 149.72 236.46C149.69 236.43 149.69 236.35 149.7 236.31C149.72 236.27 149.77 236.22 149.81 236.21C149.86 236.19 149.93 236.19 149.97 236.21C150.68 236.48 151.43 236.57 152.16 236.73C152.49 236.8 152.82 236.83 153.15 236.85C153.45 236.87 153.76 236.92 154.06 236.96C154.7 237.04 155.34 237.07 155.98 236.94C156.14 236.91 156.31 236.86 156.47 236.86C158.15 236.78 159.68 236.23 161.13 235.4C162.34 234.7 163.29 233.72 164.2 232.7C164.32 232.56 164.42 232.45 164.61 232.49C166.16 233.04 167.53 233.88 168.66 235.07C169.03 235.46 169.32 235.9 169.51 236.41C169.93 237.52 169.73 238.5 168.9 239.34C168.71 239.53 168.43 239.68 168.19 239.86Z" fill="#443E54"/>
<path d="M166.46 211.31C166.42 211.58 166.37 211.88 166.33 212.18C166.3 212.37 166.29 212.57 166.27 212.76C166.07 214.6 165.75 216.41 164.88 218.06C164.47 218.86 163.94 219.58 163.12 220.04C162.53 220.38 161.56 220.25 161.22 219.74C161.06 219.49 160.93 219.18 160.91 218.89C160.87 218.48 160.89 218.05 160.99 217.65C161.29 216.37 161.65 215.11 161.95 213.84C162.24 212.62 162.49 211.39 162.73 210.16C162.85 209.52 163.03 208.91 163.35 208.35C163.85 207.47 164.68 207.34 165.44 207.99C165.87 208.36 166.1 208.83 166.21 209.35C166.33 209.99 166.38 210.63 166.46 211.31Z" fill="#80BAB0"/>
<path d="M126.79 189.09C127.16 188.88 127.56 188.8 127.98 188.84C128.07 189.78 128.13 190.73 128.26 191.67C128.36 192.43 128.75 192.96 129.57 193.17C130.08 193.3 130.57 193.41 131.09 193.38C131.14 193.53 131.19 193.68 131.25 193.83C131.83 195.18 132.4 196.54 132.98 197.89C133.01 197.96 133.02 198.04 133.03 198.12C132.88 198.36 132.66 198.42 132.42 198.33C132.04 198.19 131.67 198.07 131.24 198.28C131.28 198.43 131.29 198.6 131.38 198.72C131.79 199.26 132.19 199.8 132.64 200.3C134.26 202.1 136.29 203.31 138.5 204.25C140.45 205.08 142.53 205.37 144.61 205.56C145.52 205.65 146.42 205.42 147.32 205.37C148.6 205.3 149.85 205.07 151.05 204.74C152.8 204.26 154.56 203.75 156.17 202.84C156.55 202.63 156.94 202.42 157.4 202.47C157.29 202.58 157.19 202.71 157.07 202.8C154.1 204.98 150.87 206.67 147.37 207.85C143.9 209.02 140.41 209.05 136.94 207.89C133.07 206.6 129.44 204.81 126.06 202.52C124.87 201.71 123.78 200.77 122.87 199.66C121.63 198.14 120.84 196.43 120.72 194.45C120.65 193.41 120.77 192.38 121.11 191.39C121.29 190.88 121.59 190.52 122.16 190.35C123.53 189.96 124.87 189.41 126.29 189.2C126.31 189.9 126.34 190.6 126.8 191.42C126.79 190.51 126.79 189.8 126.79 189.09Z" fill="#393342"/>
<path d="M133 187.97C134.25 187.8 135.51 187.6 136.76 187.48C140.95 187.09 145.14 186.93 149.34 187.19C149.93 187.23 150.51 187.35 151.1 187.43C151.4 187.8 151.73 188.15 151.98 188.55C152.32 189.08 152.67 189.62 152.89 190.21C153.19 190.96 153.18 191.74 152.81 192.51C152.57 193 152.47 193.56 152.31 194.08C152.23 194.16 152.16 194.25 152.08 194.33C148.55 194.33 145.02 194.33 141.49 194.33C141.17 194.33 140.83 194.39 140.54 194.3C139.61 194 138.65 194.14 137.71 194.09C137.28 194.07 136.84 194.04 136.41 194C136.02 193.96 135.63 193.9 135.24 193.86C134.96 193.83 134.66 193.89 134.41 193.8C133.91 193.62 133.4 193.65 132.89 193.61C132.34 193.57 131.8 193.48 131.25 193.41C131.19 193.4 131.13 193.38 131.07 193.38C131.06 193.18 131.05 192.98 131.03 192.79C130.96 192.29 130.97 191.86 131.5 191.56C131.66 191.47 131.73 191.15 131.76 190.93C131.86 190.25 132.09 189.62 132.41 189.02C132.61 188.66 132.8 188.32 133 187.97Z" fill="#1B8686"/>
<path d="M157.4 202.47C156.94 202.42 156.55 202.63 156.17 202.84C154.57 203.75 152.8 204.26 151.05 204.74C149.85 205.07 148.6 205.3 147.32 205.37C146.42 205.42 145.52 205.64 144.61 205.56C142.52 205.36 140.45 205.08 138.5 204.25C136.29 203.31 134.27 202.1 132.64 200.3C132.19 199.8 131.79 199.26 131.38 198.72C131.29 198.6 131.28 198.43 131.24 198.28C131.67 198.07 132.04 198.19 132.42 198.33C132.67 198.42 132.89 198.37 133.03 198.12C133.18 198.29 133.33 198.46 133.48 198.63C134.35 200.46 135.68 201.92 137.33 203.07C139.77 204.76 142.35 205.09 145.07 203.73C147.24 202.65 148.79 200.95 149.96 198.87C150.05 198.79 150.15 198.71 150.24 198.63C150.4 198.63 150.56 198.66 150.71 198.62C153.09 198.05 155.45 197.42 157.67 196.35C159.35 195.54 160.93 194.58 162.5 193.58C162.78 194.53 162.67 195.48 162.35 196.39C162.14 196.99 161.88 197.58 161.55 198.12C160.49 199.86 159.1 201.32 157.4 202.47Z" fill="#453E54"/>
<path d="M162.51 193.58C160.94 194.57 159.35 195.53 157.68 196.35C155.46 197.43 153.1 198.05 150.72 198.62C150.57 198.66 150.4 198.63 150.25 198.63C150.54 198.03 150.86 197.45 151.12 196.84C151.47 196.02 151.77 195.17 152.1 194.34C152.18 194.26 152.25 194.17 152.33 194.09C152.96 194.08 153.6 194.19 154.21 193.93C154.34 193.88 154.53 193.91 154.67 193.95C154.93 194.03 155.17 194.15 155.38 194.23C156.91 193.22 158.36 192.27 159.81 191.29C160.18 191.04 160.52 190.79 160.98 190.74C161.86 191.49 162.33 192.46 162.51 193.58Z" fill="#373243"/>
<path d="M160.96 190.75C160.51 190.79 160.16 191.05 159.79 191.3C158.35 192.27 156.89 193.23 155.36 194.24C155.15 194.16 154.91 194.04 154.65 193.96C154.51 193.92 154.32 193.88 154.19 193.94C153.57 194.19 152.94 194.09 152.31 194.1C152.47 193.57 152.57 193.02 152.81 192.53C153.18 191.76 153.19 190.98 152.89 190.23C152.66 189.65 152.32 189.1 151.98 188.57C151.72 188.17 151.39 187.82 151.1 187.45C153.84 187.61 156.49 188.14 158.98 189.32C159.73 189.66 160.46 190.05 160.96 190.75Z" fill="#473F56"/>
<path d="M133 187.97C132.81 188.32 132.61 188.66 132.43 189.01C132.11 189.61 131.88 190.24 131.78 190.92C131.75 191.14 131.68 191.46 131.52 191.55C130.99 191.85 130.98 192.28 131.05 192.78C131.08 192.98 131.08 193.18 131.09 193.37C130.57 193.4 130.08 193.29 129.57 193.16C128.76 192.95 128.37 192.42 128.26 191.66C128.13 190.72 128.07 189.77 127.98 188.83C129.14 188.6 130.3 188.35 131.47 188.13C131.97 188.05 132.49 188.03 133 187.97Z" fill="#473F56"/>
<path d="M126.79 189.09C126.79 189.8 126.79 190.51 126.79 191.41C126.33 190.59 126.3 189.89 126.28 189.19C126.45 189.16 126.62 189.13 126.79 189.09Z" fill="#473F56"/>
<path d="M152.09 194.33C151.77 195.17 151.46 196.01 151.11 196.83C150.85 197.44 150.53 198.03 150.24 198.62C150.15 198.7 150.06 198.78 149.96 198.86C149.49 198.88 148.99 198.8 148.54 198.93C147.95 199.1 147.37 199.09 146.78 199.11C146.51 199.12 146.23 199.17 145.96 199.2C145.57 199.25 145.18 199.33 144.79 199.33C143.36 199.35 141.94 199.34 140.51 199.33C140.2 199.33 139.88 199.29 139.57 199.26C139.1 199.21 138.63 199.15 138.17 199.1C137.15 199 136.12 198.97 135.12 198.78C134.57 198.68 134.03 198.63 133.48 198.61C133.33 198.44 133.18 198.27 133.03 198.1C133.01 198.02 133.01 197.94 132.98 197.87C132.41 196.52 131.83 195.16 131.25 193.81C131.26 193.67 131.27 193.53 131.27 193.39C131.82 193.46 132.36 193.55 132.91 193.59C133.42 193.63 133.93 193.59 134.43 193.78C134.68 193.87 134.98 193.81 135.26 193.84C135.65 193.88 136.04 193.94 136.43 193.98C136.86 194.02 137.3 194.05 137.73 194.07C138.68 194.11 139.63 193.98 140.56 194.28C140.85 194.37 141.19 194.31 141.51 194.31C145.03 194.33 148.56 194.33 152.09 194.33Z" fill="#3D9F9F"/>
<path d="M131.27 193.41C131.26 193.55 131.25 193.69 131.25 193.83C131.2 193.68 131.15 193.53 131.09 193.38C131.15 193.38 131.21 193.4 131.27 193.41Z" fill="#473F56"/>
<path d="M133.48 198.63C134.03 198.64 134.57 198.69 135.12 198.8C136.12 198.99 137.15 199.02 138.17 199.12C138.64 199.17 139.11 199.23 139.57 199.28C139.88 199.31 140.2 199.35 140.51 199.35C141.94 199.36 143.36 199.36 144.79 199.35C145.18 199.35 145.57 199.26 145.96 199.22C146.23 199.19 146.51 199.14 146.78 199.13C147.37 199.11 147.95 199.11 148.54 198.95C148.98 198.83 149.48 198.9 149.96 198.88C148.79 200.97 147.23 202.66 145.07 203.74C142.35 205.1 139.77 204.77 137.33 203.08C135.68 201.93 134.35 200.47 133.48 198.63Z" fill="#58ACAF"/>
<path d="M163.8 159.54C160.96 159.54 158.49 157.74 157.65 155.16C156.59 151.9 158.64 148.63 161.98 148.04C164.9 147.53 168.28 149.37 169.13 152.63C170.07 156.24 167.5 159.2 164.41 159.48C164.17 159.5 163.94 159.53 163.8 159.54Z" fill="#393342"/>
<path d="M120.39 159.54C117.55 159.54 115.08 157.74 114.24 155.16C113.18 151.9 115.23 148.63 118.57 148.04C121.49 147.53 124.87 149.37 125.72 152.63C126.66 156.24 124.09 159.2 121 159.48C120.76 159.5 120.53 159.53 120.39 159.54Z" fill="#393342"/>
<path d="M160.66 150.36C161.14 151.93 161.66 153.48 162.09 155.07C163.39 159.76 164.48 164.52 165.2 169.4C165.71 172.85 165.96 176.32 165.66 179.84C165.28 184.35 163.33 188.46 160.39 191.26C159.34 192.26 158.24 193.17 157.01 193.81C157.1 193.38 157.2 192.96 157.29 192.54C157.46 192.23 157.65 191.93 157.79 191.6C159.18 188.44 159.37 185.04 159.05 181.59C158.77 178.57 158.06 175.62 157.04 172.84C156.22 170.58 155.35 168.35 154.5 166.11C154.23 165.25 153.96 164.39 153.69 163.53C152.64 160.18 151.98 156.74 152.03 153.13C152.03 152.88 152.01 152.63 152.01 152.38L152.08 152.41C152.65 152.29 153.23 152.18 153.81 152.09C155 151.92 156.18 151.65 157.35 151.35C158.47 151.05 159.56 150.68 160.66 150.36Z" fill="#58ACAF"/>
<path d="M128.95 140.08C129.78 140.05 130.6 139.99 131.43 139.99C139.05 140.01 146.66 140.03 154.28 140.06C154.49 140.06 154.69 140.1 154.9 140.11C154.76 140.54 154.65 140.99 154.49 141.41C153.72 143.39 153.01 145.4 152.63 147.54C152.35 149.13 152.02 150.73 152.12 152.39L152.05 152.36C151.27 152.45 150.5 152.73 149.7 152.65C149.67 152.65 149.63 152.65 149.6 152.67C149.08 152.95 148.52 152.86 147.97 152.88C147.7 152.89 147.4 152.83 147.15 152.93C146.54 153.18 145.93 153.12 145.31 153.13C144.55 153.14 143.78 153.03 143.03 153.16C141.84 153.37 140.62 153.3 139.43 153.15C137.92 152.96 136.38 153.22 134.85 152.91C134.12 152.76 133.35 152.87 132.61 152.63C132.5 151.47 132.44 150.3 132.27 149.16C131.84 146.28 130.87 143.68 129.53 141.26C129.32 140.88 129.14 140.47 128.95 140.08Z" fill="#383241"/>
<path d="M128.95 140.08C129.14 140.47 129.32 140.88 129.53 141.26C130.87 143.68 131.84 146.29 132.27 149.16C132.44 150.31 132.5 151.47 132.61 152.63L132.51 152.61C131.87 152.46 131.22 152.43 130.58 152.32C129.36 152.09 128.17 151.73 126.96 151.4C126.13 151.18 125.29 150.93 124.41 150.67C124.3 150.94 124.16 151.18 124.1 151.45C123.84 152.66 123.58 153.87 123.37 155.09C122.93 157.63 122.57 160.19 122.62 162.8C122.65 164.47 122.74 166.15 122.64 167.82C122.56 169.08 122.78 170.29 122.95 171.51C123.08 172.45 123.26 173.37 123.5 174.28C123.86 175.64 124.28 176.97 124.7 178.31C124.8 178.64 124.89 179.05 125.28 179.11C125.25 179.6 125.22 180.1 125.2 180.59C125.11 181.16 124.96 181.73 124.94 182.31C124.82 184.91 124.79 187.51 125.36 190.05C125.46 190.49 125.59 190.93 125.67 191.38C125.79 192.03 125.88 192.69 125.98 193.35C123 191.42 120.65 188.73 119.22 184.97C118.29 182.53 117.97 179.92 117.91 177.26C117.85 174.52 118.13 171.81 118.56 169.13C119.78 161.53 121.58 154.14 124.17 147.06C124.86 145.18 125.69 143.39 126.4 141.52C126.8 140.46 127.43 139.99 128.36 140.05C128.53 140.07 128.74 140.07 128.95 140.08Z" fill="#3D9F9F"/>
<path d="M125.95 193.36C125.85 192.7 125.76 192.05 125.64 191.39C125.56 190.94 125.43 190.5 125.33 190.06C124.76 187.51 124.79 184.92 124.91 182.32C124.94 181.74 125.08 181.17 125.17 180.6C125.37 180.75 125.6 180.87 125.76 181.07C126.21 181.65 126.6 182.29 127.05 182.86C128.03 184.1 129.12 185.19 130.25 186.21C131.35 187.21 132.5 188.15 133.69 188.97C135.79 190.41 138 191.6 140.33 192.39C142.58 193.15 144.86 193.74 147.22 193.74C147.76 193.74 148.31 193.95 148.85 193.95C149.39 193.95 149.94 193.74 150.48 193.74C152.04 193.76 153.55 193.45 155.07 193.04C155.8 192.84 156.55 192.69 157.29 192.52C157.2 192.94 157.1 193.37 157.01 193.79C156.36 194.16 155.73 194.6 155.07 194.9C151.87 196.35 148.46 196.81 144.98 197.09C143.5 197.21 142.01 197.25 140.53 197.2C137.22 197.09 133.92 196.76 130.71 195.7C129.05 195.15 127.41 194.51 125.95 193.36Z" fill="#B8D7CF"/>
<path d="M152.11 152.39C152.02 150.75 152.34 149.16 152.62 147.58C153 145.42 153.71 143.4 154.49 141.41C154.65 140.99 154.76 140.55 154.9 140.11L154.91 140.1C156.17 139.85 156.93 140.44 157.46 141.78C158.49 144.34 159.56 146.88 160.44 149.52C160.53 149.79 160.59 150.07 160.67 150.35C159.57 150.68 158.48 151.05 157.38 151.33C156.21 151.63 155.03 151.9 153.84 152.07C153.25 152.16 152.68 152.27 152.11 152.39Z" fill="#1B8686"/>
<path d="M157.31 192.52C156.57 192.69 155.83 192.84 155.09 193.04C153.58 193.45 152.06 193.76 150.5 193.74C149.96 193.73 149.41 193.95 148.87 193.95C148.33 193.95 147.78 193.74 147.24 193.74C144.88 193.74 142.6 193.15 140.35 192.39C138.02 191.6 135.81 190.41 133.71 188.97C132.51 188.15 131.37 187.21 130.27 186.21C129.14 185.19 128.05 184.1 127.07 182.86C126.62 182.29 126.22 181.65 125.78 181.07C125.62 180.87 125.39 180.76 125.19 180.6C125.22 180.11 125.25 179.61 125.27 179.12C125.34 178.88 125.42 178.64 125.48 178.39C125.93 176.47 126.37 174.54 127.02 172.71C127.6 171.08 128.21 169.47 128.83 167.86C129 167.43 129.19 167.01 129.38 166.59C129.68 166.52 129.81 166.5 130.11 166.43C131.55 167.91 133.11 169.16 134.81 170.14C137.89 171.9 141.13 172.51 144.5 171.96C147.61 171.45 150.39 169.92 152.9 167.65C153.45 167.15 153.99 166.62 154.54 166.11C155.39 168.35 156.26 170.58 157.08 172.84C158.09 175.62 158.81 178.57 159.09 181.59C159.41 185.04 159.22 188.44 157.83 191.6C157.67 191.91 157.48 192.21 157.31 192.52ZM156.41 179.87C156.49 178.45 156.18 176.99 155.76 175.57C155.31 174.04 154.22 173.17 152.98 173.3C152.35 173.36 151.87 173.72 151.6 174.44C151.37 175.05 151.21 175.68 151.22 176.38C151.24 177.26 151.23 178.14 151.22 179.03C151.21 179.4 151.15 179.77 151.11 180.15C150.97 181.55 150.47 182.79 150.02 184.06C149.79 184.71 149.56 185.38 149.43 186.07C149.16 187.45 149.48 189.04 150.79 189.55C150.98 189.63 151.19 189.67 151.39 189.69C152.39 189.81 153.2 189.24 153.93 188.52C154.7 187.76 155.18 186.72 155.53 185.63C156.13 183.83 156.45 181.94 156.41 179.87ZM144.4 187.91C144.4 188.09 144.37 188.3 144.41 188.5C144.45 188.69 144.53 188.91 144.64 189.03C145 189.39 145.43 189.52 145.9 189.37C147.71 188.77 148.97 185.02 146.75 184.54C146.48 184.48 146.18 184.54 145.95 184.72C145.42 185.15 144.97 185.72 144.68 186.44C144.5 186.9 144.33 187.35 144.4 187.91Z" fill="#D5E7EC"/>
<path d="M153.74 166.85C153.46 167.12 153.18 167.38 152.89 167.64C150.38 169.9 147.6 171.44 144.49 171.95C141.13 172.5 137.89 171.9 134.8 170.13C133.17 169.2 131.67 168.01 130.28 166.61C130.07 166.4 129.85 166.18 129.64 165.97C129.71 165.73 129.76 165.49 129.84 165.26C130.2 164.22 130.57 163.18 130.92 162.13C131.8 159.47 132.34 156.71 132.53 153.86C132.56 153.45 132.5 153.03 132.49 152.61L132.59 152.63C133.33 152.87 134.1 152.76 134.83 152.91C136.36 153.22 137.89 152.97 139.41 153.15C140.61 153.3 141.82 153.36 143.01 153.16C143.76 153.03 144.53 153.14 145.29 153.13C145.91 153.12 146.52 153.18 147.13 152.93C147.38 152.83 147.68 152.89 147.95 152.88C148.5 152.86 149.05 152.95 149.58 152.67C149.61 152.65 149.65 152.65 149.68 152.65C150.36 152.72 151.01 152.53 151.67 152.41C151.83 152.59 151.9 152.67 152.05 152.84C151.96 157.03 152.82 160.99 154.14 164.85C154 165.6 153.9 166.11 153.74 166.85Z" fill="#443E54"/>
<path d="M132.5 152.61C132.52 153.03 132.57 153.45 132.54 153.86C132.35 156.72 131.81 159.47 130.93 162.13C130.58 163.18 130.21 164.21 129.85 165.26C129.77 165.49 129.72 165.73 129.65 165.97C129.37 166.6 129.07 167.21 128.83 167.85C128.21 169.46 127.6 171.07 127.02 172.7C126.36 174.53 125.93 176.46 125.48 178.38C125.42 178.63 125.34 178.87 125.27 179.11C124.88 179.05 124.8 178.64 124.69 178.31C124.27 176.98 123.85 175.64 123.49 174.28C123.25 173.38 123.07 172.45 122.94 171.51C122.77 170.29 122.56 169.08 122.63 167.82C122.73 166.15 122.64 164.47 122.61 162.8C122.57 160.18 122.92 157.63 123.36 155.09C123.57 153.87 123.83 152.66 124.09 151.45C124.15 151.18 124.29 150.94 124.4 150.67C125.28 150.92 126.11 151.17 126.95 151.4C128.15 151.72 129.35 152.09 130.57 152.32C131.21 152.44 131.86 152.47 132.5 152.61Z" fill="#58ACAF"/>
<path d="M156.41 179.87C156.45 181.94 156.12 183.82 155.54 185.63C155.19 186.72 154.71 187.76 153.94 188.52C153.21 189.24 152.41 189.81 151.4 189.69C151.2 189.66 150.99 189.62 150.8 189.55C149.48 189.04 149.17 187.45 149.44 186.07C149.57 185.38 149.8 184.71 150.03 184.06C150.48 182.79 150.98 181.55 151.12 180.15C151.16 179.78 151.22 179.41 151.23 179.03C151.25 178.15 151.25 177.27 151.23 176.38C151.21 175.69 151.38 175.06 151.61 174.44C151.87 173.72 152.36 173.37 152.99 173.3C154.23 173.17 155.32 174.04 155.77 175.57C156.18 177 156.5 178.45 156.41 179.87Z" fill="white"/>
<path d="M144.4 187.91C144.33 187.35 144.5 186.9 144.68 186.44C144.97 185.72 145.41 185.15 145.95 184.72C146.18 184.53 146.47 184.48 146.75 184.54C148.98 185.02 147.72 188.77 145.9 189.37C145.43 189.52 145.01 189.39 144.64 189.03C144.52 188.91 144.44 188.69 144.41 188.5C144.37 188.31 144.4 188.09 144.4 187.91Z" fill="white"/>
<path d="M187.5 58.78C187.65 58.83 187.83 58.85 187.96 58.93C190.38 60.63 192.73 62.41 194.84 64.5C197.1 66.73 199.14 69.14 200.91 71.77C202.64 74.34 204.09 77.07 205.35 79.91C206.66 82.87 207.73 85.91 208.69 89C209.52 91.69 210.21 94.43 210.79 97.19C211.19 99.12 211.58 101.05 211.93 102.98C212.14 104.11 212.27 105.26 212.42 106.41C212.54 107.28 212.65 108.16 212.76 109.03C212.77 109.1 212.78 109.17 212.78 109.23C212.85 110.86 213.01 112.49 212.97 114.12C212.88 117.18 212.52 120.22 211.4 123.11C210.57 125.25 209.47 127.23 208.03 129.02C206.03 131.52 203.56 133.47 200.84 135.13C199.12 136.17 197.3 137.02 195.49 137.87C195.22 138 194.92 138.08 194.63 138.18C194.4 137.94 194.14 138.02 193.87 138.09C191.51 138.71 189.14 139.25 186.74 139.67C185.58 139.87 184.41 140.07 183.25 140.29C182.02 140.52 180.8 140.76 179.55 140.89C178.95 140.95 178.35 141.08 177.75 141.16C176.95 141.27 176.15 141.39 175.34 141.48C174.57 141.57 173.79 141.63 173.02 141.73C172.15 141.84 171.29 142 170.41 142.09C169.4 142.19 168.39 142.24 167.37 142.31C167.27 142.32 167.16 142.31 167.07 142.35C166.58 142.56 166.07 142.5 165.56 142.51C165.29 142.52 165 142.46 164.75 142.54C163.98 142.78 163.2 142.68 162.42 142.72C162.12 142.73 161.81 142.74 161.51 142.77C161.07 142.81 160.64 142.89 160.2 142.91C159.52 142.94 158.84 142.91 158.16 142.93C157.89 142.93 157.62 142.97 157.35 143C156.98 143.04 156.61 143.11 156.24 143.12C154.17 143.13 152.09 143.15 150.02 143.12C147.92 143.09 145.82 143.22 143.71 142.95C142.34 142.78 140.94 142.96 139.55 142.75C138.55 142.6 137.53 142.72 136.51 142.54C135.75 142.41 134.97 142.48 134.19 142.34C133.26 142.17 132.31 142.17 131.36 142.1C131.22 142.09 131.09 142.09 130.95 142.07C130.18 141.95 129.42 141.79 128.65 141.72C127.2 141.59 125.77 141.37 124.34 141.12C123.77 141.02 123.2 140.97 122.63 140.88C121.63 140.71 120.63 140.55 119.64 140.35C117.92 140 116.2 139.62 114.48 139.27C111.69 138.7 108.95 137.94 106.23 137.1C104.38 136.53 102.56 135.88 100.77 135.16C98.5598 134.27 96.4498 133.18 94.3998 131.97C92.5598 130.88 90.9298 129.49 89.2998 128.11C88.2598 127.23 87.3998 126.16 86.5498 125.11C85.0798 123.28 83.8998 121.25 83.0698 119.04C82.3598 117.13 81.7998 115.18 81.4998 113.16C81.3998 112.49 81.4198 111.8 81.2698 111.15C81.1298 110.51 81.1198 109.87 81.1198 109.23C81.1098 108.18 81.1098 107.12 81.1098 106.07C81.1098 105.08 81.0398 104.09 81.1398 103.11C81.2398 102.1 81.3498 101.1 81.4898 100.09C81.6698 98.82 81.8898 97.55 82.1198 96.29C82.5098 94.12 83.1198 92 83.8098 89.91C84.3698 88.21 85.0298 86.52 85.7698 84.89C86.9798 82.23 88.3198 79.63 89.9698 77.21C90.7498 76.06 91.5898 74.95 92.3998 73.83C93.3898 72.45 94.5198 71.18 95.6498 69.93C97.4298 67.96 99.3998 66.19 101.46 64.53C102.88 63.38 104.38 62.33 105.85 61.24C106.06 61.08 106.3 60.96 106.57 60.8C106.85 60.96 107.12 61.09 107.37 61.26C108.78 62.23 110.06 63.34 111.02 64.76C111.67 65.71 112.37 66.64 112.82 67.71C113.15 68.49 113.47 69.28 113.79 70.06C113.55 70.18 113.32 70.32 113.07 70.43C109.97 71.73 107.14 73.47 104.6 75.67C101.2 78.63 98.4698 82.13 96.4498 86.16C93.9898 91.06 92.4498 96.27 91.3198 101.61C90.8598 103.77 90.4498 105.94 90.2498 108.14C90.1298 109.49 89.9898 110.85 89.9198 112.2C89.8598 113.29 89.9298 114.37 90.0698 115.46C90.2498 116.92 90.5398 118.34 91.0598 119.72C92.1798 122.71 94.0798 125.09 96.6098 127.01C98.6298 128.54 100.85 129.72 103.19 130.67C106.32 131.93 109.55 132.87 112.85 133.53C115.11 133.98 117.39 134.39 119.69 134.6C120.43 134.67 121.18 134.76 121.92 134.84C122.93 134.95 123.94 135.07 124.96 135.17C126.79 135.34 128.61 135.5 130.44 135.65C131.9 135.77 133.35 135.95 134.81 135.97C138.45 136.02 142.09 135.98 145.73 135.98C145.93 135.98 146.14 135.97 146.34 135.96C148.1 135.85 149.87 135.73 151.63 135.62C153.19 135.53 154.75 135.45 156.31 135.36C156.41 135.35 156.51 135.34 156.62 135.33C157.77 135.22 158.92 135.11 160.07 135C161.62 134.85 163.19 134.73 164.73 134.51C166.65 134.24 168.56 133.92 170.45 133.54C171.91 133.25 173.35 132.84 174.8 132.48C174.9 132.47 175.01 132.48 175.1 132.45C178.09 131.53 181.04 130.52 183.78 128.97C185.92 127.76 187.9 126.36 189.53 124.48C190.82 123 191.77 121.33 192.46 119.5C193.3 117.27 193.45 114.94 193.56 112.6C193.56 112.5 193.56 112.4 193.55 112.29C193.44 110.94 193.36 109.58 193.19 108.24C192.99 106.63 192.77 105.01 192.48 103.41C192.07 101.17 191.56 98.96 190.95 96.77C189.84 92.8 188.49 88.93 186.53 85.29C185.24 82.89 183.7 80.65 181.87 78.63C179.6 76.12 177.03 73.96 174.09 72.27C172.89 71.58 171.67 70.9 170.34 70.45C170.26 70.38 170.19 70.31 170.11 70.25C170.24 70.16 170.42 70.09 170.49 69.97C170.61 69.73 170.66 69.46 170.76 69.21C171.09 68.39 171.35 67.55 171.77 66.78C172.69 65.09 173.83 63.56 175.3 62.27C176.89 60.87 178.62 59.73 180.6 58.96C181.39 58.66 182.2 58.41 182.97 58.07C183.45 57.85 183.92 57.75 184.44 57.76C184.75 57.86 185.07 57.96 185.38 58.05C185.54 58.1 185.69 58.14 185.85 58.18C186.38 58.45 186.9 58.73 187.5 58.78ZM202.81 87.12C202.92 86.31 202.77 85.43 202.53 84.59C201.82 82.13 200.8 79.81 199.42 77.65C198.21 75.76 196.89 73.96 195.39 72.3C193.84 70.59 192.14 69.03 190.3 67.63C189.14 66.75 187.93 65.93 186.58 65.35C185.55 64.91 184.5 64.56 183.35 64.9C182.71 65.09 182.3 65.42 182.1 66.09C181.93 66.65 182.12 67.1 182.35 67.54C182.55 67.92 182.85 68.26 183.15 68.59C183.66 69.14 184.2 69.66 184.73 70.18C185.67 71.11 186.52 72.13 187.27 73.22C189.23 76.08 190.98 79.05 192.42 82.21C193.15 83.81 193.83 85.44 194.74 86.97C195.49 88.24 196.34 89.4 197.4 90.42C197.99 90.98 198.71 91.28 199.48 91.42C200.28 91.57 201.01 91.39 201.61 90.75C202.04 90.29 202.36 89.79 202.59 89.22C202.85 88.56 202.84 87.88 202.81 87.12ZM199.96 94.81C199.87 96 200.32 96.94 201.2 97.7C202.2 98.56 203.69 98.35 204.4 97.25C204.76 96.69 204.88 96.08 204.87 95.41C204.84 94.23 204.37 93.35 203.38 92.69C202.31 91.98 201.19 92.41 200.51 93.05C199.98 93.53 199.9 94.16 199.96 94.81Z" fill="#58ACAF"/>
<path d="M113.82 70.0198C113.5 69.2398 113.18 68.4498 112.85 67.6698C112.4 66.5998 111.7 65.6698 111.05 64.7198C110.08 63.2998 108.8 62.1898 107.4 61.2198C107.15 61.0498 106.88 60.9198 106.6 60.7598C106.34 60.9198 106.1 61.0398 105.88 61.1998C104.41 62.2898 102.91 63.3398 101.49 64.4898C99.4299 66.1598 97.4499 67.9298 95.6799 69.8898C94.5499 71.1498 93.4199 72.4098 92.4299 73.7898C91.6199 74.9198 90.7799 76.0298 89.9999 77.1698C88.3499 79.5898 87.0099 82.1898 85.7999 84.8498C85.0599 86.4798 84.3999 88.1698 83.8399 89.8698C83.1499 91.9598 82.5499 94.0798 82.1499 96.2498C81.9199 97.5098 81.6999 98.7798 81.5199 100.05C81.3799 101.05 81.2699 102.06 81.1699 103.07C81.0799 104.05 81.1399 105.04 81.1399 106.03C81.1399 107.08 81.1399 108.14 81.1499 109.19C81.1599 109.83 81.1599 110.47 81.2999 111.11C81.4499 111.76 81.4199 112.45 81.5299 113.12C81.8299 115.14 82.3999 117.09 83.0999 119C83.9199 121.21 85.0999 123.24 86.5799 125.07C87.4299 126.12 88.2799 127.2 89.3299 128.07C90.9599 129.44 92.5899 130.84 94.4299 131.93C96.4799 133.14 98.5899 134.23 100.8 135.12C102.6 135.84 104.42 136.49 106.26 137.06C108.98 137.9 111.72 138.66 114.51 139.23C116.23 139.58 117.95 139.96 119.67 140.31C120.66 140.51 121.66 140.68 122.66 140.84C123.23 140.93 123.8 140.98 124.37 141.08C125.8 141.33 127.23 141.55 128.68 141.68C129.45 141.75 130.21 141.91 130.98 142.03C131.11 142.05 131.25 142.05 131.39 142.06C132.33 142.13 133.29 142.13 134.22 142.3C135 142.44 135.78 142.37 136.54 142.5C137.55 142.68 138.58 142.56 139.58 142.71C140.97 142.92 142.37 142.74 143.74 142.91C145.84 143.17 147.94 143.05 150.05 143.08C152.12 143.11 154.2 143.09 156.27 143.08C156.64 143.08 157.01 143 157.38 142.96C157.65 142.93 157.92 142.89 158.19 142.89C158.87 142.88 159.55 142.9 160.23 142.87C160.67 142.85 161.1 142.77 161.54 142.73C161.84 142.7 162.15 142.69 162.45 142.68C163.23 142.65 164.01 142.75 164.78 142.5C165.03 142.42 165.32 142.48 165.59 142.47C166.1 142.46 166.61 142.51 167.1 142.31C167.19 142.27 167.3 142.28 167.4 142.27C168.41 142.2 169.43 142.15 170.44 142.05C171.31 141.96 172.18 141.8 173.05 141.69C173.82 141.59 174.6 141.54 175.37 141.44C176.17 141.34 176.98 141.23 177.78 141.12C178.38 141.03 178.98 140.91 179.58 140.85C180.83 140.73 182.05 140.49 183.28 140.25C184.44 140.03 185.61 139.83 186.77 139.63C189.17 139.21 191.54 138.67 193.9 138.05C194.17 137.98 194.43 137.9 194.66 138.14C193.36 138.63 192.06 139.14 190.74 139.59C187 140.86 183.17 141.78 179.29 142.48C176.95 142.9 174.6 143.27 172.24 143.52C170.28 143.72 168.32 143.95 166.36 144.13C164.67 144.29 162.98 144.42 161.28 144.54C159.18 144.69 157.07 144.79 154.97 144.96C152.36 145.17 149.75 145.25 147.13 145.38C142.98 145.59 138.83 145.55 134.68 145.49C132.68 145.46 130.68 145.29 128.68 145.16C127.73 145.1 126.78 145.03 125.84 144.94C124.59 144.82 123.34 144.67 122.09 144.54C121.28 144.46 120.47 144.4 119.65 144.34C118.5 144.25 117.34 144.18 116.19 144.08C115.28 144 114.37 143.87 113.46 143.77C112.75 143.69 112.04 143.6 111.33 143.52C106.46 142.99 101.65 142.11 96.9199 140.83C93.0399 139.78 89.2499 138.48 85.6399 136.69C82.4899 135.13 79.5499 133.24 77.0599 130.71C74.2199 127.83 72.3199 124.43 71.3699 120.5C70.9899 118.95 70.7399 117.37 70.6999 115.76C70.6799 115.08 70.5599 114.4 70.5799 113.73C70.6199 111.96 70.7199 110.2 70.8899 108.44C71.1899 105.22 71.7299 102.04 72.3799 98.8798C73.6399 92.6998 75.3399 86.6598 77.7799 80.8298C79.0299 77.8398 80.5199 74.9698 82.2899 72.2598C84.6299 68.6698 87.4399 65.4898 90.6399 62.6598C92.6599 60.8798 94.8599 59.3298 97.1699 57.9598C97.5499 57.7398 97.9299 57.5298 98.3199 57.3198C98.4399 57.3498 98.5799 57.4098 98.6899 57.3898C99.6199 57.2398 100.55 56.9898 101.49 56.9098C104.76 56.6198 107.92 57.0898 110.9 58.5198C113.15 59.5998 114.88 61.1898 115.9 63.5098C116.65 65.2298 117.15 67.0198 117.48 68.8598C116.99 68.9898 116.5 69.0998 116.02 69.2498C115.28 69.5298 114.55 69.7798 113.82 70.0198Z" fill="#3D9F9F"/>
<path d="M185.87 58.1499C185.71 58.1099 185.56 58.0699 185.4 58.0199C185.09 57.9199 184.77 57.8199 184.46 57.7299C184.37 57.6799 184.3 57.5899 184.2 57.5699C182.67 57.2399 181.13 57.0699 179.56 57.0799C177.62 57.0899 175.79 57.4999 174.01 58.1899C172.66 58.7099 171.48 59.5199 170.51 60.5899C169.5 61.6999 168.71 62.9599 168.11 64.3499C167.45 65.8899 167.13 67.5199 166.71 69.1199C166.29 70.7899 165.92 72.4699 165.45 74.1199C164.96 75.8399 164.27 77.4899 163.22 78.9599C163.01 78.7599 162.83 78.9399 162.68 79.0399C161.09 80.0899 159.39 80.9399 157.63 81.6599C156.31 82.1999 154.98 82.6999 153.59 83.0199C152.14 83.3599 150.69 83.6799 149.22 83.9099C147.78 84.1299 146.34 84.3299 144.88 84.2799C144.34 84.2599 143.79 84.2799 143.25 84.2799C142.67 84.2799 142.1 84.2999 141.54 84.1199C141.09 83.9799 140.61 83.9499 140.14 83.8799C138.14 83.6199 136.26 82.9399 134.43 82.1299C133.25 81.5999 132.19 80.8799 131.14 80.1199C129.88 79.2099 129.04 78.0099 128.4 76.6499C127.72 75.2299 127.48 73.6799 127.32 72.1299C127.23 71.1899 126.97 70.2599 127.08 69.2999C127.09 69.1699 127.05 69.0299 127.03 68.8999C126.98 68.4999 126.92 68.0999 126.88 67.6999C126.86 67.4599 126.88 67.2199 126.85 66.9899C126.74 66.2899 126.58 65.5999 126.49 64.8999C126.18 62.5599 125.49 60.3299 124.38 58.2499C123.74 57.0499 123 55.9199 121.99 54.9799C121.44 54.4699 120.93 53.9299 120.4 53.3999C119.56 52.5499 118.52 51.9599 117.56 51.2699C117.48 51.2199 117.36 51.2199 117.27 51.1999C118.2 51.0099 119.12 50.7899 120.05 50.6399C123.77 50.0399 127.51 49.5999 131.28 49.3199C136.74 48.9199 142.21 48.8799 147.68 49.0599C151.62 49.1899 155.55 49.4999 159.45 50.0299C164.77 50.7499 170.04 51.7499 175.19 53.2699C178.52 54.2499 181.75 55.4799 184.81 57.1299C185.22 57.3499 185.68 57.5199 185.99 57.9099C186.04 57.9699 186.18 57.9599 186.28 57.9799C186.14 58.0199 186.01 58.0899 185.87 58.1499ZM140.55 62.2099C140.22 62.2799 139.88 62.2999 139.57 62.4199C138.36 62.8799 137.41 63.6699 136.65 64.7099C135.26 66.6099 134.67 68.7899 134.47 71.0899C134.31 72.8699 134.54 74.6199 135.05 76.3299C135.6 78.1599 136.5 79.7699 137.98 81.0199C139.27 82.0999 140.73 82.6199 142.42 82.2399C144.02 81.8799 145.26 81.0099 146.13 79.5999C146.24 79.4699 146.37 79.3599 146.46 79.2199C147.61 77.4799 148.12 75.5199 148.29 73.4699C148.39 72.2899 148.34 71.1099 148.15 69.9199C147.8 67.7999 147.03 65.8799 145.65 64.2199C144.6 62.9699 143.26 62.2499 141.64 62.0499C141.27 62.0299 140.88 61.9599 140.55 62.2099ZM155.18 52.6299C154.7 52.6299 154.23 52.6099 153.75 52.6399C152.89 52.6899 152.07 52.9299 151.38 53.4599C150.52 54.1299 150.25 55.1399 151.12 55.9899C151.54 56.3999 152 56.7299 152.55 56.9399C154.74 57.8099 157.04 58.1899 159.38 58.3699C159.68 58.3899 160.01 58.3199 160.29 58.4099C161.18 58.6999 162.04 58.2799 162.91 58.3299C164.06 57.9899 164.57 57.5399 164.44 56.3099C164.38 55.7699 164.06 55.3599 163.64 55.0499C163.26 54.7699 162.86 54.4999 162.44 54.2899C160.16 53.1299 157.72 52.6199 155.18 52.6299ZM163.37 63.0199C163.84 62.9399 164.28 62.9599 164.63 62.7899C165.57 62.3099 166.05 61.6899 165.12 60.7599C165.05 60.6899 164.98 60.6099 164.89 60.5599C163.96 60.0999 162.99 59.8499 161.97 60.2399C161.17 60.5399 160.82 61.4499 161.27 62.1399C161.43 62.3799 161.7 62.5999 161.96 62.6999C162.43 62.8599 162.94 62.9299 163.37 63.0199Z" fill="#58ACAF"/>
<path d="M117.26 51.1899C117.36 51.2099 117.48 51.2099 117.55 51.2599C118.52 51.9399 119.55 52.5399 120.39 53.3899C120.92 53.9199 121.43 54.4599 121.98 54.9699C122.99 55.9099 123.73 57.0399 124.37 58.2399C125.48 60.3199 126.17 62.5399 126.48 64.8899C126.57 65.5899 126.73 66.2799 126.84 66.9799C126.88 67.2099 126.85 67.4599 126.87 67.6899C126.91 68.0899 126.97 68.4899 127.02 68.8899C127.04 69.0199 127.08 69.1599 127.07 69.2899C126.96 70.2499 127.21 71.1799 127.31 72.1199C127.47 73.6699 127.71 75.2199 128.39 76.6399C129.04 77.9999 129.87 79.1999 131.13 80.1099C132.18 80.8699 133.24 81.5899 134.42 82.1199C136.25 82.9399 138.13 83.6099 140.13 83.8699C140.6 83.9299 141.08 83.9699 141.53 84.1099C142.1 84.2899 142.67 84.2699 143.24 84.2699C143.78 84.2699 144.33 84.2599 144.87 84.2699C146.33 84.3099 147.77 84.1199 149.21 83.8999C150.68 83.6699 152.13 83.3499 153.58 83.0099C154.97 82.6799 156.3 82.1899 157.62 81.6499C159.38 80.9299 161.08 80.0899 162.67 79.0299C162.82 78.9299 163 78.7499 163.21 78.9499C162.98 79.3199 162.79 79.7299 162.52 80.0699C161.06 81.9199 159.28 83.3599 157.12 84.2999C153.79 85.7399 150.29 86.5499 146.69 86.8999C144.49 87.1199 142.29 87.1499 140.07 86.9599C137.15 86.7099 134.27 86.2399 131.46 85.4299C129.04 84.7299 126.72 83.7699 124.61 82.3599C122.52 80.9699 120.94 79.1499 119.9 76.8599C119.23 75.3699 118.7 73.8299 118.3 72.2499C118.02 71.1299 117.75 70.0099 117.47 68.8899C117.14 67.0499 116.64 65.2599 115.89 63.5399C114.87 61.2199 113.14 59.6299 110.89 58.5499C107.91 57.1199 104.75 56.6499 101.48 56.9399C100.54 57.0199 99.6098 57.2599 98.6798 57.4199C98.5598 57.4399 98.4298 57.3799 98.3098 57.3499C101 55.8099 103.87 54.6899 106.8 53.7199C110.06 52.6499 113.39 51.8899 116.75 51.2099C116.91 51.1899 117.09 51.1999 117.26 51.1899Z" fill="#1B8686"/>
<path d="M185.87 58.15C186 58.09 186.13 58.02 186.27 57.96C186.74 58.14 187.19 58.35 187.5 58.78C186.9 58.73 186.38 58.45 185.87 58.15Z" fill="#3D9F9F"/>
<path d="M170.38 70.4199C170.32 70.7499 170.3 71.0999 170.18 71.4099C169.71 72.6499 169.26 73.8899 168.72 75.0999C167.77 77.2099 166.64 79.2199 165.31 81.1199C164.9 81.6999 164.45 82.2499 163.99 82.7999C163.56 83.3199 163.14 83.8599 162.65 84.3299C160.82 86.0799 158.8 87.5399 156.4 88.4399C155.92 88.6199 155.47 88.8399 155 89.0399C153.15 89.8199 151.2 90.2499 149.23 90.6299C148 90.8599 146.77 91.0599 145.53 91.2199C144.89 91.2999 144.24 91.2399 143.59 91.2599C143.08 91.2699 142.57 91.1899 142.08 91.3899C141.99 91.4299 141.87 91.4299 141.78 91.4099C140.84 91.1399 139.89 91.3099 138.94 91.2599C138.47 91.2399 137.99 91.2999 137.53 91.1099C137.41 91.0599 137.26 91.0699 137.13 91.0599C135.36 90.9999 133.66 90.5499 131.95 90.1199C129.8 89.5799 127.76 88.7399 125.76 87.8099C124.16 87.0699 122.7 86.0899 121.29 85.0099C119.97 83.9899 118.95 82.7399 118.02 81.4099C117.2 80.2499 116.55 78.9699 116.04 77.6299C115.99 77.5099 115.92 77.3999 115.83 77.2099C115.66 77.3199 115.52 77.3899 115.41 77.4999C114.48 78.3999 113.67 79.3999 112.86 80.3999C111.4 82.1899 110.12 84.1099 108.87 86.0399C108.37 86.8099 107.94 87.6199 107.48 88.4099C107.19 88.9099 106.9 89.4099 106.63 89.9199C105.47 92.1199 104.47 94.3899 103.67 96.7299C103.05 98.5499 102.49 100.41 102.17 102.32C101.97 103.52 101.77 104.72 101.59 105.92C101.55 106.15 101.57 106.4 101.57 106.63C101.57 107.72 101.57 108.81 101.57 109.9C101.57 111.44 101.85 112.93 102.31 114.39C102.6 115.3 102.87 116.21 103.34 117.05C103.97 118.18 104.65 119.27 105.52 120.23C105.86 120.61 106.16 121.02 106.5 121.39C107.49 122.47 108.63 123.38 109.78 124.27C111.32 125.45 112.95 126.47 114.64 127.42C117.56 129.06 120.66 130.22 123.83 131.26C126.28 132.06 128.77 132.69 131.31 133.15C132.61 133.38 133.89 133.66 135.21 133.76C136.15 133.83 137.08 134.01 138.02 134.12C138.29 134.15 138.56 134.14 138.83 134.15C139.51 134.17 140.19 134.1 140.85 134.32C141.07 134.39 141.32 134.35 141.56 134.35C145.4 134.35 149.25 134.35 153.09 134.34C153.43 134.34 153.76 134.27 154.1 134.23C154.37 134.2 154.64 134.16 154.91 134.15C155.66 134.14 156.41 134.16 157.15 134.13C157.59 134.12 158.02 134.04 158.46 133.99C158.7 133.97 158.93 133.94 159.17 133.94C160.12 133.9 161.07 134.02 162.01 133.75C162.23 133.69 162.48 133.74 162.72 133.73C163.23 133.71 163.74 133.77 164.23 133.58C164.41 133.51 164.63 133.54 164.84 133.53C165.42 133.52 166 133.57 166.55 133.36C166.64 133.32 166.75 133.33 166.85 133.33C168 133.32 169.13 133.04 170.27 132.96C171.49 132.87 172.67 132.51 173.89 132.49C174.09 132.49 174.28 132.36 174.48 132.34C174.6 132.33 174.72 132.41 174.85 132.46C173.4 132.82 171.96 133.23 170.5 133.52C168.6 133.9 166.69 134.22 164.78 134.49C163.23 134.71 161.67 134.82 160.12 134.98C158.97 135.09 157.82 135.2 156.67 135.31C156.57 135.32 156.47 135.33 156.36 135.34C154.8 135.43 153.24 135.51 151.68 135.6C149.92 135.71 148.15 135.83 146.39 135.94C146.19 135.95 145.98 135.96 145.78 135.96C142.14 135.96 138.5 135.99 134.86 135.95C133.4 135.93 131.95 135.75 130.49 135.63C128.66 135.48 126.83 135.32 125.01 135.15C124 135.06 122.98 134.93 121.97 134.82C121.23 134.74 120.49 134.65 119.74 134.58C117.44 134.36 115.16 133.96 112.9 133.51C109.6 132.85 106.37 131.91 103.24 130.65C100.9 129.7 98.68 128.53 96.66 126.99C94.14 125.07 92.23 122.69 91.11 119.7C90.6 118.32 90.3 116.9 90.12 115.44C89.99 114.36 89.91 113.27 89.97 112.18C90.04 110.82 90.18 109.47 90.3 108.12C90.5 105.92 90.91 103.75 91.37 101.59C92.5 96.2499 94.04 91.0399 96.5 86.1399C98.52 82.1099 101.25 78.6099 104.65 75.6499C107.18 73.4499 110.02 71.7099 113.12 70.4099C113.37 70.3099 113.6 70.1699 113.84 70.0399C114.57 69.7999 115.3 69.5399 116.04 69.3099C116.52 69.1599 117.01 69.0499 117.5 68.9199C117.78 70.0399 118.04 71.1599 118.33 72.2799C118.73 73.8599 119.26 75.3999 119.93 76.8899C120.97 79.1899 122.55 80.9999 124.64 82.3899C126.76 83.7999 129.07 84.7599 131.49 85.4599C134.3 86.2799 137.18 86.7399 140.1 86.9899C142.31 87.1799 144.52 87.1399 146.72 86.9299C150.32 86.5799 153.82 85.7699 157.15 84.3299C159.31 83.3899 161.1 81.9499 162.55 80.0999C162.82 79.7599 163.01 79.3599 163.24 78.9799C164.29 77.5099 164.99 75.8599 165.47 74.1399C165.94 72.4899 166.31 70.7999 166.73 69.1399C167.21 69.2699 167.7 69.3799 168.18 69.5299C168.85 69.7499 169.51 69.9899 170.17 70.2299C170.23 70.2899 170.3 70.3599 170.38 70.4199Z" fill="#B8D7CF"/>
<path d="M202.81 87.1199C202.84 87.8899 202.85 88.5599 202.59 89.2099C202.36 89.7799 202.04 90.2799 201.61 90.7399C201.01 91.3799 200.28 91.5599 199.48 91.4099C198.71 91.2599 197.99 90.9699 197.4 90.4099C196.34 89.3899 195.49 88.2299 194.74 86.9599C193.83 85.4299 193.15 83.8099 192.42 82.1999C190.98 79.0399 189.23 76.0599 187.27 73.2099C186.52 72.1199 185.68 71.0999 184.73 70.1699C184.2 69.6399 183.66 69.1199 183.15 68.5799C182.85 68.2599 182.55 67.9199 182.35 67.5299C182.12 67.0899 181.93 66.6399 182.1 66.0799C182.3 65.4099 182.72 65.0799 183.35 64.8899C184.5 64.5499 185.55 64.8999 186.58 65.3399C187.93 65.9199 189.14 66.7399 190.3 67.6199C192.14 69.0199 193.85 70.5799 195.39 72.2899C196.89 73.9499 198.21 75.7599 199.42 77.6399C200.81 79.7999 201.83 82.1199 202.53 84.5799C202.77 85.4299 202.92 86.3099 202.81 87.1199Z" fill="#9FD5D8"/>
<path d="M170.15 70.2198C169.49 69.9898 168.83 69.7398 168.16 69.5198C167.68 69.3698 167.19 69.2598 166.71 69.1298C167.14 67.5298 167.46 65.8998 168.12 64.3598C168.71 62.9698 169.51 61.7098 170.52 60.5998C171.49 59.5298 172.67 58.7198 174.02 58.1998C175.8 57.5098 177.64 57.0998 179.57 57.0898C181.14 57.0798 182.68 57.2498 184.21 57.5798C184.3 57.5998 184.38 57.6798 184.47 57.7398C183.96 57.7298 183.48 57.8298 183 58.0498C182.23 58.3898 181.42 58.6398 180.63 58.9398C178.65 59.6998 176.93 60.8498 175.33 62.2498C173.86 63.5398 172.73 65.0698 171.8 66.7598C171.38 67.5298 171.12 68.3798 170.79 69.1898C170.69 69.4398 170.65 69.7198 170.52 69.9498C170.46 70.0598 170.28 70.1298 170.15 70.2198Z" fill="#3D9F9F"/>
<path d="M199.96 94.81C199.9 94.16 199.98 93.53 200.5 93.04C201.18 92.4 202.3 91.97 203.37 92.68C204.36 93.34 204.83 94.22 204.86 95.4C204.88 96.07 204.76 96.68 204.39 97.24C203.68 98.34 202.19 98.55 201.19 97.69C200.32 96.94 199.87 96 199.96 94.81Z" fill="#9FD5D8"/>
<path d="M155.18 52.6299C157.73 52.6199 160.16 53.1299 162.44 54.2899C162.86 54.4999 163.26 54.7699 163.64 55.0499C164.05 55.3599 164.38 55.7699 164.44 56.3099C164.58 57.5399 164.06 57.9899 162.91 58.3299C162.04 58.2799 161.18 58.6999 160.29 58.4099C160.01 58.3199 159.68 58.3899 159.38 58.3699C157.04 58.1899 154.74 57.8199 152.55 56.9399C152.01 56.7199 151.54 56.3999 151.12 55.9899C150.25 55.1399 150.52 54.1299 151.38 53.4599C152.06 52.9299 152.89 52.6899 153.75 52.6399C154.22 52.5999 154.7 52.6299 155.18 52.6299Z" fill="#9FD5D8"/>
<path d="M163.37 63.0198C162.94 62.9198 162.44 62.8598 161.97 62.6898C161.7 62.5898 161.43 62.3698 161.28 62.1298C160.83 61.4398 161.17 60.5298 161.98 60.2298C163 59.8498 163.97 60.0898 164.9 60.5498C164.99 60.5898 165.06 60.6798 165.13 60.7498C166.06 61.6798 165.58 62.2998 164.64 62.7798C164.28 62.9598 163.84 62.9398 163.37 63.0198Z" fill="#9FD5D8"/>
<path d="M190.17 111.65C190.16 112.84 189.89 114 189.64 115.16C189.33 116.56 188.82 117.9 188.22 119.18C187.46 120.81 186.58 122.39 185.24 123.65C184.55 124.3 183.95 125.05 183.13 125.56C182.08 126.21 180.97 126.72 179.76 126.94C178.66 127.14 177.58 126.95 176.63 126.33C175.91 125.85 175.53 125.15 175.47 124.28C175.37 123.07 175.84 122.06 176.65 121.24C177.74 120.12 178.82 119 180.03 117.99C181.32 116.92 182.36 115.64 182.92 114C183.33 112.81 183.77 111.64 184.1 110.43C184.31 109.65 184.57 108.86 184.99 108.16C185.15 107.9 185.34 107.67 185.53 107.43C186.28 106.47 188.24 106.46 189.09 107.7C189.32 108.03 189.5 108.4 189.64 108.78C189.97 109.69 190.19 110.65 190.17 111.65Z" fill="white"/>
<path d="M167.71 126.43C167.57 125.39 168.25 124.74 169.01 124.22C170 123.52 171.09 123.49 172.16 124.11C172.85 124.51 173.2 125.09 173.25 125.93C173.31 126.89 172.9 127.56 172.18 128.1C171.89 128.32 171.55 128.5 171.24 128.7C170.5 129.16 169.78 129.14 169.04 128.69C168.21 128.17 167.61 127.53 167.71 126.43Z" fill="white"/>
<path d="M142.04 83.0801C146.762 83.0801 150.59 77.4791 150.59 70.5701C150.59 63.661 146.762 58.0601 142.04 58.0601C137.318 58.0601 133.49 63.661 133.49 70.5701C133.49 77.4791 137.318 83.0801 142.04 83.0801Z" fill="#58ACAF"/>
<path d="M170.41 70.4697C171.74 70.9097 172.95 71.5897 174.16 72.2897C177.1 73.9797 179.67 76.1397 181.94 78.6497C183.77 80.6697 185.31 82.9097 186.6 85.3097C188.56 88.9497 189.92 92.8197 191.02 96.7897C191.63 98.9797 192.14 101.2 192.55 103.43C192.84 105.03 193.06 106.64 193.26 108.26C193.42 109.61 193.5 110.96 193.62 112.31C193.63 112.41 193.63 112.51 193.63 112.62C193.52 114.96 193.37 117.3 192.53 119.52C191.84 121.35 190.89 123.01 189.6 124.5C187.97 126.38 185.99 127.78 183.85 128.99C181.11 130.53 178.16 131.54 175.17 132.47C175.08 132.5 174.97 132.49 174.87 132.5C174.75 132.46 174.62 132.37 174.5 132.38C174.3 132.4 174.11 132.52 173.91 132.53C172.69 132.55 171.51 132.92 170.29 133C169.15 133.08 168.02 133.36 166.87 133.37C166.77 133.37 166.66 133.36 166.57 133.4C166.01 133.62 165.43 133.56 164.86 133.57C164.66 133.58 164.44 133.55 164.25 133.62C163.75 133.81 163.24 133.76 162.74 133.77C162.5 133.78 162.25 133.73 162.03 133.79C161.1 134.06 160.14 133.94 159.19 133.98C158.95 133.99 158.72 134.01 158.48 134.03C158.04 134.07 157.61 134.15 157.17 134.17C156.42 134.19 155.67 134.17 154.93 134.19C154.66 134.19 154.39 134.24 154.12 134.27C153.78 134.31 153.45 134.38 153.11 134.38C149.27 134.39 145.42 134.39 141.58 134.39C141.34 134.39 141.09 134.43 140.87 134.36C140.2 134.14 139.52 134.21 138.85 134.19C138.58 134.18 138.3 134.2 138.04 134.16C137.1 134.04 136.17 133.87 135.23 133.8C133.91 133.7 132.62 133.43 131.33 133.19C128.79 132.73 126.3 132.1 123.85 131.3C120.69 130.26 117.58 129.11 114.66 127.46C112.97 126.51 111.34 125.49 109.8 124.31C108.64 123.42 107.51 122.51 106.52 121.43C106.18 121.06 105.88 120.64 105.54 120.27C104.67 119.31 103.99 118.22 103.36 117.09C102.89 116.25 102.62 115.34 102.33 114.43C101.87 112.97 101.58 111.48 101.59 109.94C101.59 108.85 101.59 107.76 101.59 106.67C101.59 106.43 101.57 106.19 101.61 105.96C101.8 104.76 102 103.56 102.19 102.36C102.51 100.45 103.07 98.5897 103.69 96.7697C104.49 94.4297 105.49 92.1497 106.65 89.9597C106.92 89.4497 107.21 88.9497 107.5 88.4497C107.96 87.6597 108.39 86.8497 108.89 86.0797C110.14 84.1397 111.42 82.2297 112.88 80.4397C113.7 79.4397 114.5 78.4397 115.43 77.5397C115.54 77.4297 115.68 77.3597 115.85 77.2497C115.95 77.4297 116.02 77.5497 116.06 77.6697C116.57 79.0097 117.22 80.2897 118.04 81.4497C118.98 82.7697 120 84.0297 121.31 85.0497C122.71 86.1397 124.18 87.1197 125.78 87.8497C127.78 88.7697 129.82 89.6197 131.97 90.1597C133.68 90.5897 135.38 91.0397 137.15 91.0997C137.29 91.0997 137.43 91.0997 137.55 91.1497C138.01 91.3397 138.49 91.2797 138.96 91.2997C139.91 91.3497 140.86 91.1797 141.8 91.4497C141.89 91.4797 142.01 91.4697 142.1 91.4297C142.59 91.2297 143.11 91.3197 143.61 91.2997C144.26 91.2797 144.91 91.3397 145.55 91.2597C146.79 91.1097 148.02 90.9097 149.25 90.6697C151.21 90.2897 153.16 89.8697 155.02 89.0797C155.49 88.8797 155.95 88.6597 156.42 88.4797C158.82 87.5897 160.84 86.1197 162.67 84.3697C163.16 83.8997 163.58 83.3697 164.01 82.8397C164.46 82.2897 164.92 81.7397 165.33 81.1597C166.66 79.2597 167.78 77.2397 168.74 75.1397C169.28 73.9397 169.74 72.6897 170.2 71.4497C170.33 71.1497 170.35 70.7997 170.41 70.4697ZM190.2 111.69C190.23 110.69 190.01 109.73 189.67 108.81C189.53 108.43 189.34 108.06 189.12 107.73C188.27 106.49 186.31 106.5 185.56 107.46C185.37 107.7 185.18 107.93 185.02 108.19C184.59 108.89 184.34 109.68 184.13 110.46C183.8 111.67 183.36 112.85 182.95 114.03C182.39 115.67 181.35 116.95 180.06 118.02C178.85 119.03 177.77 120.15 176.68 121.27C175.88 122.1 175.41 123.11 175.5 124.31C175.57 125.18 175.94 125.88 176.66 126.36C177.61 126.99 178.68 127.17 179.79 126.97C181 126.75 182.11 126.24 183.16 125.59C183.98 125.08 184.59 124.33 185.27 123.68C186.6 122.42 187.49 120.84 188.25 119.21C188.85 117.92 189.36 116.58 189.67 115.19C189.93 114.04 190.19 112.89 190.2 111.69ZM167.74 126.47C167.65 127.57 168.24 128.21 169.07 128.71C169.8 129.16 170.53 129.18 171.27 128.72C171.59 128.52 171.92 128.35 172.21 128.12C172.92 127.58 173.33 126.92 173.28 125.95C173.23 125.12 172.89 124.53 172.19 124.13C171.12 123.51 170.03 123.54 169.04 124.24C168.29 124.79 167.6 125.44 167.74 126.47Z" fill="#D5E7EC"/>
<path d="M85.9101 117.74C86.8001 118.5 87.5101 119.4 88.1101 120.39C88.3501 120.79 88.6401 121.15 88.9101 121.53C88.9401 121.65 88.9401 121.78 89.0001 121.88C90.2201 124.33 91.0501 126.92 91.6701 129.58C92.4301 132.84 93.1601 136.11 93.4601 139.46C93.4401 139.8 93.4401 140.15 93.4101 140.49C93.2901 141.85 92.9101 143.13 92.2901 144.34C91.8501 145.2 91.4101 146.05 90.8901 146.88C90.1501 148.05 89.3301 149.15 88.3301 150.1C86.9201 151.43 85.2901 152.39 83.3201 152.65C82.9501 152.7 82.5801 152.65 82.2001 152.65C82.1101 152.49 82.0501 152.31 81.9301 152.18C81.6201 151.87 81.2801 151.59 80.9601 151.29C80.5701 150.93 80.1401 150.61 79.9001 150.11C79.8501 150 79.7401 149.92 79.6501 149.83C78.8101 148.99 78.1201 148.03 77.4001 147.09C76.3201 145.66 75.4901 144.09 74.5601 142.58C74.1301 141.89 73.8401 141.12 73.4901 140.39C73.3401 140.08 73.1801 139.77 73.0601 139.45C72.7701 138.66 72.4801 137.86 72.2201 137.06C71.7801 135.69 71.4501 134.29 71.2501 132.87C71.1001 131.79 71.1401 130.68 71.1001 129.59C71.7201 130.45 72.2901 131.36 72.9801 132.16C74.2301 133.63 75.7801 134.67 77.7401 134.96C79.3401 135.2 80.7001 134.7 81.8401 133.54C83.2401 132.12 83.7901 130.35 83.9301 128.43C84.2101 124.61 83.0801 121.18 80.8501 118.11C80.2401 117.27 79.5001 116.54 78.7201 115.87C79.6101 115.67 80.5001 115.7 81.4001 115.74C81.5801 115.75 81.7701 115.73 81.9501 115.73C82.1201 115.79 82.2901 115.87 82.4601 115.9C83.3301 116.08 84.1501 116.4 84.9101 116.88C85.2401 117.17 85.5801 117.45 85.9101 117.74ZM88.1601 132.33C87.2101 131.54 85.9701 131.99 85.7601 133.21C85.7101 133.52 85.6601 133.84 85.7001 134.14C85.9301 135.75 86.1601 137.35 86.4601 138.95C86.5801 139.62 86.7701 140.29 87.1101 140.9C87.3201 141.27 87.5801 141.56 87.9101 141.81C88.5201 142.29 89.3001 142.23 89.8901 141.73C90.7001 141.04 90.9401 140.1 90.9601 139.12C91.0201 137.06 90.3701 135.18 89.2901 133.45C89.1101 133.16 88.8301 132.95 88.5901 132.7C88.5801 132.71 88.5801 132.71 88.5701 132.72C88.4401 132.58 88.3001 132.45 88.1601 132.33ZM85.9601 130.33C86.1001 130.5 86.2601 130.65 86.4401 130.78C87.0301 131.19 87.7301 130.95 87.9301 130.26C88.2401 129.2 87.7401 128.45 86.9301 127.97C86.7201 127.85 86.5001 127.89 86.3201 128.04C86.2001 128.14 86.1001 128.26 86.0501 128.3C85.4901 128.93 85.4701 129.73 85.9601 130.33Z" fill="#DEA736"/>
<path d="M116.87 155.85C115.28 156.35 113.65 156.66 112.02 156.92C109.55 157.32 107.05 157.56 104.54 157.55C102.16 157.54 99.7901 157.29 97.4401 156.9C95.1201 156.51 92.8301 155.96 90.6301 155.12C89.4101 154.65 88.2001 154.14 87.0801 153.47C87.0401 153.23 87.2201 153.2 87.3501 153.14C88.4101 152.65 89.3801 152.04 90.2001 151.2C90.3701 151.02 90.6101 150.91 90.7901 150.75C90.9801 150.58 91.1601 150.41 91.3101 150.21C92.4101 148.73 93.4701 147.22 94.1001 145.46C94.6701 143.86 95.1001 142.23 95.0401 140.5C95.0401 140.41 95.0601 140.31 95.0701 140.22C95.2401 140.29 95.4301 140.33 95.5901 140.43C96.6501 141.04 97.7001 141.66 98.7501 142.28C100.74 143.46 102.71 144.68 104.73 145.81C107.61 147.41 110.62 148.72 113.67 149.97C114.86 150.46 116.02 151 117.17 151.57C117.75 151.86 118.34 152.19 118.79 152.68C119.19 153.11 119.46 153.63 119.36 154.21C119.26 154.81 118.98 155.34 118.32 155.55C117.84 155.64 117.34 155.7 116.87 155.85ZM100.57 149.64C101.49 150.04 102.4 150.45 103.38 150.69C104.04 150.85 104.7 150.82 105.34 150.68C106.18 150.5 106.51 149.77 106.25 148.95C106.08 148.41 105.72 148.01 105.28 147.72C103.96 146.88 102.58 146.14 101.02 145.82C100.5 145.71 99.9801 145.62 99.4401 145.67C98.8401 145.73 98.3401 145.93 98.1301 146.55C97.9101 147.18 98.0701 147.72 98.5401 148.17C98.7001 148.32 98.8601 148.47 99.0801 148.67C99.4501 149.09 99.9801 149.39 100.57 149.64Z" fill="#80BAB0"/>
<path d="M82.2101 152.65C82.1201 152.49 82.0601 152.31 81.9401 152.18C81.6301 151.87 81.2901 151.59 80.9701 151.29C80.5801 150.93 80.1501 150.61 79.9101 150.11C79.8601 150 79.7501 149.92 79.6601 149.83C78.8201 148.99 78.1301 148.03 77.4101 147.09C76.3301 145.66 75.5001 144.09 74.5701 142.58C74.1401 141.89 73.8501 141.12 73.5001 140.39C73.3501 140.08 73.1901 139.77 73.0701 139.45C72.7801 138.66 72.4901 137.86 72.2301 137.06C71.7901 135.69 71.4601 134.29 71.2601 132.87C71.1101 131.79 71.1501 130.68 71.1101 129.59C71.0701 129.45 71.0301 129.32 70.9901 129.18C70.5101 128.48 70.2701 127.66 70.0101 126.87C69.7301 126.02 69.4801 125.13 69.3801 124.24C69.2301 122.88 69.1001 121.51 69.3901 120.15C69.4201 120.03 69.3701 119.91 69.3601 119.78C69.2601 119.81 69.1601 119.84 69.0601 119.87C68.8801 120.3 68.4901 120.54 68.1501 120.84C67.5501 121.68 66.9201 122.49 66.5201 123.45C66.3701 123.79 66.2301 124.14 66.0801 124.48C65.9401 125.18 65.8001 125.88 65.6601 126.58C65.6701 126.7 65.6901 126.83 65.6801 126.95C65.5201 128.81 65.7101 130.65 66.1701 132.45C67.5501 137.89 69.8701 142.89 73.3501 147.32C74.6601 148.98 76.1801 150.42 78.0501 151.46C78.9901 151.98 79.9701 152.38 81.0301 152.56C81.4301 152.59 81.8201 152.62 82.2101 152.65Z" fill="#DA8F2E"/>
<path d="M82.21 152.65C81.82 152.62 81.43 152.59 81.04 152.56C81.3 152.75 81.31 153.04 81.36 153.32C81.52 154.1 81.78 154.83 82.21 155.5C82.89 156.56 83.84 157.3 84.97 157.84C86.31 158.49 87.75 158.82 89.2 159.08C91.46 159.48 93.75 159.63 96.04 159.69C98.58 159.75 101.13 159.68 103.66 159.5C106.89 159.27 110.09 158.81 113.19 157.84C114.81 157.33 116.39 156.74 117.87 155.88C118.03 155.79 118.17 155.66 118.32 155.55C117.83 155.65 117.33 155.72 116.86 155.87C115.27 156.37 113.64 156.68 112.01 156.94C109.54 157.34 107.04 157.58 104.53 157.57C102.15 157.56 99.78 157.31 97.43 156.92C95.11 156.53 92.82 155.98 90.62 155.14C89.4 154.67 88.19 154.16 87.07 153.49C87.03 153.25 87.21 153.22 87.34 153.16C88.4 152.67 89.37 152.06 90.19 151.22C90.36 151.04 90.6 150.93 90.78 150.77C90.97 150.6 91.15 150.43 91.3 150.23C92.4 148.75 93.46 147.24 94.09 145.48C94.66 143.88 95.09 142.25 95.03 140.52C95.03 140.43 95.05 140.33 95.06 140.24C94.58 139.87 94.02 139.67 93.45 139.51C93.43 139.85 93.43 140.2 93.4 140.54C93.28 141.9 92.9 143.18 92.28 144.39C91.84 145.25 91.4 146.1 90.88 146.93C90.14 148.1 89.32 149.2 88.32 150.15C86.91 151.48 85.28 152.44 83.31 152.7C82.95 152.69 82.58 152.65 82.21 152.65Z" fill="#518889"/>
<path d="M69.3701 119.78C69.3801 119.9 69.4201 120.03 69.4001 120.15C69.1001 121.51 69.2301 122.89 69.3901 124.24C69.4901 125.13 69.7401 126.01 70.0201 126.87C70.2801 127.66 70.5201 128.48 71.0001 129.18C71.0701 127.9 71.1501 126.63 71.4001 125.36C71.9001 122.86 73.0001 120.63 74.5401 118.62C75.2601 117.68 76.0601 116.79 77.0501 116.11C76.7301 116.17 76.4101 116.23 76.0901 116.29C75.5001 116.48 74.9101 116.69 74.3201 116.87C74.1801 116.91 74.0201 116.87 73.8701 116.87C73.7301 116.98 73.6001 117.12 73.4501 117.2C73.1201 117.37 72.7701 117.51 72.4401 117.68C71.8301 118 71.2401 118.33 70.6401 118.65C70.4401 118.82 70.2301 118.99 70.0301 119.17C69.8101 119.37 69.5901 119.57 69.3701 119.78Z" fill="#DEA736"/>
<path d="M84.9102 116.88C85.2402 117.17 85.5702 117.45 85.9002 117.74C86.7902 118.5 87.5002 119.4 88.1002 120.39C88.3402 120.79 88.6302 121.15 88.9002 121.53C89.4302 121.24 89.8502 120.83 90.2302 120.37C91.1202 119.31 91.1702 117.85 90.3202 116.76C89.9802 116.33 89.6201 115.88 89.0201 115.77C89.0801 115.88 89.1302 115.98 89.2102 116.13C88.8702 116.33 88.5502 116.52 88.2302 116.69C87.9102 116.87 87.5902 117.06 87.3502 117.36C87.1302 117.64 86.8702 117.89 86.6102 118.18C86.0702 117.69 85.5702 117.23 85.0702 116.78C85.0202 116.81 84.9702 116.85 84.9102 116.88Z" fill="#443D54"/>
<path d="M65.6801 126.57C65.8201 125.87 65.9601 125.17 66.1001 124.47C65.8301 124.25 65.6501 123.98 65.5101 123.66C65.0701 122.63 64.9501 121.59 65.2901 120.51C65.3401 120.34 65.3401 120.15 65.3601 119.97C64.7601 119.99 64.3101 120.3 63.9201 120.72C63.5201 121.14 63.3101 121.65 63.2401 122.22C63.1201 123.17 63.4101 124 63.9301 124.77C64.4101 125.47 64.9901 126.08 65.6801 126.57Z" fill="#383241"/>
<path d="M76.0901 116.28C76.4101 116.22 76.7301 116.16 77.0501 116.1C77.3301 116.02 77.6101 115.94 77.8901 115.86C77.8901 115.68 77.8501 115.48 77.9101 115.32C78.2201 114.43 78.8001 113.76 79.5801 113.24C79.7501 113.12 79.9301 113.01 80.1401 112.87C80.0001 112.7 79.9001 112.58 79.8101 112.46C78.0001 111.72 76.2301 112.72 76.0001 114.62C75.9201 115.17 75.9401 115.73 76.0901 116.28Z" fill="#383241"/>
<path d="M79.8 112.45C79.9 112.57 79.99 112.69 80.13 112.86C79.92 113 79.74 113.12 79.57 113.23C78.8 113.75 78.21 114.43 77.9 115.31C77.84 115.47 77.89 115.67 77.88 115.85C78.16 115.85 78.44 115.86 78.72 115.86C79.61 115.66 80.5 115.69 81.4 115.73C81.58 115.74 81.77 115.72 81.95 115.72C81.91 114.38 81.3 113.35 80.22 112.59C80.1 112.52 79.94 112.5 79.8 112.45Z" fill="#453D54"/>
<path d="M65.36 119.97C65.34 120.15 65.34 120.34 65.29 120.51C64.95 121.59 65.07 122.63 65.51 123.66C65.65 123.98 65.83 124.25 66.1 124.47C66.25 124.13 66.39 123.78 66.54 123.44C66.94 122.48 67.57 121.66 68.17 120.83C67.69 120.43 67.16 120.12 66.54 119.98C66.15 119.88 65.75 119.8 65.36 119.97Z" fill="#453E54"/>
<path d="M69.3702 119.78C69.5902 119.58 69.8002 119.37 70.0202 119.18C70.2202 119 70.4202 118.83 70.6302 118.66C70.2302 117.56 70.2002 116.5 70.9402 115.51C71.0502 115.36 70.9902 115.22 70.8902 115.09C70.0102 115.09 69.3402 115.5 68.8402 116.19C68.3702 116.83 68.2902 117.57 68.4502 118.33C68.5702 118.88 68.7402 119.41 69.0702 119.88C69.1702 119.83 69.2702 119.8 69.3702 119.78Z" fill="#383241"/>
<path d="M70.9001 115.08C70.9901 115.21 71.0601 115.35 70.9501 115.5C70.2101 116.49 70.2301 117.55 70.6401 118.65C71.2401 118.32 71.8401 117.99 72.4401 117.68C72.7701 117.51 73.1201 117.38 73.4501 117.2C73.6101 117.12 73.7301 116.98 73.8701 116.87C73.4901 116.26 73.0601 115.71 72.3901 115.39C71.9201 115.16 71.4401 114.97 70.9001 115.08Z" fill="#463F55"/>
<path d="M85.0801 116.78C85.5801 117.24 86.0801 117.69 86.6201 118.18C86.8901 117.89 87.1401 117.63 87.3601 117.36C87.6001 117.06 87.9101 116.87 88.2401 116.69C88.5601 116.51 88.8701 116.33 89.2201 116.13C89.1401 115.98 89.0901 115.87 89.0301 115.77C87.8501 115.13 86.7601 115.43 85.7201 116.12C85.4701 116.29 85.2901 116.56 85.0801 116.78Z" fill="#393243"/>
<path d="M78.72 115.87C78.44 115.87 78.16 115.86 77.88 115.86C77.6 115.94 77.32 116.02 77.04 116.1C76.05 116.78 75.25 117.67 74.53 118.61C72.99 120.62 71.9 122.85 71.39 125.35C71.14 126.61 71.06 127.89 70.99 129.17C71.03 129.31 71.07 129.44 71.11 129.58C71.73 130.44 72.3 131.35 72.99 132.15C74.24 133.62 75.79 134.66 77.75 134.95C79.35 135.19 80.71 134.69 81.85 133.53C83.25 132.11 83.8 130.34 83.94 128.42C84.22 124.6 83.09 121.17 80.86 118.1C80.25 117.28 79.51 116.54 78.72 115.87Z" fill="#E3B540"/>
<path d="M88.5701 132.71C88.4301 132.58 88.3001 132.45 88.1501 132.33C87.2001 131.54 85.9601 131.99 85.7501 133.21C85.7001 133.52 85.6501 133.84 85.6901 134.14C85.9201 135.75 86.1501 137.35 86.4501 138.95C86.5701 139.62 86.7601 140.29 87.1001 140.9C87.3101 141.27 87.5701 141.56 87.9001 141.81C88.5101 142.29 89.2901 142.23 89.8801 141.73C90.6901 141.04 90.9301 140.1 90.9501 139.12C91.0101 137.06 90.3601 135.18 89.2801 133.45C89.1001 133.16 88.8201 132.95 88.5801 132.7C88.5901 132.7 88.5801 132.7 88.5701 132.71Z" fill="#E3B540"/>
<path d="M86.0501 128.29C85.4801 128.93 85.4601 129.73 85.9501 130.33C86.0901 130.5 86.2501 130.65 86.4301 130.78C87.0201 131.19 87.7201 130.95 87.9201 130.26C88.2301 129.2 87.7301 128.45 86.9201 127.97C86.7101 127.85 86.4901 127.89 86.3101 128.04C86.2001 128.13 86.0901 128.25 86.0501 128.29Z" fill="#E3B540"/>
<path d="M99.07 148.68C99.44 149.1 99.98 149.39 100.57 149.65C101.49 150.05 102.4 150.46 103.38 150.7C104.04 150.86 104.7 150.83 105.34 150.69C106.18 150.51 106.51 149.78 106.25 148.96C106.08 148.42 105.72 148.02 105.28 147.73C103.96 146.89 102.58 146.15 101.02 145.83C100.5 145.72 99.98 145.63 99.44 145.68C98.84 145.74 98.34 145.94 98.13 146.56C97.91 147.19 98.07 147.73 98.54 148.18C98.69 148.33 98.85 148.47 99.07 148.68Z" fill="#9FD5D8"/>
<path d="M198.4 116.67C199.16 116.19 199.97 115.87 200.85 115.69C201.03 115.65 201.19 115.57 201.36 115.52C201.54 115.52 201.73 115.54 201.91 115.53C202.81 115.49 203.7 115.46 204.59 115.66C203.8 116.34 203.06 117.07 202.46 117.9C200.23 120.97 199.1 124.4 199.38 128.22C199.52 130.14 200.07 131.91 201.47 133.33C202.61 134.48 203.96 134.99 205.57 134.75C207.53 134.46 209.07 133.41 210.33 131.95C211.02 131.15 211.59 130.24 212.21 129.38C212.17 130.47 212.21 131.58 212.06 132.66C211.86 134.08 211.54 135.49 211.09 136.85C210.83 137.65 210.54 138.45 210.25 139.24C210.13 139.56 209.97 139.87 209.82 140.18C209.47 140.91 209.18 141.68 208.75 142.37C207.81 143.88 206.98 145.46 205.91 146.88C205.2 147.83 204.51 148.78 203.66 149.62C203.57 149.71 203.46 149.79 203.41 149.9C203.17 150.4 202.73 150.72 202.35 151.08C202.03 151.38 201.69 151.66 201.38 151.97C201.26 152.09 201.2 152.28 201.11 152.44C200.74 152.44 200.36 152.48 199.99 152.44C198.02 152.19 196.39 151.23 194.98 149.89C193.98 148.95 193.16 147.85 192.42 146.67C191.9 145.85 191.46 144.99 191.02 144.13C190.4 142.92 190.02 141.64 189.9 140.28C189.87 139.94 189.87 139.6 189.85 139.25C190.15 135.9 190.88 132.63 191.64 129.37C192.26 126.71 193.09 124.12 194.31 121.67C194.36 121.56 194.37 121.43 194.4 121.32C194.67 120.94 194.96 120.58 195.2 120.18C195.8 119.18 196.52 118.29 197.4 117.53C197.74 117.24 198.07 116.96 198.4 116.67ZM194.74 132.5C194.73 132.49 194.73 132.49 194.72 132.48C194.48 132.73 194.2 132.95 194.02 133.23C192.94 134.96 192.29 136.84 192.35 138.9C192.38 139.88 192.61 140.82 193.42 141.51C194.01 142.01 194.78 142.06 195.4 141.59C195.72 141.34 195.99 141.04 196.2 140.68C196.55 140.07 196.73 139.4 196.85 138.73C197.15 137.13 197.38 135.53 197.61 133.92C197.65 133.62 197.61 133.29 197.55 132.99C197.34 131.77 196.11 131.32 195.15 132.11C195.01 132.24 194.88 132.37 194.74 132.5ZM197.26 128.08C197.22 128.04 197.12 127.92 196.99 127.82C196.8 127.67 196.58 127.62 196.38 127.75C195.57 128.23 195.07 128.98 195.38 130.04C195.58 130.73 196.29 130.97 196.87 130.56C197.05 130.44 197.21 130.28 197.35 130.11C197.85 129.52 197.83 128.72 197.26 128.08Z" fill="#DEA736"/>
<path d="M164.99 155.32C164.34 155.11 164.05 154.58 163.95 153.98C163.85 153.39 164.13 152.88 164.52 152.45C164.97 151.95 165.55 151.63 166.14 151.34C167.29 150.77 168.45 150.22 169.64 149.74C172.69 148.49 175.7 147.19 178.58 145.58C180.6 144.45 182.57 143.23 184.56 142.05C185.61 141.43 186.66 140.81 187.72 140.2C187.88 140.11 188.07 140.06 188.24 139.99C188.25 140.08 188.27 140.18 188.27 140.27C188.21 141.99 188.64 143.63 189.21 145.23C189.84 146.99 190.9 148.5 192 149.98C192.15 150.18 192.33 150.36 192.52 150.52C192.71 150.68 192.94 150.8 193.11 150.97C193.93 151.81 194.91 152.42 195.96 152.91C196.09 152.97 196.27 153 196.23 153.24C195.11 153.92 193.9 154.43 192.68 154.89C190.48 155.73 188.2 156.28 185.87 156.67C183.52 157.07 181.15 157.31 178.77 157.32C176.26 157.34 173.76 157.1 171.29 156.69C169.66 156.42 168.02 156.12 166.44 155.62C165.98 155.49 165.48 155.43 164.99 155.32ZM184.24 148.47C184.46 148.27 184.63 148.12 184.78 147.97C185.25 147.52 185.41 146.98 185.19 146.35C184.97 145.73 184.48 145.53 183.88 145.47C183.34 145.42 182.82 145.51 182.3 145.62C180.74 145.94 179.37 146.68 178.04 147.52C177.59 147.81 177.24 148.2 177.07 148.75C176.81 149.57 177.14 150.31 177.98 150.48C178.62 150.61 179.28 150.65 179.94 150.49C180.92 150.25 181.83 149.84 182.75 149.44C183.33 149.18 183.87 148.88 184.24 148.47Z" fill="#80BAB0"/>
<path d="M201.11 152.44C201.2 152.28 201.26 152.1 201.38 151.97C201.69 151.66 202.03 151.38 202.35 151.08C202.74 150.72 203.17 150.4 203.41 149.9C203.46 149.79 203.57 149.71 203.66 149.62C204.5 148.78 205.19 147.82 205.91 146.88C206.99 145.45 207.82 143.88 208.75 142.37C209.18 141.68 209.47 140.91 209.82 140.18C209.97 139.87 210.13 139.56 210.25 139.24C210.54 138.45 210.83 137.65 211.09 136.85C211.53 135.48 211.86 134.08 212.06 132.66C212.21 131.58 212.17 130.47 212.21 129.38C212.25 129.24 212.29 129.11 212.33 128.97C212.81 128.27 213.05 127.45 213.31 126.66C213.59 125.81 213.84 124.92 213.94 124.03C214.09 122.67 214.22 121.3 213.93 119.94C213.9 119.82 213.95 119.7 213.96 119.57C214.06 119.6 214.16 119.63 214.26 119.66C214.44 120.09 214.83 120.33 215.17 120.63C215.77 121.47 216.4 122.28 216.8 123.24C216.95 123.58 217.09 123.93 217.24 124.27C217.38 124.97 217.52 125.67 217.66 126.37C217.65 126.49 217.63 126.62 217.64 126.74C217.8 128.6 217.61 130.44 217.15 132.24C215.77 137.68 213.45 142.68 209.97 147.11C208.66 148.77 207.14 150.21 205.27 151.25C204.33 151.77 203.35 152.17 202.29 152.35C201.89 152.38 201.5 152.41 201.11 152.44Z" fill="#DA8F2E"/>
<path d="M201.11 152.44C201.5 152.41 201.89 152.38 202.28 152.35C202.02 152.54 202.01 152.83 201.96 153.11C201.8 153.89 201.54 154.62 201.11 155.29C200.43 156.35 199.48 157.09 198.35 157.63C197.01 158.28 195.57 158.61 194.12 158.87C191.86 159.27 189.57 159.42 187.28 159.48C184.74 159.54 182.19 159.47 179.66 159.29C176.43 159.06 173.23 158.6 170.13 157.63C168.51 157.12 166.93 156.53 165.45 155.67C165.29 155.58 165.15 155.45 165 155.34C165.49 155.44 165.99 155.51 166.46 155.66C168.05 156.16 169.68 156.47 171.31 156.73C173.78 157.13 176.28 157.37 178.79 157.36C181.17 157.35 183.54 157.1 185.89 156.71C188.21 156.32 190.5 155.77 192.7 154.93C193.92 154.46 195.13 153.95 196.25 153.28C196.29 153.04 196.11 153.01 195.98 152.95C194.92 152.46 193.95 151.85 193.13 151.01C192.96 150.83 192.72 150.72 192.54 150.56C192.35 150.39 192.17 150.22 192.02 150.02C190.92 148.54 189.86 147.03 189.23 145.27C188.66 143.67 188.23 142.04 188.29 140.31C188.29 140.22 188.27 140.12 188.26 140.03C188.74 139.66 189.3 139.46 189.87 139.3C189.89 139.64 189.89 139.99 189.92 140.33C190.04 141.69 190.42 142.97 191.04 144.18C191.48 145.04 191.92 145.89 192.44 146.72C193.18 147.89 194 148.99 195 149.94C196.41 151.27 198.04 152.23 200.01 152.49C200.36 152.48 200.74 152.44 201.11 152.44Z" fill="#518889"/>
<path d="M213.94 119.57C213.93 119.69 213.89 119.82 213.91 119.94C214.21 121.3 214.08 122.68 213.92 124.03C213.82 124.92 213.57 125.8 213.29 126.66C213.03 127.45 212.79 128.27 212.31 128.97C212.24 127.69 212.16 126.42 211.91 125.15C211.41 122.65 210.31 120.42 208.77 118.41C208.05 117.47 207.25 116.58 206.26 115.9C206.58 115.96 206.9 116.02 207.22 116.08C207.81 116.27 208.4 116.48 208.99 116.66C209.13 116.7 209.29 116.66 209.44 116.66C209.58 116.77 209.71 116.91 209.86 116.99C210.19 117.16 210.54 117.3 210.87 117.47C211.48 117.79 212.07 118.12 212.67 118.44C212.87 118.61 213.08 118.78 213.28 118.96C213.51 119.16 213.72 119.36 213.94 119.57Z" fill="#DEA736"/>
<path d="M198.4 116.67C198.07 116.96 197.74 117.24 197.41 117.53C196.52 118.29 195.81 119.19 195.21 120.18C194.97 120.58 194.68 120.94 194.41 121.32C193.88 121.03 193.46 120.62 193.08 120.16C192.19 119.1 192.14 117.64 192.99 116.55C193.33 116.12 193.69 115.67 194.29 115.56C194.23 115.67 194.18 115.77 194.1 115.92C194.44 116.12 194.76 116.31 195.08 116.48C195.4 116.66 195.72 116.85 195.96 117.15C196.18 117.43 196.44 117.68 196.7 117.97C197.24 117.48 197.74 117.02 198.24 116.57C198.29 116.61 198.35 116.64 198.4 116.67Z" fill="#443D54"/>
<path d="M217.64 126.36C217.5 125.66 217.36 124.96 217.22 124.26C217.49 124.04 217.67 123.77 217.81 123.45C218.25 122.42 218.37 121.38 218.03 120.3C217.98 120.13 217.98 119.94 217.96 119.76C218.56 119.78 219.01 120.09 219.4 120.51C219.8 120.93 220.01 121.44 220.08 122.01C220.2 122.96 219.91 123.79 219.39 124.56C218.91 125.26 218.33 125.87 217.64 126.36Z" fill="#383241"/>
<path d="M207.23 116.07C206.91 116.01 206.59 115.95 206.27 115.89C205.99 115.81 205.71 115.73 205.43 115.65C205.43 115.47 205.47 115.27 205.41 115.11C205.1 114.22 204.52 113.55 203.74 113.03C203.57 112.91 203.39 112.8 203.18 112.66C203.32 112.49 203.42 112.37 203.51 112.25C205.32 111.51 207.09 112.51 207.32 114.41C207.4 114.96 207.38 115.52 207.23 116.07Z" fill="#383241"/>
<path d="M203.52 112.24C203.42 112.36 203.33 112.48 203.19 112.65C203.4 112.79 203.58 112.91 203.75 113.02C204.52 113.54 205.11 114.22 205.42 115.1C205.48 115.26 205.43 115.46 205.44 115.64C205.16 115.64 204.88 115.65 204.6 115.65C203.71 115.45 202.82 115.48 201.92 115.52C201.74 115.53 201.55 115.51 201.37 115.51C201.41 114.17 202.02 113.14 203.1 112.38C203.21 112.31 203.38 112.29 203.52 112.24Z" fill="#453D54"/>
<path d="M217.95 119.76C217.97 119.94 217.97 120.13 218.02 120.3C218.36 121.38 218.24 122.42 217.8 123.45C217.66 123.77 217.48 124.04 217.21 124.26C217.06 123.92 216.92 123.57 216.77 123.23C216.37 122.27 215.74 121.45 215.14 120.62C215.62 120.22 216.15 119.91 216.77 119.77C217.17 119.67 217.56 119.59 217.95 119.76Z" fill="#453E54"/>
<path d="M213.94 119.57C213.72 119.37 213.51 119.16 213.29 118.97C213.09 118.79 212.89 118.62 212.68 118.45C213.08 117.35 213.11 116.29 212.37 115.3C212.26 115.15 212.32 115.01 212.42 114.88C213.3 114.88 213.97 115.29 214.47 115.98C214.94 116.62 215.02 117.36 214.86 118.12C214.74 118.67 214.57 119.2 214.24 119.67C214.14 119.62 214.04 119.59 213.94 119.57Z" fill="#383241"/>
<path d="M212.42 114.87C212.33 115 212.26 115.14 212.37 115.29C213.11 116.28 213.09 117.34 212.68 118.44C212.08 118.11 211.48 117.78 210.88 117.47C210.55 117.3 210.2 117.17 209.87 116.99C209.71 116.91 209.59 116.77 209.45 116.66C209.83 116.05 210.26 115.5 210.93 115.18C211.4 114.95 211.88 114.76 212.42 114.87Z" fill="#463F55"/>
<path d="M198.24 116.57C197.74 117.03 197.24 117.48 196.7 117.97C196.43 117.68 196.18 117.42 195.96 117.15C195.72 116.85 195.41 116.66 195.08 116.48C194.76 116.3 194.45 116.12 194.1 115.92C194.18 115.77 194.23 115.66 194.29 115.56C195.47 114.92 196.56 115.22 197.6 115.91C197.85 116.08 198.02 116.35 198.24 116.57Z" fill="#393243"/>
<path d="M204.59 115.66C204.87 115.66 205.15 115.65 205.43 115.65C205.71 115.73 205.99 115.81 206.27 115.89C207.26 116.57 208.06 117.46 208.78 118.4C210.32 120.41 211.41 122.64 211.92 125.14C212.17 126.4 212.25 127.68 212.32 128.96C212.28 129.1 212.24 129.23 212.2 129.37C211.58 130.23 211.01 131.14 210.32 131.94C209.07 133.41 207.52 134.45 205.56 134.74C203.96 134.98 202.6 134.48 201.46 133.32C200.06 131.9 199.51 130.13 199.37 128.21C199.09 124.39 200.22 120.96 202.45 117.89C203.06 117.07 203.8 116.33 204.59 115.66Z" fill="#E3B540"/>
<path d="M194.74 132.5C194.88 132.37 195.01 132.24 195.16 132.12C196.11 131.33 197.35 131.78 197.56 133C197.61 133.31 197.66 133.63 197.62 133.93C197.39 135.54 197.16 137.14 196.86 138.74C196.74 139.41 196.55 140.08 196.21 140.69C196 141.06 195.74 141.35 195.41 141.6C194.8 142.08 194.02 142.02 193.43 141.52C192.62 140.83 192.38 139.89 192.36 138.91C192.3 136.85 192.95 134.97 194.03 133.24C194.21 132.95 194.49 132.74 194.73 132.49C194.73 132.49 194.73 132.49 194.74 132.5Z" fill="#E3B540"/>
<path d="M197.26 128.08C197.83 128.72 197.85 129.52 197.36 130.12C197.22 130.29 197.06 130.44 196.88 130.57C196.29 130.98 195.59 130.74 195.39 130.05C195.08 128.99 195.58 128.24 196.39 127.76C196.6 127.64 196.82 127.68 197 127.83C197.12 127.92 197.22 128.04 197.26 128.08Z" fill="#E3B540"/>
<path d="M184.24 148.47C183.87 148.89 183.33 149.18 182.74 149.44C181.82 149.84 180.91 150.25 179.93 150.49C179.27 150.65 178.61 150.62 177.97 150.48C177.13 150.3 176.8 149.57 177.06 148.75C177.23 148.21 177.59 147.81 178.03 147.52C179.35 146.68 180.73 145.94 182.29 145.62C182.81 145.51 183.33 145.42 183.87 145.47C184.47 145.53 184.97 145.73 185.18 146.35C185.4 146.98 185.24 147.52 184.77 147.97C184.63 148.12 184.46 148.27 184.24 148.47Z" fill="#9FD5D8"/>
<path d="M139.11 114.31C138.28 113.41 137.89 112.3 137.66 111.13C137.58 110.74 137.57 110.35 137.52 109.96C137.46 109.49 137.67 109.23 138.08 109.04C138.66 108.77 139.27 108.61 139.89 108.51C142.1 108.15 144.29 108.24 146.46 108.79C147.6 109.08 147.69 109.18 147.58 110.37C147.44 111.83 147.04 113.2 146.02 114.32C145.84 114.31 145.67 114.32 145.53 114.14C145.3 113.85 145.05 113.59 144.79 113.34C144.14 112.73 143.35 112.4 142.45 112.43C141.32 112.48 140.41 112.99 139.7 113.85C139.54 114.06 139.41 114.29 139.11 114.31Z" fill="#3A3444"/>
<path d="M139.11 114.31C139.41 114.28 139.53 114.05 139.7 113.85C140.41 112.99 141.32 112.48 142.45 112.43C143.35 112.39 144.13 112.72 144.79 113.34C145.06 113.59 145.31 113.86 145.53 114.14C145.67 114.32 145.83 114.31 146.02 114.32C144.64 116.22 141.84 116.83 139.75 115C139.51 114.8 139.32 114.54 139.11 114.31Z" fill="#463F55"/>
<path d="M160.23 101.31C161.26 101 162.31 101.01 163.35 101.1C164.75 101.22 166.08 101.59 167.36 102.19C169.95 103.4 171.68 105.38 172.72 108.01C173.28 109.42 173.54 110.88 173.62 112.39C173.63 112.68 173.63 112.97 173.57 113.25C173.47 113.76 173.06 113.94 172.63 113.67C169.28 111.58 165.59 111.03 161.73 111.36C160.5 111.46 159.3 111.77 158.13 112.2C157.89 112.29 157.63 112.36 157.39 112.44C157.04 111.23 156.83 110 156.91 108.74C156.92 108.58 156.93 108.42 156.91 108.27C156.85 107.69 156.97 107.11 157.12 106.57C157.6 104.84 158.34 103.24 159.7 101.99C159.91 101.78 160.17 101.61 160.23 101.31ZM170.5 107.21C170.56 106.56 170.3 106.02 170.04 105.47C169.76 104.87 169.29 104.47 168.75 104.14C167.83 103.59 166.59 104.22 166.38 105.05C166.25 105.55 166.26 106.01 166.37 106.51C166.56 107.39 167 108.11 167.65 108.71C168.22 109.24 168.89 109.2 169.57 109.01C169.86 108.93 170.06 108.72 170.21 108.46C170.43 108.07 170.58 107.66 170.5 107.21ZM170.66 110.6C170.65 110.07 170.3 109.73 169.77 109.74C169.38 109.75 168.95 110.18 168.97 110.55C168.98 110.91 169.51 111.47 169.82 111.46C170.26 111.43 170.67 111.02 170.66 110.6Z" fill="#453E55"/>
<path d="M160.23 101.31C160.17 101.62 159.91 101.78 159.7 101.97C158.35 103.22 157.6 104.82 157.12 106.55C156.97 107.09 156.85 107.67 156.91 108.25C156.93 108.41 156.92 108.56 156.91 108.72C156.83 109.99 157.04 111.21 157.39 112.42C157.21 112.52 157.03 112.63 156.85 112.72C155.88 113.2 154.96 113.74 154.14 114.45C154.06 114.52 153.98 114.59 153.9 114.65C153.61 114.85 153.35 114.81 153.17 114.5C153.03 114.25 152.91 113.98 152.85 113.7C152.74 113.24 152.65 112.78 152.59 112.31C152.43 110.97 152.45 109.64 152.75 108.32C153.19 106.38 154.19 104.78 155.71 103.52C157.02 102.42 158.5 101.6 160.23 101.31Z" fill="#3A3444"/>
<path d="M170.5 107.21C170.57 107.66 170.42 108.07 170.2 108.47C170.05 108.73 169.85 108.95 169.56 109.02C168.88 109.2 168.21 109.25 167.64 108.72C166.99 108.12 166.55 107.4 166.36 106.52C166.25 106.02 166.25 105.56 166.37 105.06C166.58 104.22 167.82 103.59 168.74 104.15C169.29 104.48 169.76 104.88 170.03 105.48C170.3 106.02 170.57 106.56 170.5 107.21Z" fill="#6C6678"/>
<path d="M170.66 110.6C170.66 111.02 170.25 111.44 169.81 111.46C169.5 111.48 168.98 110.92 168.96 110.55C168.94 110.18 169.37 109.75 169.76 109.74C170.3 109.73 170.66 110.07 170.66 110.6Z" fill="#6A6476"/>
<path d="M122.16 101.1C125.87 100.7 129.55 102.73 131.35 105.44C132.15 106.65 132.6 107.97 132.76 109.41C132.91 110.73 132.83 112.04 132.57 113.33C132.51 113.64 132.42 113.95 132.3 114.23C132.04 114.85 131.75 114.92 131.23 114.48C129.99 113.43 128.58 112.67 127.06 112.13C125.1 111.43 123.08 111.17 121.01 111.24C119.74 111.28 118.5 111.5 117.26 111.72C117.31 110.65 117.21 109.58 117.41 108.5C117.59 107.51 117.87 106.56 118.31 105.66C118.84 104.57 119.62 103.64 120.4 102.72C120.47 102.64 120.54 102.57 120.62 102.5C121.08 102.11 121.55 101.73 122 101.34C122.08 101.3 122.11 101.19 122.16 101.1ZM126.9 106.66C126.95 107.68 127.41 108.62 128.21 109.4C128.97 110.13 130.08 110.07 130.77 109.28C131.04 108.97 131.15 108.59 131.16 108.2C131.21 107.12 130.79 106.22 130.09 105.42C129.8 105.1 129.44 104.91 129.03 104.78C128.41 104.58 127.9 104.75 127.44 105.15C127.03 105.52 126.9 106.02 126.9 106.66ZM130.45 112.12C131.03 112.18 131.28 111.82 131.32 111.34C131.36 110.88 130.96 110.52 130.45 110.53C130.05 110.53 129.61 110.94 129.6 111.31C129.6 111.79 129.93 112.11 130.45 112.12Z" fill="#453E55"/>
<path d="M122.16 101.1C122.11 101.19 122.07 101.3 122 101.36C121.54 101.75 121.08 102.14 120.62 102.52C120.54 102.59 120.46 102.66 120.4 102.74C119.61 103.66 118.83 104.59 118.31 105.68C117.88 106.57 117.59 107.53 117.41 108.52C117.21 109.59 117.31 110.67 117.26 111.74C116.61 111.94 115.95 112.13 115.31 112.36C114.39 112.68 113.52 113.1 112.71 113.65C112.26 113.96 111.82 113.74 111.74 113.21C111.71 113.03 111.72 112.84 111.71 112.66C111.7 111.87 111.78 111.08 111.93 110.31C112.23 108.75 112.79 107.29 113.65 105.94C115.07 103.7 117.13 102.33 119.62 101.56C120.44 101.29 121.29 101.1 122.16 101.1Z" fill="#3A3444"/>
<path d="M126.9 106.66C126.9 106.01 127.03 105.52 127.46 105.14C127.92 104.74 128.43 104.57 129.05 104.77C129.46 104.91 129.82 105.09 130.11 105.41C130.81 106.2 131.23 107.11 131.18 108.19C131.16 108.58 131.06 108.96 130.79 109.27C130.1 110.06 128.98 110.12 128.23 109.39C127.41 108.63 126.94 107.69 126.9 106.66Z" fill="#6C6678"/>
<path d="M130.45 112.12C129.93 112.12 129.6 111.79 129.61 111.3C129.62 110.93 130.06 110.52 130.46 110.52C130.97 110.52 131.37 110.88 131.33 111.33C131.27 111.82 131.03 112.18 130.45 112.12Z" fill="#6A6476"/>
</svg>
