<svg width="144" height="211" viewBox="0 0 144 211" fill="none" xmlns="http://www.w3.org/2000/svg">
<g clip-path="url(#clip0_43_2946)">
<path d="M45.47 77.1302V69.3802C45.4647 65.9897 44.1155 62.7396 41.718 60.3422C39.3206 57.9447 36.0705 56.5955 32.68 56.5902H10.11C7.7303 56.6137 5.45471 57.5694 3.77194 59.2522C2.08917 60.935 1.13343 63.2106 1.10999 65.5902V94.4502C1.13343 96.8299 2.08917 99.1055 3.77194 100.788C5.45471 102.471 7.7303 103.427 10.11 103.45H13.34H13.39C15.3697 103.444 17.2922 102.785 18.8596 101.576C20.427 100.366 21.5519 98.6737 22.06 96.7602L23.97 99.5302C24.767 100.716 25.8434 101.687 27.1042 102.358C28.365 103.03 29.7716 103.381 31.2 103.38H36.78C38.2915 103.381 39.7742 102.967 41.0662 102.182C42.3582 101.398 43.4099 100.273 44.1065 98.932C44.803 97.5905 45.1176 96.0835 45.0159 94.5754C44.9143 93.0673 44.4003 91.6161 43.53 90.3802L41.04 86.8302C42.4338 85.6282 43.5513 84.139 44.3159 82.4648C45.0806 80.7906 45.4742 78.9708 45.47 77.1302ZM40.8 92.2902C41.3179 93.0246 41.6244 93.887 41.6861 94.7835C41.7477 95.68 41.5621 96.5762 41.1496 97.3745C40.737 98.1728 40.1133 98.8426 39.3463 99.3109C38.5794 99.7791 37.6986 100.028 36.8 100.03H31.2C30.3258 100.029 29.465 99.815 28.6916 99.4074C27.9182 98.9998 27.2554 98.4105 26.76 97.6902L26.69 97.5902C25.96 95.9502 28.31 94.9602 30.8 94.0702C31.6084 93.6869 32.2623 93.0397 32.6541 92.2353C33.0458 91.4308 33.1521 90.517 32.9554 89.6441C32.7587 88.7713 32.2708 87.9914 31.5719 87.4327C30.873 86.874 30.0047 86.5698 29.11 86.5702H19.11C19.11 86.8502 19.11 94.5702 19.11 94.5702C19.1061 95.3142 18.9546 96.0501 18.6642 96.735C18.3737 97.42 17.9502 98.0405 17.4181 98.5605C16.886 99.0805 16.2559 99.4897 15.5644 99.7643C14.873 100.039 14.1339 100.173 13.39 100.16H10.16C8.65079 100.155 7.20508 99.5524 6.13885 98.4843C5.07263 97.4162 4.47262 95.9694 4.46999 94.4602V82.2602C4.68314 81.078 5.31483 80.012 6.2495 79.2572C7.18418 78.5025 8.35933 78.1096 9.55998 78.1502H15.19C16.1925 78.1415 17.1536 77.7491 17.8756 77.0535C18.5976 76.3579 19.0257 75.4122 19.0718 74.4107C19.1179 73.4092 18.7786 72.4281 18.1235 71.6691C17.4684 70.9101 16.5475 70.431 15.55 70.3302H9.43999C8.58799 70.3222 7.75217 70.0966 7.01186 69.6748C6.27154 69.253 5.6513 68.6491 5.20998 67.9202C4.80175 67.3223 4.53815 66.6376 4.43999 65.9202V65.6802C4.44262 64.1711 5.04263 62.7243 6.10886 61.6562C7.17508 60.5881 8.62079 59.9855 10.13 59.9802C13.07 59.9802 9.37998 59.9802 14.63 59.9802H32.68C33.921 59.9802 35.1498 60.2247 36.2963 60.6996C37.4429 61.1745 38.4846 61.8706 39.3621 62.7481C40.2397 63.6256 40.9357 64.6674 41.4106 65.8139C41.8856 66.9604 42.13 68.1893 42.13 69.4302V77.2202C42.13 79.0913 41.5751 80.9203 40.5356 82.476C39.4961 84.0317 38.0186 85.2443 36.29 85.9602L40.8 92.2902Z" fill="#69BBBF"/>
<path d="M81.11 56.6202H59.87C56.4846 56.6255 53.239 57.9706 50.8425 60.3616C48.4459 62.7525 47.0932 65.995 47.08 69.3802V90.6102C47.0852 94.0007 48.4345 97.2508 50.8319 99.6483C53.2293 102.046 56.4795 103.395 59.87 103.4H81.11C84.5005 103.395 87.7506 102.046 90.148 99.6483C92.5455 97.2508 93.8947 94.0007 93.8999 90.6102V69.3802C93.8867 65.995 92.534 62.7525 90.1375 60.3616C87.7409 57.9706 84.4953 56.6255 81.11 56.6202ZM90.56 90.6202C90.56 93.1275 89.5647 95.5321 87.7927 97.3059C86.0208 99.0797 83.6172 100.078 81.11 100.08H59.87C57.3627 100.078 54.9591 99.0797 53.1872 97.3059C51.4153 95.5321 50.42 93.1275 50.42 90.6202V69.3802C50.42 66.873 51.4153 64.4683 53.1872 62.6945C54.9591 60.9207 57.3627 59.9229 59.87 59.9202H81.11C83.6172 59.9229 86.0208 60.9207 87.7927 62.6945C89.5647 64.4683 90.56 66.873 90.56 69.3802V90.6202Z" fill="#69BBBF"/>
<path d="M39.58 123.65C39.58 122.43 39.58 120.56 39.58 117.65C39.58 114.581 38.3613 111.637 36.1918 109.465C34.0223 107.294 31.0795 106.073 28.01 106.07H10.25C7.86951 106.091 5.59244 107.046 3.90912 108.729C2.2258 110.413 1.27088 112.69 1.25 115.07V143.91C1.276 146.289 2.23256 148.563 3.91479 150.245C5.59701 151.928 7.87112 152.884 10.25 152.91H32.8C36.1646 152.911 39.3938 151.585 41.7878 149.221C44.1818 146.857 45.5479 143.645 45.59 140.28V134.49C45.5808 132.324 45.0252 130.195 43.9746 128.3C42.9241 126.405 41.4126 124.806 39.58 123.65ZM42.26 140.28C42.26 142.787 41.2644 145.19 39.4922 146.962C37.7199 148.735 35.3163 149.73 32.81 149.73H32.67C29.57 149.73 16.18 149.59 13.86 149.73H10.26C8.7515 149.72 7.30776 149.116 6.24107 148.049C5.17437 146.982 4.57047 145.539 4.56 144.03V115.19C4.57047 113.682 5.17437 112.238 6.24107 111.171C7.30776 110.105 8.7515 109.501 10.26 109.49H28.02C30.2027 109.49 32.2961 110.357 33.8395 111.901C35.3829 113.444 36.25 115.538 36.25 117.72C36.25 117.72 36.25 125.31 36.15 125.72C37.9359 126.403 39.4725 127.611 40.5564 129.186C41.6403 130.761 42.2204 132.628 42.22 134.54L42.26 140.28Z" fill="#69BBBF"/>
<path d="M81.11 106.06H59.87C56.4787 106.063 53.227 107.411 50.829 109.809C48.431 112.207 47.0826 115.459 47.08 118.85V140.08C47.0852 143.471 48.4345 146.721 50.8319 149.118C53.2293 151.516 56.4795 152.865 59.87 152.87H81.11C84.5005 152.865 87.7506 151.516 90.148 149.118C92.5455 146.721 93.8947 143.471 93.8999 140.08V118.85C93.8973 115.459 92.5489 112.207 90.1509 109.809C87.7529 107.411 84.5013 106.063 81.11 106.06ZM90.56 140.06C90.56 142.567 89.5647 144.972 87.7927 146.746C86.0208 148.52 83.6172 149.518 81.11 149.52H59.87C58.6277 149.523 57.397 149.281 56.2482 148.808C55.0995 148.335 54.0552 147.64 53.1749 146.764C52.2946 145.887 51.5955 144.846 51.1177 143.699C50.6399 142.552 50.3926 141.323 50.39 140.08V118.85C50.3886 117.608 50.6321 116.379 51.1064 115.231C51.5807 114.083 52.2766 113.04 53.1543 112.162C54.0319 111.283 55.0741 110.586 56.2213 110.111C57.3685 109.635 58.5981 109.39 59.84 109.39H81.08C82.3218 109.39 83.5514 109.635 84.6986 110.111C85.8458 110.586 86.888 111.283 87.7657 112.162C88.6433 113.04 89.3392 114.083 89.8135 115.231C90.2878 116.379 90.5313 117.608 90.53 118.85L90.56 140.06Z" fill="#69BBBF"/>
<path d="M130.91 106.18H109.67C106.28 106.186 103.029 107.535 100.632 109.932C98.2345 112.33 96.8853 115.58 96.88 118.97V140.21C96.8853 143.601 98.2345 146.851 100.632 149.248C103.029 151.646 106.28 152.995 109.67 153H130.91C134.3 152.995 137.551 151.646 139.948 149.248C142.346 146.851 143.695 143.601 143.7 140.21V118.97C143.695 115.58 142.346 112.33 139.948 109.932C137.551 107.535 134.3 106.186 130.91 106.18ZM140.36 140.18C140.36 142.687 139.364 145.09 137.592 146.862C135.82 148.635 133.416 149.63 130.91 149.63H109.67C107.164 149.63 104.76 148.635 102.988 146.862C101.216 145.09 100.22 142.687 100.22 140.18V118.97C100.228 117.709 100.486 116.463 100.98 115.303C101.474 114.143 102.194 113.092 103.097 112.213C104.001 111.334 105.07 110.643 106.243 110.18C107.416 109.718 108.669 109.494 109.93 109.52H131.16C133.627 109.573 135.974 110.593 137.695 112.361C139.417 114.129 140.374 116.503 140.36 118.97V140.18Z" fill="#69BBBF"/>
<path d="M34.03 7.12025H12.79C9.39951 7.12554 6.14939 8.47475 3.75195 10.8722C1.3545 13.2696 0.00528939 16.5198 0 19.9102V41.1403C0.00264842 44.5316 1.35101 47.7832 3.74903 50.1812C6.14705 52.5792 9.39869 53.9276 12.79 53.9303H34.03C37.4213 53.9276 40.673 52.5792 43.071 50.1812C45.469 47.7832 46.8174 44.5316 46.82 41.1403V19.9102C46.8147 16.5198 45.4655 13.2696 43.0681 10.8722C40.6706 8.47475 37.4205 7.12554 34.03 7.12025ZM43.48 41.1202C43.48 43.6275 42.4847 46.0321 40.7128 47.8059C38.9408 49.5798 36.5372 50.5776 34.03 50.5802H12.79C10.2949 50.5644 7.90713 49.5635 6.14656 47.7954C4.38599 46.0274 3.39522 43.6354 3.39 41.1403V19.9102C3.39 17.404 4.38562 15.0003 6.15784 13.2281C7.93006 11.4559 10.3337 10.4603 12.84 10.4603H34.03C35.271 10.4603 36.4998 10.7047 37.6464 11.1796C38.7929 11.6545 39.8346 12.3506 40.7122 13.2281C41.5897 14.1056 42.2858 15.1474 42.7607 16.2939C43.2356 17.4404 43.48 18.6693 43.48 19.9102V41.1202Z" fill="#69BBBF"/>
<path d="M15.55 23.5102C14.9856 23.4623 14.4247 23.6359 13.986 23.9942C13.5474 24.3526 13.2655 24.8676 13.2 25.4303C13.2 25.4303 13.2 26.3202 13.2 27.7202V31.3803C13.2882 31.9316 13.5683 32.4341 13.9909 32.7991C14.4135 33.1641 14.9514 33.3682 15.5097 33.3754C16.068 33.3826 16.611 33.1924 17.0428 32.8383C17.4746 32.4843 17.7675 31.9892 17.87 31.4402V30.1003V25.4903C17.824 24.9204 17.554 24.3919 17.1191 24.0208C16.6843 23.6497 16.12 23.4661 15.55 23.5102Z" fill="#69BBBF"/>
<path d="M30.58 23.5102C30.0167 23.4624 29.457 23.6363 29.02 23.9949C28.5829 24.3535 28.3031 24.8685 28.24 25.4303V27.7202V31.3802C28.3283 31.9316 28.6084 32.4341 29.031 32.7991C29.4535 33.1641 29.9914 33.3682 30.5497 33.3754C31.1081 33.3826 31.651 33.1924 32.0828 32.8383C32.5146 32.4843 32.8076 31.9892 32.91 31.4402V30.1003V25.4903C32.859 24.9205 32.5862 24.3937 32.1503 24.0233C31.7145 23.6529 31.1505 23.4686 30.58 23.5102Z" fill="#69BBBF"/>
<path d="M52.14 0.000249077H42.28C41.6842 0.0321793 41.116 0.262033 40.6656 0.653386C40.2152 1.04474 39.9083 1.57521 39.7935 2.16074C39.6787 2.74627 39.7626 3.35337 40.0318 3.88583C40.3011 4.4183 40.7403 4.84568 41.28 5.10025C42.1799 5.34272 43.0954 5.52315 44.02 5.64025C45.112 5.79638 46.1238 6.30306 46.9029 7.084C47.682 7.86494 48.1864 8.87786 48.34 9.97025C48.4558 10.8958 48.6397 11.8117 48.89 12.7103C49.144 13.2563 49.5752 13.7004 50.1135 13.9705C50.6518 14.2405 51.2656 14.3207 51.8552 14.1979C52.4448 14.0751 52.9755 13.7566 53.3613 13.2941C53.747 12.8316 53.965 12.2523 53.98 11.6502V1.80025C53.9787 1.56085 53.9299 1.3241 53.8365 1.10368C53.7431 0.883259 53.6069 0.683563 53.4357 0.516153C53.2646 0.348742 53.062 0.216944 52.8396 0.128389C52.6171 0.0398331 52.3794 -0.00372233 52.14 0.000249077Z" fill="#69BBBF"/>
<path d="M70.5 122.28C69.6824 122.215 68.8714 122.469 68.2374 122.99C67.6034 123.51 67.1957 124.256 67.1 125.07V128.38V133.73C67.2387 134.525 67.6506 135.246 68.2646 135.769C68.8786 136.292 69.6561 136.584 70.4626 136.595C71.2692 136.606 72.0541 136.334 72.6818 135.828C73.3094 135.321 73.7403 134.611 73.9 133.82V131.82V125.1C73.8139 124.279 73.41 123.525 72.7746 122.997C72.1392 122.47 71.3227 122.213 70.5 122.28Z" fill="#69BBBF"/>
<path d="M22.62 116.38C22.0573 116.335 21.4989 116.51 21.0625 116.868C20.626 117.226 20.3455 117.74 20.28 118.3V120.59V124.27C20.3015 124.555 20.3789 124.832 20.5076 125.086C20.6364 125.341 20.8141 125.567 21.0305 125.753C21.2469 125.939 21.4978 126.08 21.7688 126.169C22.0398 126.258 22.3257 126.292 22.61 126.27C23.1722 126.313 23.7292 126.137 24.1651 125.78C24.601 125.422 24.8821 124.91 24.95 124.35V122.99V118.38C24.9285 118.096 24.8512 117.819 24.7224 117.564C24.5936 117.31 24.416 117.083 24.1996 116.897C23.9832 116.712 23.7323 116.57 23.4613 116.482C23.1902 116.393 22.9044 116.358 22.62 116.38Z" fill="#69BBBF"/>
<path d="M24.72 69.2603C24.1595 69.2202 23.605 69.3972 23.1713 69.7546C22.7376 70.112 22.4579 70.6224 22.39 71.1803V73.4803V77.1603C22.4783 77.7116 22.7584 78.2141 23.181 78.5791C23.6035 78.9441 24.1414 79.1482 24.6998 79.1554C25.2581 79.1626 25.8011 78.9724 26.2329 78.6183C26.6647 78.2643 26.9576 77.7692 27.06 77.2202V75.8602V71.2403C27.0091 70.6687 26.7348 70.1402 26.2968 69.7695C25.8587 69.3989 25.2921 69.2159 24.72 69.2603Z" fill="#69BBBF"/>
<path d="M70.5 72.8403C69.6824 72.7751 68.8714 73.0294 68.2374 73.5497C67.6034 74.07 67.1957 74.8157 67.1 75.6303V78.9803V84.3803C67.2387 85.1749 67.6506 85.896 68.2646 86.4191C68.8786 86.9422 69.6561 87.2344 70.4626 87.245C71.2692 87.2557 72.0541 86.9842 72.6818 86.4776C73.3094 85.9709 73.7403 85.2609 73.9 84.4702V82.4702V75.7502C73.8684 75.3357 73.7553 74.9315 73.5672 74.5607C73.3791 74.19 73.1197 73.86 72.8039 73.5897C72.488 73.3193 72.1219 73.114 71.7266 72.9854C71.3312 72.8568 70.9144 72.8075 70.5 72.8403Z" fill="#69BBBF"/>
<path d="M120.3 122.28C119.481 122.215 118.669 122.469 118.034 122.989C117.398 123.509 116.988 124.255 116.89 125.07V128.38V133.73C117.029 134.525 117.441 135.246 118.055 135.769C118.669 136.292 119.446 136.584 120.253 136.595C121.059 136.606 121.844 136.334 122.472 135.828C123.099 135.321 123.53 134.611 123.69 133.82C123.69 133.82 123.69 133.87 123.69 131.82V125.1C123.604 124.281 123.201 123.528 122.568 123.001C121.935 122.474 121.121 122.216 120.3 122.28Z" fill="#69BBBF"/>
<path d="M22.62 132.32C22.0578 132.278 21.5008 132.453 21.0649 132.811C20.6291 133.169 20.3479 133.681 20.28 134.24V136.54V140.22C20.3683 140.772 20.6484 141.274 21.071 141.639C21.4936 142.004 22.0314 142.208 22.5898 142.215C23.1481 142.223 23.6911 142.032 24.1229 141.678C24.5547 141.324 24.8476 140.829 24.95 140.28V138.92V134.3C24.8991 133.731 24.6262 133.204 24.1904 132.833C23.7545 132.463 23.1905 132.279 22.62 132.32Z" fill="#69BBBF"/>
<g clip-path="url(#clip1_43_2946)">
<path d="M31.3626 182.696C31.4372 182.706 31.4979 182.743 31.5446 182.808C31.5912 182.864 31.6052 182.93 31.5866 183.004C31.5772 183.07 31.5399 183.126 31.4746 183.172C30.0279 184.208 28.7072 185.188 27.5126 186.112C27.6339 186.495 27.6479 186.915 27.5546 187.372C27.4052 188.128 27.1299 188.866 26.7286 189.584C26.3366 190.303 25.8839 190.933 25.3706 191.474C24.8666 192.016 24.3299 192.496 23.7606 192.916C23.2006 193.336 22.6639 193.658 22.1506 193.882C21.6466 194.106 21.2032 194.232 20.8206 194.26C20.7646 194.27 20.7132 194.274 20.6666 194.274C20.2186 194.274 19.9339 194.106 19.8126 193.77C19.5979 193.182 20.0972 192.216 21.3106 190.872C22.5239 189.528 24.3719 187.886 26.8546 185.944C26.5746 185.431 26.0239 184.96 25.2026 184.53C24.3812 184.092 23.0839 183.513 21.3106 182.794C20.8252 182.598 20.4519 182.444 20.1906 182.332C19.5186 182.052 19.0519 181.674 18.7906 181.198C18.5292 180.722 18.4966 180.176 18.6926 179.56C18.9352 178.776 19.5232 177.927 20.4566 177.012C21.3899 176.088 22.4072 175.281 23.5086 174.59C24.6192 173.9 25.7346 173.349 26.8546 172.938C27.9839 172.528 28.8566 172.392 29.4726 172.532C29.6126 172.56 29.7386 172.607 29.8506 172.672C29.9719 172.728 30.0932 172.817 30.2146 172.938C30.3359 173.06 30.4199 173.228 30.4666 173.442C30.5226 173.648 30.5319 173.895 30.4946 174.184C30.4852 174.231 30.4666 174.273 30.4386 174.31C30.4106 174.348 30.3732 174.376 30.3266 174.394C30.2799 174.413 30.2332 174.418 30.1866 174.408C30.1119 174.399 30.0512 174.366 30.0046 174.31C29.9579 174.245 29.9392 174.175 29.9486 174.1C30.0046 173.755 29.9719 173.508 29.8506 173.358C29.7386 173.209 29.5752 173.111 29.3606 173.064C29.0152 172.98 28.5486 173.008 27.9606 173.148C27.3726 173.288 26.7146 173.526 25.9866 173.862C25.2679 174.189 24.5352 174.595 23.7886 175.08C22.5846 175.836 21.5719 176.63 20.7506 177.46C19.9292 178.291 19.4159 179.042 19.2106 179.714C18.9026 180.676 19.2992 181.385 20.4006 181.842C20.6526 181.945 21.0259 182.094 21.5206 182.29C22.1366 182.542 22.5939 182.734 22.8926 182.864C23.1912 182.986 23.5832 183.154 24.0686 183.368C24.5539 183.574 24.9272 183.751 25.1886 183.9C25.4499 184.05 25.7346 184.222 26.0426 184.418C26.3506 184.614 26.6026 184.81 26.7986 185.006C26.9946 185.193 27.1579 185.394 27.2886 185.608C28.4646 184.694 29.7572 183.737 31.1666 182.738C31.2319 182.692 31.2972 182.678 31.3626 182.696ZM27.0366 187.26C27.0926 186.98 27.0972 186.719 27.0506 186.476C25.0626 188.035 23.4852 189.407 22.3186 190.592C21.6372 191.292 21.1146 191.913 20.7506 192.454C20.3866 193.005 20.2419 193.383 20.3166 193.588C20.3539 193.7 20.5079 193.747 20.7786 193.728C21.0959 193.7 21.4832 193.584 21.9406 193.378C22.4072 193.173 22.9019 192.874 23.4246 192.482C23.9566 192.09 24.4606 191.642 24.9366 191.138C25.4219 190.644 25.8559 190.051 26.2386 189.36C26.6212 188.679 26.8872 187.979 27.0366 187.26ZM48.9953 169.662C49.0699 169.69 49.1166 169.742 49.1353 169.816C49.1539 169.882 49.1446 169.947 49.1073 170.012C49.0793 170.078 49.0326 170.124 48.9673 170.152C48.3046 170.358 46.8952 170.787 44.7392 171.44C42.2659 172.187 40.3899 172.761 39.1112 173.162C38.8032 174.376 38.1872 177.059 37.2632 181.212C36.3112 185.534 35.6299 188.534 35.2192 190.214C34.8926 191.577 34.6266 192.604 34.4212 193.294C34.2626 193.836 34.1366 194.195 34.0432 194.372C33.9499 194.559 33.8379 194.652 33.7072 194.652C33.6886 194.652 33.6699 194.652 33.6512 194.652C33.4832 194.624 33.3852 194.484 33.3572 194.232C33.3292 193.98 33.3526 193.402 33.4272 192.496C33.4366 192.422 33.4692 192.361 33.5252 192.314C33.5812 192.268 33.6466 192.249 33.7212 192.258C33.7679 192.258 33.8099 192.272 33.8472 192.3C33.8939 192.328 33.9266 192.366 33.9452 192.412C33.9639 192.459 33.9686 192.506 33.9592 192.552C33.9406 192.758 33.9266 192.944 33.9172 193.112C34.3559 191.582 35.2986 187.573 36.7452 181.086C37.6132 177.166 38.2012 174.59 38.5092 173.358C37.6599 173.62 36.8992 173.862 36.2272 174.086C33.7072 174.926 32.1766 175.524 31.6352 175.878C31.7286 175.944 31.7659 176.032 31.7472 176.144C31.7192 176.294 31.6306 176.368 31.4812 176.368C31.4626 176.368 31.4439 176.364 31.4252 176.354C31.1266 176.298 30.9679 176.163 30.9492 175.948C30.9492 175.799 31.0472 175.65 31.2432 175.5C31.4392 175.342 31.8312 175.141 32.4192 174.898C33.1846 174.572 34.2952 174.166 35.7512 173.68C37.5339 173.083 40.4786 172.164 44.5852 170.922C46.7319 170.278 48.1366 169.849 48.7992 169.634C48.8646 169.616 48.9299 169.625 48.9953 169.662ZM53.5871 172.49C53.6618 172.49 53.7225 172.518 53.7691 172.574C53.8251 172.621 53.8531 172.682 53.8531 172.756C53.8531 172.803 53.8391 172.85 53.8111 172.896C53.7925 172.934 53.7598 172.966 53.7131 172.994C53.6758 173.013 53.6338 173.022 53.5871 173.022C52.5138 173.041 51.2305 173.162 49.7371 173.386C48.2438 173.601 46.8018 173.881 45.4111 174.226C45.2245 175.01 44.8698 176.392 44.3471 178.37C43.9365 179.938 43.6331 181.124 43.4371 181.926C44.7438 181.581 46.0085 181.287 47.2311 181.044C48.4631 180.792 49.2471 180.676 49.5831 180.694C49.6578 180.704 49.7185 180.736 49.7651 180.792C49.8118 180.839 49.8305 180.9 49.8211 180.974C49.8211 181.049 49.7931 181.114 49.7371 181.17C49.6905 181.217 49.6298 181.24 49.5551 181.24C49.3685 181.222 49.0138 181.259 48.4911 181.352C47.9685 181.436 47.3385 181.558 46.6011 181.716C45.8731 181.875 45.1078 182.052 44.3051 182.248C43.9505 182.342 43.6098 182.43 43.2831 182.514C42.3871 186.136 41.9251 188.618 41.8971 189.962C41.8878 190.606 42.0045 190.98 42.2471 191.082C42.3871 191.148 42.5691 191.138 42.7931 191.054C43.0265 190.98 43.2971 190.835 43.6051 190.62C43.9131 190.406 44.2025 190.191 44.4731 189.976C44.7438 189.771 45.0705 189.491 45.4531 189.136C45.8358 188.782 46.1251 188.506 46.3211 188.31C46.5265 188.124 46.7971 187.867 47.1331 187.54C47.3291 187.344 47.4738 187.2 47.5671 187.106L47.8051 186.882C48.1691 186.528 48.4211 186.29 48.5611 186.168C48.6545 186.084 48.7245 186.024 48.7711 185.986C48.8178 185.949 48.8738 185.912 48.9391 185.874C49.0138 185.828 49.0791 185.809 49.1351 185.818C49.1911 185.818 49.2425 185.842 49.2891 185.888C49.3545 185.935 49.3918 185.986 49.4011 186.042C49.4105 186.108 49.3825 186.196 49.3171 186.308C49.2611 186.42 49.2005 186.523 49.1351 186.616C49.0698 186.71 48.9531 186.868 48.7851 187.092C48.7385 187.158 48.6778 187.195 48.6031 187.204C48.5285 187.214 48.4631 187.195 48.4071 187.148C48.3885 187.139 48.3698 187.125 48.3511 187.106C48.3325 187.125 48.2765 187.181 48.1831 187.274L47.9451 187.498C47.8518 187.592 47.7071 187.732 47.5111 187.918C47.0258 188.394 46.6151 188.791 46.2791 189.108C45.9431 189.426 45.5698 189.757 45.1591 190.102C44.7578 190.457 44.4078 190.737 44.1091 190.942C43.8105 191.148 43.5118 191.316 43.2131 191.446C42.9145 191.586 42.6531 191.656 42.4291 191.656C42.2798 191.656 42.1491 191.628 42.0371 191.572C41.5705 191.376 41.3465 190.84 41.3651 189.962C41.3838 188.59 41.8225 186.164 42.6811 182.682C40.7958 183.214 39.7318 183.597 39.4891 183.83C39.4425 183.877 39.3818 183.9 39.3071 183.9C39.2325 183.9 39.1671 183.877 39.1111 183.83C39.0645 183.774 39.0411 183.709 39.0411 183.634C39.0411 183.56 39.0691 183.494 39.1251 183.438C39.4518 183.121 40.6885 182.668 42.8351 182.08C43.0498 181.222 43.3811 179.938 43.8291 178.23C44.3051 176.42 44.6365 175.136 44.8231 174.38C43.9645 174.604 43.2085 174.838 42.5551 175.08C41.9111 175.323 41.3698 175.58 40.9311 175.85C40.4925 176.121 40.2358 176.382 40.1611 176.634C40.0865 176.868 40.2405 177.115 40.6231 177.376C40.6791 177.423 40.7118 177.484 40.7211 177.558C40.7398 177.624 40.7305 177.689 40.6931 177.754C40.6371 177.829 40.5625 177.866 40.4691 177.866C40.4131 177.866 40.3618 177.852 40.3151 177.824C39.7178 177.414 39.4938 176.966 39.6431 176.48C39.9325 175.519 41.7058 174.618 44.9631 173.778C45.0191 173.545 45.0658 173.344 45.1031 173.176C45.1125 173.102 45.1498 173.046 45.2151 173.008C45.2805 172.971 45.3458 172.962 45.4111 172.98C45.4858 172.99 45.5418 173.027 45.5791 173.092C45.6258 173.148 45.6398 173.214 45.6211 173.288C45.6025 173.382 45.5791 173.498 45.5511 173.638C46.9231 173.302 48.3418 173.032 49.8071 172.826C51.2725 172.612 52.5325 172.5 53.5871 172.49ZM68.0023 173.918C68.0397 174.488 67.9743 175.407 67.8063 176.676C67.6477 177.946 67.4797 179.089 67.3023 180.106C67.1343 181.124 66.873 182.589 66.5183 184.502C65.725 188.88 65.3423 191.428 65.3703 192.146C65.4077 192.081 65.4497 192.011 65.4963 191.936C65.5337 191.871 65.585 191.829 65.6503 191.81C65.725 191.792 65.795 191.801 65.8603 191.838C65.9257 191.876 65.9677 191.927 65.9863 191.992C66.005 192.067 65.9957 192.137 65.9583 192.202C65.8183 192.445 65.683 192.627 65.5523 192.748C65.431 192.879 65.291 192.916 65.1323 192.86C65.039 192.823 64.969 192.753 64.9223 192.65C64.8757 192.557 64.8477 192.38 64.8383 192.118C64.829 191.866 64.843 191.554 64.8803 191.18C64.9177 190.816 64.9877 190.303 65.0903 189.64C65.193 188.987 65.3143 188.259 65.4543 187.456C65.5943 186.654 65.7763 185.641 66.0003 184.418C66.3363 182.561 66.5883 181.133 66.7563 180.134C66.9337 179.126 67.1017 177.983 67.2603 176.704C67.4283 175.416 67.4983 174.502 67.4703 173.96C67.433 173.447 67.3397 173.181 67.1903 173.162C67.1903 173.162 67.1857 173.162 67.1763 173.162C67.111 173.162 67.027 173.195 66.9243 173.26C66.831 173.326 66.7003 173.442 66.5323 173.61C66.3737 173.778 66.201 173.993 66.0143 174.254C65.8277 174.506 65.6083 174.847 65.3563 175.276C65.1043 175.696 64.843 176.177 64.5723 176.718C63.1537 179.556 61.7863 183.247 60.4703 187.792C60.4517 187.867 60.4097 187.918 60.3443 187.946C60.2883 187.984 60.223 187.993 60.1483 187.974C60.083 187.965 60.027 187.928 59.9803 187.862C59.943 187.806 59.929 187.746 59.9383 187.68C60.5917 183.835 60.9417 180.946 60.9883 179.014C60.9977 178.566 60.9883 178.174 60.9603 177.838C60.9417 177.502 60.9137 177.255 60.8763 177.096C60.8483 176.938 60.8063 176.807 60.7503 176.704C60.7037 176.602 60.671 176.546 60.6523 176.536C60.6337 176.518 60.615 176.504 60.5963 176.494C60.419 176.466 60.1343 176.714 59.7423 177.236C59.0423 178.16 58.1837 179.784 57.1663 182.108C56.3917 183.882 55.6217 185.856 54.8563 188.03C54.091 190.214 53.4143 192.352 52.8263 194.442C52.8263 194.442 52.8263 194.447 52.8263 194.456C52.7797 194.568 52.7423 194.652 52.7143 194.708C52.6957 194.764 52.6677 194.83 52.6303 194.904C52.593 194.979 52.551 195.03 52.5043 195.058C52.4577 195.086 52.4063 195.1 52.3503 195.1C52.3223 195.1 52.2897 195.096 52.2523 195.086C52.131 195.049 52.061 194.946 52.0423 194.778C52.033 194.62 52.0563 194.382 52.1123 194.064C52.1777 193.626 52.2897 192.996 52.4483 192.174C52.7283 190.765 53.139 188.833 53.6803 186.378C54.5577 182.384 55.3323 178.977 56.0043 176.158C56.0603 175.897 56.107 175.654 56.1443 175.43C56.1817 175.206 56.205 175.015 56.2143 174.856C56.233 174.698 56.2377 174.558 56.2283 174.436C56.219 174.306 56.205 174.203 56.1863 174.128C56.177 174.054 56.1583 173.988 56.1303 173.932C56.1117 173.876 56.0883 173.839 56.0603 173.82C56.0417 173.802 56.023 173.783 56.0043 173.764C55.7897 173.624 55.393 173.778 54.8143 174.226C54.553 174.432 54.2823 174.679 54.0023 174.968C53.7317 175.258 53.4657 175.575 53.2043 175.92C52.943 176.266 52.6957 176.63 52.4623 177.012C52.229 177.395 52.0237 177.782 51.8463 178.174C51.669 178.557 51.5197 178.94 51.3983 179.322C51.2863 179.705 51.221 180.064 51.2023 180.4C51.193 180.727 51.2303 181.03 51.3143 181.31C51.585 182.113 52.3597 182.524 53.6383 182.542C53.685 182.542 53.727 182.556 53.7643 182.584C53.811 182.603 53.8437 182.636 53.8623 182.682C53.8903 182.72 53.9043 182.766 53.9043 182.822C53.9043 182.897 53.8763 182.962 53.8203 183.018C53.7643 183.065 53.7037 183.088 53.6383 183.088H53.6243C53.335 183.079 53.0597 183.051 52.7983 183.004C52.537 182.958 52.2663 182.878 51.9863 182.766C51.7157 182.654 51.473 182.491 51.2583 182.276C51.053 182.052 50.899 181.786 50.7963 181.478C50.451 180.433 50.7403 179.047 51.6643 177.32C52.047 176.62 52.4903 175.953 52.9943 175.318C53.4983 174.684 53.9977 174.175 54.4923 173.792C55.267 173.195 55.869 173.036 56.2983 173.316C56.8397 173.662 56.9143 174.651 56.5223 176.284C56.121 177.992 55.5563 180.461 54.8283 183.69C54.1003 186.91 53.531 189.538 53.1203 191.572C54.231 188.007 55.4163 184.778 56.6763 181.884C56.9657 181.222 57.2457 180.61 57.5163 180.05C57.787 179.49 58.025 179.014 58.2303 178.622C58.445 178.23 58.6503 177.885 58.8463 177.586C59.0517 177.278 59.2243 177.031 59.3643 176.844C59.5043 176.658 59.6443 176.499 59.7843 176.368C59.9243 176.238 60.0363 176.144 60.1203 176.088C60.2043 176.032 60.293 175.995 60.3863 175.976C60.4797 175.958 60.545 175.953 60.5823 175.962C60.6197 175.962 60.6663 175.967 60.7223 175.976C60.825 175.995 60.9183 176.042 61.0023 176.116C61.0863 176.182 61.1657 176.298 61.2403 176.466C61.3243 176.625 61.3897 176.83 61.4363 177.082C61.483 177.334 61.511 177.67 61.5203 178.09C61.539 178.51 61.5343 178.996 61.5063 179.546C61.4877 180.088 61.4363 180.75 61.3523 181.534C61.2777 182.309 61.175 183.172 61.0443 184.124C61.4923 182.752 61.9497 181.469 62.4163 180.274C62.8923 179.07 63.3543 177.997 63.8023 177.054C64.2597 176.112 64.6937 175.304 65.1043 174.632C65.5243 173.951 65.9163 173.442 66.2803 173.106C66.6537 172.761 66.9803 172.602 67.2603 172.63C67.699 172.677 67.9463 173.106 68.0023 173.918ZM90.4757 169.662C90.5504 169.69 90.5971 169.742 90.6157 169.816C90.6344 169.882 90.6251 169.947 90.5877 170.012C90.5597 170.078 90.5131 170.124 90.4477 170.152C89.7851 170.358 88.3757 170.787 86.2197 171.44C83.7464 172.187 81.8704 172.761 80.5917 173.162C80.2837 174.376 79.6677 177.059 78.7437 181.212C77.7917 185.534 77.1104 188.534 76.6997 190.214C76.3731 191.577 76.1071 192.604 75.9017 193.294C75.7431 193.836 75.6171 194.195 75.5237 194.372C75.4304 194.559 75.3184 194.652 75.1877 194.652C75.1691 194.652 75.1504 194.652 75.1317 194.652C74.9637 194.624 74.8657 194.484 74.8377 194.232C74.8097 193.98 74.8331 193.402 74.9077 192.496C74.9171 192.422 74.9497 192.361 75.0057 192.314C75.0617 192.268 75.1271 192.249 75.2017 192.258C75.2484 192.258 75.2904 192.272 75.3277 192.3C75.3744 192.328 75.4071 192.366 75.4257 192.412C75.4444 192.459 75.4491 192.506 75.4397 192.552C75.4211 192.758 75.4071 192.944 75.3977 193.112C75.8364 191.582 76.7791 187.573 78.2257 181.086C79.0937 177.166 79.6817 174.59 79.9897 173.358C79.1404 173.62 78.3797 173.862 77.7077 174.086C75.1877 174.926 73.6571 175.524 73.1157 175.878C73.2091 175.944 73.2464 176.032 73.2277 176.144C73.1997 176.294 73.1111 176.368 72.9617 176.368C72.9431 176.368 72.9244 176.364 72.9057 176.354C72.6071 176.298 72.4484 176.163 72.4297 175.948C72.4297 175.799 72.5277 175.65 72.7237 175.5C72.9197 175.342 73.3117 175.141 73.8997 174.898C74.6651 174.572 75.7757 174.166 77.2317 173.68C79.0144 173.083 81.9591 172.164 86.0657 170.922C88.2124 170.278 89.6171 169.849 90.2797 169.634C90.3451 169.616 90.4104 169.625 90.4757 169.662ZM86.0488 182.766C86.1234 182.748 86.1888 182.757 86.2448 182.794C86.3101 182.832 86.3521 182.888 86.3708 182.962C86.3894 183.037 86.3801 183.107 86.3428 183.172C86.0348 183.667 85.7408 184.11 85.4608 184.502C85.1808 184.885 84.9381 185.198 84.7328 185.44C84.5368 185.674 84.3454 185.87 84.1588 186.028C83.9721 186.196 83.8228 186.313 83.7108 186.378C83.5988 186.453 83.4868 186.5 83.3748 186.518C83.2628 186.546 83.1834 186.556 83.1368 186.546C83.0994 186.546 83.0528 186.542 82.9968 186.532C82.5581 186.42 82.3108 185.921 82.2548 185.034C82.2454 184.838 82.2221 184.675 82.1848 184.544C82.1474 184.404 82.1148 184.316 82.0868 184.278C82.0588 184.232 82.0354 184.208 82.0168 184.208C82.0074 184.208 82.0028 184.208 82.0028 184.208C81.9281 184.208 81.8254 184.269 81.6948 184.39C81.5641 184.502 81.4054 184.689 81.2188 184.95C81.0321 185.212 80.8361 185.529 80.6308 185.902C80.4254 186.276 80.1968 186.747 79.9448 187.316C79.7021 187.886 79.4641 188.502 79.2308 189.164C79.1934 189.286 79.1094 189.346 78.9788 189.346C78.9601 189.346 78.9414 189.346 78.9228 189.346C78.8761 189.337 78.8388 189.318 78.8108 189.29C78.7734 189.262 78.7454 189.225 78.7268 189.178C78.7081 189.141 78.7034 189.104 78.7128 189.066C78.7314 188.684 78.9788 187.456 79.4548 185.384C79.9214 183.303 80.3041 181.632 80.6028 180.372C80.9108 179.103 81.1488 178.132 81.3168 177.46C81.6341 176.172 81.9981 175.076 82.4088 174.17C82.8288 173.256 83.1881 172.77 83.4868 172.714C83.6454 172.686 83.7668 172.733 83.8508 172.854C84.0561 173.134 83.9348 173.858 83.4868 175.024C83.0481 176.191 82.3621 177.619 81.4288 179.308C80.7101 182.267 80.1548 184.642 79.7628 186.434C80.1734 185.566 80.5794 184.88 80.9808 184.376C81.3821 183.863 81.7508 183.63 82.0868 183.676C82.5068 183.732 82.7401 184.171 82.7868 184.992C82.8334 185.618 82.9454 185.954 83.1228 186C83.1508 186.01 83.1881 186.01 83.2348 186C83.2908 185.991 83.3981 185.935 83.5568 185.832C83.7154 185.73 83.8881 185.58 84.0748 185.384C84.2614 185.179 84.5134 184.862 84.8308 184.432C85.1574 184.003 85.5074 183.485 85.8808 182.878C85.9181 182.822 85.9741 182.785 86.0488 182.766ZM83.3888 173.498C82.8754 174.236 82.3948 175.454 81.9468 177.152C82.7681 175.5 83.2488 174.282 83.3888 173.498ZM90.1881 182.836C90.2627 182.818 90.3281 182.832 90.3841 182.878C90.4494 182.916 90.4867 182.972 90.4961 183.046C90.5054 183.121 90.4914 183.186 90.4541 183.242C89.3994 184.717 88.4381 185.762 87.5701 186.378C87.2247 186.621 86.8841 186.742 86.5481 186.742C86.2867 186.742 86.0581 186.672 85.8621 186.532C85.7501 186.448 85.6521 186.336 85.5681 186.196C85.4747 186.056 85.3954 185.86 85.3301 185.608C85.2647 185.356 85.2554 185.025 85.3021 184.614C85.3394 184.204 85.4421 183.737 85.6101 183.214V183.2C85.8714 182.351 86.1887 181.679 86.5621 181.184C86.9354 180.69 87.2714 180.438 87.5701 180.428C87.7847 180.419 87.9247 180.512 87.9901 180.708C88.0927 180.979 87.9714 181.362 87.6261 181.856C87.2807 182.351 86.7721 182.883 86.1001 183.452C85.9881 183.816 85.9087 184.152 85.8621 184.46C85.8154 184.768 85.7967 185.016 85.8061 185.202C85.8247 185.38 85.8574 185.538 85.9041 185.678C85.9601 185.809 86.0067 185.902 86.0441 185.958C86.0907 186.014 86.1374 186.061 86.1841 186.098C86.4641 186.304 86.8234 186.248 87.2621 185.93C88.0834 185.352 88.9981 184.353 90.0061 182.934C90.0527 182.878 90.1134 182.846 90.1881 182.836ZM87.4721 181.016C87.1454 181.222 86.8234 181.665 86.5061 182.346C87.0474 181.805 87.3694 181.362 87.4721 181.016ZM110.497 176.074C110.6 176.681 110.511 177.6 110.231 178.832C109.961 180.064 109.569 181.357 109.055 182.71C108.551 184.064 107.903 185.394 107.109 186.7C106.316 188.007 105.504 188.992 104.673 189.654C104.02 190.177 103.469 190.326 103.021 190.102C102.769 189.981 102.564 189.757 102.405 189.43C102.256 189.113 102.149 188.67 102.083 188.1C102.018 187.54 101.976 186.99 101.957 186.448C101.948 185.907 101.953 185.202 101.971 184.334C101.99 182.729 101.948 181.805 101.845 181.562C101.715 181.684 101.528 181.954 101.285 182.374C99.2599 185.977 97.6826 188.6 96.5532 190.242C96.0026 191.036 95.5639 191.591 95.2372 191.908C94.9199 192.226 94.6632 192.384 94.4672 192.384C94.4019 192.384 94.3366 192.37 94.2712 192.342C94.1779 192.296 94.1032 192.23 94.0472 192.146C94.0006 192.072 93.9726 191.918 93.9632 191.684C93.9446 191.46 93.9679 191.166 94.0332 190.802C94.0986 190.438 94.2152 189.93 94.3832 189.276C94.5606 188.632 94.7892 187.862 95.0692 186.966C95.8439 184.549 96.9686 181.418 98.4432 177.572C98.6486 177.04 98.8446 176.55 99.0312 176.102C99.2179 175.654 99.3812 175.276 99.5212 174.968C99.6612 174.651 99.7966 174.371 99.9272 174.128C100.058 173.876 100.165 173.676 100.249 173.526C100.343 173.368 100.431 173.237 100.515 173.134C100.609 173.022 100.679 172.943 100.725 172.896C100.781 172.85 100.837 172.817 100.893 172.798C100.959 172.78 101.001 172.77 101.019 172.77C101.047 172.77 101.085 172.775 101.131 172.784C101.253 172.812 101.346 172.892 101.411 173.022C101.477 173.144 101.509 173.307 101.509 173.512C101.519 173.708 101.514 173.942 101.495 174.212C101.495 174.287 101.467 174.348 101.411 174.394C101.355 174.441 101.29 174.464 101.215 174.464C101.141 174.455 101.08 174.422 101.033 174.366C100.987 174.31 100.963 174.245 100.963 174.17C100.982 173.844 100.982 173.596 100.963 173.428C100.534 173.96 99.8619 175.407 98.9472 177.768C98.4712 179.019 98.0279 180.195 97.6172 181.296C97.2159 182.398 96.8706 183.364 96.5812 184.194C96.2919 185.025 96.0306 185.795 95.7972 186.504C95.5639 187.214 95.3726 187.811 95.2232 188.296C95.0832 188.791 94.9619 189.239 94.8592 189.64C94.7566 190.042 94.6772 190.364 94.6212 190.606C94.5746 190.849 94.5372 191.059 94.5092 191.236C94.4906 191.423 94.4812 191.554 94.4812 191.628C94.4906 191.712 94.4999 191.778 94.5092 191.824C94.8359 191.666 95.4332 190.938 96.3012 189.64C97.4119 187.998 98.9192 185.487 100.823 182.108C101.075 181.66 101.29 181.352 101.467 181.184C101.645 181.016 101.822 180.956 101.999 181.002C102.242 181.068 102.391 181.334 102.447 181.8C102.503 182.258 102.522 183.107 102.503 184.348C102.485 184.824 102.48 185.352 102.489 185.93C102.508 186.509 102.531 187.05 102.559 187.554C102.597 188.068 102.671 188.516 102.783 188.898C102.905 189.281 103.063 189.519 103.259 189.612C103.502 189.734 103.861 189.608 104.337 189.234C105.121 188.609 105.891 187.666 106.647 186.406C107.413 185.146 108.043 183.863 108.537 182.556C109.041 181.24 109.429 179.99 109.699 178.804C109.97 177.61 110.059 176.728 109.965 176.158C109.928 175.916 109.863 175.78 109.769 175.752C109.639 175.706 109.415 175.827 109.097 176.116C109.041 176.163 108.976 176.186 108.901 176.186C108.827 176.177 108.761 176.144 108.705 176.088C108.659 176.032 108.635 175.967 108.635 175.892C108.645 175.818 108.677 175.757 108.733 175.71C109.219 175.281 109.625 175.122 109.951 175.234C110.241 175.337 110.423 175.617 110.497 176.074ZM115.904 182.878C115.978 182.85 116.048 182.855 116.114 182.892C116.179 182.92 116.221 182.972 116.24 183.046C116.268 183.112 116.268 183.177 116.24 183.242C115.241 185.305 114.35 186.336 113.566 186.336C113.519 186.336 113.468 186.332 113.412 186.322C112.786 186.201 112.399 185.361 112.25 183.802C111.792 184.418 111.386 184.922 111.032 185.314C110.714 185.65 110.444 185.767 110.22 185.664C109.996 185.58 109.888 185.338 109.898 184.936C109.898 184.6 109.972 184.199 110.122 183.732C110.271 183.266 110.49 182.813 110.78 182.374C111.069 181.936 111.382 181.66 111.718 181.548C112.212 181.371 112.67 181.534 113.09 182.038C113.136 182.094 113.155 182.16 113.146 182.234C113.146 182.309 113.118 182.37 113.062 182.416C113.006 182.463 112.94 182.486 112.866 182.486C112.791 182.477 112.73 182.444 112.684 182.388C112.357 181.996 112.026 181.922 111.69 182.164C111.307 182.435 110.985 182.925 110.724 183.634C110.472 184.334 110.374 184.834 110.43 185.132C110.486 185.086 110.551 185.025 110.626 184.95C110.999 184.549 111.456 183.975 111.998 183.228C112.119 183.06 112.203 182.944 112.25 182.878C112.324 182.785 112.422 182.757 112.544 182.794C112.665 182.822 112.73 182.902 112.74 183.032C112.758 183.49 112.796 183.896 112.852 184.25C112.908 184.605 112.964 184.876 113.02 185.062C113.076 185.24 113.141 185.389 113.216 185.51C113.29 185.632 113.346 185.711 113.384 185.748C113.43 185.776 113.477 185.79 113.524 185.79C113.654 185.818 113.818 185.758 114.014 185.608C114.219 185.45 114.476 185.151 114.784 184.712C115.101 184.264 115.423 183.7 115.75 183.018C115.787 182.944 115.838 182.897 115.904 182.878ZM122.217 182.808C122.291 182.818 122.347 182.855 122.385 182.92C122.431 182.976 122.445 183.042 122.427 183.116C122.408 183.191 122.371 183.247 122.315 183.284C120.663 184.358 119.309 185.426 118.255 186.49C117.704 189.785 117.102 192.459 116.449 194.512C115.674 196.93 114.923 198.241 114.195 198.446C114.129 198.465 114.059 198.474 113.985 198.474C113.77 198.474 113.583 198.381 113.425 198.194C113.163 197.858 113.023 197.303 113.005 196.528C112.977 195.754 113.098 194.839 113.369 193.784C113.63 192.73 114.013 191.712 114.517 190.732C115.403 189.043 116.486 187.54 117.765 186.224C117.905 185.347 118.045 184.428 118.185 183.466C117.895 183.905 117.625 184.274 117.373 184.572C116.962 185.076 116.57 185.216 116.197 184.992C115.889 184.806 115.725 184.418 115.707 183.83C115.688 183.233 115.823 182.584 116.113 181.884C116.141 181.819 116.187 181.772 116.253 181.744C116.327 181.716 116.397 181.716 116.463 181.744C116.528 181.772 116.575 181.819 116.603 181.884C116.64 181.95 116.645 182.02 116.617 182.094C116.365 182.776 116.239 183.331 116.239 183.76C116.248 184.19 116.327 184.446 116.477 184.53C116.579 184.596 116.738 184.498 116.953 184.236C117.419 183.676 117.9 182.967 118.395 182.108C118.469 181.978 118.577 181.94 118.717 181.996C118.857 182.043 118.917 182.136 118.899 182.276C118.74 183.443 118.577 184.549 118.409 185.594C119.37 184.698 120.574 183.779 122.021 182.836C122.077 182.799 122.142 182.79 122.217 182.808ZM115.931 194.358C116.528 192.492 117.083 190.107 117.597 187.204C116.589 188.324 115.721 189.584 114.993 190.984C114.591 191.75 114.274 192.529 114.041 193.322C113.798 194.125 113.649 194.825 113.593 195.422C113.537 196.02 113.532 196.533 113.579 196.962C113.625 197.392 113.714 197.686 113.845 197.844C113.91 197.919 113.975 197.947 114.041 197.928C114.087 197.919 114.139 197.896 114.195 197.858C114.251 197.821 114.344 197.723 114.475 197.564C114.605 197.415 114.736 197.219 114.867 196.976C114.997 196.743 115.161 196.398 115.357 195.94C115.553 195.483 115.744 194.956 115.931 194.358ZM124.742 178.496C124.807 178.459 124.872 178.45 124.938 178.468C125.012 178.487 125.068 178.529 125.106 178.594C125.143 178.66 125.148 178.73 125.12 178.804C124.728 180.176 124.336 181.777 123.944 183.606C123.692 184.764 123.482 185.697 123.314 186.406C123.276 186.537 123.188 186.602 123.048 186.602C123.029 186.602 123.006 186.602 122.978 186.602C122.912 186.584 122.856 186.542 122.81 186.476C122.772 186.411 122.763 186.346 122.782 186.28C122.959 185.571 123.174 184.638 123.426 183.48C123.818 181.651 124.21 180.041 124.602 178.65C124.63 178.585 124.676 178.534 124.742 178.496ZM122.698 187.33C122.903 187.265 123.029 187.312 123.076 187.47C123.132 187.638 123.071 187.76 122.894 187.834C122.819 187.862 122.735 187.876 122.642 187.876C122.53 187.867 122.46 187.82 122.432 187.736C122.413 187.662 122.432 187.578 122.488 187.484C122.544 187.4 122.614 187.349 122.698 187.33Z" fill="#69BBBF"/>
</g>
</g>
<defs>
<clipPath id="clip0_43_2946">
<rect width="143.7" height="211" fill="white"/>
</clipPath>
<clipPath id="clip1_43_2946">
<rect width="108" height="58" fill="white" transform="translate(17.85 153)"/>
</clipPath>
</defs>
</svg>
