<svg width="284" height="284" viewBox="0 0 284 284" fill="none" xmlns="http://www.w3.org/2000/svg">
<path d="M133.1 16.98C134.57 16.03 136.05 16.32 137.49 17.04C138.51 17.55 139.26 18.38 139.77 19.39C141.06 21.94 141.34 24.62 140.6 27.39C140.46 27.39 140.3 27.41 140.17 27.37C138.5 26.91 136.95 26.17 135.59 25.09C134.32 24.08 133.56 22.69 132.92 21.23C132.86 21.1 132.82 20.95 132.82 20.82C132.83 19.92 132.69 19.01 132.94 18.11C133.05 17.74 133.05 17.35 133.1 16.98ZM134.85 18.74C134.8 19.31 135.06 19.77 135.36 20.21C135.9 21.01 136.47 21.77 136.74 22.73C136.84 23.08 137.12 23.4 137.37 23.68C138.02 24.39 138.58 24.32 139.1 23.48C139.35 23.06 139.55 22.64 139.32 22.12C139.21 21.87 139.23 21.56 139.17 21.27C138.92 19.93 138.19 18.88 137.15 18.03C136.93 17.85 136.65 17.72 136.38 17.63C135.72 17.42 134.87 18.04 134.85 18.74Z" fill="#E4B742"/>
<path d="M137.18 30.2702C136.63 29.9902 136.06 29.7302 135.52 29.4302C133.9 28.5502 132.46 27.4502 131.43 25.9002C130.09 23.9002 129.68 21.7802 130.65 19.5002C130.74 19.2902 130.92 19.1202 131.06 18.9302C131.04 20.0802 131.1 21.2302 131.59 22.2902C133.12 25.5802 135.47 27.9202 139.14 28.6902C139.08 28.7602 139.01 28.8202 138.92 28.8402C138.81 28.9202 138.71 28.9902 138.6 29.0702C138.12 29.4702 137.65 29.8702 137.18 30.2702Z" fill="#DB9333"/>
<path d="M139.13 28.69C135.45 27.92 133.1 25.58 131.58 22.29C131.09 21.23 131.03 20.08 131.05 18.93C131.44 17.96 132.15 17.35 133.11 16.98C133.06 17.36 133.06 17.75 132.96 18.11C132.71 19.01 132.85 19.92 132.84 20.82C132.84 20.96 132.89 21.1 132.94 21.23C133.58 22.69 134.34 24.08 135.61 25.09C136.97 26.17 138.51 26.91 140.19 27.37C140.32 27.41 140.48 27.38 140.62 27.39C140.63 27.52 140.64 27.65 140.65 27.78C140.68 28.19 140.91 28.25 141.26 28.15C140.54 28.33 139.84 28.51 139.13 28.69Z" fill="#E0A738"/>
<path d="M139.13 28.6899C139.84 28.5099 140.54 28.3299 141.24 28.1499C141.76 28.2799 142.37 28.2699 142.68 28.8599C142.47 29.6499 142.18 30.4299 141.53 30.9399C140.54 31.7299 139.38 31.9399 138.16 31.6299C137.7 31.5099 137.27 31.2999 136.82 31.1299C136.94 30.8399 137.06 30.5499 137.18 30.2699C137.65 29.8699 138.12 29.4699 138.59 29.0699C138.7 28.9899 138.8 28.9199 138.91 28.8399C139 28.8099 139.07 28.7599 139.13 28.6899Z" fill="#63A291"/>
<path d="M136.82 31.1401C137.26 31.3101 137.7 31.5201 138.16 31.6401C139.39 31.9501 140.54 31.7301 141.53 30.9501C142.19 30.4301 142.47 29.6601 142.68 28.8701C143.19 29.2201 143.25 29.7401 143.08 30.2501C142.92 30.7301 142.67 31.2001 142.38 31.6101C142.11 31.9901 141.73 32.2901 141.4 32.6201C140.91 32.7001 140.46 32.8501 140.19 33.3201C139.49 33.4201 138.78 33.6301 138.09 33.5801C136.73 33.4801 136.25 32.4901 136.82 31.1401Z" fill="#568C8D"/>
<path d="M134.85 18.74C134.88 18.04 135.72 17.41 136.39 17.63C136.66 17.72 136.94 17.85 137.16 18.03C138.19 18.88 138.93 19.93 139.18 21.27C139.23 21.55 139.21 21.86 139.33 22.12C139.56 22.64 139.36 23.07 139.11 23.48C138.6 24.32 138.04 24.39 137.38 23.68C137.12 23.4 136.85 23.08 136.75 22.73C136.48 21.78 135.91 21.01 135.37 20.21C135.05 19.77 134.8 19.31 134.85 18.74Z" fill="#E9CF54"/>
<path d="M138.91 28.8398C138.8 28.9198 138.7 28.9898 138.59 29.0698C138.69 28.9898 138.8 28.9198 138.91 28.8398Z" fill="#CBA956"/>
<path d="M140.12 32.9499C140.48 32.6199 140.9 32.4499 141.38 32.4199C141.69 33.1699 141.85 33.9899 142.46 34.7199C142.74 34.6599 143.07 34.6399 143.36 34.5199C143.95 34.2999 144.51 34.0099 145.09 33.7799C145.49 33.6199 145.9 33.4499 146.32 33.3799C147.08 33.2599 147.66 33.8499 147.52 34.5999C147.45 34.9699 147.31 35.3499 147.1 35.6599C146.55 36.4499 145.96 37.2099 145.37 37.9699C145.11 38.3099 144.81 38.6199 144.51 38.9699C144.86 40.2299 145.52 41.2999 146.08 42.4099C145.81 42.8299 145.42 43.0899 144.95 43.2299C144.45 42.2399 143.96 41.2499 143.46 40.2599C142.94 39.2299 143.07 38.3199 143.92 37.4999C144.33 37.0999 144.69 36.6399 145.05 36.1899C145.21 35.9999 145.27 35.7699 145.12 35.6099C144.88 35.3699 144.7 35.5099 144.53 35.5599C144.17 35.6799 143.8 35.8099 143.45 35.9699C142.53 36.3899 141.49 36.1099 140.93 34.9499C140.6 34.3099 140.38 33.6199 140.12 32.9499Z" fill="#50495E"/>
<path d="M118.88 195.13C118.9 195.02 118.91 194.91 118.95 194.81C119.8 192.76 120.82 190.8 122.09 188.98C122.37 188.58 122.73 188.45 123.18 188.57C125.71 189.28 128.27 189.91 130.64 191.11C131.69 191.65 132.7 192.26 133.58 193.05C134.65 194 135.46 195.13 135.8 196.54C135.99 197.34 136 198.15 135.91 198.96C135.65 200.17 135.25 201.32 134.71 202.43C134.55 202.76 134.41 203.09 134.25 203.42C133.13 205.72 132.32 208.12 131.81 210.62C131.55 211.88 131.29 213.13 130.97 214.38C130.55 216.05 129.9 217.61 128.61 218.83L128.62 218.84C128.57 218.86 128.52 218.89 128.47 218.91C128.42 218.93 128.36 218.94 128.32 218.97C126.65 220.03 125.01 219.87 123.38 218.89C123.41 218.72 123.52 218.61 123.65 218.49C124.18 217.99 124.75 217.52 125.19 216.94C125.76 216.18 126.15 215.3 126.4 214.38C126.76 213.03 126.92 211.65 127.12 210.27C127.2 209.72 127.27 209.17 127.37 208.62C127.6 207.33 127.9 206.06 128.25 204.79C128.31 204.57 128.34 204.35 128.17 204.09C127.91 203.98 127.58 203.89 127.3 203.71C126.55 203.22 125.76 202.82 125.03 202.29C124.17 201.66 123.43 200.89 122.59 200.25C122.33 200.05 122.19 199.71 121.95 199.48C121.22 198.81 120.66 198.01 120.07 197.23C119.59 196.59 119.2 195.88 118.88 195.13Z" fill="#518889"/>
<path d="M128.62 218.83C129.91 217.62 130.56 216.05 130.98 214.38C131.29 213.14 131.56 211.88 131.82 210.62C132.34 208.12 133.15 205.72 134.26 203.42C134.42 203.09 134.56 202.76 134.72 202.43C135.25 201.32 135.66 200.16 135.92 198.96C136.04 199.65 136.17 200.34 136.3 201.02C136.95 204.47 138.01 207.8 139.34 211.05C140.01 212.68 140.71 214.3 141.38 215.93C141.91 217.23 142.33 218.56 142.48 219.97C142.61 221.22 142.5 222.43 142 223.59C141.96 223.69 141.94 223.81 141.91 223.91C141.84 223.99 141.75 224.07 141.7 224.17C141.11 225.21 140.27 226.03 139.3 226.72C137.69 227.87 135.9 228.65 133.99 229.16C133.13 229.39 132.26 229.62 131.35 229.61C131.54 229.5 131.73 229.38 131.93 229.3C133.01 228.84 134.04 228.29 135 227.61C135.83 227.02 136.47 226.24 137.2 225.55C137.26 225.49 137.31 225.42 137.36 225.35C138.09 224.32 138.41 223.15 138.58 221.92C138.6 221.76 138.55 221.59 138.53 221.43C138.51 221.29 138.44 221.16 138.44 221.02C138.46 220.33 138.23 219.7 138.02 219.07C137.57 217.68 136.91 216.39 136.13 215.16C135.65 214.41 135.13 213.68 134.6 212.96C134.43 212.73 134.24 212.48 133.87 212.37C133.76 212.65 133.65 212.9 133.57 213.16C132.93 215.05 131.97 216.72 130.43 218.02C129.89 218.45 129.35 218.84 128.62 218.83Z" fill="#DA8F2E"/>
<path d="M121.55 226.36C121 225.62 120.4 224.91 119.9 224.14C118.63 222.17 117.85 219.99 117.39 217.7C117.09 216.22 116.91 214.72 116.93 213.21C116.94 212.63 117.03 212.04 117.08 211.46C117.18 211.75 117.31 212.03 117.37 212.32C117.59 213.31 117.91 214.26 118.32 215.17C118.61 215.8 118.95 216.42 119.34 217C119.93 217.89 120.72 218.61 121.5 219.34C121.78 219.61 122.1 219.85 122.45 220.02C123.59 220.61 124.71 221.25 126.02 221.42C127.14 221.57 128.23 221.64 129.32 221.23C130.22 220.88 131.06 220.46 131.71 219.73C132.23 219.15 132.72 218.54 133.22 217.94C133.48 217.62 133.67 217.59 133.99 217.88C134.63 218.45 135.07 219.14 135.39 219.94C135.69 220.69 135.73 221.45 135.72 222.24C135.72 222.99 135.51 223.7 135.13 224.31C134.52 225.32 133.68 226.16 132.64 226.75C130.68 227.86 128.58 228.43 126.32 228.42C125.73 228.42 125.14 228.43 124.55 228.44C123.84 228.22 123.27 227.76 122.7 227.32C122.3 227.03 121.93 226.69 121.55 226.36Z" fill="#E3B540"/>
<path d="M118.88 195.13C119.2 195.87 119.59 196.58 120.08 197.23C120.67 198.01 121.23 198.81 121.96 199.48C122.2 199.7 122.34 200.05 122.6 200.25C123.44 200.89 124.18 201.66 125.04 202.29C125.77 202.82 126.56 203.22 127.31 203.71C127.59 203.89 127.92 203.98 128.18 204.09C128.35 204.35 128.32 204.57 128.26 204.79C127.91 206.05 127.61 207.33 127.38 208.62C127.28 209.17 127.21 209.72 127.13 210.27C126.92 211.65 126.77 213.03 126.41 214.38C126.16 215.3 125.78 216.19 125.2 216.94C124.77 217.51 124.19 217.99 123.66 218.49C123.53 218.61 123.42 218.72 123.39 218.89C122.65 218.59 122.06 218.09 121.48 217.55C119.51 215.7 118.29 213.41 117.53 210.85C117.44 210.56 117.34 210.27 117.24 209.98C117.18 209.57 117.11 209.15 117.05 208.74C116.38 204.12 117.11 199.68 118.73 195.34C118.77 195.26 118.83 195.2 118.88 195.13ZM118.57 205.72C118.57 205.92 118.55 206.12 118.57 206.31C118.73 207.35 118.85 208.41 119.07 209.44C119.36 210.81 119.75 212.14 120.6 213.3C120.94 213.77 121.35 214.12 121.81 214.43C122.18 214.68 122.6 214.7 123.02 214.63C123.3 214.58 123.57 214.47 123.72 214.21C123.93 213.85 124.11 213.48 124.1 213.03C124.08 212.15 123.84 211.33 123.62 210.49C123.17 208.79 122.7 207.1 122.39 205.37C122.26 204.66 122.07 203.96 121.89 203.26C121.8 202.9 121.59 202.6 121.3 202.36C120.61 201.79 119.66 201.95 119.21 202.73C119.07 202.97 118.96 203.23 118.87 203.5C118.66 204.21 118.64 204.97 118.57 205.72Z" fill="#5FA091"/>
<path d="M121.55 226.36C121.93 226.68 122.31 227.03 122.7 227.33C123.28 227.77 123.84 228.23 124.55 228.45C124.74 228.56 124.92 228.68 125.12 228.77C127.11 229.61 129.19 229.82 131.33 229.59C132.24 229.61 133.1 229.37 133.97 229.14C135.88 228.63 137.67 227.85 139.28 226.7C140.25 226.01 141.09 225.2 141.68 224.15C141.73 224.06 141.82 223.98 141.89 223.89C142.44 224.9 142.86 225.96 142.99 227.12C143.14 228.44 142.81 229.61 142.01 230.66C141.39 231.47 140.59 232.09 139.73 232.62C138.33 233.47 136.82 234.04 135.24 234.45C133.32 234.96 131.36 235.28 129.39 235.5C127.52 235.71 125.65 235.84 123.78 235.8C122.32 235.76 120.88 235.63 119.45 235.31C118.63 235.13 117.83 234.89 117.09 234.47C116.92 234.38 116.78 234.25 116.62 234.13C116.82 234.14 117.02 234.13 117.2 234.17C117.94 234.32 118.67 234.49 119.43 234.48C119.57 234.48 119.7 234.52 119.84 234.54C120.12 234.58 120.39 234.63 120.67 234.64C121.34 234.65 122.01 234.65 122.69 234.64C122.91 234.64 123.13 234.61 123.36 234.58C123.66 234.55 123.97 234.5 124.27 234.47C124.96 234.4 125.67 234.39 126.34 234.25C127.48 234 128.63 233.81 129.76 233.49C131.46 233 133.09 232.37 134.59 231.42C134.89 231.23 135.15 230.96 135.42 230.72C135.45 230.69 135.45 230.62 135.46 230.56C135.23 230.42 135.03 230.59 134.84 230.65C133.53 231.06 132.19 231.31 130.82 231.28C130.32 231.27 129.81 231.28 129.31 231.28C128.7 231.28 128.09 231.25 127.48 231.13C124.61 230.56 122.29 229.17 120.59 226.77C120.9 226.65 121.23 226.51 121.55 226.36Z" fill="#3A3444"/>
<path d="M131.34 229.6C129.2 229.83 127.13 229.62 125.13 228.78C124.93 228.7 124.75 228.57 124.56 228.46C125.15 228.45 125.74 228.44 126.33 228.44C128.59 228.45 130.69 227.88 132.65 226.77C133.69 226.18 134.52 225.34 135.14 224.33C135.51 223.71 135.73 223.01 135.73 222.26C135.73 221.47 135.7 220.71 135.4 219.96C135.08 219.16 134.64 218.47 134 217.9C133.68 217.61 133.5 217.64 133.23 217.96C132.73 218.56 132.24 219.17 131.72 219.75C131.07 220.48 130.23 220.9 129.33 221.25C128.24 221.67 127.15 221.59 126.03 221.44C124.72 221.27 123.6 220.62 122.46 220.04C122.12 219.86 121.79 219.62 121.51 219.36C120.74 218.63 119.94 217.91 119.35 217.02C118.97 216.44 118.62 215.82 118.33 215.19C117.92 214.27 117.59 213.32 117.38 212.34C117.31 212.05 117.19 211.77 117.09 211.48C117.15 210.98 117.21 210.49 117.26 209.99C117.36 210.28 117.46 210.57 117.55 210.86C118.31 213.42 119.52 215.72 121.5 217.56C122.07 218.09 122.67 218.6 123.41 218.9C125.04 219.88 126.69 220.04 128.35 218.98C128.4 218.95 128.45 218.94 128.5 218.92C128.55 218.9 128.6 218.87 128.65 218.85L128.64 218.84C129.36 218.85 129.91 218.46 130.42 218.02C131.96 216.72 132.92 215.04 133.56 213.16C133.65 212.9 133.76 212.65 133.86 212.37C134.22 212.48 134.42 212.73 134.59 212.96C135.12 213.68 135.64 214.4 136.12 215.16C136.9 216.39 137.56 217.68 138.01 219.07C138.22 219.7 138.45 220.34 138.43 221.02C138.43 221.15 138.49 221.29 138.52 221.43C138.55 221.59 138.6 221.76 138.57 221.92C138.41 223.15 138.08 224.32 137.35 225.35C137.3 225.42 137.25 225.49 137.19 225.55C136.46 226.24 135.82 227.02 134.99 227.61C134.03 228.3 133 228.85 131.92 229.3C131.71 229.37 131.53 229.5 131.34 229.6Z" fill="#DEA736"/>
<path d="M120.58 226.79C122.27 229.19 124.6 230.59 127.47 231.15C128.08 231.27 128.69 231.3 129.3 231.3C129.8 231.3 130.31 231.29 130.81 231.3C132.19 231.33 133.52 231.08 134.83 230.67C135.02 230.61 135.22 230.44 135.45 230.58C135.44 230.64 135.44 230.71 135.41 230.74C135.14 230.98 134.88 231.25 134.58 231.44C133.08 232.39 131.46 233.03 129.75 233.51C128.62 233.83 127.47 234.03 126.33 234.27C125.65 234.42 124.95 234.42 124.26 234.49C123.96 234.52 123.65 234.57 123.35 234.6C123.13 234.62 122.91 234.65 122.68 234.66C122.01 234.67 121.34 234.67 120.66 234.66C120.38 234.65 120.11 234.6 119.83 234.56C119.69 234.54 119.55 234.5 119.42 234.5C118.66 234.51 117.93 234.34 117.19 234.19C117 234.15 116.8 234.16 116.61 234.15C115.47 233.55 114.8 232.06 115.57 230.52C115.88 229.91 116.3 229.39 116.82 228.95C117.94 228 119.19 227.27 120.58 226.79Z" fill="#453E54"/>
<path d="M128.64 218.84C128.59 218.86 128.54 218.89 128.49 218.91C128.54 218.88 128.59 218.86 128.64 218.84Z" fill="#DA8F2E"/>
<path d="M118.57 205.72C118.64 204.97 118.66 204.22 118.89 203.5C118.97 203.24 119.09 202.98 119.23 202.73C119.68 201.95 120.62 201.79 121.32 202.36C121.61 202.6 121.82 202.89 121.91 203.26C122.09 203.96 122.28 204.66 122.41 205.37C122.72 207.1 123.19 208.79 123.64 210.49C123.86 211.32 124.1 212.15 124.12 213.03C124.13 213.48 123.95 213.84 123.74 214.21C123.59 214.47 123.32 214.59 123.04 214.63C122.62 214.7 122.2 214.68 121.83 214.43C121.37 214.12 120.96 213.77 120.62 213.3C119.77 212.14 119.38 210.8 119.09 209.44C118.87 208.41 118.75 207.36 118.59 206.31C118.54 206.11 118.57 205.91 118.57 205.72Z" fill="#80BAB0"/>
<path d="M151.32 198.83C151.23 197.99 151.25 197.15 151.46 196.33C151.73 195.24 152.3 194.32 153.06 193.51C154.05 192.45 155.24 191.67 156.52 191.02C158.12 190.2 159.82 189.64 161.54 189.13C162.32 188.9 163.1 188.69 163.89 188.48C164.55 188.3 164.8 188.39 165.18 188.92C166.46 190.71 167.44 192.65 168.28 194.67C168.33 194.8 168.35 194.94 168.39 195.07C167.47 196.85 166.25 198.4 164.89 199.85C164.33 200.44 163.74 200.99 163.08 201.47C162.43 201.94 161.83 202.5 161.1 202.88C160.55 203.16 160.02 203.47 159.48 203.76C158.9 204.07 158.87 204.13 159.02 204.74C159.03 204.77 159.04 204.79 159.05 204.82C159.46 206.41 159.83 208.01 160.07 209.64C160.25 210.85 160.39 212.07 160.62 213.27C160.85 214.48 161.22 215.66 161.97 216.67C162.54 217.43 163.25 218.07 163.99 218.67C163.59 219.04 163.07 219.18 162.57 219.33C161.37 219.68 160.21 219.62 159.11 218.96C159.02 218.9 158.91 218.87 158.81 218.83C157.61 217.81 156.93 216.49 156.48 215.01C156.39 214.72 156.3 214.42 156.23 214.12C155.93 212.78 155.64 211.44 155.35 210.1C154.81 207.62 153.96 205.26 152.84 202.99C152.18 201.66 151.61 200.29 151.32 198.83Z" fill="#518889"/>
<path d="M151.32 198.83C151.61 200.3 152.18 201.67 152.84 203C153.95 205.27 154.81 207.64 155.35 210.11C155.64 211.45 155.93 212.79 156.23 214.13C156.3 214.43 156.39 214.72 156.48 215.02C156.93 216.49 157.61 217.82 158.81 218.84C158.32 218.9 157.96 218.62 157.57 218.4C156.88 218.01 156.39 217.38 155.82 216.85C155.36 216.42 155.02 215.92 154.74 215.37C154.27 214.45 153.8 213.53 153.53 212.52C153.5 212.4 153.39 212.31 153.33 212.21C152.89 212.4 152.75 212.79 152.51 213.09C151.49 214.35 150.64 215.72 149.93 217.18C149.25 218.57 148.87 220.04 148.68 221.57C148.66 221.73 148.68 221.91 148.7 222.07C148.74 222.32 148.78 222.56 148.85 222.8C148.98 223.25 149.07 223.71 149.29 224.15C149.99 225.52 150.99 226.62 152.27 227.47C153.2 228.09 154.14 228.68 155.18 229.1C155.38 229.18 155.56 229.33 155.74 229.45C155.52 229.44 155.29 229.46 155.07 229.43C152.92 229.09 150.89 228.37 149.01 227.28C147.59 226.45 146.33 225.44 145.5 223.98C145.46 223.91 145.39 223.85 145.34 223.79C145.13 223.12 144.87 222.48 144.78 221.77C144.6 220.35 144.84 218.98 145.23 217.63C145.62 216.28 146.18 215 146.74 213.71C147.84 211.16 148.89 208.6 149.69 205.94C150.37 203.69 150.93 201.4 151.24 199.07C151.25 198.98 151.29 198.91 151.32 198.83Z" fill="#DA8F2E"/>
<path d="M170.16 211.29C170.44 212.77 170.33 214.25 170.16 215.72C169.94 217.56 169.51 219.36 168.83 221.08C168.12 222.86 167.19 224.52 165.9 225.95C165.83 226.03 165.77 226.13 165.7 226.22C165.51 226.38 165.33 226.55 165.14 226.71C164.43 227.32 163.71 227.93 162.82 228.27C161.87 228.27 160.92 228.27 159.96 228.27C159.76 228.27 159.56 228.29 159.37 228.25C158.41 228.07 157.46 227.89 156.53 227.57C154.94 227.01 153.58 226.14 152.53 224.81C152.01 224.16 151.66 223.41 151.56 222.61C151.34 220.9 151.78 219.34 152.95 218.03C153.38 217.55 153.67 217.55 154.15 218.02C154.23 218.1 154.33 218.17 154.38 218.26C154.75 218.87 155.28 219.32 155.78 219.81C156.82 220.83 158.06 221.4 159.54 221.37C159.74 221.37 159.93 221.36 160.13 221.37C161.19 221.43 162.18 221.12 163.14 220.76C164.47 220.27 165.54 219.36 166.62 218.47C166.7 218.4 166.76 218.3 166.83 218.21C166.95 218.06 167.06 217.89 167.19 217.75C167.73 217.21 168.11 216.56 168.48 215.9C169.14 214.72 169.56 213.45 169.87 212.14C169.93 211.86 170.06 211.58 170.16 211.29Z" fill="#E3B540"/>
<path d="M163.98 218.68C163.24 218.08 162.54 217.44 161.96 216.68C161.21 215.67 160.84 214.5 160.61 213.28C160.38 212.08 160.23 210.86 160.06 209.65C159.82 208.03 159.45 206.42 159.04 204.83C159.03 204.8 159.02 204.78 159.01 204.75C158.86 204.14 158.89 204.08 159.47 203.77C160.01 203.48 160.54 203.17 161.09 202.89C161.82 202.52 162.41 201.96 163.07 201.48C163.72 201 164.32 200.45 164.88 199.86C166.24 198.41 167.46 196.85 168.38 195.08C168.53 195.41 168.69 195.73 168.81 196.07C169.82 199 170.41 202.02 170.43 205.12C170.44 206.43 170.37 207.75 170.09 209.05C170.03 209.32 170.02 209.6 169.99 209.88C169.89 210.17 169.77 210.45 169.69 210.74C169.01 213.01 167.97 215.09 166.33 216.83C165.65 217.57 164.91 218.26 163.98 218.68ZM168.71 205.6C168.62 204.92 168.58 204.28 168.45 203.65C168.35 203.12 168.11 202.65 167.68 202.29C166.92 201.63 166.09 201.77 165.59 202.65C165.27 203.22 165.09 203.82 164.97 204.46C164.73 205.69 164.48 206.92 164.19 208.14C163.89 209.42 163.52 210.67 163.23 211.95C163.14 212.35 163.12 212.78 163.15 213.19C163.18 213.48 163.3 213.79 163.46 214.04C163.8 214.55 164.77 214.67 165.36 214.34C166.17 213.88 166.7 213.16 167.12 212.36C167.98 210.7 168.31 208.89 168.51 207.06C168.53 206.87 168.55 206.67 168.57 206.48C168.62 206.17 168.67 205.87 168.71 205.6Z" fill="#5FA091"/>
<path d="M162.81 228.28C163.7 227.93 164.42 227.33 165.13 226.72C165.32 226.56 165.5 226.4 165.69 226.23C166.09 226.41 166.48 226.59 166.88 226.77C166.69 226.73 166.59 226.84 166.47 226.98C165.56 228 164.61 228.98 163.4 229.68C161.95 230.52 160.42 231.06 158.74 231.14C158.57 231.15 158.41 231.19 158.25 231.22C157.61 231.35 156.97 231.32 156.33 231.24C156.03 231.2 155.72 231.15 155.42 231.13C155.09 231.11 154.76 231.08 154.43 231.01C153.69 230.85 152.95 230.76 152.24 230.49C152.19 230.47 152.13 230.47 152.08 230.49C152.03 230.51 151.98 230.55 151.97 230.59C151.95 230.63 151.96 230.71 151.99 230.74C152.06 230.82 152.15 230.89 152.24 230.95C153.14 231.57 154.07 232.12 155.08 232.55C156.17 233.01 157.3 233.32 158.43 233.62C159.13 233.81 159.85 233.9 160.56 234.03C161.24 234.16 161.92 234.34 162.62 234.31C162.73 234.31 162.85 234.3 162.95 234.34C163.44 234.53 163.94 234.47 164.45 234.48C165.32 234.49 166.19 234.48 167.06 234.48C167.28 234.48 167.51 234.48 167.73 234.44C168.64 234.27 169.54 234.14 170.46 234.14C169.93 234.59 169.28 234.78 168.65 234.97C167.25 235.39 165.8 235.58 164.35 235.64C161.68 235.75 159.03 235.59 156.39 235.19C154.34 234.89 152.31 234.5 150.35 233.81C149.26 233.43 148.21 232.97 147.26 232.31C146.73 231.94 146.21 231.55 145.76 231.1C144.36 229.72 143.95 228.05 144.42 226.16C144.63 225.31 144.95 224.51 145.38 223.75C145.43 223.81 145.5 223.87 145.54 223.94C146.37 225.4 147.63 226.42 149.05 227.24C150.93 228.33 152.96 229.05 155.11 229.39C155.33 229.42 155.56 229.41 155.78 229.41C157.38 229.72 158.96 229.52 160.52 229.16C161.3 229 162.1 228.75 162.81 228.28Z" fill="#3A3444"/>
<path d="M162.81 228.28C162.1 228.75 161.3 229.01 160.49 229.2C158.93 229.56 157.35 229.76 155.75 229.45C155.56 229.33 155.39 229.18 155.19 229.1C154.15 228.68 153.21 228.09 152.28 227.47C151 226.62 150 225.52 149.3 224.15C149.08 223.72 148.99 223.26 148.86 222.8C148.79 222.56 148.75 222.31 148.71 222.07C148.69 221.91 148.67 221.73 148.69 221.57C148.87 220.04 149.26 218.57 149.94 217.18C150.65 215.72 151.5 214.35 152.52 213.09C152.76 212.79 152.9 212.4 153.34 212.21C153.41 212.31 153.51 212.41 153.54 212.52C153.81 213.53 154.28 214.45 154.75 215.37C155.03 215.92 155.37 216.42 155.83 216.85C156.4 217.38 156.89 218.01 157.58 218.4C157.96 218.62 158.33 218.9 158.82 218.84C158.92 218.88 159.03 218.92 159.12 218.97C160.22 219.63 161.38 219.7 162.58 219.34C163.08 219.19 163.6 219.05 164 218.68C164.93 218.26 165.66 217.57 166.35 216.84C167.99 215.1 169.02 213.02 169.71 210.75C169.8 210.46 169.91 210.18 170.01 209.89C170.06 210.36 170.12 210.82 170.17 211.29C170.07 211.58 169.95 211.86 169.88 212.15C169.57 213.46 169.15 214.73 168.49 215.91C168.12 216.57 167.74 217.22 167.2 217.76C167.06 217.9 166.96 218.06 166.84 218.22C166.77 218.31 166.72 218.41 166.63 218.48C165.56 219.37 164.48 220.28 163.15 220.77C162.19 221.13 161.19 221.44 160.14 221.38C159.94 221.37 159.75 221.38 159.55 221.38C158.07 221.41 156.83 220.84 155.79 219.82C155.29 219.33 154.76 218.87 154.39 218.27C154.33 218.18 154.24 218.11 154.16 218.03C153.68 217.57 153.39 217.56 152.96 218.04C151.79 219.35 151.35 220.91 151.57 222.62C151.67 223.42 152.02 224.17 152.54 224.82C153.59 226.15 154.95 227.02 156.54 227.58C157.47 227.9 158.42 228.08 159.38 228.26C159.57 228.3 159.77 228.28 159.97 228.28C160.9 228.27 161.85 228.27 162.81 228.28Z" fill="#DEA736"/>
<path d="M170.44 234.15C169.52 234.15 168.61 234.29 167.71 234.45C167.49 234.49 167.26 234.49 167.04 234.49C166.17 234.49 165.3 234.5 164.43 234.49C163.93 234.49 163.42 234.54 162.93 234.35C162.83 234.31 162.71 234.32 162.6 234.32C161.9 234.34 161.22 234.16 160.54 234.04C159.83 233.91 159.11 233.82 158.41 233.63C157.28 233.33 156.15 233.02 155.06 232.56C154.05 232.13 153.12 231.58 152.22 230.96C152.13 230.9 152.04 230.83 151.97 230.75C151.94 230.72 151.94 230.64 151.95 230.6C151.97 230.56 152.02 230.51 152.06 230.5C152.11 230.48 152.18 230.48 152.22 230.5C152.93 230.77 153.68 230.86 154.41 231.02C154.74 231.09 155.07 231.12 155.4 231.14C155.7 231.16 156.01 231.21 156.31 231.25C156.95 231.33 157.59 231.36 158.23 231.23C158.39 231.2 158.56 231.15 158.72 231.15C160.4 231.07 161.93 230.52 163.38 229.69C164.59 228.99 165.54 228.01 166.45 226.99C166.57 226.85 166.67 226.74 166.86 226.78C168.41 227.33 169.78 228.17 170.91 229.36C171.28 229.75 171.57 230.19 171.76 230.7C172.18 231.81 171.98 232.79 171.15 233.63C170.96 233.83 170.68 233.98 170.44 234.15Z" fill="#443E54"/>
<path d="M168.71 205.6C168.67 205.87 168.62 206.17 168.58 206.47C168.55 206.66 168.54 206.86 168.52 207.05C168.32 208.89 168 210.7 167.13 212.35C166.72 213.15 166.19 213.87 165.37 214.33C164.78 214.67 163.81 214.54 163.47 214.03C163.31 213.78 163.18 213.47 163.16 213.18C163.12 212.77 163.14 212.34 163.24 211.94C163.54 210.66 163.9 209.4 164.2 208.13C164.49 206.91 164.74 205.68 164.98 204.45C165.1 203.81 165.28 203.2 165.6 202.64C166.1 201.76 166.93 201.63 167.69 202.28C168.12 202.65 168.35 203.12 168.46 203.64C168.58 204.28 168.63 204.92 168.71 205.6Z" fill="#80BAB0"/>
<path d="M129.04 183.39C129.41 183.18 129.81 183.1 130.23 183.14C130.32 184.08 130.38 185.03 130.51 185.97C130.61 186.73 131 187.26 131.82 187.47C132.33 187.6 132.82 187.71 133.34 187.68C133.39 187.83 133.44 187.98 133.5 188.13C134.08 189.48 134.65 190.84 135.23 192.19C135.26 192.26 135.27 192.34 135.28 192.42C135.13 192.66 134.91 192.72 134.67 192.63C134.29 192.49 133.92 192.37 133.49 192.58C133.53 192.73 133.54 192.9 133.63 193.02C134.04 193.56 134.44 194.1 134.89 194.6C136.51 196.4 138.54 197.61 140.75 198.55C142.7 199.38 144.78 199.67 146.86 199.86C147.77 199.95 148.67 199.72 149.57 199.67C150.85 199.6 152.1 199.37 153.3 199.04C155.05 198.56 156.81 198.05 158.42 197.14C158.8 196.93 159.19 196.72 159.65 196.77C159.54 196.88 159.44 197.01 159.32 197.1C156.35 199.28 153.12 200.97 149.62 202.15C146.15 203.32 142.66 203.35 139.19 202.19C135.32 200.9 131.69 199.11 128.31 196.82C127.12 196.01 126.03 195.07 125.12 193.96C123.88 192.44 123.09 190.73 122.97 188.75C122.9 187.71 123.02 186.68 123.36 185.69C123.54 185.18 123.84 184.82 124.41 184.65C125.78 184.26 127.12 183.71 128.54 183.5C128.56 184.2 128.59 184.9 129.05 185.72C129.04 184.81 129.04 184.1 129.04 183.39Z" fill="#393342"/>
<path d="M135.25 182.26C136.5 182.09 137.76 181.89 139.01 181.77C143.2 181.38 147.39 181.22 151.59 181.48C152.18 181.52 152.76 181.64 153.35 181.72C153.65 182.09 153.98 182.44 154.23 182.84C154.57 183.37 154.92 183.91 155.14 184.5C155.44 185.25 155.43 186.03 155.06 186.8C154.82 187.29 154.72 187.85 154.56 188.37C154.48 188.45 154.41 188.54 154.33 188.62C150.8 188.62 147.27 188.62 143.74 188.62C143.42 188.62 143.08 188.68 142.79 188.59C141.86 188.29 140.9 188.43 139.96 188.38C139.53 188.36 139.09 188.33 138.66 188.29C138.27 188.25 137.88 188.19 137.49 188.15C137.21 188.12 136.91 188.18 136.66 188.09C136.16 187.91 135.65 187.94 135.14 187.9C134.59 187.86 134.05 187.77 133.5 187.7C133.44 187.69 133.38 187.67 133.32 187.67C133.31 187.47 133.3 187.27 133.28 187.08C133.21 186.58 133.22 186.15 133.75 185.85C133.91 185.76 133.98 185.44 134.01 185.22C134.11 184.54 134.34 183.91 134.66 183.31C134.86 182.95 135.06 182.61 135.25 182.26Z" fill="#1B8686"/>
<path d="M159.65 196.76C159.19 196.71 158.8 196.92 158.42 197.13C156.82 198.04 155.05 198.55 153.3 199.03C152.1 199.36 150.85 199.59 149.57 199.66C148.67 199.71 147.77 199.93 146.86 199.85C144.77 199.65 142.7 199.37 140.75 198.54C138.54 197.6 136.52 196.39 134.89 194.59C134.44 194.09 134.04 193.55 133.63 193.01C133.54 192.89 133.53 192.72 133.49 192.57C133.92 192.36 134.29 192.48 134.67 192.62C134.92 192.71 135.14 192.66 135.28 192.41C135.43 192.58 135.58 192.75 135.73 192.92C136.6 194.75 137.93 196.21 139.58 197.36C142.02 199.05 144.6 199.38 147.32 198.02C149.49 196.94 151.04 195.24 152.21 193.16C152.3 193.08 152.4 193 152.49 192.92C152.65 192.92 152.81 192.95 152.96 192.91C155.34 192.34 157.7 191.71 159.92 190.64C161.6 189.83 163.18 188.87 164.75 187.87C165.03 188.82 164.92 189.77 164.6 190.68C164.39 191.28 164.13 191.87 163.8 192.41C162.74 194.15 161.35 195.61 159.65 196.76Z" fill="#453E54"/>
<path d="M164.76 187.87C163.19 188.86 161.6 189.82 159.93 190.64C157.71 191.72 155.35 192.34 152.97 192.91C152.82 192.95 152.65 192.92 152.5 192.92C152.79 192.32 153.11 191.74 153.37 191.13C153.72 190.31 154.02 189.46 154.35 188.63C154.43 188.55 154.5 188.46 154.58 188.38C155.21 188.37 155.85 188.48 156.46 188.22C156.59 188.17 156.78 188.2 156.92 188.24C157.18 188.32 157.42 188.44 157.63 188.52C159.16 187.51 160.61 186.56 162.06 185.58C162.43 185.33 162.77 185.08 163.23 185.03C164.11 185.78 164.58 186.75 164.76 187.87Z" fill="#373243"/>
<path d="M163.21 185.04C162.76 185.08 162.41 185.34 162.04 185.59C160.6 186.56 159.14 187.52 157.61 188.53C157.4 188.45 157.16 188.33 156.9 188.25C156.76 188.21 156.57 188.17 156.44 188.23C155.82 188.48 155.19 188.38 154.56 188.39C154.72 187.86 154.82 187.31 155.06 186.82C155.43 186.05 155.44 185.27 155.14 184.52C154.91 183.94 154.57 183.39 154.23 182.86C153.97 182.46 153.64 182.11 153.35 181.74C156.09 181.9 158.74 182.43 161.23 183.61C161.98 183.95 162.71 184.34 163.21 185.04Z" fill="#473F56"/>
<path d="M135.25 182.26C135.06 182.61 134.86 182.95 134.68 183.3C134.36 183.9 134.13 184.53 134.03 185.21C134 185.43 133.93 185.75 133.77 185.84C133.24 186.14 133.23 186.57 133.3 187.07C133.33 187.27 133.33 187.47 133.34 187.66C132.82 187.69 132.33 187.58 131.82 187.45C131.01 187.24 130.62 186.71 130.51 185.95C130.38 185.01 130.32 184.06 130.23 183.12C131.39 182.89 132.55 182.64 133.72 182.42C134.22 182.34 134.74 182.32 135.25 182.26Z" fill="#473F56"/>
<path d="M129.04 183.39C129.04 184.1 129.04 184.81 129.04 185.71C128.58 184.89 128.55 184.19 128.53 183.49C128.7 183.45 128.87 183.42 129.04 183.39Z" fill="#473F56"/>
<path d="M154.34 188.63C154.02 189.47 153.71 190.31 153.36 191.13C153.1 191.74 152.78 192.33 152.49 192.92C152.4 193 152.31 193.08 152.21 193.16C151.74 193.18 151.24 193.1 150.79 193.23C150.2 193.4 149.62 193.39 149.03 193.41C148.76 193.42 148.48 193.47 148.21 193.5C147.82 193.55 147.43 193.63 147.04 193.63C145.61 193.65 144.19 193.64 142.76 193.63C142.45 193.63 142.13 193.59 141.82 193.56C141.35 193.51 140.88 193.45 140.42 193.4C139.4 193.3 138.37 193.27 137.37 193.08C136.82 192.98 136.28 192.93 135.73 192.91C135.58 192.74 135.43 192.57 135.28 192.4C135.26 192.32 135.26 192.24 135.23 192.17C134.66 190.82 134.08 189.46 133.5 188.11C133.51 187.97 133.52 187.83 133.52 187.69C134.07 187.76 134.61 187.85 135.16 187.89C135.67 187.93 136.18 187.89 136.68 188.08C136.93 188.17 137.23 188.11 137.51 188.14C137.9 188.18 138.29 188.24 138.68 188.28C139.11 188.32 139.55 188.35 139.98 188.37C140.93 188.41 141.88 188.28 142.81 188.58C143.1 188.67 143.44 188.61 143.76 188.61C147.28 188.62 150.81 188.63 154.34 188.63Z" fill="#3D9F9F"/>
<path d="M133.52 187.7C133.51 187.84 133.5 187.98 133.5 188.12C133.45 187.97 133.4 187.82 133.34 187.67C133.4 187.68 133.46 187.69 133.52 187.7Z" fill="#473F56"/>
<path d="M135.73 192.93C136.28 192.94 136.82 192.99 137.37 193.1C138.37 193.29 139.4 193.32 140.42 193.42C140.89 193.47 141.36 193.53 141.82 193.58C142.13 193.61 142.45 193.65 142.76 193.65C144.19 193.66 145.61 193.66 147.04 193.65C147.43 193.65 147.82 193.56 148.21 193.52C148.48 193.49 148.76 193.44 149.03 193.43C149.62 193.41 150.2 193.41 150.79 193.25C151.23 193.13 151.73 193.2 152.21 193.18C151.04 195.27 149.48 196.96 147.32 198.04C144.6 199.4 142.02 199.07 139.58 197.38C137.93 196.22 136.61 194.76 135.73 192.93Z" fill="#58ACAF"/>
<path d="M190.17 167.73C190.42 168.05 190.71 168.34 190.91 168.69C193.05 172.4 195.04 176.18 196.67 180.15C197.52 182.24 198.21 184.37 198.53 186.61C198.72 187.98 198.7 189.35 198.55 190.72C198.25 191.8 197.89 192.85 197.35 193.84C197.34 193.87 197.34 193.9 197.33 193.93C196.81 194.56 196.29 195.18 195.77 195.81C195.73 195.83 195.68 195.84 195.63 195.84C195.75 193.47 195.39 191.17 194.51 188.96C193.68 186.87 192.49 185.02 190.79 183.52C189.66 182.53 188.38 181.84 186.88 181.63C186.45 181.57 186 181.57 185.58 181.63C183.88 181.87 182.65 182.81 181.79 184.25C180.71 186.05 180.41 188.04 180.51 190.1C180.54 190.81 180.65 191.52 180.73 192.24C180.3 192.08 180.14 191.69 179.98 191.33C179.51 190.28 179.02 189.23 178.67 188.13C178.25 186.8 177.92 185.43 177.63 184.07C177.22 182.16 176.88 180.23 176.5 178.31C176.42 177.91 176.36 177.52 176.29 177.12C176.14 176.23 176.01 175.34 175.83 174.46C175.56 173.09 175.27 171.72 174.94 170.36C174.86 170.02 174.9 169.6 174.58 169.33C174.64 169.2 174.7 169.06 174.76 168.93C175.42 167.83 176.27 166.87 177.24 166.03C178.76 164.72 180.53 164.03 182.55 164.11C183.64 164.15 184.7 164.41 185.71 164.85C187.06 165.44 188.3 166.21 189.42 167.16C189.66 167.37 189.92 167.54 190.17 167.73ZM191.77 176.65C191.68 176.07 191.62 175.48 191.49 174.91C191 172.79 190.18 170.82 188.84 169.09C188.4 168.52 187.89 168.02 187.19 167.75C186.25 167.4 185.25 167.93 185.14 168.9C185.08 169.42 185.12 169.96 185.23 170.47C185.37 171.1 185.61 171.72 185.83 172.33C186.1 173.06 186.35 173.8 186.69 174.5C187.19 175.54 187.71 176.57 188.31 177.55C188.59 178.02 189.01 178.44 189.44 178.78C190.26 179.43 191.14 179 191.47 178.3C191.72 177.77 191.7 177.22 191.77 176.65Z" fill="#DEA736"/>
<path d="M190.17 167.73C189.92 167.55 189.66 167.38 189.43 167.18C188.31 166.23 187.07 165.45 185.72 164.87C184.71 164.43 183.65 164.17 182.56 164.13C180.54 164.05 178.77 164.75 177.25 166.05C176.28 166.89 175.44 167.84 174.77 168.95C174.66 168.77 174.51 168.6 174.45 168.4C174.12 167.17 173.82 165.93 173.48 164.71C173.02 163.06 172.57 161.41 172.05 159.79C170.5 154.93 168.83 150.11 167.1 145.31C167.91 145.3 168.63 145.61 169.34 145.93C171.34 146.83 173.19 148.01 174.92 149.35C177.12 151.06 179.12 153 180.99 155.06C183.01 157.28 184.92 159.58 186.63 162.06C187.73 163.65 188.79 165.28 189.85 166.89C190.01 167.13 190.23 167.38 190.17 167.73ZM183.61 161.48C183.48 160.83 183.27 160.11 182.73 159.56C182.52 159.34 182.26 159.16 182 158.99C181.6 158.73 181.2 158.87 180.87 159.13C180.57 159.37 180.35 159.72 180.46 160.12C180.73 161.14 181.15 162.06 182.24 162.48C182.9 162.73 183.61 162.28 183.61 161.48ZM179.95 158.28C180.36 158.29 180.75 157.91 180.74 157.52C180.73 157.13 180.22 156.66 179.79 156.62C179.5 156.59 179.09 157.03 179.1 157.38C179.11 157.91 179.42 158.27 179.95 158.28Z" fill="#80BAB0"/>
<path d="M180.73 192.25C180.65 191.54 180.55 190.83 180.51 190.11C180.41 188.05 180.71 186.06 181.79 184.26C182.65 182.82 183.89 181.87 185.58 181.64C186.01 181.58 186.46 181.58 186.88 181.64C188.38 181.86 189.66 182.54 190.79 183.53C192.49 185.03 193.68 186.87 194.51 188.97C195.39 191.18 195.75 193.47 195.63 195.85C195.42 196.1 195.22 196.35 195.01 196.6C194.78 196.74 194.53 196.86 194.31 197.02C193.54 197.57 192.75 198.11 191.88 198.49C191.83 198.45 191.77 198.45 191.72 198.47C191.1 198.45 190.48 198.47 189.88 198.28C189.35 198.12 188.78 198.06 188.26 197.86C187.3 197.51 186.33 197.16 185.43 196.69C184.11 196 182.9 195.12 181.89 194C181.71 193.8 181.54 193.56 181.22 193.53C181.05 193.11 180.89 192.68 180.73 192.25Z" fill="#E3B540"/>
<path d="M180.73 192.25C180.89 192.68 181.05 193.1 181.21 193.53C181.23 193.74 181.23 193.96 181.28 194.16C181.54 195.13 182.01 196.01 182.46 196.9C183.02 198.02 183.75 199.03 184.63 199.92C184.82 200.12 184.98 200.35 185.16 200.56C184.96 200.62 184.75 200.68 184.55 200.74C183.92 200.73 183.29 200.71 182.66 200.7C182.59 200.69 182.53 200.68 182.46 200.67C181.56 200.44 180.67 200.17 179.84 199.72C178.82 198.96 177.93 198.07 177.24 196.99C177.09 196.76 176.9 196.55 176.74 196.33C176.63 195.87 176.44 195.44 176.11 195.09C176.09 195 176.1 194.9 176.06 194.82C174.95 192.36 174.25 189.77 173.71 187.14C173.03 183.84 172.44 180.53 171.82 177.22C171.8 177.1 171.81 176.97 171.81 176.85C171.86 176.77 171.93 176.7 171.95 176.61C172.24 174.93 172.68 173.29 173.36 171.72C173.71 170.9 174.18 170.13 174.6 169.34C174.92 169.61 174.87 170.03 174.96 170.37C175.29 171.73 175.58 173.1 175.85 174.47C176.03 175.35 176.16 176.24 176.31 177.13C176.38 177.53 176.45 177.93 176.52 178.32C176.89 180.24 177.23 182.17 177.65 184.08C177.94 185.45 178.27 186.81 178.69 188.14C179.04 189.23 179.53 190.28 180 191.34C180.14 191.7 180.3 192.1 180.73 192.25Z" fill="#DA8F2E"/>
<path d="M174.58 169.35C174.16 170.14 173.69 170.91 173.34 171.73C172.67 173.3 172.22 174.94 171.93 176.62C171.92 176.7 171.84 176.78 171.79 176.86C171.67 176.38 171.54 175.9 171.45 175.41C170.2 168.54 168.44 161.81 166.2 155.19C165.59 153.38 165.08 151.55 164.54 149.72C164.31 148.94 164.25 148.13 164.24 147.31C164.22 146.04 165.35 144.73 167.08 145.31C168.81 150.11 170.48 154.93 172.03 159.79C172.55 161.42 173 163.07 173.46 164.71C173.8 165.94 174.1 167.18 174.43 168.4C174.48 168.6 174.64 168.77 174.75 168.95C174.7 169.08 174.64 169.21 174.58 169.35Z" fill="#518889"/>
<path d="M185.16 200.57C184.98 200.35 184.82 200.12 184.63 199.93C183.75 199.04 183.02 198.03 182.46 196.91C182.01 196.02 181.54 195.14 181.28 194.17C181.23 193.97 181.23 193.75 181.21 193.54C181.52 193.57 181.69 193.81 181.88 194.01C182.89 195.13 184.1 196 185.42 196.7C186.32 197.17 187.29 197.52 188.25 197.87C188.77 198.06 189.33 198.12 189.87 198.29C190.48 198.48 191.1 198.46 191.71 198.48C191.57 198.59 191.44 198.73 191.29 198.81C190.94 199 190.57 199.17 190.21 199.35C189.48 199.58 188.73 199.75 188.06 200.14C187.79 200.19 187.52 200.22 187.25 200.28C186.56 200.43 185.87 200.59 185.16 200.57Z" fill="#DEA736"/>
<path d="M176.1 195.1C176.43 195.45 176.62 195.88 176.73 196.34C176.52 196.43 176.36 196.57 176.3 196.8C176.23 197.04 176.16 197.28 176.07 197.51C175.87 198.02 175.89 198.52 176.01 199.06C176.18 199.83 176.46 200.54 176.83 201.23C176.58 201.22 176.33 201.22 176.08 201.21C175.92 201.16 175.76 201.11 175.6 201.06C174.59 200.75 174 200 173.71 199.06C173.39 198.05 173.6 197.1 174.35 196.31C174.85 195.77 175.45 195.39 176.1 195.1Z" fill="#3B3545"/>
<path d="M197.32 193.93C197.33 193.9 197.32 193.86 197.34 193.84C197.88 192.85 198.23 191.8 198.54 190.72C199.34 191.28 200.02 191.95 200.58 192.74C201.14 193.53 201.41 194.41 201.26 195.38C201.23 195.59 201.12 195.79 201.05 195.99C200.91 195.93 200.77 195.85 200.62 195.82C199.82 195.66 199.09 195.38 198.48 194.83C198.12 194.51 197.71 194.23 197.32 193.93Z" fill="#494057"/>
<path d="M197.32 193.93C197.71 194.23 198.11 194.51 198.48 194.83C199.1 195.38 199.83 195.67 200.62 195.82C200.77 195.85 200.91 195.93 201.05 195.99C200.98 196.41 200.71 196.72 200.43 197C199.72 197.7 198.88 197.89 197.94 197.52C197.05 197.17 196.34 196.58 195.77 195.81C196.28 195.19 196.8 194.56 197.32 193.93Z" fill="#3B3545"/>
<path d="M191.88 198.49C192.75 198.1 193.54 197.57 194.31 197.02C194.53 196.86 194.78 196.74 195.01 196.6C195.29 197.16 195.57 197.71 195.83 198.27C196.04 198.73 196.09 199.23 196.06 199.73C196.04 200.07 196 200.41 195.76 200.69C194.74 200.76 193.82 200.43 192.97 199.91C192.44 199.59 192 199.15 191.88 198.49Z" fill="#494057"/>
<path d="M176.84 201.23C176.46 200.55 176.19 199.83 176.02 199.06C175.9 198.52 175.88 198.02 176.08 197.51C176.17 197.28 176.24 197.04 176.31 196.8C176.38 196.57 176.53 196.43 176.74 196.34C176.91 196.56 177.1 196.77 177.24 197C177.94 198.08 178.82 198.96 179.84 199.73C179.17 200.35 178.45 200.87 177.56 201.13C177.33 201.19 177.08 201.2 176.84 201.23Z" fill="#463F55"/>
<path d="M191.88 198.49C192 199.15 192.44 199.59 192.97 199.91C193.82 200.43 194.74 200.76 195.76 200.69C194.68 202.56 192.46 202.74 191.13 201.06C190.72 200.54 190.46 199.94 190.22 199.34C190.58 199.16 190.95 199 191.3 198.8C191.45 198.72 191.58 198.58 191.72 198.47C191.77 198.45 191.83 198.45 191.88 198.49Z" fill="#3B3545"/>
<path d="M182.66 200.71C183.29 200.72 183.92 200.74 184.55 200.75C184.77 201.59 185.29 202.22 185.98 202.71C186.4 203.01 186.87 203.24 187.32 203.5C186.82 204.15 186.12 204.3 185.35 204.28C184.59 204.26 183.97 203.95 183.48 203.4C183.04 202.91 182.72 202.35 182.64 201.68C182.61 201.6 182.59 201.52 182.56 201.43C182.54 201.3 182.53 201.18 182.51 201.05C182.56 200.95 182.61 200.83 182.66 200.71Z" fill="#3B3545"/>
<path d="M187.32 203.5C186.87 203.24 186.4 203.01 185.98 202.71C185.29 202.22 184.76 201.59 184.55 200.75C184.75 200.69 184.96 200.63 185.16 200.57C185.87 200.59 186.56 200.43 187.25 200.27C187.52 200.21 187.79 200.18 188.06 200.13C188.08 200.65 188.14 201.18 188.1 201.69C188.04 202.37 187.89 203.03 187.32 203.5Z" fill="#494057"/>
<path d="M182.66 200.71C182.61 200.83 182.56 200.95 182.52 201.07C182.5 200.94 182.48 200.81 182.47 200.68C182.53 200.69 182.59 200.7 182.66 200.71Z" fill="#625C6A"/>
<path d="M191.77 176.65C191.7 177.22 191.72 177.77 191.47 178.31C191.14 179.02 190.26 179.44 189.44 178.79C189.01 178.45 188.59 178.03 188.31 177.56C187.72 176.57 187.19 175.54 186.69 174.51C186.35 173.81 186.1 173.07 185.83 172.34C185.61 171.73 185.36 171.11 185.23 170.48C185.12 169.97 185.08 169.42 185.14 168.91C185.25 167.94 186.25 167.41 187.19 167.76C187.89 168.02 188.4 168.52 188.84 169.1C190.18 170.83 191 172.8 191.49 174.92C191.62 175.48 191.68 176.07 191.77 176.65Z" fill="#E3B540"/>
<path d="M183.61 161.48C183.61 162.29 182.91 162.73 182.24 162.47C181.15 162.05 180.73 161.12 180.46 160.11C180.35 159.71 180.57 159.36 180.87 159.12C181.2 158.86 181.6 158.72 182 158.98C182.26 159.15 182.52 159.33 182.73 159.55C183.26 160.11 183.48 160.83 183.61 161.48Z" fill="#9FD5D8"/>
<path d="M179.95 158.28C179.42 158.27 179.1 157.91 179.1 157.38C179.09 157.03 179.5 156.59 179.79 156.62C180.22 156.66 180.73 157.13 180.74 157.52C180.75 157.91 180.37 158.28 179.95 158.28Z" fill="#9FD5D8"/>
<path d="M89.3302 190.76C89.3302 190.57 89.3402 190.38 89.3202 190.2C89.0802 187.96 89.4202 185.78 90.0302 183.63C90.5502 181.79 91.2602 180.03 92.0402 178.29C93.4702 175.09 95.0902 172 96.8402 168.96C97.0602 168.58 97.3202 168.23 97.5702 167.87C97.6402 167.8 97.7002 167.73 97.7702 167.65L97.7602 167.66C98.1102 167.41 98.4702 167.16 98.8102 166.9C100.23 165.8 101.74 164.87 103.5 164.42C104.6 164.14 105.7 164.01 106.84 164.22C108.56 164.53 110 165.34 111.24 166.56C111.98 167.29 112.58 168.12 113.18 168.97C113.24 169.1 113.3 169.23 113.35 169.36C113.29 169.46 113.19 169.56 113.16 169.67C113.06 170.06 112.97 170.45 112.89 170.85C112.66 171.91 112.44 172.98 112.22 174.04C111.98 175.23 111.74 176.41 111.51 177.6C111.32 178.57 111.07 179.54 110.94 180.53C110.71 182.29 110.31 184.02 109.9 185.74C109.57 187.13 109.21 188.52 108.63 189.84C108.3 190.58 108.02 191.34 107.54 192.01C107.46 192.12 107.3 192.18 107.18 192.27C107.18 192.15 107.15 192.02 107.18 191.9C107.44 190.66 107.42 189.41 107.32 188.17C107.2 186.59 106.75 185.1 105.8 183.81C105 182.71 103.95 181.99 102.59 181.71C101.39 181.47 100.29 181.72 99.2202 182.18C98.0902 182.67 97.1102 183.41 96.2902 184.32C93.7102 187.2 92.3802 190.59 92.2902 194.45C92.2802 194.79 92.3002 195.14 92.2902 195.48C92.2802 195.59 92.2002 195.69 92.1502 195.8C91.6302 195.19 91.1202 194.57 90.6002 193.96C90.5702 193.87 90.5702 193.77 90.5202 193.7C90.0802 193.01 89.8102 192.25 89.6002 191.47C89.5402 191.21 89.4302 190.99 89.3302 190.76ZM102.84 169.49C102.84 169.36 102.85 169.24 102.84 169.11C102.77 168.13 102 167.51 101.04 167.68C100.67 167.75 100.3 167.85 100.03 168.13C99.6402 168.53 99.2602 168.95 98.8902 169.37C98.2602 170.08 97.9102 170.96 97.4902 171.8C96.7102 173.32 96.3802 174.97 96.1202 176.64C96.0302 177.24 96.2102 177.83 96.4702 178.36C96.8402 179.11 97.6702 179.32 98.3902 178.89C98.6002 178.76 98.7902 178.58 98.9602 178.41C99.7002 177.67 100.19 176.75 100.62 175.82C101.19 174.61 101.71 173.37 102.2 172.12C102.52 171.27 102.83 170.41 102.84 169.49Z" fill="#DEA736"/>
<path d="M113.18 168.96C112.59 168.12 111.98 167.28 111.24 166.55C110 165.34 108.57 164.52 106.84 164.21C105.7 164 104.6 164.13 103.5 164.41C101.74 164.86 100.23 165.79 98.8101 166.89C98.4701 167.16 98.1101 167.4 97.7601 167.65C97.7101 167.38 97.8601 167.18 98.0001 166.96C99.6201 164.36 101.35 161.84 103.24 159.43C105.54 156.49 108.03 153.74 110.77 151.22C112.99 149.18 115.4 147.41 118.14 146.12C118.7 145.85 119.29 145.64 119.89 145.45C120.15 145.36 120.44 145.37 120.71 145.33C120.61 145.69 120.54 146.06 120.41 146.41C119.82 148.08 119.19 149.74 118.62 151.42C117.62 154.4 116.63 157.39 115.68 160.38C114.87 162.93 114.14 165.5 113.52 168.11C113.46 168.41 113.44 168.74 113.18 168.96ZM107.35 160.04C107.35 159.96 107.35 159.9 107.35 159.83C107.29 159.1 106.44 158.64 105.84 159.05C105.44 159.33 105.05 159.68 104.79 160.09C104.55 160.47 104.45 160.95 104.37 161.41C104.3 161.83 104.43 162.21 104.84 162.45C105.26 162.7 105.64 162.58 105.98 162.33C106.45 161.97 106.88 161.56 107.14 161C107.27 160.69 107.4 160.37 107.35 160.04ZM107.96 158.28C108.43 158.3 108.73 158.03 108.84 157.48C108.91 157.12 108.74 156.88 108.33 156.7C108.01 156.56 107.78 156.75 107.56 156.9C107.25 157.11 107.13 157.42 107.21 157.7C107.29 158.03 107.59 158.26 107.96 158.28Z" fill="#80BAB0"/>
<path d="M92.1602 195.78C92.2102 195.67 92.2902 195.57 92.3002 195.46C92.3202 195.12 92.2902 194.77 92.3002 194.43C92.3902 190.56 93.7202 187.18 96.3002 184.3C97.1202 183.39 98.1002 182.65 99.2302 182.16C100.3 181.7 101.41 181.44 102.6 181.69C103.97 181.97 105.01 182.69 105.81 183.79C106.76 185.09 107.21 186.58 107.33 188.15C107.42 189.39 107.45 190.65 107.19 191.88C107.16 192 107.19 192.13 107.19 192.25C107.05 192.62 106.91 192.99 106.76 193.36C106.64 193.44 106.5 193.51 106.39 193.61C105.92 194.07 105.5 194.57 105 194.99C103.87 195.93 102.61 196.69 101.25 197.25C99.7802 197.86 98.2902 198.38 96.6702 198.46C96.5302 198.47 96.3902 198.56 96.2502 198.61C96.1902 198.62 96.1302 198.62 96.0702 198.62C96.0002 198.56 95.9502 198.48 95.8702 198.44C94.9502 197.94 94.0702 197.39 93.2402 196.74C93.1502 196.67 93.0202 196.63 92.9102 196.58C92.7402 196.25 92.4702 196.05 92.1502 195.89C92.1302 195.86 92.1302 195.82 92.1602 195.78Z" fill="#E3B540"/>
<path d="M106.77 193.36C106.91 192.99 107.05 192.62 107.2 192.25C107.32 192.17 107.48 192.11 107.56 191.99C108.04 191.33 108.32 190.56 108.65 189.82C109.23 188.5 109.59 187.11 109.92 185.72C110.32 184 110.72 182.27 110.96 180.51C111.09 179.53 111.34 178.56 111.53 177.58C111.77 176.39 112 175.21 112.24 174.02C112.46 172.96 112.68 171.89 112.91 170.83C112.99 170.44 113.08 170.04 113.18 169.65C113.21 169.54 113.3 169.44 113.37 169.34C114.09 170.31 114.46 171.44 114.89 172.54C115.47 173.99 115.77 175.52 116.11 177.04C115.37 181.34 114.66 185.64 113.56 189.87C113.14 191.5 112.63 193.1 111.94 194.65C111.88 194.79 111.86 194.95 111.82 195.1C111.51 195.48 111.23 195.88 111.13 196.37C110.95 196.62 110.74 196.85 110.58 197.11C110.15 197.8 109.62 198.4 109.02 198.95C108.72 199.22 108.4 199.46 108.09 199.72C107.25 200.16 106.35 200.44 105.44 200.68C104.76 200.7 104.09 200.72 103.41 200.74C103.2 200.68 102.99 200.62 102.78 200.56C103.17 200.08 103.55 199.59 103.96 199.13C105.19 197.73 105.97 196.08 106.6 194.35C106.72 194.04 106.84 193.72 106.77 193.36Z" fill="#DA8F2E"/>
<path d="M116.1 177.05C115.76 175.53 115.46 174 114.88 172.55C114.44 171.45 114.07 170.32 113.36 169.35C113.3 169.22 113.24 169.09 113.19 168.96C113.45 168.74 113.47 168.41 113.54 168.12C114.16 165.52 114.89 162.94 115.7 160.39C116.65 157.39 117.64 154.41 118.64 151.43C119.21 149.75 119.84 148.09 120.43 146.42C120.55 146.07 120.63 145.7 120.73 145.34C121.27 145.06 121.82 145.11 122.36 145.3C123.24 145.61 123.58 146.32 123.66 147.18C123.74 148 123.6 148.8 123.38 149.59C122.97 151.06 122.57 152.54 122.09 153.99C120.94 157.52 119.79 161.05 118.85 164.64C118.03 167.75 117.34 170.88 116.72 174.03C116.52 175.04 116.31 176.04 116.1 177.05Z" fill="#518889"/>
<path d="M106.77 193.36C106.84 193.71 106.72 194.04 106.6 194.36C105.97 196.09 105.19 197.74 103.96 199.14C103.55 199.6 103.17 200.09 102.78 200.57C102.2 200.49 101.62 200.43 101.04 200.34C100.64 200.28 100.25 200.2 99.86 200.12C99.17 199.75 98.42 199.54 97.66 199.34C97.19 199.1 96.72 198.86 96.26 198.62C96.4 198.57 96.54 198.47 96.68 198.47C98.29 198.39 99.79 197.87 101.26 197.26C102.62 196.69 103.88 195.94 105.01 195C105.51 194.58 105.93 194.08 106.4 193.62C106.51 193.51 106.65 193.44 106.77 193.36Z" fill="#DEA736"/>
<path d="M111.13 196.38C111.23 195.88 111.51 195.49 111.82 195.11C112.27 195.38 112.75 195.61 113.16 195.94C114.27 196.83 114.61 198.04 114.13 199.25C113.6 200.6 112.47 201.32 111.01 201.23C111.06 201.15 111.09 201.06 111.15 200.99C111.47 200.6 111.69 200.12 111.76 199.67C111.87 198.89 111.86 198.08 111.78 197.29C111.76 196.94 111.63 196.48 111.13 196.38Z" fill="#3B3545"/>
<path d="M89.3301 190.76C89.4201 190.99 89.5401 191.2 89.6001 191.44C89.8101 192.23 90.0801 192.98 90.5201 193.67C90.5701 193.74 90.5701 193.85 90.6001 193.93C90.1401 193.96 89.9501 194.38 89.6501 194.62C88.8101 195.28 87.9301 195.85 86.8001 195.81C86.4401 194.98 86.6001 194.18 86.9401 193.4C87.1901 192.83 87.5701 192.33 88.0101 191.9C88.4401 191.52 88.8901 191.15 89.3301 190.76Z" fill="#494057"/>
<path d="M86.8101 195.83C87.9401 195.87 88.8201 195.3 89.6601 194.64C89.9701 194.4 90.1501 193.98 90.6101 193.95C91.1301 194.56 91.6401 195.18 92.1601 195.79C92.1301 195.83 92.1301 195.87 92.1601 195.91C91.6701 196.33 91.2001 196.78 90.6901 197.17C90.3201 197.45 89.8901 197.64 89.4201 197.69C88.2201 197.83 87.2301 197.13 86.8101 195.83Z" fill="#3B3545"/>
<path d="M92.92 196.59C93.03 196.64 93.16 196.67 93.25 196.75C94.08 197.4 94.96 197.95 95.88 198.45C95.96 198.49 96.01 198.57 96.08 198.63C95.68 199.06 95.31 199.53 94.87 199.91C94.57 200.16 94.19 200.36 93.81 200.47C93.28 200.63 92.73 200.77 92.17 200.7C91.81 200.22 91.79 199.68 91.86 199.12C91.93 198.57 92.13 198.05 92.38 197.56C92.56 197.23 92.74 196.91 92.92 196.59Z" fill="#494057"/>
<path d="M111.13 196.38C111.63 196.48 111.75 196.94 111.79 197.29C111.87 198.08 111.88 198.89 111.77 199.67C111.7 200.13 111.48 200.61 111.16 200.99C111.1 201.06 111.07 201.15 111.02 201.23C110.49 201.31 110.03 201.08 109.61 200.83C109.08 200.51 108.6 200.11 108.1 199.74C108.41 199.48 108.73 199.24 109.03 198.97C109.63 198.42 110.16 197.82 110.59 197.13C110.75 196.86 110.95 196.62 111.13 196.38Z" fill="#463F55"/>
<path d="M92.1702 200.69C92.7402 200.76 93.2902 200.62 93.8102 200.46C94.1902 200.35 94.5702 200.15 94.8702 199.9C95.3102 199.52 95.6802 199.05 96.0802 198.62C96.1402 198.63 96.2002 198.62 96.2602 198.61C96.7302 198.85 97.2002 199.09 97.6602 199.33C97.4502 200.06 97.1002 200.71 96.5902 201.27C95.9602 201.96 95.1902 202.32 94.2602 202.17C93.3502 202.03 92.5602 201.62 92.1702 200.69Z" fill="#3B3545"/>
<path d="M103.41 200.75C104.09 200.73 104.76 200.71 105.44 200.69C105.43 201.59 105.18 202.41 104.66 203.14C103.72 204.46 101.94 204.67 100.7 203.7C100.59 203.61 100.53 203.45 100.45 203.33C101.94 203.04 102.9 202.15 103.41 200.75Z" fill="#3B3545"/>
<path d="M103.41 200.75C102.9 202.15 101.94 203.04 100.45 203.32C100.01 202.91 99.88 202.36 99.84 201.8C99.81 201.24 99.86 200.68 99.87 200.12C100.26 200.19 100.65 200.28 101.05 200.34C101.63 200.43 102.21 200.49 102.79 200.57C102.99 200.63 103.2 200.69 103.41 200.75Z" fill="#494057"/>
<path d="M97.7801 167.66C97.7101 167.73 97.6501 167.8 97.5801 167.88C97.6401 167.8 97.7101 167.73 97.7801 167.66Z" fill="#D990B6"/>
<path d="M102.84 169.49C102.83 170.41 102.52 171.27 102.19 172.11C101.7 173.36 101.19 174.6 100.61 175.81C100.17 176.74 99.68 177.65 98.95 178.4C98.78 178.58 98.59 178.75 98.38 178.88C97.67 179.32 96.84 179.1 96.46 178.35C96.19 177.82 96.01 177.23 96.11 176.63C96.37 174.96 96.7 173.31 97.48 171.79C97.91 170.96 98.25 170.08 98.88 169.36C99.25 168.94 99.63 168.53 100.02 168.12C100.29 167.84 100.67 167.73 101.03 167.67C101.99 167.5 102.76 168.12 102.83 169.1C102.85 169.24 102.84 169.36 102.84 169.49Z" fill="#E3B540"/>
<path d="M107.35 160.04C107.39 160.38 107.27 160.69 107.12 161.01C106.86 161.57 106.43 161.98 105.96 162.34C105.63 162.59 105.24 162.71 104.82 162.46C104.41 162.22 104.28 161.83 104.35 161.42C104.43 160.97 104.53 160.48 104.77 160.1C105.03 159.69 105.42 159.34 105.82 159.06C106.42 158.64 107.27 159.11 107.33 159.84C107.36 159.89 107.35 159.95 107.35 160.04Z" fill="#9FD5D8"/>
<path d="M107.96 158.28C107.59 158.26 107.29 158.03 107.2 157.7C107.12 157.42 107.24 157.1 107.55 156.9C107.78 156.75 108.01 156.57 108.32 156.7C108.73 156.88 108.9 157.12 108.83 157.48C108.73 158.02 108.42 158.3 107.96 158.28Z" fill="#9FD5D8"/>
<path d="M165.84 153.47C163 153.47 160.53 151.67 159.69 149.09C158.63 145.83 160.68 142.56 164.02 141.97C166.94 141.46 170.32 143.3 171.17 146.56C172.11 150.17 169.54 153.13 166.45 153.41C166.22 153.44 165.98 153.46 165.84 153.47Z" fill="#393342"/>
<path d="M122.44 153.47C119.6 153.47 117.13 151.67 116.29 149.09C115.23 145.83 117.28 142.56 120.62 141.97C123.54 141.46 126.92 143.3 127.77 146.56C128.71 150.17 126.14 153.13 123.05 153.41C122.81 153.44 122.57 153.46 122.44 153.47Z" fill="#393342"/>
<path d="M162.71 144.29C163.19 145.86 163.71 147.41 164.14 149C165.44 153.69 166.53 158.45 167.25 163.33C167.76 166.78 168.01 170.25 167.71 173.77C167.33 178.28 165.38 182.39 162.44 185.19C161.39 186.19 160.29 187.1 159.06 187.74C159.15 187.31 159.25 186.89 159.34 186.47C159.51 186.16 159.7 185.86 159.84 185.53C161.23 182.37 161.42 178.97 161.1 175.52C160.82 172.5 160.11 169.55 159.09 166.77C158.27 164.51 157.4 162.28 156.55 160.04C156.28 159.18 156.01 158.32 155.74 157.46C154.69 154.11 154.03 150.67 154.08 147.06C154.08 146.81 154.06 146.56 154.06 146.31L154.13 146.34C154.7 146.22 155.28 146.11 155.86 146.02C157.05 145.85 158.23 145.58 159.4 145.28C160.52 144.98 161.61 144.62 162.71 144.29Z" fill="#58ACAF"/>
<path d="M130.99 134.01C131.82 133.98 132.64 133.92 133.47 133.92C141.09 133.94 148.7 133.96 156.32 133.99C156.53 133.99 156.73 134.03 156.94 134.04C156.8 134.47 156.69 134.92 156.53 135.34C155.76 137.32 155.05 139.33 154.67 141.47C154.39 143.06 154.06 144.66 154.16 146.32L154.09 146.29C153.31 146.38 152.54 146.66 151.74 146.58C151.71 146.58 151.67 146.58 151.64 146.6C151.12 146.88 150.56 146.79 150.01 146.81C149.74 146.82 149.44 146.76 149.19 146.86C148.58 147.11 147.97 147.05 147.35 147.06C146.59 147.07 145.82 146.96 145.07 147.09C143.88 147.3 142.66 147.23 141.47 147.08C139.96 146.89 138.42 147.15 136.89 146.84C136.16 146.69 135.39 146.8 134.65 146.56C134.54 145.4 134.48 144.23 134.31 143.09C133.88 140.21 132.91 137.61 131.57 135.19C131.36 134.81 131.18 134.41 130.99 134.01Z" fill="#383241"/>
<path d="M130.99 134.01C131.18 134.4 131.36 134.81 131.57 135.19C132.91 137.61 133.88 140.22 134.31 143.09C134.48 144.24 134.54 145.4 134.65 146.56L134.55 146.54C133.91 146.39 133.26 146.36 132.62 146.25C131.4 146.02 130.21 145.66 129 145.33C128.17 145.11 127.33 144.86 126.45 144.6C126.34 144.87 126.2 145.11 126.14 145.38C125.88 146.59 125.62 147.8 125.41 149.02C124.97 151.56 124.61 154.12 124.66 156.73C124.69 158.4 124.78 160.08 124.68 161.75C124.6 163.01 124.82 164.22 124.99 165.44C125.12 166.38 125.3 167.3 125.54 168.21C125.9 169.57 126.32 170.9 126.74 172.24C126.84 172.57 126.93 172.98 127.32 173.04C127.29 173.53 127.26 174.03 127.24 174.52C127.15 175.09 127 175.66 126.98 176.24C126.86 178.84 126.83 181.44 127.4 183.98C127.5 184.42 127.63 184.86 127.71 185.31C127.83 185.96 127.92 186.62 128.02 187.28C125.04 185.35 122.69 182.66 121.26 178.9C120.33 176.46 120.01 173.85 119.95 171.19C119.89 168.45 120.17 165.74 120.6 163.06C121.82 155.46 123.62 148.07 126.21 140.99C126.9 139.11 127.73 137.32 128.44 135.45C128.84 134.39 129.47 133.92 130.4 133.98C130.58 134 130.79 134 130.99 134.01Z" fill="#3D9F9F"/>
<path d="M128 187.29C127.9 186.63 127.81 185.98 127.69 185.32C127.61 184.87 127.48 184.43 127.38 183.99C126.81 181.44 126.84 178.85 126.96 176.25C126.99 175.67 127.13 175.1 127.22 174.53C127.42 174.68 127.65 174.8 127.81 175C128.26 175.58 128.65 176.22 129.1 176.79C130.08 178.03 131.17 179.12 132.3 180.14C133.4 181.14 134.55 182.08 135.74 182.9C137.84 184.34 140.05 185.53 142.38 186.32C144.63 187.08 146.91 187.67 149.27 187.67C149.81 187.67 150.36 187.88 150.9 187.88C151.44 187.88 151.99 187.67 152.53 187.67C154.09 187.69 155.6 187.38 157.12 186.97C157.85 186.77 158.6 186.62 159.34 186.45C159.25 186.87 159.15 187.3 159.06 187.72C158.41 188.09 157.78 188.53 157.12 188.83C153.92 190.28 150.51 190.74 147.03 191.02C145.55 191.14 144.06 191.18 142.58 191.13C139.27 191.02 135.97 190.69 132.76 189.63C131.09 189.09 129.46 188.45 128 187.29Z" fill="#B8D7CF"/>
<path d="M154.15 146.33C154.06 144.69 154.38 143.1 154.66 141.52C155.04 139.36 155.75 137.34 156.53 135.35C156.69 134.93 156.8 134.49 156.94 134.05L156.95 134.04C158.21 133.79 158.97 134.38 159.5 135.72C160.53 138.28 161.6 140.82 162.48 143.46C162.57 143.73 162.63 144.01 162.71 144.29C161.61 144.62 160.52 144.99 159.42 145.27C158.25 145.57 157.07 145.84 155.88 146.01C155.3 146.09 154.73 146.21 154.15 146.33Z" fill="#1B8686"/>
<path d="M159.35 186.46C158.61 186.63 157.87 186.78 157.13 186.98C155.62 187.39 154.1 187.7 152.54 187.68C152 187.67 151.45 187.89 150.91 187.89C150.37 187.89 149.82 187.68 149.28 187.68C146.92 187.68 144.64 187.09 142.39 186.33C140.06 185.54 137.85 184.35 135.75 182.91C134.55 182.09 133.41 181.15 132.31 180.15C131.18 179.13 130.09 178.04 129.11 176.8C128.66 176.23 128.26 175.59 127.82 175.01C127.66 174.81 127.43 174.7 127.23 174.54C127.26 174.05 127.29 173.55 127.31 173.06C127.38 172.82 127.46 172.58 127.52 172.33C127.97 170.41 128.41 168.48 129.06 166.65C129.64 165.02 130.25 163.41 130.87 161.8C131.04 161.37 131.23 160.95 131.42 160.53C131.72 160.46 131.85 160.44 132.15 160.37C133.59 161.85 135.15 163.1 136.85 164.08C139.93 165.84 143.17 166.45 146.54 165.9C149.65 165.39 152.43 163.86 154.94 161.59C155.49 161.09 156.03 160.56 156.58 160.05C157.43 162.29 158.3 164.52 159.12 166.78C160.13 169.56 160.85 172.51 161.13 175.53C161.45 178.98 161.26 182.38 159.87 185.54C159.71 185.85 159.52 186.15 159.35 186.46ZM158.46 173.81C158.54 172.39 158.23 170.93 157.81 169.51C157.36 167.98 156.27 167.11 155.03 167.24C154.4 167.3 153.92 167.66 153.65 168.38C153.42 168.99 153.26 169.62 153.27 170.32C153.29 171.2 153.28 172.08 153.27 172.97C153.26 173.34 153.2 173.71 153.16 174.09C153.02 175.49 152.52 176.73 152.07 178C151.84 178.65 151.61 179.32 151.48 180.01C151.21 181.39 151.53 182.98 152.84 183.49C153.03 183.57 153.24 183.61 153.44 183.63C154.44 183.75 155.25 183.18 155.98 182.46C156.75 181.7 157.23 180.66 157.58 179.57C158.17 177.76 158.49 175.88 158.46 173.81ZM146.45 181.85C146.45 182.03 146.42 182.24 146.46 182.44C146.5 182.63 146.58 182.85 146.69 182.97C147.05 183.33 147.48 183.46 147.95 183.31C149.76 182.71 151.02 178.96 148.8 178.48C148.53 178.42 148.23 178.48 148 178.66C147.47 179.09 147.02 179.66 146.73 180.38C146.55 180.84 146.37 181.29 146.45 181.85Z" fill="#D5E7EC"/>
<path d="M155.79 160.78C155.51 161.05 155.23 161.31 154.94 161.57C152.43 163.83 149.65 165.37 146.54 165.88C143.18 166.43 139.94 165.83 136.85 164.06C135.22 163.13 133.72 161.94 132.33 160.54C132.12 160.33 131.9 160.11 131.69 159.9C131.76 159.66 131.81 159.42 131.89 159.19C132.25 158.15 132.62 157.11 132.97 156.06C133.85 153.4 134.39 150.64 134.58 147.79C134.61 147.38 134.55 146.96 134.54 146.54L134.64 146.56C135.38 146.8 136.15 146.69 136.88 146.84C138.41 147.15 139.94 146.9 141.46 147.08C142.66 147.23 143.87 147.29 145.06 147.09C145.81 146.96 146.58 147.07 147.34 147.06C147.96 147.05 148.57 147.11 149.18 146.86C149.43 146.76 149.73 146.82 150 146.81C150.55 146.79 151.1 146.88 151.63 146.6C151.66 146.58 151.7 146.58 151.73 146.58C152.41 146.65 153.06 146.46 153.72 146.34C153.88 146.52 153.95 146.6 154.1 146.77C154.01 150.96 154.87 154.92 156.2 158.78C156.05 159.53 155.94 160.04 155.79 160.78Z" fill="#443E54"/>
<path d="M134.54 146.55C134.56 146.97 134.61 147.39 134.58 147.8C134.39 150.66 133.85 153.41 132.97 156.07C132.62 157.12 132.25 158.15 131.89 159.2C131.81 159.43 131.76 159.67 131.69 159.91C131.41 160.54 131.11 161.15 130.87 161.79C130.25 163.4 129.64 165.01 129.06 166.64C128.4 168.47 127.97 170.4 127.52 172.32C127.46 172.57 127.38 172.81 127.31 173.05C126.92 172.99 126.84 172.58 126.73 172.25C126.31 170.92 125.89 169.58 125.53 168.22C125.29 167.32 125.11 166.39 124.98 165.45C124.81 164.23 124.6 163.02 124.67 161.76C124.77 160.09 124.68 158.41 124.65 156.74C124.61 154.12 124.96 151.57 125.4 149.03C125.61 147.81 125.87 146.6 126.13 145.39C126.19 145.12 126.33 144.88 126.44 144.61C127.32 144.86 128.15 145.11 128.99 145.34C130.19 145.66 131.39 146.03 132.61 146.26C133.25 146.37 133.91 146.4 134.54 146.55Z" fill="#58ACAF"/>
<path d="M158.46 173.81C158.5 175.88 158.17 177.76 157.59 179.57C157.24 180.66 156.76 181.7 155.99 182.46C155.26 183.18 154.46 183.75 153.45 183.63C153.25 183.6 153.04 183.56 152.85 183.49C151.53 182.98 151.22 181.39 151.49 180.01C151.62 179.32 151.85 178.65 152.08 178C152.53 176.73 153.03 175.49 153.17 174.09C153.21 173.72 153.27 173.35 153.28 172.97C153.3 172.09 153.3 171.21 153.28 170.32C153.26 169.63 153.43 169 153.66 168.38C153.92 167.66 154.41 167.31 155.04 167.24C156.28 167.11 157.37 167.98 157.82 169.51C158.23 170.93 158.54 172.39 158.46 173.81Z" fill="white"/>
<path d="M146.45 181.85C146.38 181.29 146.55 180.84 146.73 180.38C147.02 179.66 147.46 179.09 148 178.66C148.23 178.47 148.52 178.42 148.8 178.48C151.03 178.96 149.77 182.71 147.95 183.31C147.48 183.46 147.06 183.33 146.69 182.97C146.57 182.85 146.49 182.63 146.46 182.44C146.42 182.24 146.45 182.02 146.45 181.85Z" fill="white"/>
<path d="M189.55 52.7096C189.7 52.7596 189.88 52.7796 190.01 52.8596C192.43 54.5596 194.78 56.3396 196.89 58.4296C199.15 60.6596 201.19 63.0696 202.96 65.6996C204.69 68.2696 206.14 70.9996 207.4 73.8396C208.71 76.7996 209.78 79.8396 210.74 82.9296C211.57 85.6196 212.26 88.3596 212.84 91.1196C213.24 93.0496 213.63 94.9796 213.98 96.9096C214.19 98.0396 214.32 99.1896 214.47 100.34C214.59 101.21 214.7 102.09 214.81 102.96C214.82 103.03 214.83 103.1 214.83 103.16C214.9 104.79 215.06 106.42 215.02 108.05C214.93 111.11 214.57 114.15 213.45 117.04C212.62 119.18 211.52 121.16 210.08 122.95C208.08 125.45 205.61 127.4 202.89 129.06C201.17 130.1 199.35 130.95 197.54 131.8C197.27 131.93 196.97 132.01 196.68 132.11C196.45 131.87 196.19 131.95 195.92 132.02C193.56 132.64 191.19 133.18 188.79 133.6C187.63 133.8 186.46 134 185.3 134.22C184.07 134.45 182.85 134.69 181.6 134.82C181 134.88 180.4 135.01 179.8 135.09C179 135.2 178.2 135.32 177.39 135.41C176.62 135.5 175.84 135.56 175.07 135.66C174.2 135.77 173.34 135.93 172.46 136.02C171.45 136.12 170.44 136.17 169.42 136.24C169.32 136.25 169.21 136.24 169.12 136.28C168.63 136.49 168.12 136.43 167.61 136.44C167.34 136.45 167.05 136.39 166.8 136.47C166.03 136.71 165.25 136.61 164.47 136.65C164.17 136.66 163.86 136.67 163.56 136.7C163.12 136.74 162.69 136.82 162.25 136.84C161.57 136.87 160.89 136.84 160.21 136.86C159.94 136.86 159.67 136.9 159.4 136.93C159.03 136.97 158.66 137.04 158.29 137.05C156.22 137.06 154.14 137.08 152.07 137.05C149.97 137.02 147.87 137.15 145.76 136.88C144.39 136.71 142.99 136.89 141.6 136.68C140.61 136.53 139.58 136.65 138.56 136.47C137.8 136.34 137.02 136.41 136.24 136.27C135.31 136.1 134.36 136.1 133.41 136.03C133.27 136.02 133.14 136.02 133 136C132.23 135.88 131.47 135.72 130.7 135.65C129.25 135.52 127.82 135.3 126.39 135.05C125.82 134.95 125.25 134.9 124.68 134.81C123.68 134.64 122.68 134.48 121.69 134.28C119.97 133.93 118.25 133.55 116.53 133.2C113.74 132.63 111 131.87 108.28 131.03C106.43 130.46 104.61 129.81 102.82 129.09C100.61 128.2 98.4998 127.11 96.4498 125.9C94.6098 124.81 92.9798 123.42 91.3498 122.04C90.3098 121.16 89.4498 120.09 88.5998 119.04C87.1298 117.21 85.9498 115.18 85.1198 112.97C84.4098 111.06 83.8498 109.11 83.5498 107.09C83.4498 106.42 83.4698 105.73 83.3198 105.08C83.1798 104.44 83.1698 103.8 83.1698 103.16C83.1598 102.11 83.1598 101.05 83.1598 99.9996C83.1598 99.0096 83.0898 98.0196 83.1898 97.0396C83.2898 96.0296 83.3998 95.0296 83.5398 94.0196C83.7198 92.7496 83.9398 91.4796 84.1698 90.2196C84.5598 88.0496 85.1698 85.9296 85.8598 83.8396C86.4198 82.1396 87.0798 80.4496 87.8198 78.8196C89.0298 76.1596 90.3698 73.5596 92.0198 71.1396C92.7998 69.9896 93.6398 68.8797 94.4498 67.7596C95.4398 66.3796 96.5698 65.1096 97.6998 63.8596C99.4798 61.8896 101.45 60.1196 103.51 58.4596C104.93 57.3096 106.43 56.2596 107.9 55.1696C108.11 55.0096 108.35 54.8896 108.62 54.7296C108.9 54.8896 109.17 55.0196 109.42 55.1896C110.83 56.1596 112.11 57.2696 113.07 58.6896C113.72 59.6396 114.42 60.5696 114.87 61.6396C115.2 62.4196 115.52 63.2096 115.84 63.9896C115.6 64.1096 115.37 64.2496 115.12 64.3596C112.02 65.6596 109.19 67.3996 106.65 69.5996C103.25 72.5596 100.52 76.0596 98.4998 80.0896C96.0398 84.9896 94.4998 90.1996 93.3698 95.5396C92.9098 97.6996 92.4998 99.8696 92.2998 102.07C92.1798 103.42 92.0398 104.78 91.9698 106.13C91.9098 107.22 91.9798 108.3 92.1198 109.39C92.2998 110.85 92.5898 112.27 93.1098 113.65C94.2298 116.64 96.1298 119.02 98.6598 120.94C100.68 122.47 102.9 123.65 105.24 124.6C108.37 125.86 111.6 126.8 114.9 127.46C117.16 127.91 119.44 128.32 121.74 128.53C122.48 128.6 123.23 128.69 123.97 128.77C124.98 128.88 125.99 129 127.01 129.1C128.84 129.27 130.66 129.43 132.49 129.58C133.95 129.7 135.4 129.88 136.86 129.9C140.5 129.95 144.14 129.91 147.78 129.91C147.98 129.91 148.19 129.9 148.39 129.89C150.15 129.78 151.92 129.66 153.68 129.55C155.24 129.46 156.8 129.38 158.36 129.29C158.46 129.28 158.56 129.27 158.66 129.26C159.81 129.15 160.96 129.04 162.11 128.93C163.66 128.78 165.23 128.66 166.77 128.44C168.69 128.17 170.6 127.85 172.49 127.47C173.95 127.18 175.39 126.77 176.84 126.41C176.94 126.4 177.05 126.41 177.14 126.38C180.13 125.46 183.08 124.45 185.82 122.9C187.96 121.69 189.94 120.29 191.57 118.41C192.86 116.93 193.81 115.26 194.5 113.43C195.34 111.2 195.49 108.87 195.6 106.53C195.6 106.43 195.6 106.33 195.59 106.22C195.48 104.87 195.4 103.51 195.23 102.17C195.03 100.56 194.81 98.9396 194.52 97.3396C194.11 95.0996 193.6 92.8896 192.99 90.6996C191.88 86.7296 190.53 82.8596 188.57 79.2196C187.28 76.8196 185.74 74.5796 183.91 72.5596C181.64 70.0496 179.07 67.8896 176.13 66.1996C174.93 65.5096 173.71 64.8296 172.38 64.3796C172.3 64.3096 172.23 64.2396 172.15 64.1796C172.28 64.0896 172.46 64.0196 172.53 63.8996C172.65 63.6596 172.7 63.3896 172.8 63.1396C173.13 62.3196 173.39 61.4796 173.81 60.7096C174.73 59.0196 175.87 57.4896 177.34 56.1996C178.93 54.7996 180.66 53.6596 182.64 52.8896C183.43 52.5896 184.24 52.3396 185.01 51.9996C185.49 51.7796 185.96 51.6796 186.48 51.6896C186.79 51.7896 187.11 51.8896 187.42 51.9796C187.58 52.0296 187.73 52.0696 187.89 52.1096C188.43 52.3796 188.95 52.6596 189.55 52.7096ZM204.86 81.0497C204.97 80.2397 204.82 79.3596 204.58 78.5196C203.87 76.0596 202.85 73.7396 201.47 71.5796C200.26 69.6896 198.94 67.8897 197.44 66.2297C195.89 64.5197 194.19 62.9596 192.35 61.5596C191.19 60.6796 189.98 59.8596 188.63 59.2796C187.6 58.8396 186.55 58.4896 185.4 58.8296C184.76 59.0196 184.35 59.3496 184.15 60.0196C183.98 60.5796 184.17 61.0296 184.4 61.4696C184.6 61.8496 184.9 62.1896 185.2 62.5196C185.71 63.0696 186.25 63.5896 186.78 64.1096C187.72 65.0396 188.57 66.0596 189.32 67.1496C191.28 70.0096 193.03 72.9796 194.47 76.1396C195.2 77.7396 195.88 79.3696 196.79 80.8996C197.54 82.1696 198.39 83.3296 199.45 84.3496C200.04 84.9096 200.76 85.2096 201.53 85.3496C202.33 85.4996 203.06 85.3196 203.66 84.6796C204.09 84.2196 204.41 83.7197 204.64 83.1496C204.9 82.4896 204.89 81.8197 204.86 81.0497ZM202.01 88.7396C201.92 89.9296 202.37 90.8696 203.25 91.6296C204.25 92.4896 205.74 92.2796 206.45 91.1796C206.81 90.6196 206.93 90.0096 206.92 89.3396C206.89 88.1596 206.42 87.2796 205.43 86.6196C204.36 85.9096 203.24 86.3396 202.56 86.9796C202.03 87.4697 201.95 88.0896 202.01 88.7396Z" fill="#58ACAF"/>
<path d="M115.86 63.96C115.54 63.18 115.22 62.39 114.89 61.61C114.44 60.54 113.74 59.61 113.09 58.66C112.12 57.24 110.84 56.13 109.44 55.16C109.19 54.99 108.92 54.86 108.64 54.7C108.38 54.86 108.14 54.98 107.92 55.14C106.45 56.23 104.95 57.28 103.53 58.43C101.47 60.1 99.4899 61.87 97.7199 63.83C96.5899 65.09 95.4599 66.35 94.4699 67.73C93.6599 68.86 92.8199 69.97 92.0399 71.11C90.3899 73.53 89.0499 76.13 87.8399 78.79C87.0999 80.42 86.4399 82.11 85.8799 83.81C85.1899 85.9 84.5899 88.02 84.1899 90.19C83.9599 91.45 83.7399 92.72 83.5599 93.99C83.4199 94.99 83.3099 96 83.2099 97.01C83.1199 97.99 83.1799 98.98 83.1799 99.97C83.1799 101.02 83.1799 102.08 83.1899 103.13C83.1999 103.77 83.1999 104.41 83.3399 105.05C83.4899 105.7 83.4599 106.39 83.5699 107.06C83.8699 109.08 84.4399 111.03 85.1399 112.94C85.9599 115.15 87.1399 117.18 88.6199 119.01C89.4699 120.06 90.3199 121.14 91.3699 122.01C92.9999 123.38 94.6299 124.78 96.4699 125.87C98.5199 127.08 100.63 128.17 102.84 129.06C104.64 129.78 106.46 130.43 108.3 131C111.02 131.84 113.76 132.6 116.55 133.17C118.27 133.52 119.99 133.9 121.71 134.25C122.7 134.45 123.7 134.62 124.7 134.78C125.27 134.87 125.84 134.92 126.41 135.02C127.84 135.27 129.27 135.49 130.72 135.62C131.49 135.69 132.25 135.85 133.02 135.97C133.15 135.99 133.29 135.99 133.43 136C134.37 136.07 135.33 136.07 136.26 136.24C137.04 136.38 137.82 136.31 138.58 136.44C139.59 136.62 140.62 136.5 141.62 136.65C143.01 136.86 144.41 136.68 145.78 136.85C147.88 137.11 149.98 136.99 152.09 137.02C154.16 137.05 156.24 137.03 158.31 137.02C158.68 137.02 159.05 136.94 159.42 136.9C159.69 136.87 159.96 136.83 160.23 136.83C160.91 136.82 161.59 136.84 162.27 136.81C162.71 136.79 163.14 136.71 163.58 136.67C163.88 136.64 164.19 136.63 164.49 136.62C165.27 136.59 166.05 136.69 166.82 136.44C167.07 136.36 167.36 136.42 167.63 136.41C168.14 136.4 168.65 136.45 169.14 136.25C169.23 136.21 169.34 136.22 169.44 136.21C170.45 136.14 171.47 136.09 172.48 135.99C173.35 135.9 174.22 135.74 175.09 135.63C175.86 135.53 176.64 135.48 177.41 135.38C178.21 135.28 179.02 135.17 179.82 135.06C180.42 134.97 181.02 134.85 181.62 134.79C182.87 134.67 184.09 134.43 185.32 134.19C186.48 133.97 187.65 133.77 188.81 133.57C191.21 133.15 193.58 132.61 195.94 131.99C196.21 131.92 196.47 131.84 196.7 132.08C195.4 132.57 194.1 133.08 192.78 133.53C189.04 134.8 185.21 135.72 181.33 136.42C178.99 136.84 176.64 137.21 174.28 137.46C172.32 137.66 170.36 137.89 168.4 138.07C166.71 138.23 165.02 138.36 163.32 138.48C161.22 138.63 159.11 138.73 157.01 138.9C154.4 139.11 151.79 139.19 149.17 139.32C145.02 139.53 140.87 139.49 136.72 139.43C134.72 139.4 132.72 139.23 130.72 139.1C129.77 139.04 128.82 138.97 127.88 138.88C126.63 138.76 125.38 138.61 124.13 138.48C123.32 138.4 122.51 138.34 121.69 138.28C120.54 138.19 119.38 138.12 118.23 138.02C117.32 137.94 116.41 137.81 115.5 137.71C114.79 137.63 114.08 137.54 113.37 137.46C108.5 136.93 103.69 136.05 98.9599 134.78C95.0799 133.73 91.2899 132.43 87.6799 130.64C84.5299 129.08 81.5899 127.19 79.0999 124.66C76.2599 121.78 74.3599 118.38 73.4099 114.45C73.0299 112.9 72.7799 111.32 72.7399 109.71C72.7199 109.03 72.5999 108.35 72.6199 107.68C72.6599 105.91 72.7599 104.15 72.9299 102.39C73.2299 99.17 73.7699 95.99 74.4199 92.83C75.6799 86.65 77.3799 80.61 79.8199 74.78C81.0699 71.79 82.5599 68.92 84.3299 66.21C86.6699 62.62 89.4799 59.44 92.6799 56.61C94.6999 54.83 96.8999 53.28 99.2099 51.91C99.5899 51.69 99.9699 51.48 100.36 51.27C100.48 51.29 100.62 51.36 100.73 51.34C101.66 51.19 102.59 50.94 103.53 50.86C106.8 50.57 109.96 51.04 112.94 52.47C115.19 53.55 116.92 55.14 117.94 57.46C118.69 59.18 119.19 60.97 119.52 62.81C119.03 62.94 118.54 63.05 118.06 63.2C117.32 63.46 116.59 63.71 115.86 63.96Z" fill="#3D9F9F"/>
<path d="M187.92 52.0798C187.76 52.0398 187.61 51.9998 187.45 51.9498C187.14 51.8498 186.82 51.7498 186.51 51.6598C186.42 51.6098 186.35 51.5198 186.25 51.4998C184.72 51.1698 183.18 50.9998 181.61 51.0098C179.67 51.0198 177.84 51.4298 176.06 52.1198C174.71 52.6398 173.53 53.4498 172.56 54.5198C171.55 55.6298 170.76 56.8898 170.16 58.2798C169.5 59.8198 169.18 61.4498 168.75 63.0498C168.33 64.7198 167.96 66.3998 167.49 68.0498C167 69.7698 166.31 71.4198 165.26 72.8898C165.05 72.6898 164.87 72.8698 164.72 72.9698C163.13 74.0198 161.43 74.8698 159.67 75.5898C158.35 76.1298 157.02 76.6298 155.63 76.9498C154.18 77.2898 152.73 77.6098 151.26 77.8398C149.82 78.0598 148.38 78.2598 146.92 78.2098C146.38 78.1898 145.83 78.2098 145.29 78.2098C144.71 78.2098 144.14 78.2298 143.58 78.0498C143.13 77.9098 142.65 77.8798 142.18 77.8098C140.18 77.5498 138.3 76.8698 136.47 76.0498C135.29 75.5198 134.23 74.7998 133.18 74.0398C131.92 73.1298 131.08 71.9298 130.44 70.5698C129.76 69.1498 129.52 67.5998 129.36 66.0498C129.27 65.1098 129.01 64.1798 129.12 63.2198C129.13 63.0898 129.09 62.9498 129.07 62.8198C129.02 62.4198 128.96 62.0198 128.92 61.6198C128.9 61.3798 128.92 61.1398 128.89 60.9098C128.78 60.2098 128.62 59.5198 128.53 58.8198C128.22 56.4798 127.53 54.2498 126.42 52.1698C125.78 50.9698 125.04 49.8398 124.03 48.8998C123.48 48.3898 122.97 47.8498 122.44 47.3198C121.6 46.4698 120.56 45.8698 119.6 45.1898C119.52 45.1398 119.4 45.1398 119.31 45.1198C120.24 44.9298 121.16 44.7098 122.09 44.5598C125.81 43.9598 129.55 43.5198 133.32 43.2398C138.78 42.8398 144.25 42.7998 149.72 42.9798C153.66 43.1098 157.59 43.4198 161.49 43.9498C166.81 44.6698 172.08 45.6698 177.23 47.1898C180.56 48.1698 183.79 49.3998 186.85 51.0498C187.26 51.2698 187.71 51.4398 188.03 51.8298C188.08 51.8898 188.22 51.8798 188.32 51.8998C188.18 51.9598 188.05 52.0198 187.92 52.0798ZM142.6 56.1498C142.27 56.2198 141.93 56.2398 141.62 56.3598C140.41 56.8198 139.46 57.6098 138.7 58.6498C137.31 60.5498 136.72 62.7298 136.52 65.0298C136.36 66.8098 136.59 68.5598 137.1 70.2698C137.65 72.0998 138.55 73.7098 140.03 74.9598C141.32 76.0398 142.78 76.5598 144.47 76.1798C146.07 75.8198 147.31 74.9498 148.18 73.5398C148.29 73.4098 148.42 73.2998 148.51 73.1598C149.66 71.4198 150.17 69.4598 150.34 67.4098C150.44 66.2298 150.39 65.0498 150.2 63.8598C149.85 61.7398 149.08 59.8198 147.7 58.1598C146.65 56.9098 145.31 56.1798 143.69 55.9898C143.32 55.9598 142.93 55.8998 142.6 56.1498ZM157.22 46.5598C156.74 46.5598 156.27 46.5398 155.79 46.5698C154.93 46.6198 154.11 46.8598 153.42 47.3898C152.56 48.0598 152.29 49.0698 153.16 49.9198C153.58 50.3298 154.04 50.6598 154.59 50.8698C156.78 51.7398 159.08 52.1198 161.42 52.2998C161.72 52.3198 162.05 52.2498 162.33 52.3398C163.22 52.6298 164.08 52.2098 164.95 52.2598C166.1 51.9198 166.61 51.4698 166.48 50.2398C166.42 49.6998 166.1 49.2898 165.68 48.9798C165.3 48.6998 164.9 48.4298 164.48 48.2198C162.2 47.0598 159.77 46.5498 157.22 46.5598ZM165.41 56.9598C165.88 56.8798 166.32 56.8998 166.67 56.7298C167.61 56.2498 168.09 55.6298 167.16 54.6998C167.09 54.6298 167.02 54.5498 166.93 54.4998C166 54.0398 165.03 53.7898 164.01 54.1798C163.21 54.4798 162.86 55.3898 163.31 56.0798C163.47 56.3198 163.74 56.5398 164 56.6398C164.48 56.7898 164.99 56.8598 165.41 56.9598Z" fill="#58ACAF"/>
<path d="M119.3 45.1196C119.4 45.1396 119.52 45.1396 119.59 45.1896C120.56 45.8696 121.59 46.4696 122.43 47.3196C122.96 47.8496 123.47 48.3896 124.02 48.8996C125.03 49.8396 125.77 50.9696 126.41 52.1696C127.52 54.2496 128.21 56.4696 128.52 58.8196C128.61 59.5196 128.77 60.2096 128.88 60.9096C128.92 61.1396 128.89 61.3896 128.91 61.6196C128.95 62.0196 129.01 62.4196 129.06 62.8196C129.08 62.9496 129.12 63.0896 129.11 63.2196C129 64.1796 129.25 65.1096 129.35 66.0496C129.51 67.5996 129.75 69.1496 130.43 70.5696C131.08 71.9296 131.91 73.1296 133.17 74.0396C134.22 74.7996 135.28 75.5196 136.46 76.0496C138.29 76.8696 140.17 77.5396 142.17 77.8096C142.64 77.8696 143.12 77.9096 143.57 78.0496C144.14 78.2296 144.71 78.2096 145.28 78.2096C145.82 78.2096 146.37 78.1996 146.91 78.2096C148.37 78.2496 149.81 78.0596 151.25 77.8396C152.72 77.6096 154.17 77.2896 155.62 76.9496C157.01 76.6196 158.34 76.1296 159.66 75.5896C161.42 74.8696 163.12 74.0296 164.71 72.9696C164.86 72.8696 165.04 72.6896 165.25 72.8896C165.02 73.2596 164.83 73.6696 164.56 74.0096C163.1 75.8596 161.32 77.2996 159.16 78.2396C155.83 79.6796 152.33 80.4896 148.73 80.8396C146.53 81.0596 144.33 81.0896 142.11 80.8996C139.19 80.6496 136.31 80.1796 133.5 79.3696C131.08 78.6696 128.76 77.7096 126.65 76.2996C124.56 74.9096 122.98 73.0896 121.94 70.7996C121.27 69.3096 120.74 67.7696 120.34 66.1896C120.05 65.0696 119.79 63.9496 119.51 62.8296C119.18 60.9896 118.68 59.1996 117.93 57.4796C116.91 55.1596 115.18 53.5696 112.93 52.4896C109.95 51.0596 106.79 50.5896 103.52 50.8796C102.58 50.9596 101.65 51.1996 100.72 51.3596C100.6 51.3796 100.47 51.3196 100.35 51.2896C103.04 49.7496 105.91 48.6296 108.84 47.6596C112.1 46.5896 115.43 45.8296 118.79 45.1496C118.96 45.1296 119.13 45.1296 119.3 45.1196Z" fill="#1B8686"/>
<path d="M187.92 52.0797C188.05 52.0197 188.18 51.9496 188.32 51.8896C188.79 52.0696 189.24 52.2796 189.55 52.7096C188.95 52.6596 188.43 52.3797 187.92 52.0797Z" fill="#3D9F9F"/>
<path d="M172.42 64.3599C173.75 64.7999 174.96 65.4799 176.17 66.1799C179.11 67.8699 181.68 70.0299 183.95 72.5399C185.78 74.5599 187.32 76.7999 188.61 79.1999C190.57 82.8399 191.93 86.7099 193.03 90.6799C193.64 92.8699 194.15 95.0899 194.56 97.3199C194.85 98.9199 195.07 100.53 195.27 102.15C195.43 103.5 195.51 104.85 195.63 106.2C195.64 106.3 195.64 106.4 195.64 106.51C195.53 108.85 195.38 111.19 194.54 113.41C193.85 115.24 192.9 116.9 191.61 118.39C189.98 120.27 188 121.67 185.86 122.88C183.12 124.42 180.17 125.43 177.18 126.36C177.09 126.39 176.98 126.38 176.88 126.39C176.76 126.35 176.63 126.26 176.51 126.27C176.31 126.29 176.12 126.41 175.92 126.42C174.7 126.44 173.52 126.81 172.3 126.89C171.16 126.97 170.03 127.25 168.88 127.26C168.78 127.26 168.67 127.25 168.58 127.29C168.02 127.51 167.44 127.45 166.87 127.46C166.67 127.47 166.45 127.44 166.26 127.51C165.76 127.7 165.25 127.65 164.75 127.66C164.51 127.67 164.26 127.62 164.04 127.68C163.11 127.95 162.15 127.83 161.2 127.87C160.96 127.88 160.73 127.9 160.49 127.92C160.05 127.96 159.62 128.04 159.18 128.06C158.43 128.08 157.68 128.06 156.94 128.08C156.67 128.08 156.4 128.13 156.13 128.16C155.79 128.2 155.46 128.27 155.12 128.27C151.28 128.28 147.43 128.28 143.59 128.28C143.35 128.28 143.1 128.32 142.88 128.25C142.21 128.03 141.53 128.1 140.86 128.08C140.59 128.07 140.31 128.09 140.05 128.05C139.11 127.93 138.18 127.76 137.24 127.69C135.92 127.59 134.63 127.32 133.34 127.08C130.8 126.62 128.31 125.99 125.86 125.19C122.7 124.15 119.59 123 116.67 121.35C114.98 120.4 113.35 119.38 111.81 118.2C110.65 117.31 109.52 116.4 108.53 115.32C108.19 114.95 107.89 114.53 107.55 114.16C106.68 113.2 106 112.11 105.37 110.98C104.9 110.14 104.63 109.23 104.35 108.32C103.89 106.86 103.6 105.37 103.61 103.83C103.61 102.74 103.61 101.65 103.61 100.56C103.61 100.32 103.59 100.08 103.63 99.8499C103.82 98.6499 104.02 97.4499 104.21 96.2499C104.53 94.3399 105.09 92.4799 105.71 90.6599C106.51 88.3199 107.51 86.0399 108.67 83.8499C108.94 83.3399 109.23 82.8399 109.52 82.3399C109.98 81.5499 110.41 80.7399 110.91 79.9699C112.16 78.0299 113.44 76.1199 114.9 74.3299C115.72 73.3299 116.52 72.3299 117.45 71.4299C117.56 71.3199 117.7 71.2599 117.87 71.1399C117.97 71.3199 118.04 71.4399 118.08 71.5599C118.59 72.8999 119.24 74.1799 120.06 75.3399C121 76.6599 122.02 77.9199 123.33 78.9399C124.73 80.0299 126.2 81.0099 127.8 81.7399C129.8 82.6599 131.84 83.5099 133.99 84.0499C135.7 84.4799 137.4 84.9299 139.17 84.9899C139.31 84.9899 139.45 84.9899 139.57 85.0399C140.03 85.2299 140.51 85.1699 140.98 85.1899C141.93 85.2399 142.88 85.0699 143.82 85.3399C143.91 85.3699 144.03 85.3599 144.12 85.3199C144.61 85.1199 145.13 85.2099 145.63 85.1899C146.28 85.1699 146.93 85.2299 147.57 85.1499C148.81 84.9999 150.04 84.7999 151.27 84.5599C153.23 84.1799 155.18 83.7599 157.04 82.9699C157.51 82.7699 157.97 82.5499 158.44 82.3699C160.84 81.4799 162.86 80.0099 164.69 78.2599C165.18 77.7899 165.6 77.2599 166.03 76.7299C166.48 76.1799 166.94 75.6299 167.35 75.0499C168.68 73.1499 169.8 71.1299 170.76 69.0299C171.3 67.8299 171.76 66.5799 172.22 65.3399C172.34 65.0399 172.36 64.6899 172.42 64.3599ZM192.21 105.58C192.24 104.58 192.02 103.62 191.68 102.7C191.54 102.32 191.35 101.95 191.13 101.62C190.28 100.38 188.32 100.39 187.57 101.35C187.38 101.59 187.19 101.82 187.03 102.08C186.6 102.78 186.35 103.57 186.14 104.35C185.81 105.56 185.37 106.74 184.96 107.92C184.4 109.56 183.36 110.84 182.07 111.91C180.86 112.92 179.78 114.04 178.69 115.16C177.89 115.99 177.42 117 177.51 118.2C177.58 119.07 177.95 119.77 178.67 120.25C179.62 120.88 180.69 121.06 181.8 120.86C183.01 120.64 184.12 120.13 185.17 119.48C185.99 118.97 186.6 118.22 187.28 117.57C188.61 116.31 189.5 114.73 190.26 113.1C190.86 111.81 191.37 110.47 191.68 109.08C191.93 107.93 192.2 106.77 192.21 105.58ZM169.75 120.36C169.66 121.46 170.25 122.1 171.08 122.6C171.81 123.05 172.54 123.07 173.28 122.61C173.6 122.41 173.93 122.24 174.22 122.01C174.93 121.47 175.34 120.81 175.29 119.84C175.24 119.01 174.9 118.42 174.2 118.02C173.13 117.4 172.04 117.43 171.05 118.13C170.3 118.68 169.61 119.32 169.75 120.36Z" fill="#D5E7EC"/>
<path d="M172.42 64.3599C172.36 64.6899 172.34 65.0399 172.22 65.3499C171.75 66.5899 171.3 67.8299 170.76 69.0399C169.81 71.1499 168.68 73.1599 167.35 75.0599C166.94 75.6399 166.49 76.1899 166.03 76.7399C165.6 77.2599 165.18 77.7999 164.69 78.2699C162.86 80.0199 160.84 81.4799 158.44 82.3799C157.96 82.5599 157.51 82.7799 157.04 82.9799C155.19 83.7599 153.24 84.1899 151.27 84.5699C150.04 84.7999 148.81 84.9999 147.57 85.1599C146.93 85.2399 146.28 85.1799 145.63 85.1999C145.12 85.2099 144.61 85.1299 144.12 85.3299C144.03 85.3699 143.91 85.3699 143.82 85.3499C142.88 85.0799 141.93 85.2499 140.98 85.1999C140.51 85.1799 140.03 85.2399 139.57 85.0499C139.45 84.9999 139.3 85.0099 139.17 84.9999C137.4 84.9399 135.7 84.4899 133.99 84.0599C131.84 83.5199 129.8 82.6799 127.8 81.7499C126.2 81.0099 124.74 80.0299 123.33 78.9499C122.01 77.9299 120.99 76.6799 120.06 75.3499C119.24 74.1899 118.59 72.9099 118.08 71.5699C118.03 71.4499 117.96 71.3399 117.87 71.1499C117.7 71.2599 117.56 71.3299 117.45 71.4399C116.52 72.3399 115.71 73.3399 114.9 74.3399C113.44 76.1299 112.16 78.0499 110.91 79.9799C110.41 80.7499 109.98 81.5599 109.52 82.3499C109.23 82.8499 108.94 83.3499 108.67 83.8599C107.51 86.0599 106.51 88.3299 105.71 90.6699C105.09 92.4899 104.53 94.3499 104.21 96.2599C104.01 97.4599 103.81 98.6599 103.63 99.8599C103.59 100.09 103.61 100.34 103.61 100.57C103.61 101.66 103.61 102.75 103.61 103.84C103.61 105.38 103.89 106.87 104.35 108.33C104.64 109.24 104.91 110.15 105.37 110.99C106 112.12 106.68 113.21 107.55 114.17C107.89 114.55 108.19 114.96 108.53 115.33C109.52 116.41 110.66 117.32 111.81 118.21C113.35 119.39 114.98 120.41 116.67 121.36C119.59 123 122.69 124.16 125.86 125.2C128.31 126 130.8 126.63 133.34 127.09C134.64 127.32 135.92 127.6 137.24 127.7C138.18 127.77 139.11 127.95 140.05 128.06C140.32 128.09 140.59 128.08 140.86 128.09C141.54 128.11 142.22 128.04 142.88 128.26C143.1 128.33 143.35 128.29 143.59 128.29C147.43 128.29 151.28 128.29 155.12 128.28C155.46 128.28 155.79 128.21 156.13 128.17C156.4 128.14 156.67 128.1 156.94 128.09C157.69 128.08 158.44 128.1 159.18 128.07C159.62 128.06 160.05 127.98 160.49 127.93C160.73 127.91 160.96 127.88 161.2 127.88C162.15 127.84 163.1 127.96 164.04 127.69C164.26 127.63 164.51 127.68 164.75 127.67C165.26 127.65 165.77 127.71 166.26 127.52C166.44 127.45 166.66 127.48 166.87 127.47C167.45 127.46 168.03 127.51 168.58 127.3C168.67 127.26 168.78 127.27 168.88 127.27C170.03 127.26 171.16 126.98 172.3 126.9C173.52 126.81 174.7 126.45 175.92 126.43C176.12 126.43 176.31 126.3 176.51 126.28C176.63 126.27 176.76 126.35 176.88 126.4C175.43 126.76 173.99 127.17 172.53 127.46C170.63 127.84 168.72 128.16 166.81 128.43C165.26 128.65 163.7 128.76 162.15 128.92C161 129.03 159.85 129.14 158.7 129.25C158.6 129.26 158.5 129.27 158.4 129.28C156.84 129.37 155.28 129.45 153.72 129.54C151.96 129.65 150.19 129.77 148.43 129.88C148.23 129.89 148.02 129.9 147.82 129.9C144.18 129.9 140.54 129.93 136.9 129.89C135.44 129.87 133.99 129.69 132.53 129.57C130.7 129.42 128.87 129.26 127.05 129.09C126.04 129 125.02 128.87 124.01 128.76C123.27 128.68 122.53 128.59 121.78 128.52C119.48 128.3 117.2 127.9 114.94 127.45C111.64 126.79 108.41 125.85 105.28 124.59C102.94 123.65 100.72 122.47 98.7 120.93C96.18 119.01 94.27 116.63 93.15 113.64C92.64 112.26 92.34 110.84 92.16 109.38C92.03 108.3 91.95 107.21 92.01 106.12C92.08 104.76 92.22 103.41 92.34 102.06C92.54 99.8599 92.95 97.6899 93.41 95.5299C94.54 90.1899 96.08 84.9799 98.54 80.0799C100.56 76.0499 103.29 72.5499 106.69 69.5899C109.22 67.3899 112.06 65.6499 115.16 64.3499C115.41 64.2499 115.64 64.1099 115.88 63.9799C116.61 63.7399 117.34 63.4799 118.08 63.2499C118.56 63.0999 119.05 62.9899 119.54 62.8599C119.82 63.9799 120.08 65.0999 120.37 66.2199C120.77 67.7999 121.3 69.3399 121.97 70.8299C123.01 73.1299 124.59 74.9399 126.68 76.3299C128.8 77.7399 131.11 78.6999 133.53 79.3999C136.34 80.2199 139.22 80.6799 142.14 80.9299C144.35 81.1199 146.55 81.0799 148.76 80.8699C152.36 80.5199 155.86 79.7099 159.19 78.2699C161.35 77.3299 163.14 75.8899 164.59 74.0399C164.86 73.6999 165.05 73.2999 165.28 72.9199C166.33 71.4499 167.03 69.7999 167.51 68.0799C167.98 66.4299 168.35 64.7399 168.77 63.0799C169.25 63.2099 169.74 63.3199 170.22 63.4699C170.89 63.6899 171.55 63.9299 172.21 64.1699C172.27 64.2199 172.35 64.2899 172.42 64.3599Z" fill="#B8D7CF"/>
<path d="M204.86 81.0496C204.89 81.8196 204.9 82.4896 204.64 83.1396C204.41 83.7096 204.09 84.2096 203.66 84.6696C203.06 85.3096 202.33 85.4896 201.53 85.3396C200.76 85.1896 200.04 84.8996 199.45 84.3396C198.39 83.3196 197.54 82.1596 196.79 80.8896C195.88 79.3596 195.2 77.7396 194.47 76.1296C193.03 72.9696 191.28 69.9896 189.32 67.1396C188.57 66.0496 187.73 65.0296 186.78 64.0996C186.25 63.5696 185.71 63.0496 185.2 62.5096C184.9 62.1896 184.6 61.8496 184.4 61.4596C184.17 61.0196 183.98 60.5696 184.15 60.0096C184.35 59.3396 184.77 59.0096 185.4 58.8196C186.55 58.4796 187.6 58.8296 188.63 59.2696C189.98 59.8496 191.19 60.6696 192.35 61.5496C194.19 62.9496 195.9 64.5096 197.44 66.2196C198.94 67.8796 200.26 69.6896 201.47 71.5696C202.86 73.7296 203.88 76.0496 204.58 78.5096C204.82 79.3596 204.97 80.2396 204.86 81.0496Z" fill="#9FD5D8"/>
<path d="M172.19 64.1499C171.53 63.9199 170.87 63.6699 170.2 63.4499C169.72 63.2999 169.23 63.1899 168.75 63.0599C169.18 61.4599 169.5 59.8299 170.16 58.2899C170.75 56.8999 171.55 55.6399 172.56 54.5299C173.53 53.4599 174.71 52.6499 176.06 52.1299C177.84 51.4399 179.68 51.0299 181.61 51.0199C183.18 51.0099 184.72 51.1799 186.25 51.5099C186.34 51.5299 186.42 51.6099 186.51 51.6699C186 51.6599 185.52 51.7599 185.04 51.9799C184.27 52.3199 183.46 52.5699 182.67 52.8699C180.69 53.6299 178.97 54.7799 177.37 56.1799C175.9 57.4699 174.77 58.9999 173.84 60.6899C173.42 61.4599 173.16 62.3099 172.83 63.1199C172.73 63.3699 172.69 63.6499 172.56 63.8799C172.51 63.9999 172.32 64.0599 172.19 64.1499Z" fill="#3D9F9F"/>
<path d="M202.01 88.7397C201.95 88.0897 202.03 87.4597 202.55 86.9697C203.23 86.3297 204.35 85.8997 205.42 86.6097C206.41 87.2697 206.88 88.1497 206.91 89.3297C206.93 89.9997 206.81 90.6097 206.44 91.1697C205.73 92.2697 204.24 92.4797 203.24 91.6197C202.37 90.8697 201.92 89.9297 202.01 88.7397Z" fill="#9FD5D8"/>
<path d="M157.22 46.5598C159.77 46.5498 162.2 47.0598 164.48 48.2198C164.9 48.4298 165.3 48.6998 165.68 48.9798C166.09 49.2898 166.42 49.6998 166.48 50.2398C166.62 51.4698 166.1 51.9198 164.95 52.2598C164.08 52.2098 163.22 52.6298 162.33 52.3398C162.05 52.2498 161.72 52.3198 161.42 52.2998C159.08 52.1198 156.78 51.7498 154.59 50.8698C154.05 50.6498 153.58 50.3298 153.16 49.9198C152.29 49.0698 152.56 48.0598 153.42 47.3898C154.1 46.8598 154.93 46.6198 155.79 46.5698C156.27 46.5398 156.75 46.5598 157.22 46.5598Z" fill="#9FD5D8"/>
<path d="M165.41 56.9598C164.98 56.8598 164.48 56.7998 164.01 56.6298C163.74 56.5298 163.47 56.3098 163.32 56.0698C162.87 55.3798 163.21 54.4698 164.02 54.1698C165.04 53.7898 166.01 54.0298 166.94 54.4898C167.03 54.5298 167.1 54.6198 167.17 54.6898C168.1 55.6198 167.62 56.2398 166.68 56.7198C166.33 56.8998 165.88 56.8798 165.41 56.9598Z" fill="#9FD5D8"/>
<path d="M192.21 105.58C192.2 106.77 191.93 107.93 191.68 109.09C191.37 110.49 190.86 111.83 190.26 113.11C189.5 114.74 188.62 116.32 187.28 117.58C186.59 118.23 185.99 118.98 185.17 119.49C184.12 120.14 183.01 120.65 181.8 120.87C180.7 121.07 179.62 120.88 178.67 120.26C177.95 119.78 177.57 119.08 177.51 118.21C177.41 117 177.88 115.99 178.69 115.17C179.78 114.05 180.86 112.93 182.07 111.92C183.36 110.85 184.4 109.57 184.96 107.93C185.37 106.74 185.81 105.57 186.14 104.36C186.35 103.58 186.61 102.79 187.03 102.09C187.19 101.83 187.38 101.6 187.57 101.36C188.32 100.4 190.28 100.39 191.13 101.63C191.36 101.96 191.54 102.33 191.68 102.71C192.02 103.62 192.24 104.58 192.21 105.58Z" fill="white"/>
<path d="M169.75 120.36C169.61 119.32 170.29 118.67 171.05 118.15C172.04 117.45 173.13 117.42 174.2 118.04C174.89 118.44 175.24 119.02 175.29 119.86C175.35 120.82 174.94 121.49 174.22 122.03C173.93 122.25 173.59 122.43 173.28 122.63C172.54 123.09 171.82 123.07 171.08 122.62C170.26 122.1 169.66 121.46 169.75 120.36Z" fill="white"/>
<path d="M144.09 77.0097C148.812 77.0097 152.64 71.4088 152.64 64.4997C152.64 57.5907 148.812 51.9897 144.09 51.9897C139.368 51.9897 135.54 57.5907 135.54 64.4997C135.54 71.4088 139.368 77.0097 144.09 77.0097Z" fill="#58ACAF"/>
<path d="M158.53 83.3301C159.05 82.8801 159.65 82.9301 160.25 83.0801C160.56 83.1601 160.85 83.3001 161.13 83.4401C163.56 84.6001 165.99 85.7601 168.41 86.9201C168.96 87.1801 169.51 87.4401 170.04 87.7401C170.39 87.9401 170.73 88.1701 171.03 88.4401C172.02 89.3201 172.4 90.4101 172.09 91.7201C171.9 91.7901 171.71 91.8601 171.52 91.9201C171.22 92.0201 170.92 92.1801 170.61 92.2101C169.51 92.2901 168.42 92.2701 167.35 91.9401C165.77 91.4601 164.24 90.8601 162.78 90.0801C161.79 89.5501 160.85 88.9401 160.05 88.1101C159.03 87.0501 158.47 85.8501 158.53 84.3801C158.54 84.0301 158.53 83.6801 158.53 83.3301Z" fill="#5FA191"/>
<path d="M158.53 83.3301C158.53 83.6801 158.55 84.0301 158.53 84.3701C158.48 85.8501 159.03 87.0501 160.05 88.1001C160.85 88.9301 161.79 89.5301 162.78 90.0701C164.24 90.8501 165.77 91.4601 167.35 91.9301C168.42 92.2501 169.52 92.2701 170.61 92.2001C170.92 92.1801 171.21 92.0201 171.52 91.9101C171.71 91.8501 171.9 91.7701 172.09 91.7101C172.04 92.4301 171.71 93.0401 171.27 93.5901C170.73 94.2601 170.02 94.6101 169.16 94.6701C168.34 94.7201 167.54 94.6101 166.75 94.4001C165.66 94.1001 164.6 93.7101 163.56 93.2501C162.05 92.5801 160.58 91.8301 159.18 90.9301C158.62 90.5701 158.1 90.1501 157.65 89.6501C156.8 88.7001 156.49 87.5901 156.69 86.3401C156.82 85.5601 157.1 84.8301 157.57 84.1801C157.83 83.8301 158.07 83.4601 158.53 83.3301Z" fill="#538A8A"/>
<path d="M113.77 86.6402C114.15 86.1202 114.73 85.8902 115.31 85.7302C116.09 85.5102 116.89 85.3502 117.68 85.2002C119.62 84.8402 121.56 84.5102 123.5 84.1502C124.18 84.0202 124.86 83.8702 125.54 83.7202C127.45 83.3002 128.4 84.2602 128.8 85.7402C128.92 86.1902 128.99 86.6502 128.93 87.1102C128.18 87.7002 127.43 88.2802 126.58 88.7302C125.06 89.5402 123.44 90.0602 121.76 90.3902C120.86 90.5702 119.94 90.6702 119.02 90.7602C118 90.8602 117 90.6502 116.02 90.3802C115.03 90.1102 114.29 89.5002 113.98 88.4402C113.81 87.8402 113.75 87.2502 113.77 86.6402Z" fill="#5EA091"/>
<path d="M113.77 86.6401C113.75 87.2501 113.81 87.8401 113.99 88.4401C114.31 89.5001 115.04 90.1101 116.03 90.3801C117 90.6501 118 90.8601 119.03 90.7601C119.95 90.6701 120.87 90.5701 121.77 90.3901C123.45 90.0601 125.07 89.5401 126.59 88.7301C127.44 88.2801 128.2 87.7101 128.94 87.1101C129.06 88.5601 128.5 89.7001 127.34 90.5501C126.77 90.9601 126.13 91.2301 125.47 91.4501C123.67 92.0301 121.84 92.4201 119.97 92.6801C118.85 92.8401 117.72 92.8901 116.59 92.8601C115.98 92.8401 115.38 92.7301 114.8 92.5301C113.83 92.1901 113.18 91.5201 112.89 90.5401C112.5 89.2501 112.61 88.0201 113.45 86.9101C113.52 86.8001 113.66 86.7301 113.77 86.6401Z" fill="#538A8A"/>
<path d="M127.35 103.86C127.28 103.49 126.99 103.4 126.77 103.27C125.11 102.24 123.33 101.49 121.45 100.97C116.29 99.5602 111.22 99.8802 106.23 101.76C105.82 101.92 105.41 102.1 104.99 102.22C104.36 102.41 103.81 102.15 103.54 101.6C103.27 101.06 103.45 100.46 103.99 100.09C104.16 99.9802 104.35 99.8902 104.53 99.8102C106.82 98.8102 109.22 98.2002 111.69 97.8802C113.93 97.5902 116.17 97.5702 118.41 97.8702C121.96 98.3402 125.29 99.4402 128.33 101.37C129.37 102.03 130.32 102.8 131.12 103.74C131.32 103.97 131.52 104.21 131.66 104.48C132.09 105.29 131.62 106.19 130.71 106.31C130.54 106.33 130.37 106.33 130.2 106.32C125.08 106.12 120.39 107.51 116.03 110.12C114.42 111.08 112.88 112.13 111.52 113.44C111.4 113.56 111.27 113.68 111.13 113.77C110.59 114.13 109.98 114.06 109.56 113.6C109.19 113.2 109.15 112.58 109.49 112.09C109.62 111.9 109.79 111.72 109.96 111.56C110.33 111.21 110.71 110.86 111.11 110.55C115.05 107.46 119.41 105.26 124.36 104.32C125.13 104.17 125.91 104.1 126.68 103.99C126.9 103.95 127.12 103.9 127.35 103.86Z" fill="#3D3747"/>
<path d="M160.27 103.88C160.98 103.97 161.62 104.05 162.25 104.14C166.17 104.73 169.79 106.12 173.16 108.2C174.64 109.11 176.07 110.09 177.36 111.26C177.66 111.53 177.96 111.83 178.19 112.16C178.54 112.67 178.43 113.35 177.96 113.72C177.59 114.02 177.16 114.11 176.72 113.88C176.48 113.76 176.27 113.57 176.07 113.4C171.92 109.72 167.14 107.36 161.65 106.52C160.34 106.32 159.01 106.25 157.68 106.31C157.44 106.32 157.2 106.35 156.97 106.32C156.01 106.22 155.53 105.29 156 104.43C156.13 104.19 156.31 103.98 156.48 103.77C157.21 102.9 158.07 102.19 159 101.56C161.37 99.9703 163.98 98.9203 166.76 98.3103C172.27 97.0903 177.64 97.5903 182.85 99.7203C183.13 99.8303 183.42 99.9603 183.67 100.13C184.17 100.47 184.33 101.04 184.1 101.56C183.86 102.12 183.3 102.4 182.68 102.24C182.39 102.16 182.1 102.05 181.82 101.93C178.33 100.48 174.69 99.9303 170.95 100.16C167.51 100.37 164.26 101.31 161.26 103.03C160.97 103.2 160.69 103.4 160.41 103.59C160.36 103.61 160.35 103.7 160.27 103.88Z" fill="#3D3747"/>
<path d="M144.65 100.47C145.99 100.45 147.15 100.88 148.2 101.64C149.21 102.37 149.97 103.32 150.56 104.41C151.52 106.18 151.9 108.1 151.98 110.09C151.99 110.26 151.98 110.43 151.95 110.6C151.9 110.87 151.61 111.1 151.38 111.09C151.13 111.08 150.86 110.86 150.82 110.58C150.79 110.35 150.79 110.11 150.78 109.87C150.72 108.5 150.47 107.17 149.95 105.9C149.55 104.91 149.01 104.02 148.26 103.25C146.46 101.42 144.02 101.13 141.85 102.5C140.82 103.15 140.02 104.01 139.36 105.02C138.36 106.55 137.78 108.25 137.51 110.05C137.47 110.35 137.41 110.65 137.32 110.94C137.25 111.17 136.96 111.29 136.74 111.24C136.49 111.19 136.29 111 136.28 110.76C136.27 110.52 136.27 110.28 136.3 110.05C136.6 107.9 137.29 105.89 138.53 104.09C139.27 103.01 140.17 102.1 141.3 101.42C142.34 100.81 143.45 100.44 144.65 100.47Z" fill="#4F475D"/>
</svg>
