<svg width="36" height="36" viewBox="0 0 36 36" fill="none" xmlns="http://www.w3.org/2000/svg">
<path d="M12.0501 5.48676C12.569 4.17108 14.431 4.17108 14.9499 5.48677L16.5579 9.56398C16.7163 9.96567 17.0343 10.2836 17.436 10.4421L21.5133 12.0501C22.8289 12.569 22.8289 14.431 21.5133 14.9499L17.436 16.5579C17.0343 16.7163 16.7163 17.0343 16.5579 17.436L14.9499 21.5133C14.431 22.8289 12.569 22.8289 12.0501 21.5133L10.4421 17.436C10.2836 17.0343 9.96567 16.7163 9.56398 16.5579L5.48676 14.9499C4.17108 14.431 4.17108 12.569 5.48677 12.0501L9.56398 10.4421C9.96567 10.2836 10.2836 9.96567 10.4421 9.56398L12.0501 5.48676Z" fill="#EDF7F7"/>
<path d="M24.7329 20.0221C25.0074 19.326 25.9929 19.326 26.2674 20.0221L27.4683 23.0671C27.5521 23.2797 27.7204 23.448 27.933 23.5318L30.978 24.7327C31.6741 25.0072 31.6741 25.9927 30.978 26.2672L27.933 27.4681C27.7204 27.552 27.5521 27.7203 27.4683 27.9328L26.2674 30.9778C25.9929 31.674 25.0074 31.674 24.7329 30.9778L23.532 27.9328C23.4481 27.7203 23.2798 27.552 23.0673 27.4681L20.0223 26.2672C19.3261 25.9927 19.3261 25.0072 20.0223 24.7327L23.0673 23.5318C23.2798 23.448 23.4481 23.2797 23.532 23.0671L24.7329 20.0221Z" fill="#EDF7F7"/>
</svg>
