<svg width="36" height="36" viewBox="0 0 36 36" fill="none" xmlns="http://www.w3.org/2000/svg">
<path d="M26.732 21.7175L27.261 19.4935C27.4036 18.8939 27.5157 18.4215 27.5929 18.0355C27.5996 18.002 27.6059 17.9696 27.6119 17.9382C27.4442 17.8528 27.2863 17.7523 27.1397 17.6388C26.8301 17.8573 26.4215 18.1698 25.8622 18.6012L25.8265 18.6288C25.4891 18.8891 25.1776 19.1295 24.9024 19.2997C24.6092 19.481 24.2384 19.6609 23.7864 19.6658C23.3957 19.6701 23.0112 19.5659 22.6762 19.3646C22.2886 19.1316 22.0598 18.7886 21.8988 18.4839C21.7481 18.1982 21.6015 17.8339 21.443 17.4398L21.4255 17.3962L19.5976 12.8515C19.5148 12.6455 19.439 12.4571 19.3684 12.2844C19.1177 12.305 18.8614 12.3001 18.6028 12.2672C18.3442 12.2343 18.0948 12.1751 17.8573 12.0924C17.7457 12.242 17.6252 12.4055 17.4935 12.5842L14.5873 16.5275L14.5586 16.5665C14.3069 16.908 14.0742 17.2238 13.857 17.4623C13.625 17.7171 13.3177 17.992 12.8841 18.1207C12.5094 18.2318 12.1112 18.2366 11.7339 18.1347C11.2976 18.017 10.9835 17.75 10.745 17.5012C10.5208 17.2674 10.279 16.9563 10.0172 16.6195L9.99027 16.5849C9.55662 16.0273 9.23909 15.6226 8.99399 15.3336C8.82363 15.4068 8.64561 15.4647 8.46194 15.5055C8.45989 15.5373 8.45792 15.5703 8.45602 15.6044C8.43412 15.9975 8.42465 16.4829 8.41281 17.0992L8.36889 19.3848C8.36123 19.7836 8.35227 20.1721 8.34355 20.5499C8.31031 21.9899 8.2807 23.273 8.3408 24.3688C8.37838 25.0538 8.44952 25.6213 8.56323 26.0731C8.67827 26.5302 8.82108 26.8042 8.95716 26.9612C9.32787 27.3888 9.8568 27.694 10.8297 27.9462C11.8298 28.2055 13.1615 28.3766 15.0634 28.6182L17.9414 28.9838C19.8433 29.2254 21.1755 29.3928 22.2087 29.3918C23.2137 29.3908 23.8022 29.2275 24.268 28.9062C24.439 28.7883 24.6459 28.5587 24.8714 28.1448C25.0945 27.7358 25.3053 27.2042 25.513 26.5503C25.845 25.5048 26.137 24.2557 26.4648 22.8538C26.5509 22.4853 26.6395 22.1063 26.732 21.7175Z" fill="#DCB14C"/>
<path d="M28.8484 16.2569C29.3962 16.3265 29.8968 15.9387 29.9664 15.3908C30.036 14.843 29.6483 14.3424 29.1004 14.2728C28.5525 14.2032 28.052 14.5909 27.9824 15.1388C27.9508 15.3873 28.0123 15.6238 28.1408 15.8173C28.2952 16.0499 28.5421 16.2144 28.8365 16.2553L28.8484 16.2569Z" fill="#DCB14C"/>
<path d="M19.2749 6.97639C18.3617 6.86038 17.5275 7.50659 17.4115 8.41973C17.33 9.06129 17.6243 9.66567 18.1279 10.0088C18.3373 10.1515 18.5829 10.2486 18.8548 10.2831C19.1268 10.3177 19.3889 10.2851 19.6273 10.1993C20.2007 9.99296 20.6368 9.48137 20.7183 8.83981C20.8343 7.92666 20.1881 7.0924 19.2749 6.97639Z" fill="#DCB14C"/>
<path fill-rule="evenodd" clip-rule="evenodd" d="M26.732 21.7175L27.261 19.4935C27.4036 18.8939 27.5157 18.4215 27.5929 18.0355C27.5996 18.002 27.6059 17.9696 27.6119 17.9382C27.4442 17.8528 27.2863 17.7523 27.1397 17.6388C26.8301 17.8573 26.4215 18.1698 25.8622 18.6012L25.8265 18.6288C25.4891 18.8891 25.1776 19.1295 24.9024 19.2997C24.6092 19.481 24.2384 19.6609 23.7864 19.6658C23.3957 19.6701 23.0112 19.5659 22.6762 19.3646C22.2886 19.1316 22.0598 18.7886 21.8988 18.4839C21.7481 18.1982 21.6015 17.8339 21.443 17.4398L21.4255 17.3962L19.5976 12.8515C19.5148 12.6455 19.439 12.4571 19.3684 12.2844C19.1177 12.305 18.8614 12.3001 18.6028 12.2672C18.3442 12.2343 18.0948 12.1751 17.8573 12.0924C17.7457 12.242 17.6252 12.4055 17.4935 12.5842L14.5873 16.5275L14.5586 16.5665C14.3069 16.908 14.0742 17.2238 13.857 17.4623C13.625 17.7171 13.3177 17.992 12.8841 18.1207C12.5094 18.2318 12.1112 18.2366 11.7339 18.1347C11.2976 18.017 10.9835 17.75 10.745 17.5012C10.5208 17.2674 10.279 16.9563 10.0172 16.6195L9.99027 16.5849C9.55662 16.0273 9.23909 15.6226 8.99399 15.3336C8.82363 15.4068 8.64561 15.4647 8.46194 15.5055C8.45989 15.5373 8.45792 15.5703 8.45602 15.6044C8.43412 15.9975 8.42465 16.4829 8.41281 17.0992L8.36889 19.3848C8.36123 19.7836 8.35227 20.1721 8.34355 20.5499C8.31031 21.9899 8.2807 23.273 8.3408 24.3688C8.37838 25.0538 8.44952 25.6213 8.56323 26.0731C8.67827 26.5302 8.82108 26.8042 8.95716 26.9612C9.32787 27.3888 9.8568 27.694 10.8297 27.9462C11.8298 28.2055 13.1615 28.3766 15.0634 28.6182L17.9414 28.9838C19.8433 29.2254 21.1755 29.3928 22.2087 29.3918C23.2137 29.3908 23.8022 29.2275 24.268 28.9062C24.439 28.7883 24.6459 28.5587 24.8714 28.1448C25.0945 27.7358 25.3053 27.2042 25.513 26.5503C25.845 25.5048 26.137 24.2557 26.4648 22.8538C26.5509 22.4853 26.6395 22.1063 26.732 21.7175ZM6.4739 15.2627C6.46829 15.3387 6.46343 15.4157 6.45911 15.4932C6.43495 15.927 6.42493 16.4487 6.41348 17.0456L6.41319 17.0607L6.36926 19.3463C6.36209 19.7197 6.35346 20.0913 6.34492 20.4589C6.31123 21.9095 6.279 23.2968 6.34381 24.4783C6.38477 25.2253 6.46601 25.9345 6.6237 26.5611C6.78005 27.1826 7.02762 27.7889 7.4461 28.2715C8.18449 29.123 9.1479 29.5763 10.3278 29.8823C11.4666 30.1774 12.9264 30.3628 14.7445 30.5937L14.8114 30.6022L17.6893 30.9678L17.7562 30.9763C19.5743 31.2073 21.0341 31.3928 22.2105 31.3918C23.4294 31.3906 24.4757 31.1926 25.4034 30.5527C25.9293 30.1901 26.3206 29.6649 26.6274 29.1023C26.9367 28.535 27.1927 27.8687 27.4192 27.1556C27.7771 26.0286 28.0926 24.6782 28.4225 23.2662C28.5063 22.9073 28.5911 22.5445 28.6777 22.1803L29.2067 19.9563L29.2141 19.9251C29.3505 19.3512 29.4698 18.8492 29.5541 18.4271C29.5693 18.3509 29.5838 18.2753 29.5974 18.2002C30.811 17.9427 31.7853 16.9431 31.9505 15.6429C32.1593 13.9993 30.996 12.4975 29.3525 12.2887C27.7089 12.0799 26.2071 13.2431 25.9983 14.8868C25.9516 15.2548 25.9738 15.6162 26.0549 15.9577C25.6658 16.2262 25.2333 16.5601 24.7575 16.9274C24.7188 16.9573 24.6798 16.9874 24.6405 17.0177C24.255 17.3151 24.0265 17.4898 23.8503 17.5988C23.7944 17.6333 23.7573 17.6524 23.7355 17.6625L23.7334 17.6619C23.7198 17.6423 23.6977 17.6073 23.6674 17.55C23.5709 17.3672 23.4626 17.1013 23.2811 16.6499L21.4533 12.1052L21.447 12.0896C21.3762 11.9135 21.3077 11.7434 21.2413 11.5804C22.0188 11.0068 22.5707 10.1279 22.7023 9.09185C22.9575 7.08296 21.5359 5.24754 19.527 4.99233C17.518 4.73713 15.6827 6.15879 15.4274 8.16768C15.2958 9.20373 15.6105 10.1927 16.2198 10.9426C16.1143 11.0843 16.0051 11.2326 15.8919 11.3861L15.8834 11.3977L12.9773 15.3409C12.6887 15.7326 12.5173 15.963 12.3782 16.1158C12.3345 16.1637 12.3044 16.1921 12.2863 16.2077L12.2841 16.2077C12.2656 16.1926 12.2343 16.1648 12.1889 16.1173C12.0455 15.9678 11.868 15.7415 11.569 15.3572C11.5385 15.3179 11.5082 15.2789 11.4781 15.2402C11.1093 14.7657 10.7741 14.3344 10.4646 13.9772C10.6285 13.6669 10.7405 13.3224 10.7872 12.9544C10.996 11.3108 9.83285 9.80905 8.1892 9.60025C6.54556 9.39145 5.04385 10.5546 4.83505 12.1983C4.66988 13.4985 5.36327 14.7099 6.4739 15.2627ZM7.58254 14.5632L8.53959 14.8174L9.14841 14.0635L8.48011 13.3197C8.65291 13.1644 8.77159 12.9509 8.80316 12.7024C8.87276 12.1545 8.48503 11.6539 7.93716 11.5843C7.38928 11.5147 6.88871 11.9024 6.81911 12.4503C6.74951 12.9982 7.13723 13.4988 7.68511 13.5684L7.69708 13.5698L7.58254 14.5632ZM19.2749 6.97639C18.3617 6.86038 17.5275 7.50659 17.4115 8.41973C17.33 9.06129 17.6243 9.66567 18.1279 10.0088C18.3373 10.1515 18.5829 10.2486 18.8548 10.2831C19.1268 10.3177 19.3889 10.2851 19.6273 10.1993C20.2007 9.99296 20.6368 9.48137 20.7183 8.83981C20.8343 7.92666 20.1881 7.0924 19.2749 6.97639ZM28.8484 16.2569C29.3962 16.3265 29.8968 15.9387 29.9664 15.3908C30.036 14.843 29.6483 14.3424 29.1004 14.2728C28.5525 14.2032 28.052 14.5909 27.9824 15.1388C27.9508 15.3873 28.0123 15.6238 28.1408 15.8173C28.2952 16.0499 28.5421 16.2144 28.8365 16.2553L28.8484 16.2569Z" fill="#DCB14C"/>
<path d="M8.48011 13.3197C8.27242 13.5062 7.99231 13.6039 7.69708 13.5698L7.58254 14.5632L8.53959 14.8174L9.14841 14.0635L8.48011 13.3197Z" fill="#DCB14C"/>
<path d="M6.81911 12.4503C6.74951 12.9982 7.13723 13.4988 7.68511 13.5684L7.69708 13.5698C7.99231 13.6039 8.27242 13.5062 8.48011 13.3197C8.65291 13.1644 8.77159 12.9509 8.80316 12.7024C8.87276 12.1545 8.48503 11.6539 7.93716 11.5843C7.38928 11.5147 6.88871 11.9024 6.81911 12.4503Z" fill="#DCB14C"/>
</svg>
