<svg width="32" height="24" viewBox="0 0 32 24" fill="none" xmlns="http://www.w3.org/2000/svg">
<g clip-path="url(#clip0_142_7544)">
<path d="M0 0H32V24H0" fill="#BD3D44"/>
<path d="M0 2.76514H32H0ZM0 6.45014H32H0ZM0 10.1501H32H0ZM0 13.8501H32H0ZM0 17.5501H32H0ZM0 21.2501H32H0Z" fill="black"/>
<path d="M0 1.83984V3.68984H32V1.83984H0ZM0 5.52484V7.37484H32V5.52484H0ZM0 9.22484V11.0748H32V9.22484H0ZM0 12.9248V14.7748H32V12.9248H0ZM0 16.6248V18.4748H32V16.6248H0ZM0 20.3248V22.1748H32V20.3248H0Z" fill="white"/>
<path d="M0 0H18.24V12.925H0" fill="#192F5D"/>
<path d="M16.7003 10.9002L17.1503 12.2502L16.0003 11.4002H17.4003L16.2503 12.2502L16.7003 10.9002ZM13.7003 10.9002L14.1503 12.2502L13.0003 11.4002H14.4003L13.2503 12.2502L13.7003 10.9002ZM10.6503 10.9002L11.1003 12.2502L9.95029 11.4002H11.3503L10.2003 12.2502L10.6503 10.9002ZM7.60029 10.9002L8.05029 12.2502L6.90029 11.4002H8.30029L7.15029 12.2502L7.60029 10.9002ZM4.55029 10.9002L5.00029 12.2502L3.85029 11.4002H5.25029L4.10029 12.2502L4.55029 10.9002ZM1.50029 10.9002L1.95029 12.2502L0.800293 11.4002H2.20029L1.05029 12.2502L1.50029 10.9002ZM15.2003 9.60017L15.6503 10.9502L14.5003 10.1002H15.9003L14.7503 10.9502L15.2003 9.60017ZM12.1503 9.60017L12.6003 10.9502L11.4503 10.1002H12.8503L11.7003 10.9502L12.1503 9.60017ZM9.15029 9.60017L9.60029 10.9502L8.45029 10.1002H9.85029L8.70029 10.9502L9.15029 9.60017ZM6.10029 9.60017L6.55029 10.9502L5.40029 10.1002H6.80029L5.65029 10.9502L6.10029 9.60017ZM3.05029 9.60017L3.50029 10.9502L2.35029 10.1002H3.75029L2.60029 10.9502L3.05029 9.60017ZM16.7003 8.30017L17.1503 9.65017L16.0003 8.80017H17.4003L16.2503 9.65017L16.7003 8.30017ZM13.7003 8.30017L14.1503 9.65017L13.0003 8.80017H14.4003L13.2503 9.65017L13.7003 8.30017ZM10.6503 8.30017L11.1003 9.65017L9.95029 8.80017H11.3503L10.2003 9.65017L10.6503 8.30017ZM7.60029 8.30017L8.05029 9.65017L6.90029 8.80017H8.30029L7.15029 9.65017L7.60029 8.30017ZM4.55029 8.30017L5.00029 9.65017L3.85029 8.80017H5.25029L4.10029 9.65017L4.55029 8.30017ZM1.50029 8.30017L1.95029 9.65017L0.800293 8.80017H2.20029L1.05029 9.65017L1.50029 8.30017ZM15.2003 7.05017L15.6503 8.40017L14.5003 7.55017H15.9003L14.7503 8.40017L15.2003 7.05017ZM12.1503 7.05017L12.6003 8.40017L11.4503 7.55017H12.8503L11.7003 8.40017L12.1503 7.05017ZM9.15029 7.05017L9.60029 8.40017L8.45029 7.55017H9.85029L8.70029 8.40017L9.15029 7.05017ZM6.10029 7.05017L6.55029 8.40017L5.40029 7.55017H6.80029L5.65029 8.40017L6.10029 7.05017ZM3.05029 7.05017L3.50029 8.40017L2.35029 7.55017H3.75029L2.60029 8.40017L3.05029 7.05017ZM16.7003 5.75017L17.1503 7.10017L16.0003 6.25017H17.4003L16.2503 7.10017L16.7003 5.75017ZM13.7003 5.75017L14.1503 7.10017L13.0003 6.25017H14.4003L13.2503 7.10017L13.7003 5.75017ZM10.6503 5.75017L11.1003 7.10017L9.95029 6.25017H11.3503L10.2003 7.10017L10.6503 5.75017ZM7.60029 5.75017L8.05029 7.10017L6.90029 6.25017H8.30029L7.15029 7.10017L7.60029 5.75017ZM4.55029 5.75017L5.00029 7.10017L3.85029 6.25017H5.25029L4.10029 7.10017L4.55029 5.75017ZM1.50029 5.75017L1.95029 7.10017L0.800293 6.25017H2.20029L1.05029 7.10017L1.50029 5.75017ZM15.2003 4.45017L15.6503 5.80017L14.5003 4.95017H15.9003L14.7503 5.80017L15.2003 4.45017ZM12.1503 4.45017L12.6003 5.80017L11.4503 4.95017H12.8503L11.7003 5.80017L12.1503 4.45017ZM9.15029 4.45017L9.60029 5.80017L8.45029 4.95017H9.85029L8.70029 5.80017L9.15029 4.45017ZM6.10029 4.45017L6.55029 5.80017L5.40029 4.95017H6.80029L5.65029 5.80017L6.10029 4.45017ZM3.05029 4.45017L3.50029 5.80017L2.35029 4.95017H3.75029L2.60029 5.80017L3.05029 4.45017ZM16.7003 3.15017L17.1503 4.50017L16.0003 3.65017H17.4003L16.2503 4.50017L16.7003 3.15017ZM13.7003 3.15017L14.1503 4.50017L13.0003 3.65017H14.4003L13.2503 4.50017L13.7003 3.15017ZM10.6503 3.15017L11.1003 4.50017L9.95029 3.65017H11.3503L10.2003 4.50017L10.6503 3.15017ZM7.60029 3.15017L8.05029 4.50017L6.90029 3.65017H8.30029L7.15029 4.50017L7.60029 3.15017ZM4.55029 3.15017L5.00029 4.50017L3.85029 3.65017H5.25029L4.10029 4.50017L4.55029 3.15017ZM1.50029 3.15017L1.95029 4.50017L0.800293 3.65017H2.20029L1.05029 4.50017L1.50029 3.15017ZM15.2003 1.85017L15.6503 3.20017L14.5003 2.35017H15.9003L14.7503 3.20017L15.2003 1.85017ZM12.1503 1.85017L12.6003 3.20017L11.4503 2.35017H12.8503L11.7003 3.20017L12.1503 1.85017ZM9.15029 1.85017L9.60029 3.20017L8.45029 2.35017H9.85029L8.70029 3.20017L9.15029 1.85017ZM6.10029 1.85017L6.55029 3.20017L5.40029 2.35017H6.80029L5.65029 3.20017L6.10029 1.85017ZM3.05029 1.85017L3.50029 3.20017L2.35029 2.35017H3.75029L2.60029 3.20017L3.05029 1.85017ZM16.7003 0.550171L17.1503 1.90017L16.0003 1.05017H17.4003L16.2503 1.90017L16.7003 0.550171ZM13.7003 0.550171L14.1503 1.90017L13.0003 1.05017H14.4003L13.2503 1.90017L13.7003 0.550171ZM10.6503 0.550171L11.1003 1.90017L9.95029 1.05017H11.3503L10.2003 1.90017L10.6503 0.550171ZM7.60029 0.550171L8.05029 1.90017L6.90029 1.05017H8.30029L7.15029 1.90017L7.60029 0.550171ZM4.55029 0.550171L5.00029 1.90017L3.85029 1.05017H5.25029L4.10029 1.90017L4.55029 0.550171ZM1.50029 0.550171L1.95029 1.90017L0.800293 1.05017H2.20029L1.05029 1.90017L1.50029 0.550171Z" fill="white"/>
</g>
<defs>
<clipPath id="clip0_142_7544">
<rect width="32" height="24" fill="white"/>
</clipPath>
</defs>
</svg>
