<svg width="16" height="16" viewBox="0 0 16 16" fill="none" xmlns="http://www.w3.org/2000/svg">
<path fill-rule="evenodd" clip-rule="evenodd" d="M3.44234 8.00003C3.44234 7.49195 3.52672 7.00483 3.67734 6.54795L1.04107 4.53479C0.52727 5.57799 0.237793 6.75346 0.237793 8.00003C0.237793 9.24555 0.526914 10.4203 1.04 11.4628L3.67485 9.44572C3.52566 8.99097 3.44234 8.50563 3.44234 8.00003Z" fill="#FBBC05"/>
<path fill-rule="evenodd" clip-rule="evenodd" d="M8.07108 3.37773C9.17486 3.37773 10.1718 3.76885 10.9552 4.40885L13.234 2.13329C11.8453 0.924401 10.065 0.177734 8.07108 0.177734C4.97549 0.177734 2.315 1.94805 1.04102 4.53471L3.67729 6.54787C4.28473 4.70396 6.01625 3.37773 8.07108 3.37773Z" fill="#EB4335"/>
<path fill-rule="evenodd" clip-rule="evenodd" d="M8.07108 12.6222C6.01625 12.6222 4.28473 11.2959 3.67729 9.45203L1.04102 11.4648C2.315 14.0518 4.97548 15.8222 8.07108 15.8222C9.9817 15.8222 11.8058 15.1438 13.1748 13.8726L10.6725 11.9381C9.96639 12.3829 9.0773 12.6222 8.07108 12.6222Z" fill="#34A853"/>
<path fill-rule="evenodd" clip-rule="evenodd" d="M15.5486 7.99998C15.5486 7.53776 15.4773 7.03998 15.3705 6.57776L8.07129 6.57776V9.59998H12.2728C12.0627 10.6304 11.4909 11.4226 10.6727 11.9381L13.1751 13.8727C14.6132 12.5379 15.5486 10.5497 15.5486 7.99998Z" fill="#4285F4"/>
</svg>
